<?xml version="1.0" standalone="no"?>
<!DOCTYPE svg PUBLIC "-//W3C//DTD SVG 1.1//EN" "http://www.w3.org/Graphics/SVG/1.1/DTD/svg11.dtd" >
<svg xmlns="http://www.w3.org/2000/svg">
<metadata></metadata>
<defs>
<font id="thesansregular_caps" horiz-adv-x="1026" >
<font-face units-per-em="2048" ascent="1536" descent="-512" />
<missing-glyph horiz-adv-x="446" />
<glyph horiz-adv-x="0" />
<glyph horiz-adv-x="682" />
<glyph unicode="&#x9;" horiz-adv-x="446" />
<glyph unicode="&#xd;" horiz-adv-x="446" />
<glyph unicode=" "  horiz-adv-x="446" />
<glyph unicode="&#x09;" horiz-adv-x="446" />
<glyph unicode="&#xa0;" horiz-adv-x="446" />
<glyph unicode="!" horiz-adv-x="526" d="M145 63q0 44 33.5 76.5t85.5 32.5q50 0 84.5 -32t34.5 -77q0 -46 -35 -78t-84 -32q-52 0 -85.5 30.5t-33.5 79.5zM160 1126h209l-25 -868h-158z" />
<glyph unicode="&#x22;" horiz-adv-x="749" d="M106 1513h195l-31 -471h-135zM449 1513h194l-29 -471h-137z" />
<glyph unicode="#" horiz-adv-x="1396" d="M59 391v131h312l41 381h-295v131h309l37 348h155l-36 -348h299l37 348h157l-37 -348h295v-131h-307l-41 -381h293v-131h-307l-41 -391h-158l41 391h-299l-41 -391h-158l41 391h-297zM528 522h299l41 381h-299z" />
<glyph unicode="$" horiz-adv-x="1050" d="M84 1018q0 151 110 255.5t302 121.5l12 227h139l-10 -223q133 -4 250 -43l-23 -156q-112 46 -237 49l-21 -463q196 -67 289.5 -156.5t93.5 -230.5q0 -169 -118 -278t-308 -131l-14 -299h-139l14 293q-163 3 -299 49l22 182q124 -59 289 -65l19 481q-199 65 -285 151 t-86 236zM276 1036q0 -75 44.5 -123t148.5 -86l16 416q-94 -9 -151.5 -63t-57.5 -144zM573 150q99 13 158.5 68t59.5 149q0 82 -44.5 133t-152.5 94z" />
<glyph unicode="%" horiz-adv-x="1636" d="M88 1061q0 82 27.5 150t74 111.5t106 67t124.5 23.5q143 0 230 -78t87 -245q0 -162 -99.5 -259.5t-238.5 -97.5q-141 0 -226 81.5t-85 246.5zM250 47l975 1383l131 -95l-975 -1382zM252 1075q0 -209 156 -209q74 0 119.5 57t45.5 154q0 105 -39.5 154t-121.5 49 q-69 0 -114.5 -56.5t-45.5 -148.5zM877 297q0 109 47.5 191t121.5 121.5t162 39.5q143 0 230.5 -78t87.5 -245q0 -162 -99.5 -259.5t-238.5 -97.5q-141 0 -226 81.5t-85 246.5zM1040 311q0 -209 156 -209q74 0 120 57t46 154q0 105 -40 154t-122 49q-69 0 -114.5 -56.5 t-45.5 -148.5z" />
<glyph unicode="&#x26;" horiz-adv-x="1361" d="M90 293q0 72 32.5 136t80.5 110.5t121 97.5q-146 159 -146 262q0 119 88 195.5t234 76.5q138 0 217.5 -64.5t79.5 -166.5q0 -49 -16.5 -93.5t-49 -83t-65 -67.5t-78.5 -63q155 -152 344 -297q59 77 86 175.5t18 205.5h187q6 -129 -35.5 -252t-120.5 -221 q115 -84 205 -146l-109 -139q-95 64 -231 164q-199 -148 -461 -148q-184 0 -282.5 88.5t-98.5 229.5zM276 313q0 -77 62 -131.5t162 -54.5q168 0 293 98q-238 185 -361 314q-71 -50 -113.5 -104t-42.5 -122zM360 913q0 -65 117 -188q139 98 139 199q0 48 -32 78t-95 30 q-57 0 -93 -31.5t-36 -87.5z" />
<glyph unicode="'" horiz-adv-x="407" d="M106 1513h195l-31 -471h-135z" />
<glyph unicode="(" horiz-adv-x="620" d="M143 582q0 528 283 987h170q-133 -218 -202.5 -467.5t-69.5 -509.5q0 -543 276 -987h-176q-155 249 -218 488.5t-63 488.5z" />
<glyph unicode=")" horiz-adv-x="620" d="M33 -395q274 442 274 985q0 260 -69.5 510t-204.5 469h174q280 -454 280 -985q0 -250 -62.5 -490.5t-217.5 -488.5h-174z" />
<glyph unicode="*" horiz-adv-x="765" d="M78 1096l211 92l-211 94l69 119l185 -135l-23 229h137l-24 -229l186 135l68 -119l-211 -92l211 -94l-70 -119l-184 135l22 -229h-137l23 229l-185 -135z" />
<glyph unicode="+" horiz-adv-x="1153" d="M55 451v153h432v449h175v-449h436v-153h-436v-451h-175v451h-432z" />
<glyph unicode="," horiz-adv-x="466" d="M53 -246q174 187 88 295q-26 39 -24.5 79.5t33.5 71.5t79 31q73 0 107 -66q45 -87 -8 -217q-54 -132 -197 -263z" />
<glyph unicode="-" horiz-adv-x="675" d="M96 440v148h484v-148h-484z" />
<glyph unicode="." horiz-adv-x="466" d="M106 109q0 53 37 90t90 37t90 -37t37 -90t-37 -90t-90 -37t-90 37t-37 90z" />
<glyph unicode="/" horiz-adv-x="858" d="M82 0l528 1382h178l-526 -1382h-180z" />
<glyph unicode="0" horiz-adv-x="1196" d="M98 692q0 175 40 312t111 222t163 129t200 44q486 0 486 -692q0 -152 -30 -276t-79.5 -206t-116.5 -138t-138.5 -80.5t-147.5 -24.5q-111 0 -198.5 39t-153.5 121.5t-101 221.5t-35 328zM295 709q0 -282 72 -426t227 -144q134 0 220.5 138t86.5 417q0 291 -73.5 422 t-225.5 131q-139 0 -223 -131.5t-84 -406.5z" />
<glyph unicode="1" horiz-adv-x="720" d="M53 1264l338 118h144v-1382h-191v1194l-260 -102z" />
<glyph unicode="2" d="M123 0v152l260 299q168 195 230.5 315t62.5 233q0 105 -62 171.5t-180 66.5q-136 0 -270 -84l-27 168q160 80 346 80q187 0 290.5 -104.5t103.5 -268.5q0 -141 -75.5 -285t-260.5 -360l-183 -213v-2q164 8 570 8v-176h-805z" />
<glyph unicode="3" horiz-adv-x="1024" d="M133 4l17 166q83 -27 192 -27q142 0 228.5 75t86.5 188q0 128 -115 194.5t-349 38.5v149q436 -11 436 256q0 95 -59.5 148t-168.5 53q-124 0 -239 -59l-17 155q139 60 297 60q186 0 283.5 -90.5t97.5 -231.5q0 -117 -62 -203.5t-169 -125.5l-2 -5q119 -20 192.5 -111 t73.5 -218q0 -189 -145.5 -310.5t-372.5 -121.5q-129 0 -205 20z" />
<glyph unicode="4" horiz-adv-x="1114" d="M35 481l569 901h238v-876h231v-170h-231v-336h-183v336h-604zM219 498q121 6 443 6v698h-3z" />
<glyph unicode="5" horiz-adv-x="946" d="M119 -6l18 170q68 -19 139 -19q168 0 265.5 80t97.5 209q0 127 -95 194.5t-280 67.5q-40 0 -102 -4v690h639v-176h-465v-354q237 0 367.5 -105.5t130.5 -289.5q0 -212 -160 -342.5t-412 -130.5q-71 0 -143 10z" />
<glyph unicode="6" horiz-adv-x="1179" d="M135 551q0 176 35.5 318t98.5 240t151.5 164t192 96t221.5 30q81 0 122 -6v-164q-54 10 -135 10q-393 0 -479 -440q-9 -50 -18 -86l2 -4q109 163 333 163q190 0 307 -114t117 -287q0 -221 -135 -356t-358 -135q-213 0 -334 148t-121 423zM340 436q0 -128 72 -214.5 t190 -86.5q136 0 212.5 84t76.5 221q0 125 -72 202t-201 77q-125 0 -201.5 -80.5t-76.5 -202.5z" />
<glyph unicode="7" horiz-adv-x="931" d="M51 1202v180h821v-159q-122 -264 -233.5 -599.5t-173.5 -623.5h-209q73 306 191.5 646.5t218.5 559.5q-63 -4 -615 -4z" />
<glyph unicode="8" horiz-adv-x="1128" d="M113 326q0 50 15.5 96.5t40.5 83.5t63.5 73.5t75.5 64t85 58.5q-129 73 -193.5 155t-64.5 187q0 164 122.5 264.5t322.5 100.5q182 0 290.5 -92.5t108.5 -235.5q0 -58 -20.5 -109.5t-61.5 -96t-82.5 -77.5t-101.5 -73q141 -76 218 -164.5t77 -206.5q0 -174 -133 -274 t-334 -100q-204 0 -316 95.5t-112 250.5zM307 344q0 -96 68.5 -152.5t187.5 -56.5q108 0 179 53t71 148q0 49 -21 91t-64 78.5t-83 61.5t-104 58q-54 -33 -90.5 -59.5t-72 -61.5t-53.5 -75t-18 -85zM324 1065q0 -78 58.5 -137t180.5 -125q121 75 173 134t52 128 q0 84 -59 139.5t-168 55.5t-173 -54t-64 -141z" />
<glyph unicode="9" horiz-adv-x="1191" d="M113 924q0 209 132 344t347 135q213 0 339 -142.5t126 -437.5q0 -178 -35 -320.5t-97.5 -239t-151.5 -160.5t-192.5 -92.5t-224.5 -28.5q-98 0 -172 12v172q80 -23 193 -23q376 0 450 400q21 101 21 102v4q-45 -65 -131.5 -108t-190.5 -43q-190 0 -301.5 115.5 t-111.5 310.5zM301 954q0 -137 71.5 -213.5t192.5 -76.5q125 0 203 81t78 185q0 146 -74 231.5t-197 85.5q-119 0 -196.5 -84t-77.5 -209z" />
<glyph unicode=":" horiz-adv-x="526" d="M135 109q0 53 37.5 90t91.5 37q52 0 89.5 -37t37.5 -90t-37.5 -90t-89.5 -37q-54 0 -91.5 37t-37.5 90zM135 707q0 54 37.5 90.5t91.5 36.5q53 0 90 -36.5t37 -90.5q0 -53 -37.5 -90t-89.5 -37q-54 0 -91.5 37t-37.5 90z" />
<glyph unicode=";" horiz-adv-x="526" d="M84 -246q174 187 88 295q-26 39 -24.5 79.5t34 71.5t80.5 31q72 0 107 -66q45 -87 -8 -217q-54 -133 -197 -263zM135 707q0 54 37.5 90.5t91.5 36.5q53 0 90 -36.5t37 -90.5q0 -53 -37.5 -90t-89.5 -37q-54 0 -91.5 37t-37.5 90z" />
<glyph unicode="&#x3c;" d="M115 512l647 590l119 -119l-529 -469l529 -457l-117 -125z" />
<glyph unicode="=" horiz-adv-x="1200" d="M145 268v152h908v-152h-908zM145 618v152h908v-152h-908z" />
<glyph unicode="&#x3e;" d="M143 53l529 469l-529 457l117 125l649 -580l-647 -590z" />
<glyph unicode="?" horiz-adv-x="745" d="M115 973l22 164q242 -6 380 -96.5t138 -225.5q0 -53 -19.5 -98.5t-49 -76.5t-64 -64t-64.5 -60.5t-51 -67t-24 -83t18 -107.5h-182q-31 77 -26 140t31 105t64 80t74 66.5t61.5 65t25.5 73.5q0 81 -99 133t-235 52zM199 63q0 44 33 76.5t85 32.5t85.5 -32t33.5 -77 q0 -46 -35 -78t-84 -32q-50 0 -84 30.5t-34 79.5z" />
<glyph unicode="@" horiz-adv-x="1732" d="M307 332l242 669h149l242 -669h-141l-49 139h-265l-47 -139h-131zM383 154l98 100q114 -113 265 -153t302 0t265 153l98 -100q-139 -140 -326.5 -190t-375 0t-326.5 190zM383 1190q104 106 240 161t274 55t274 -55t240 -161l-98 -98q-114 113 -265 153t-302 0t-265 -153z M518 567h199l-72 197q-23 70 -27 96q-9 -37 -28 -96zM971 891v110h495v-110h-184v-559h-129v559h-182z" />
<glyph unicode="A" horiz-adv-x="1259" d="M20 0l504 1382h209l508 -1382h-211l-115 324h-587l-115 -324h-193zM377 473h487l-180 494q-35 92 -61 207h-5q-28 -117 -63 -209z" />
<glyph unicode="B" horiz-adv-x="1167" d="M174 0v1382q350 7 408 7q223 0 335.5 -86.5t112.5 -245.5q0 -109 -68 -198t-180 -124v-4q93 -16 157.5 -65t93 -113.5t28.5 -138.5q0 -55 -13.5 -108t-51 -111t-95 -101.5t-154.5 -71.5t-221 -28q-47 0 -175.5 2.5t-176.5 3.5zM362 158q64 -11 177 -11q162 0 243.5 71 t81.5 190q0 235 -372 235q-97 0 -130 -2v-483zM362 786q39 -2 125 -2q169 0 259 63.5t90 178.5q0 101 -65 156t-222 55q-77 0 -187 -4v-447z" />
<glyph unicode="C" horiz-adv-x="1193" d="M94 655q0 161 40.5 294t121.5 233.5t212 156.5t302 56q152 0 313 -41l-20 -172q-157 49 -313 49q-92 0 -167.5 -27.5t-127.5 -77t-87.5 -118t-52 -149.5t-16.5 -173q0 -260 116 -397t353 -137q75 0 161.5 19t147.5 50l21 -168q-167 -69 -375 -69q-163 0 -285 49.5 t-196.5 140.5t-111 211.5t-36.5 269.5z" />
<glyph unicode="D" horiz-adv-x="1388" d="M174 0v1380q8 0 165.5 4.5t248.5 4.5q341 0 523.5 -167t182.5 -515q0 -174 -56.5 -310.5t-159 -224.5t-243 -134t-311.5 -46q-74 0 -189 4t-161 4zM362 164q76 -12 183 -12q254 0 402.5 135.5t148.5 406.5q0 541 -527 541q-54 0 -207 -6v-1065z" />
<glyph unicode="E" d="M174 0v1382h711v-155h-523v-439h498v-151h-498v-479h523v-158h-711z" />
<glyph unicode="F" horiz-adv-x="960" d="M174 0v1382h705v-155h-517v-449h490v-151h-490v-627h-188z" />
<glyph unicode="G" horiz-adv-x="1396" d="M88 664q0 212 89 378.5t260 262.5t399 96q189 0 378 -60l-28 -176q-181 74 -369 74q-108 0 -203 -35t-168 -102.5t-115 -174.5t-42 -241q0 -255 138 -398t374 -143q124 0 243 37v523h187v-644q-212 -79 -457 -79q-316 0 -501 181.5t-185 500.5z" />
<glyph unicode="H" horiz-adv-x="1429" d="M174 0v1382h188v-585h705v585h188v-1382h-188v637h-705v-637h-188z" />
<glyph unicode="I" horiz-adv-x="536" d="M174 0v1382h188v-1382h-188z" />
<glyph unicode="J" horiz-adv-x="673" d="M2 2v164q71 -23 141 -23q87 0 128.5 49.5t41.5 180.5v1009h189v-1022q0 -374 -346 -374q-85 0 -154 16z" />
<glyph unicode="K" horiz-adv-x="1196" d="M174 0v1382h188v-651l549 651h232l-584 -667l606 -715h-256l-547 684v-684h-188z" />
<glyph unicode="L" horiz-adv-x="872" d="M174 0v1382h188v-1220h496v-162h-684z" />
<glyph unicode="M" horiz-adv-x="1820" d="M98 0l203 1382h231l291 -870q55 -158 78 -274h4q23 111 74 262l301 882h233l209 -1382h-198l-117 799q-30 205 -43 340h-4q-28 -130 -68 -250l-297 -889h-200l-281 829q-70 207 -88 310h-2q-5 -74 -39 -359l-94 -780h-193z" />
<glyph unicode="N" horiz-adv-x="1447" d="M174 0v1382h248l514 -829q75 -121 170 -303q-14 297 -14 739v393h182v-1382h-246l-526 856q-79 125 -158 287q14 -257 14 -699v-444h-184z" />
<glyph unicode="O" horiz-adv-x="1443" d="M86 676q0 169 51.5 307.5t141 229.5t208.5 140.5t254 49.5q285 0 451 -180.5t166 -515.5q0 -169 -52 -307.5t-141.5 -229.5t-208.5 -140.5t-254 -49.5q-304 0 -460 186t-156 510zM287 702q0 -256 109.5 -405.5t322.5 -149.5q86 0 163.5 34.5t139.5 99.5t98.5 169.5 t36.5 233.5q0 265 -114 409t-322 144q-87 0 -164.5 -35.5t-138 -101t-96 -168.5t-35.5 -230z" />
<glyph unicode="P" horiz-adv-x="1073" d="M174 0v1382q229 9 340 9q235 0 364.5 -109.5t129.5 -296.5q0 -202 -150 -331.5t-385 -129.5q-74 0 -111 4v-528h-188zM362 688q47 -8 113 -8q154 2 245 79.5t91 207.5q0 268 -317 268q-93 0 -132 -2v-545z" />
<glyph unicode="Q" horiz-adv-x="1441" d="M86 676q0 169 51.5 307.5t141 229.5t208.5 140.5t254 49.5q285 0 451 -180.5t166 -515.5q0 -169 -52 -307.5t-141.5 -229.5t-208.5 -140.5t-254 -49.5q-304 0 -460 186t-156 510zM287 702q0 -256 109.5 -405.5t322.5 -149.5q86 0 163.5 34.5t139.5 99.5t98.5 169.5 t36.5 233.5q0 265 -114 409t-322 144q-87 0 -164.5 -35.5t-138 -101t-96 -168.5t-35.5 -230zM655 -147q58 7 114 7q52 0 103 -6q107 -13 179 -34.5t177 -33.5q47 -5 94 -5q59 0 118 8v-168q-72 -10 -141 -10q-25 0 -49 1q-92 5 -156 21.5t-139.5 32.5t-140.5 24q-27 3 -60 3 q-45 0 -99 -6v166z" />
<glyph unicode="R" horiz-adv-x="1132" d="M174 0v1382q141 9 346 9q105 0 188.5 -19.5t147.5 -61.5t98.5 -112.5t34.5 -167.5q0 -172 -117 -274.5t-305 -114.5q8 -9 121 -147l391 -494h-239l-469 621h-9v-621h-188zM362 762q40 -4 117 -4q147 0 230.5 68t83.5 180q0 122 -76 176.5t-230 54.5q-51 0 -125 -4v-471z " />
<glyph unicode="S" horiz-adv-x="1030" d="M104 1010q0 174 131.5 282.5t360.5 108.5q122 0 250 -25l-10 -168q-129 37 -250 37q-138 0 -212.5 -58t-74.5 -157q0 -48 21.5 -86t57.5 -64t83 -48t99 -42.5t103.5 -42.5t98.5 -52.5t83 -68t57.5 -93.5t21.5 -125q0 -189 -139 -307.5t-377 -118.5q-151 0 -279 32l10 181 q143 -52 285 -52q134 0 218.5 58.5t84.5 179.5q0 50 -21.5 89t-57.5 65.5t-82.5 49t-98 42.5t-103.5 42t-98.5 52t-82.5 68t-57.5 94.5t-21.5 126.5z" />
<glyph unicode="T" horiz-adv-x="1056" d="M37 1225v157h985v-157h-399v-1225h-189v1225h-397z" />
<glyph unicode="U" horiz-adv-x="1419" d="M174 465v917h188v-903q0 -77 15 -135t51.5 -107.5t106 -75.5t170.5 -26q185 0 269.5 87t84.5 292v868h184v-854q0 -271 -140 -409.5t-411 -138.5q-125 0 -219 27.5t-150 71.5t-90.5 109.5t-46.5 131t-12 145.5z" />
<glyph unicode="V" horiz-adv-x="1265" d="M23 1382h208l310 -888q53 -158 90 -287h2q45 162 96 301l318 874h192l-508 -1382h-211z" />
<glyph unicode="W" horiz-adv-x="1949" d="M70 1382h200l234 -901q32 -117 55 -266h2q22 138 55 256l256 911h213l265 -919q36 -129 55 -244h2q20 113 47 225l240 938h186l-364 -1382h-232l-264 930q-31 106 -51 239h-2q-15 -118 -49 -237l-259 -932h-225z" />
<glyph unicode="X" horiz-adv-x="1226" d="M35 0l454 713l-426 669h218l327 -528l322 528h213l-420 -663l469 -719h-236l-352 571l-350 -571h-219z" />
<glyph unicode="Y" horiz-adv-x="1099" d="M18 1382h207l219 -467q61 -128 105 -239h2q33 84 119 264l213 442h196l-440 -884v-498h-188v498z" />
<glyph unicode="Z" horiz-adv-x="1103" d="M94 0v139l580 914q92 139 112 166q-165 -5 -301 -5h-370v168h891v-143l-611 -950q-48 -74 -82 -121q43 4 344 4h357v-172h-920z" />
<glyph unicode="[" horiz-adv-x="659" d="M176 -408v1987h406v-141h-234v-1700h234v-146h-406z" />
<glyph unicode="\" horiz-adv-x="837" d="M66 1382h170l534 -1382h-174z" />
<glyph unicode="]" horiz-adv-x="659" d="M78 -262h233v1700h-233v141h405v-1987h-405v146z" />
<glyph unicode="^" horiz-adv-x="1095" d="M127 770l338 612h147l355 -610l-138 -70l-294 543l-283 -543z" />
<glyph unicode="_" horiz-adv-x="1024" d="M0 -371h1024v-145h-1024v145z" />
<glyph unicode="`" horiz-adv-x="755" d="M195 1378l94 129l291 -225l-76 -106z" />
<glyph unicode="a" horiz-adv-x="1126" d="M45 0l414 1065h213l409 -1065h-207l-83 223h-474l-84 -223h-188zM367 360h376l-129 334q-19 50 -59 176h-2q-18 -79 -55 -174z" />
<glyph unicode="b" horiz-adv-x="1087" d="M195 0v1065q39 0 163 2t201 2q190 0 279.5 -68t89.5 -190q0 -83 -48.5 -147.5t-136.5 -96.5v-2q100 -23 152.5 -87.5t52.5 -153.5q0 -44 -11 -86t-41.5 -87t-78 -78.5t-126.5 -55t-181 -21.5q-61 0 -315 4zM381 141q62 -8 133 -8q120 0 180 50t60 136q0 166 -275 166 q-71 0 -98 -2v-342zM381 612q39 -2 90 -2q124 0 193 44.5t69 131.5q0 148 -213 148q-96 0 -139 -2v-320z" />
<glyph unicode="c" horiz-adv-x="1003" d="M98 510q0 117 34 218t101 180.5t177.5 125t253.5 45.5q126 0 237 -30l-18 -166q-125 39 -238 39q-167 0 -257.5 -110t-90.5 -284q0 -184 93 -281t267 -97q129 0 238 51l16 -164q-133 -51 -293 -51q-253 0 -386.5 138t-133.5 386z" />
<glyph unicode="d" horiz-adv-x="1218" d="M195 0v1065q41 0 170.5 2t193.5 2q273 0 422 -127t149 -395q0 -139 -47 -246t-132 -173.5t-198 -100t-249 -33.5q-51 0 -309 6zM381 156q50 -6 143 -6q189 0 299.5 97t110.5 290q0 383 -402 383q-34 0 -151 -5v-759z" />
<glyph unicode="e" horiz-adv-x="935" d="M195 0v1065h602v-145h-416v-302h395v-141h-395v-327h416v-150h-602z" />
<glyph unicode="f" horiz-adv-x="897" d="M195 0v1065h596v-145h-410v-314h387v-143h-387v-463h-186z" />
<glyph unicode="g" horiz-adv-x="1200" d="M90 512q0 160 69 288t204 203.5t315 75.5q168 0 323 -47l-32 -164q-147 58 -293 58q-167 0 -278 -104t-111 -292q0 -182 101.5 -282.5t270.5 -100.5q100 0 177 25v377h186v-496q-182 -69 -385 -69q-246 0 -396.5 138t-150.5 390z" />
<glyph unicode="h" horiz-adv-x="1302" d="M195 0v1065h186v-436h541v436h186v-1065h-186v469h-541v-469h-186z" />
<glyph unicode="i" horiz-adv-x="575" d="M195 0v1065h186v-1065h-186z" />
<glyph unicode="j" horiz-adv-x="665" d="M53 2v164q59 -19 113 -19q67 0 96 40.5t29 140.5v737h186v-746q0 -168 -70 -250.5t-233 -82.5q-62 0 -121 16z" />
<glyph unicode="k" horiz-adv-x="1110" d="M195 0v1065h186v-490l426 490h233l-460 -512l481 -553h-250l-430 514v-514h-186z" />
<glyph unicode="l" horiz-adv-x="808" d="M195 0v1065h186v-905h381v-160h-567z" />
<glyph unicode="m" horiz-adv-x="1648" d="M147 0l162 1065h232l219 -645q44 -133 57 -203h2q16 85 55 197l226 651h243l156 -1065h-196l-84 592q-17 134 -29 256h-2q-21 -95 -55 -191l-224 -657h-198l-205 612q-53 149 -68 234h-2q-4 -83 -26 -262l-76 -584h-187z" />
<glyph unicode="n" horiz-adv-x="1331" d="M195 0v1065h245l396 -614q70 -105 125 -213h2q-9 105 -9 342l-2 485h183v-1065h-248l-402 625q-64 98 -116 209h-2q8 -136 8 -254v-580h-180z" />
<glyph unicode="o" horiz-adv-x="1239" d="M92 522q0 128 43.5 235t118 177t172 108.5t207.5 38.5q239 0 376.5 -139t137.5 -399q0 -173 -74.5 -301.5t-197.5 -193t-275 -64.5q-169 0 -284.5 69.5t-169.5 188.5t-54 280zM291 539q0 -84 18 -153.5t55 -124.5t100 -85.5t148 -30.5q146 0 240 99t94 282 q0 191 -87.5 293.5t-240.5 102.5q-138 0 -232.5 -101.5t-94.5 -281.5z" />
<glyph unicode="p" horiz-adv-x="1005" d="M195 0v1065q258 6 325 6q193 0 300.5 -89t107.5 -245q0 -171 -123 -273t-326 -102q-47 0 -98 7v-369h-186zM381 520q54 -8 100 -8q120 0 185 54t65 157q0 89 -59.5 143t-171.5 54q-88 0 -119 -2v-398z" />
<glyph unicode="q" horiz-adv-x="1239" d="M92 522q0 128 43.5 235t118 177t172 108.5t207.5 38.5q239 0 376.5 -139t137.5 -399q0 -173 -74.5 -301.5t-197.5 -193t-275 -64.5q-169 0 -284.5 69.5t-169.5 188.5t-54 280zM291 539q0 -84 18 -153.5t55 -124.5t100 -85.5t148 -30.5q146 0 240 99t94 282 q0 191 -87.5 293.5t-240.5 102.5q-138 0 -232.5 -101.5t-94.5 -281.5zM571 -137q48 5 94 5q59 0 117 -8q102 -14 169.5 -35t168.5 -33q48 -6 97 -6q55 0 110 7v-164q-65 -9 -127 -9q-26 0 -52 2q-88 5 -150 21t-135 32t-137 25q-31 4 -69 4q-39 0 -86 -5v164z" />
<glyph unicode="r" horiz-adv-x="1044" d="M195 0v1065q105 6 317 6q188 0 289.5 -73.5t101.5 -213.5q0 -131 -88 -211t-231 -94q7 -7 92 -112l289 -367h-234l-342 457h-8v-457h-186zM381 588q66 -4 113 -4q97 0 155 49.5t58 132.5q0 80 -58 121t-162 41q-59 0 -106 -6v-334z" />
<glyph unicode="s" horiz-adv-x="927" d="M111 760q0 148 113 234.5t313 86.5q116 0 208 -18l-8 -162q-98 31 -211 31q-111 0 -165 -40t-54 -112q0 -42 28 -72t72 -49t98 -36t108 -39.5t98 -52.5t72 -81t28 -120q0 -159 -125 -253.5t-321 -94.5q-120 0 -230 26l8 174q93 -43 244 -43q95 0 160 42t65 128 q0 42 -27.5 73t-72 49.5t-97.5 35.5t-106.5 39t-98 51.5t-72 81.5t-27.5 121z" />
<glyph unicode="t" horiz-adv-x="882" d="M39 909v156h803v-156h-310v-909h-186v909h-307z" />
<glyph unicode="u" horiz-adv-x="1298" d="M188 369v696h187v-664q0 -264 276 -264q275 0 275 283v645h184v-659q0 -88 -27.5 -162.5t-82.5 -133.5t-148 -92.5t-215 -33.5q-220 0 -334.5 99.5t-114.5 285.5z" />
<glyph unicode="v" horiz-adv-x="1085" d="M20 1065h207l226 -594q51 -128 90 -272h2q68 213 90 266l235 600h195l-418 -1065h-213z" />
<glyph unicode="w" horiz-adv-x="1785" d="M49 1065h211l197 -637q36 -118 57 -217h4q22 109 60 217l213 637h210l216 -633q34 -103 63 -223h2q24 94 66 225l192 631h199l-342 -1065h-234l-207 612q-16 47 -71 242h-2q-30 -122 -72 -248l-201 -606h-223z" />
<glyph unicode="x" horiz-adv-x="1183" d="M68 0l405 530l-391 535h237l277 -395l281 395h217l-387 -526l407 -539h-248l-284 406l-287 -406h-227z" />
<glyph unicode="y" horiz-adv-x="970" d="M18 1065h207l172 -334q44 -82 88 -192h2q36 83 101 206l170 320h194l-377 -698v-367h-186v365z" />
<glyph unicode="z" horiz-adv-x="1013" d="M117 0v139l463 647q8 11 37.5 52.5t46.5 64.5q-102 -4 -230 -4h-301v166h754v-145l-481 -670q-40 -53 -62 -82q31 4 250 4h301v-172h-778z" />
<glyph unicode="{" horiz-adv-x="698" d="M59 575v146q123 6 170 52t47 169v240q0 190 74 293.5t246 103.5h37v-141q-106 0 -146.5 -53t-40.5 -197v-238q0 -264 -190 -299v-4q92 -14 141 -91t49 -212v-356q0 -144 40.5 -197t146.5 -53v-146h-37q-171 0 -245.5 98t-74.5 302v358q0 120 -48.5 169.5t-168.5 55.5z " />
<glyph unicode="|" horiz-adv-x="571" d="M211 -512v2048h145v-2048h-145z" />
<glyph unicode="}" horiz-adv-x="692" d="M78 -262q106 0 146 53t40 197v356q0 134 49 211.5t142 91.5v4q-191 24 -191 291v246q0 144 -40 197t-146 53v141h37q172 0 245.5 -103.5t73.5 -293.5v-232q0 -128 46.5 -175.5t170.5 -53.5v-146q-120 -6 -168.5 -55.5t-48.5 -169.5v-358q0 -205 -74 -302.5t-245 -97.5 h-37v146z" />
<glyph unicode="~" horiz-adv-x="1185" d="M100 592q129 113 275 113q68 0 130.5 -20.5t102 -45.5t95.5 -45.5t112 -20.5q97 0 207 99l61 -131q-124 -127 -280 -127q-67 0 -132 20.5t-107.5 45t-97.5 45t-106 20.5q-99 0 -200 -88z" />
<glyph unicode="&#xa1;" horiz-adv-x="526" d="M145 1014q0 46 34 78t85 32q50 0 84.5 -30.5t34.5 -79.5q0 -44 -34 -76.5t-85 -32.5q-52 0 -85.5 32t-33.5 77zM160 -49l22 868h160l25 -868h-207z" />
<glyph unicode="&#xa2;" horiz-adv-x="1064" d="M92 702q0 225 133.5 370t349.5 165v154h140v-154q56 -2 119 -13t98 -28l-12 -156q-100 42 -205 45v-741q106 6 209 55l14 -159q-109 -43 -223 -54v-198h-140v194q-224 6 -353.5 136t-129.5 384zM285 723q0 -346 290 -377v735q-123 -14 -206.5 -109.5t-83.5 -248.5z" />
<glyph unicode="&#xa3;" horiz-adv-x="1011" d="M119 0v139q124 90 180.5 173.5t56.5 199.5q0 30 -12 168h-223v141h207q-2 21 -9 80t-10.5 100t-3.5 72q0 196 92 285.5t275 89.5q84 0 166 -16l-11 -152q-82 18 -149 18q-93 0 -141 -56t-48 -157q0 -29 23 -264h293v-141h-279q11 -101 11 -143q0 -121 -46 -207.5 t-147 -175.5q86 8 166 8h375v-162h-766z" />
<glyph unicode="&#xa4;" horiz-adv-x="1103" d="M96 61l150 185q-80 96 -80 266q0 157 90 256l-158 199l133 98l154 -207q73 37 166 37q98 0 164 -35l153 205l131 -100l-157 -199q67 -87 67 -242q0 -147 -82 -248l172 -213l-135 -102l-164 221q-75 -47 -180 -47q-78 0 -139 25l-148 -197zM330 518q0 -112 50.5 -179 t160.5 -67q84 0 143 67.5t59 182.5q0 110 -50.5 173t-160.5 63q-87 0 -144.5 -65t-57.5 -175z" />
<glyph unicode="&#xa5;" horiz-adv-x="1210" d="M78 1382h205l219 -454q58 -122 104 -248h2q43 118 121 270l213 432h199l-398 -786h291v-125h-336v-143h336v-125h-336v-203h-186v203h-338v125h338v143h-338v125h293z" />
<glyph unicode="&#xa6;" horiz-adv-x="571" d="M211 262h145v-774h-145v774zM211 782v754h145v-754h-145z" />
<glyph unicode="&#xa7;" horiz-adv-x="1069" d="M104 903q0 122 56 261t145 235q142 155 344 155q74 0 160 -12l-8 -153q-73 20 -164 20q-102 0 -148.5 -44t-46.5 -132q0 -47 28 -97t73.5 -96.5t100 -98t109 -112t100 -127t73.5 -154t28 -183.5q0 -120 -55.5 -258.5t-144.5 -233.5q-73 -76 -156.5 -115t-200.5 -39 q-78 0 -151 13l6 162q70 -25 170 -25q96 0 144 42t48 116q0 50 -28 102.5t-73 102t-99.5 103t-109 115t-99.5 127.5t-73 150.5t-28 175.5zM272 948q0 -77 23.5 -147t62 -125t85 -106t96 -101t92 -99.5t74.5 -111t43 -127.5q38 104 38 199q0 79 -24 150.5t-63.5 127 t-87.5 107.5t-98 101t-93 97.5t-74.5 107t-40.5 120.5q-33 -101 -33 -193z" />
<glyph unicode="&#xa8;" horiz-adv-x="1118" d="M236 1339q0 46 32 78.5t78 32.5t77.5 -32.5t31.5 -78.5t-31.5 -77t-77.5 -31t-78 31t-32 77zM629 1339q0 46 32 78.5t78 32.5t77.5 -32.5t31.5 -78.5t-31.5 -77t-77.5 -31t-78 31t-32 77z" />
<glyph unicode="&#xa9;" horiz-adv-x="1548" d="M82 684q0 187 92 345t250 249.5t346 91.5q189 0 347 -90.5t249.5 -247.5t91.5 -344t-92 -345.5t-250.5 -250.5t-345.5 -92q-143 0 -271 53.5t-219.5 145t-144.5 218t-53 267.5zM229 688q0 -148 72.5 -274.5t197 -200.5t271.5 -74q148 0 273 73t197.5 198.5t72.5 273.5 q0 147 -72.5 273t-197.5 200t-273 74q-147 0 -271.5 -72.5t-197 -197.5t-72.5 -273zM446 676q0 77 20 142.5t61 118.5t112 83.5t164 30.5q86 0 162 -27l-17 -131q-68 33 -147 33q-102 0 -149.5 -66t-47.5 -178q0 -227 189 -227q85 0 159 30l21 -127q-90 -34 -203 -34 q-162 0 -243 95.5t-81 256.5z" />
<glyph unicode="&#xaa;" horiz-adv-x="790" d="M98 864q0 117 108 183.5t296 66.5v37q0 123 -133 123q-114 0 -215 -53l-15 135q111 43 252 43q73 0 126 -18.5t81.5 -52t41.5 -72t13 -85.5q0 -68 -1 -167.5t-1 -122.5q0 -109 4 -179h-151q0 65 10 109l-4 2q-21 -51 -80.5 -88t-126.5 -37q-102 0 -153.5 48t-51.5 128z M117 430v148h555v-148h-555zM250 889q0 -36 23.5 -57t64.5 -21q53 0 92.5 34t55.5 73.5t16 72.5v19q-252 0 -252 -121z" />
<glyph unicode="&#xab;" horiz-adv-x="1042" d="M111 504l235 373l139 -78l-194 -293l192 -291l-143 -78zM506 504l254 368l135 -77l-209 -289l207 -285l-139 -80z" />
<glyph unicode="&#xac;" horiz-adv-x="1081" d="M76 463v151h903v-473h-162v322h-741z" />
<glyph unicode="&#xad;" horiz-adv-x="675" d="M96 440v148h484v-148h-484z" />
<glyph unicode="&#xae;" horiz-adv-x="1150" d="M123 1087q0 186 132.5 317.5t319.5 131.5q189 0 320 -130t131 -319q0 -184 -133 -316t-318 -132q-191 0 -321.5 129.5t-130.5 318.5zM248 1090q0 -136 96 -236t231 -100q136 0 232 97t96 232q0 137 -96 236.5t-232 99.5t-231.5 -96t-95.5 -233zM424 856v467h162 q159 0 159 -123q0 -56 -28.5 -90t-79.5 -43q15 -18 39 -61l88 -150h-123l-109 195h-8v-195h-100zM524 1116h29q44 0 65 21t21 51t-16.5 43.5t-55.5 13.5h-43v-129z" />
<glyph unicode="&#xaf;" horiz-adv-x="788" d="M162 1264v137h452v-137h-452z" />
<glyph unicode="&#xb0;" horiz-adv-x="770" d="M109 1247q0 80 41 141t103 91t132 30q131 0 199.5 -73t68.5 -185q0 -118 -83.5 -190t-196.5 -72q-121 0 -192.5 69.5t-71.5 188.5zM254 1249q0 -65 34.5 -102t90.5 -37q57 0 94 39t37 100q0 56 -31.5 99t-97.5 43q-55 0 -91 -40t-36 -102z" />
<glyph unicode="&#xb1;" horiz-adv-x="1175" d="M94 559v154h406v407h176v-407h405v-154h-405v-412h-176v412h-406zM104 29h967v-156h-967v156z" />
<glyph unicode="&#xb2;" horiz-adv-x="688" d="M61 553v133l191 184q81 77 114 133t33 109q0 133 -135 133q-95 0 -168 -47l-24 145q113 52 235 52q137 0 207 -66.5t70 -175.5q0 -80 -39.5 -156t-128.5 -163l-135 -129q92 4 335 4v-156h-555z" />
<glyph unicode="&#xb3;" horiz-adv-x="641" d="M68 553l18 135q68 -22 141 -22q70 0 115 36.5t45 98.5q0 65 -68 97.5t-213 12.5v121q271 0 271 137q0 46 -31 72.5t-88 26.5q-81 0 -160 -37l-18 127q101 37 219 37q122 0 188 -54.5t66 -150.5q0 -141 -143 -197q71 -10 114 -63.5t43 -122.5q0 -123 -91.5 -197.5 t-246.5 -74.5q-69 0 -161 18z" />
<glyph unicode="&#xb4;" horiz-adv-x="796" d="M203 1280l291 227l92 -127l-310 -202z" />
<glyph unicode="&#xb6;" horiz-adv-x="1284" d="M172 1006q0 168 120 272t331 104h524v-147h-143v-1432h-162v1432h-164v-1432h-162v826q-174 28 -259 126.5t-85 250.5z" />
<glyph unicode="&#xb7;" horiz-adv-x="479" d="M109 590q0 56 37.5 93.5t93.5 37.5t93.5 -37.5t37.5 -93.5t-37.5 -93.5t-93.5 -37.5t-93.5 37.5t-37.5 93.5z" />
<glyph unicode="&#xb8;" horiz-adv-x="819" d="M311 -420q184 135 86 316h178q109 -234 -180 -392z" />
<glyph unicode="&#xb9;" horiz-adv-x="544" d="M12 1296l238 86h149v-829h-178v666l-180 -74z" />
<glyph unicode="&#xba;" horiz-adv-x="858" d="M96 1044q0 157 95.5 257t242.5 100q64 0 117.5 -16.5t101 -54t74.5 -107.5t27 -168q0 -163 -97 -264t-249 -101q-145 0 -228.5 85t-83.5 269zM137 430v148h576v-148h-576zM260 1049q0 -45 7.5 -82t24.5 -70t49.5 -51.5t78.5 -18.5q78 0 124 56t46 170q0 94 -38.5 153.5 t-125.5 59.5q-69 0 -117.5 -54t-48.5 -163z" />
<glyph unicode="&#xbb;" horiz-adv-x="1042" d="M147 219l209 289l-206 285l139 79l250 -362l-256 -369zM559 213l193 295l-193 289l143 80l230 -367l-236 -373z" />
<glyph unicode="&#xbc;" horiz-adv-x="1902" d="M61 1296l238 86h150v-829h-181v666l-178 -74zM297 -217l885 1730h184l-881 -1730h-188zM1087 285l328 544h244v-518h131v-141h-131v-170h-168v170h-399zM1247 307q68 2 242 2v389z" />
<glyph unicode="&#xbd;" horiz-adv-x="1865" d="M61 1296l238 86h150v-829h-181v666l-178 -74zM297 -217l885 1730h184l-881 -1730h-188zM1196 0v133l188 184q82 80 115 135t33 107q0 64 -34 98.5t-101 34.5q-95 0 -168 -47l-25 146q111 51 238 51q134 0 204 -66.5t70 -175.5q0 -80 -40 -156t-130 -163l-135 -129 q92 4 338 4v-156h-553z" />
<glyph unicode="&#xbe;" horiz-adv-x="1933" d="M68 553l18 135q68 -22 141 -22q70 0 115 36.5t45 98.5q0 65 -68 97.5t-213 12.5v121q271 0 271 137q0 46 -31 72.5t-88 26.5q-81 0 -160 -37l-18 127q101 37 219 37q122 0 188 -54.5t66 -150.5q0 -141 -143 -197q71 -10 114 -63.5t43 -122.5q0 -123 -91.5 -197.5 t-246.5 -74.5q-69 0 -161 18zM354 -217l885 1730h184l-880 -1730h-189zM1186 285l330 544h243v-518h131v-141h-131v-170h-168v170h-399zM1348 307q68 2 241 2v389z" />
<glyph unicode="&#xbf;" horiz-adv-x="745" d="M92 266q0 52 19.5 97.5t48.5 76.5t63.5 64t64.5 61t51.5 67.5t24 83t-17.5 107.5h182q30 -78 24.5 -141t-31.5 -104.5t-64 -80t-73.5 -66.5t-61 -64.5t-25.5 -73.5q0 -81 100 -132.5t236 -49.5l-23 -164q-242 4 -380 94t-138 225zM311 1018q0 46 35 78t84 32 q50 0 84.5 -30.5t34.5 -79.5q0 -44 -33.5 -76.5t-85.5 -32.5t-85.5 32t-33.5 77z" />
<glyph unicode="&#xc0;" horiz-adv-x="1259" d="M20 0l504 1382h209l508 -1382h-211l-115 324h-587l-115 -324h-193zM358 1692l95 129l290 -226l-75 -106zM377 473h487l-180 494q-35 92 -61 207h-5q-28 -117 -63 -209z" />
<glyph unicode="&#xc1;" horiz-adv-x="1259" d="M20 0l504 1382h209l508 -1382h-211l-115 324h-587l-115 -324h-193zM377 473h487l-180 494q-35 92 -61 207h-5q-28 -117 -63 -209zM481 1593l291 228l92 -127l-309 -203z" />
<glyph unicode="&#xc2;" horiz-adv-x="1259" d="M20 0l504 1382h209l508 -1382h-211l-115 324h-587l-115 -324h-193zM350 1606l279 190l289 -186l-74 -111l-217 139l-209 -139zM377 473h487l-180 494q-35 92 -61 207h-5q-28 -117 -63 -209z" />
<glyph unicode="&#xc3;" horiz-adv-x="1259" d="M20 0l504 1382h209l508 -1382h-211l-115 324h-587l-115 -324h-193zM295 1683q84 84 197 84q58 0 108.5 -24t96 -48t91.5 -24q79 0 142 66l43 -125q-34 -34 -87 -58t-108 -24q-49 0 -92.5 15t-70 33t-64 33t-76.5 15q-72 0 -137 -65zM377 473h487l-180 494q-35 92 -61 207 h-5q-28 -117 -63 -209z" />
<glyph unicode="&#xc4;" horiz-adv-x="1259" d="M20 0l504 1382h209l508 -1382h-211l-115 324h-587l-115 -324h-193zM322 1624q0 46 32 78.5t78 32.5t77.5 -32.5t31.5 -78.5t-31.5 -77t-77.5 -31t-78 31t-32 77zM377 473h487l-180 494q-35 92 -61 207h-5q-28 -117 -63 -209zM715 1624q0 46 32 78.5t78 32.5t77.5 -32.5 t31.5 -78.5t-31.5 -77t-77.5 -31t-78 31t-32 77z" />
<glyph unicode="&#xc5;" horiz-adv-x="1259" d="M20 0l504 1382h209l508 -1382h-211l-115 324h-587l-115 -324h-193zM377 473h487l-180 494q-35 92 -61 207h-5q-28 -117 -63 -209zM399 1577q0 95 68.5 160t163.5 65q99 0 166 -64.5t67 -160.5q0 -92 -68 -157.5t-165 -65.5q-98 0 -165 63.5t-67 159.5zM518 1577 q0 -47 33 -81t80 -34t80.5 34t33.5 81q0 48 -33.5 82.5t-80.5 34.5t-80 -34.5t-33 -82.5z" />
<glyph unicode="&#xc6;" horiz-adv-x="1599" d="M-88 0l735 1382h791v-155h-512v-439h491v-151h-491v-479h530v-158h-715v334h-458l-174 -334h-197zM352 483h389v742h-4q-84 -187 -135 -281z" />
<glyph unicode="&#xc7;" horiz-adv-x="1193" d="M94 655q0 161 40.5 294t121.5 233.5t212 156.5t302 56q152 0 313 -41l-20 -172q-157 49 -313 49q-92 0 -167.5 -27.5t-127.5 -77t-87.5 -118t-52 -149.5t-16.5 -173q0 -260 116 -397t353 -137q75 0 161.5 19t147.5 50l21 -168q-167 -69 -375 -69q-163 0 -285 49.5 t-196.5 140.5t-111 211.5t-36.5 269.5zM514 -420q184 135 86 316h178q109 -234 -180 -392z" />
<glyph unicode="&#xc8;" d="M174 0v1382h711v-155h-523v-439h498v-151h-498v-479h523v-158h-711zM279 1692l94 129l291 -226l-76 -106z" />
<glyph unicode="&#xc9;" d="M174 0v1382h711v-155h-523v-439h498v-151h-498v-479h523v-158h-711zM387 1593l291 228l92 -127l-309 -203z" />
<glyph unicode="&#xca;" d="M174 0v1382h711v-155h-523v-439h498v-151h-498v-479h523v-158h-711zM240 1606l278 190l289 -186l-74 -111l-217 139l-209 -139z" />
<glyph unicode="&#xcb;" d="M174 0v1382h711v-155h-523v-439h498v-151h-498v-479h523v-158h-711zM213 1624q0 46 32.5 78.5t78.5 32.5q45 0 76.5 -32.5t31.5 -78.5t-31 -77t-77 -31t-78.5 31.5t-32.5 76.5zM606 1624q0 46 32.5 78.5t78.5 32.5q45 0 76.5 -32.5t31.5 -78.5t-31 -77t-77 -31 t-78.5 31.5t-32.5 76.5z" />
<glyph unicode="&#xcc;" horiz-adv-x="536" d="M33 1692l94 129l291 -228l-76 -104zM174 0v1382h188v-1382h-188z" />
<glyph unicode="&#xcd;" horiz-adv-x="536" d="M115 1593l291 228l92 -129l-310 -203zM174 0v1382h188v-1382h-188z" />
<glyph unicode="&#xce;" horiz-adv-x="536" d="M-10 1606l280 190l289 -186l-74 -111l-217 139l-209 -139zM174 0v1382h188v-1382h-188z" />
<glyph unicode="&#xcf;" horiz-adv-x="536" d="M-41 1624q0 46 32.5 78.5t78.5 32.5t78 -32.5t32 -78.5t-32 -78.5t-78 -32.5t-78.5 32.5t-32.5 78.5zM174 0v1382h188v-1382h-188zM352 1624q0 46 32.5 78.5t78.5 32.5t78 -32.5t32 -78.5t-32 -78.5t-78 -32.5t-78.5 32.5t-32.5 78.5z" />
<glyph unicode="&#xd0;" horiz-adv-x="1406" d="M2 639v143h193v598q15 0 168.5 4.5t242.5 4.5q342 0 524.5 -167t182.5 -515q0 -175 -56.5 -311.5t-159 -224.5t-243 -133.5t-311.5 -45.5q-74 0 -188 4t-160 4v639h-193zM381 160q64 -8 184 -8q254 0 402.5 134.5t148.5 405.5q0 543 -526 543q-50 0 -209 -6v-447h287 v-143h-287v-479z" />
<glyph unicode="&#xd1;" horiz-adv-x="1447" d="M174 0v1382h248l514 -829q75 -121 170 -303q-14 297 -14 739v393h182v-1382h-246l-526 856q-79 125 -158 287q14 -257 14 -699v-444h-184zM377 1683q84 84 196 84q46 0 88.5 -15t70 -33t64.5 -33t74 -15q79 0 142 66l43 -125q-34 -34 -87 -58t-108 -24q-49 0 -92.5 15 t-70 33t-64 33t-76.5 15q-72 0 -137 -65z" />
<glyph unicode="&#xd2;" horiz-adv-x="1443" d="M86 676q0 169 51.5 307.5t141 229.5t208.5 140.5t254 49.5q285 0 451 -180.5t166 -515.5q0 -169 -52 -307.5t-141.5 -229.5t-208.5 -140.5t-254 -49.5q-304 0 -460 186t-156 510zM287 702q0 -256 109.5 -405.5t322.5 -149.5q86 0 163.5 34.5t139.5 99.5t98.5 169.5 t36.5 233.5q0 265 -114 409t-322 144q-87 0 -164.5 -35.5t-138 -101t-96 -168.5t-35.5 -230zM477 1692l94 129l291 -226l-76 -106z" />
<glyph unicode="&#xd3;" horiz-adv-x="1443" d="M86 676q0 169 51.5 307.5t141 229.5t208.5 140.5t254 49.5q285 0 451 -180.5t166 -515.5q0 -169 -52 -307.5t-141.5 -229.5t-208.5 -140.5t-254 -49.5q-304 0 -460 186t-156 510zM287 702q0 -256 109.5 -405.5t322.5 -149.5q86 0 163.5 34.5t139.5 99.5t98.5 169.5 t36.5 233.5q0 265 -114 409t-322 144q-87 0 -164.5 -35.5t-138 -101t-96 -168.5t-35.5 -230zM612 1593l291 228l92 -127l-309 -203z" />
<glyph unicode="&#xd4;" horiz-adv-x="1443" d="M86 676q0 169 51.5 307.5t141 229.5t208.5 140.5t254 49.5q285 0 451 -180.5t166 -515.5q0 -169 -52 -307.5t-141.5 -229.5t-208.5 -140.5t-254 -49.5q-304 0 -460 186t-156 510zM287 702q0 -256 109.5 -405.5t322.5 -149.5q86 0 163.5 34.5t139.5 99.5t98.5 169.5 t36.5 233.5q0 265 -114 409t-322 144q-87 0 -164.5 -35.5t-138 -101t-96 -168.5t-35.5 -230zM453 1606l278 190l289 -186l-74 -111l-217 139l-209 -139z" />
<glyph unicode="&#xd5;" horiz-adv-x="1443" d="M86 676q0 169 51.5 307.5t141 229.5t208.5 140.5t254 49.5q285 0 451 -180.5t166 -515.5q0 -169 -52 -307.5t-141.5 -229.5t-208.5 -140.5t-254 -49.5q-304 0 -460 186t-156 510zM287 702q0 -256 109.5 -405.5t322.5 -149.5q86 0 163.5 34.5t139.5 99.5t98.5 169.5 t36.5 233.5q0 265 -114 409t-322 144q-87 0 -164.5 -35.5t-138 -101t-96 -168.5t-35.5 -230zM387 1686q83 83 197 83q46 0 88.5 -15t70 -33t64.5 -33t74 -15q78 0 141 66l43 -125q-34 -34 -87 -58t-108 -24q-49 0 -92.5 15t-70 33t-64 33t-76.5 15q-72 0 -137 -65z" />
<glyph unicode="&#xd6;" horiz-adv-x="1443" d="M86 676q0 169 51.5 307.5t141 229.5t208.5 140.5t254 49.5q285 0 451 -180.5t166 -515.5q0 -169 -52 -307.5t-141.5 -229.5t-208.5 -140.5t-254 -49.5q-304 0 -460 186t-156 510zM287 702q0 -256 109.5 -405.5t322.5 -149.5q86 0 163.5 34.5t139.5 99.5t98.5 169.5 t36.5 233.5q0 265 -114 409t-322 144q-87 0 -164.5 -35.5t-138 -101t-96 -168.5t-35.5 -230zM418 1624q0 46 32 78.5t78 32.5t77.5 -32.5t31.5 -78.5t-31.5 -77t-77.5 -31t-78 31t-32 77zM811 1624q0 46 32.5 78.5t78.5 32.5q45 0 76.5 -32.5t31.5 -78.5t-31 -77t-77 -31 t-78.5 31.5t-32.5 76.5z" />
<glyph unicode="&#xd7;" horiz-adv-x="1159" d="M129 850l113 113l342 -345l344 343l102 -101l-344 -342l344 -344l-112 -115l-345 344l-340 -342l-102 103l342 342z" />
<glyph unicode="&#xd8;" horiz-adv-x="1443" d="M84 680q0 169 50.5 307t138.5 228t206 139t254 49q72 0 148 -17l73 199l140 -47l-72 -192q158 -72 244 -236t86 -412q0 -168 -50.5 -304.5t-139 -226.5t-208.5 -138.5t-260 -48.5q-86 0 -159 18l-76 -209l-142 45l78 209q-158 79 -234.5 244t-76.5 393zM276 696 q0 -347 181 -471l368 998q-68 13 -139 10q-175 -10 -292.5 -151.5t-117.5 -385.5zM592 160q61 -17 135 -17q190 6 311 146.5t121 390.5q0 172 -51 298.5t-150 186.5z" />
<glyph unicode="&#xd9;" horiz-adv-x="1419" d="M174 465v917h188v-903q0 -77 15 -135t51.5 -107.5t106 -75.5t170.5 -26q185 0 269.5 87t84.5 292v868h184v-854q0 -271 -140 -409.5t-411 -138.5q-125 0 -219 27.5t-150 71.5t-90.5 109.5t-46.5 131t-12 145.5zM459 1692l94 129l291 -226l-76 -106z" />
<glyph unicode="&#xda;" horiz-adv-x="1419" d="M174 465v917h188v-903q0 -77 15 -135t51.5 -107.5t106 -75.5t170.5 -26q185 0 269.5 87t84.5 292v868h184v-854q0 -271 -140 -409.5t-411 -138.5q-125 0 -219 27.5t-150 71.5t-90.5 109.5t-46.5 131t-12 145.5zM571 1593l291 228l92 -127l-309 -203z" />
<glyph unicode="&#xdb;" horiz-adv-x="1419" d="M174 465v917h188v-903q0 -77 15 -135t51.5 -107.5t106 -75.5t170.5 -26q185 0 269.5 87t84.5 292v868h184v-854q0 -271 -140 -409.5t-411 -138.5q-125 0 -219 27.5t-150 71.5t-90.5 109.5t-46.5 131t-12 145.5zM424 1606l278 190l289 -186l-73 -111l-218 139l-208 -139z " />
<glyph unicode="&#xdc;" horiz-adv-x="1419" d="M174 465v917h188v-903q0 -77 15 -135t51.5 -107.5t106 -75.5t170.5 -26q185 0 269.5 87t84.5 292v868h184v-854q0 -271 -140 -409.5t-411 -138.5q-125 0 -219 27.5t-150 71.5t-90.5 109.5t-46.5 131t-12 145.5zM383 1624q0 46 32.5 78.5t78.5 32.5q45 0 76.5 -32.5 t31.5 -78.5t-31 -77t-77 -31t-78.5 31.5t-32.5 76.5zM776 1624q0 46 32.5 78.5t78.5 32.5q45 0 76.5 -32.5t31.5 -78.5t-31 -77t-77 -31t-78.5 31.5t-32.5 76.5z" />
<glyph unicode="&#xdd;" horiz-adv-x="1099" d="M18 1382h207l219 -467q61 -128 105 -239h2q33 84 119 264l213 442h196l-440 -884v-498h-188v498zM453 1593l290 226l93 -127l-310 -203z" />
<glyph unicode="&#xde;" horiz-adv-x="1095" d="M174 -2v1384h188v-219q102 4 164 4q236 0 372 -107t136 -306q0 -140 -73 -248.5t-199 -166.5t-283 -58q-52 0 -117 10v-293h-188zM362 444q74 -8 119 -8q162 2 261.5 86t99.5 223q0 125 -86 198t-269 73q-68 0 -125 -8v-564z" />
<glyph unicode="&#xdf;" horiz-adv-x="1855" d="M111 760q0 148 113 234.5t313 86.5q116 0 208 -18l-8 -162q-98 31 -211 31q-111 0 -165 -40t-54 -112q0 -42 28 -72t72 -49t98 -36t108 -39.5t98 -52.5t72 -81t28 -120q0 -159 -125 -253.5t-321 -94.5q-120 0 -230 26l8 174q93 -43 244 -43q95 0 160 42t65 128 q0 42 -27.5 73t-72 49.5t-97.5 35.5t-106.5 39t-98 51.5t-72 81.5t-27.5 121zM1038 760q0 148 113 234.5t313 86.5q117 0 209 -18l-8 -162q-98 31 -211 31q-111 0 -165 -40t-54 -112q0 -42 28 -72t72 -49t98 -36t108 -39.5t98 -52.5t72 -81t28 -120q0 -159 -125.5 -253.5 t-321.5 -94.5q-119 0 -229 26l8 174q93 -43 244 -43q95 0 160 42t65 128q0 38 -21.5 66t-57 45t-80.5 34t-92 31t-92 37.5t-80.5 52.5t-57 76.5t-21.5 108.5z" />
<glyph unicode="&#xe0;" horiz-adv-x="1126" d="M45 0l414 1065h213l409 -1065h-207l-83 223h-474l-84 -223h-188zM322 1378l94 129l291 -225l-76 -106zM367 360h376l-129 334q-19 50 -59 176h-2q-18 -79 -55 -174z" />
<glyph unicode="&#xe1;" horiz-adv-x="1126" d="M45 0l414 1065h213l409 -1065h-207l-83 223h-474l-84 -223h-188zM367 360h376l-129 334q-19 50 -59 176h-2q-18 -79 -55 -174zM414 1280l291 227l92 -127l-310 -202z" />
<glyph unicode="&#xe2;" horiz-adv-x="1126" d="M45 0l414 1065h213l409 -1065h-207l-83 223h-474l-84 -223h-188zM279 1292l278 191l289 -187l-74 -110l-217 139l-209 -139zM367 360h376l-129 334q-19 50 -59 176h-2q-18 -79 -55 -174z" />
<glyph unicode="&#xe3;" horiz-adv-x="1126" d="M45 0l414 1065h213l409 -1065h-207l-83 223h-474l-84 -223h-188zM233 1370q84 84 197 84q46 0 88.5 -15t70 -33t64.5 -33t74 -15q79 0 141 65l43 -125q-34 -34 -86.5 -57.5t-107.5 -23.5q-49 0 -92.5 15t-70 33t-64 33t-76.5 15q-72 0 -138 -66zM367 360h376l-129 334 q-19 50 -59 176h-2q-18 -79 -55 -174z" />
<glyph unicode="&#xe4;" horiz-adv-x="1126" d="M45 0l414 1065h213l409 -1065h-207l-83 223h-474l-84 -223h-188zM258 1339q0 46 32.5 78.5t78.5 32.5q45 0 76.5 -32.5t31.5 -78.5t-31 -77t-77 -31t-78.5 31.5t-32.5 76.5zM367 360h376l-129 334q-19 50 -59 176h-2q-18 -79 -55 -174zM651 1339q0 46 32.5 78.5 t78.5 32.5q45 0 76.5 -32.5t31.5 -78.5t-31 -77t-77 -31t-78.5 31.5t-32.5 76.5z" />
<glyph unicode="&#xe5;" horiz-adv-x="1126" d="M45 0l414 1065h213l409 -1065h-207l-83 223h-474l-84 -223h-188zM334 1255q0 96 68 161t163 65q99 0 166.5 -65t67.5 -161q0 -92 -68.5 -157.5t-165.5 -65.5q-98 0 -164.5 63.5t-66.5 159.5zM367 360h376l-129 334q-19 50 -59 176h-2q-18 -79 -55 -174zM453 1255 q0 -47 32.5 -80.5t79.5 -33.5t81 33.5t34 80.5t-34 82t-81 35t-79.5 -34.5t-32.5 -82.5z" />
<glyph unicode="&#xe6;" horiz-adv-x="1363" d="M-63 0l589 1065h684v-145h-405v-304h391v-139h-391v-330h420v-147h-607v238h-356l-129 -238h-196zM326 367h292v534h-2q-76 -154 -104 -205z" />
<glyph unicode="&#xe7;" horiz-adv-x="1005" d="M98 510q0 117 34 218t101 180.5t177.5 125t253.5 45.5q126 0 237 -30l-18 -166q-125 39 -238 39q-167 0 -257.5 -110t-90.5 -284q0 -184 93 -281t267 -97q129 0 238 51l16 -164q-133 -51 -293 -51q-253 0 -386.5 138t-133.5 386zM395 -416q184 135 86 316h178 q109 -234 -180 -392z" />
<glyph unicode="&#xe8;" horiz-adv-x="935" d="M195 0v1065h602v-145h-416v-302h395v-141h-395v-327h416v-150h-602zM248 1378l94 129l291 -225l-76 -106z" />
<glyph unicode="&#xe9;" horiz-adv-x="935" d="M195 0v1065h602v-145h-416v-302h395v-141h-395v-327h416v-150h-602zM352 1280l291 227l92 -127l-309 -202z" />
<glyph unicode="&#xea;" horiz-adv-x="935" d="M195 0v1065h602v-145h-416v-302h395v-141h-395v-327h416v-150h-602zM205 1292l278 191l289 -187l-74 -110l-217 139l-209 -139z" />
<glyph unicode="&#xeb;" horiz-adv-x="935" d="M195 0v1065h602v-145h-416v-302h395v-141h-395v-327h416v-150h-602zM195 1339q0 46 32 78.5t78 32.5t77.5 -32.5t31.5 -78.5t-31.5 -77t-77.5 -31t-78 31t-32 77zM588 1339q0 46 32 78.5t78 32.5t77.5 -32.5t31.5 -78.5t-31.5 -77t-77.5 -31t-78 31t-32 77z" />
<glyph unicode="&#xec;" horiz-adv-x="575" d="M57 1378l95 129l290 -225l-75 -106zM195 0v1065h186v-1065h-186z" />
<glyph unicode="&#xed;" horiz-adv-x="575" d="M172 1280l291 227l92 -127l-309 -202zM195 0v1065h186v-1065h-186z" />
<glyph unicode="&#xee;" horiz-adv-x="575" d="M6 1292l281 191l288 -187l-75 -110l-217 139l-209 -139zM195 0v1065h186v-1065h-186z" />
<glyph unicode="&#xef;" horiz-adv-x="575" d="M-14 1339q0 46 31.5 78.5t76.5 32.5q46 0 78.5 -32.5t32.5 -78.5q0 -45 -32.5 -76.5t-78.5 -31.5t-77 31t-31 77zM195 0v1065h186v-1065h-186zM379 1339q0 46 31.5 78.5t76.5 32.5q46 0 78.5 -32.5t32.5 -78.5q0 -45 -32.5 -76.5t-78.5 -31.5t-77 31t-31 77z" />
<glyph unicode="&#xf0;" horiz-adv-x="1239" d="M59 481v129h150v453q264 6 362 6q128 0 228.5 -27t180.5 -86t123.5 -162.5t43.5 -246.5q0 -139 -47 -246t-132 -173.5t-198 -100t-250 -33.5q-53 0 -311 6v481h-150zM395 156q99 -6 135 -6q195 0 307.5 97t112.5 290q0 383 -411 383q-32 0 -144 -5v-305h219v-129h-219 v-325z" />
<glyph unicode="&#xf1;" horiz-adv-x="1331" d="M195 0v1065h245l396 -614q70 -105 125 -213h2q-9 105 -9 342l-2 485h183v-1065h-248l-402 625q-64 98 -116 209h-2q8 -136 8 -254v-580h-180zM315 1370q84 84 197 84q46 0 88.5 -15t70 -33t64.5 -33t74 -15q79 0 141 65l43 -125q-34 -34 -86.5 -57.5t-107.5 -23.5 q-49 0 -92.5 15t-70 33t-64 33t-76.5 15q-72 0 -138 -66z" />
<glyph unicode="&#xf2;" horiz-adv-x="1239" d="M92 522q0 128 43.5 235t118 177t172 108.5t207.5 38.5q239 0 376.5 -139t137.5 -399q0 -173 -74.5 -301.5t-197.5 -193t-275 -64.5q-169 0 -284.5 69.5t-169.5 188.5t-54 280zM291 539q0 -84 18 -153.5t55 -124.5t100 -85.5t148 -30.5q146 0 240 99t94 282 q0 191 -87.5 293.5t-240.5 102.5q-138 0 -232.5 -101.5t-94.5 -281.5zM389 1378l94 129l291 -225l-76 -106z" />
<glyph unicode="&#xf3;" horiz-adv-x="1239" d="M92 522q0 128 43.5 235t118 177t172 108.5t207.5 38.5q239 0 376.5 -139t137.5 -399q0 -173 -74.5 -301.5t-197.5 -193t-275 -64.5q-169 0 -284.5 69.5t-169.5 188.5t-54 280zM291 539q0 -84 18 -153.5t55 -124.5t100 -85.5t148 -30.5q146 0 240 99t94 282 q0 191 -87.5 293.5t-240.5 102.5q-138 0 -232.5 -101.5t-94.5 -281.5zM496 1280l290 227l93 -127l-310 -202z" />
<glyph unicode="&#xf4;" horiz-adv-x="1239" d="M92 522q0 128 43.5 235t118 177t172 108.5t207.5 38.5q239 0 376.5 -139t137.5 -399q0 -173 -74.5 -301.5t-197.5 -193t-275 -64.5q-169 0 -284.5 69.5t-169.5 188.5t-54 280zM291 539q0 -84 18 -153.5t55 -124.5t100 -85.5t148 -30.5q146 0 240 99t94 282 q0 191 -87.5 293.5t-240.5 102.5q-138 0 -232.5 -101.5t-94.5 -281.5zM346 1292l279 191l288 -187l-73 -110l-217 139l-209 -139z" />
<glyph unicode="&#xf5;" horiz-adv-x="1239" d="M92 522q0 128 43.5 235t118 177t172 108.5t207.5 38.5q239 0 376.5 -139t137.5 -399q0 -173 -74.5 -301.5t-197.5 -193t-275 -64.5q-169 0 -284.5 69.5t-169.5 188.5t-54 280zM285 1370q84 84 196 84q46 0 88.5 -15t70 -33t64.5 -33t74 -15q80 0 142 65l43 -125 q-33 -33 -86.5 -57t-108.5 -24q-49 0 -92.5 15t-70 33t-64 33t-76.5 15q-71 0 -137 -66zM291 539q0 -84 18 -153.5t55 -124.5t100 -85.5t148 -30.5q146 0 240 99t94 282q0 191 -87.5 293.5t-240.5 102.5q-138 0 -232.5 -101.5t-94.5 -281.5z" />
<glyph unicode="&#xf6;" horiz-adv-x="1239" d="M92 522q0 128 43.5 235t118 177t172 108.5t207.5 38.5q239 0 376.5 -139t137.5 -399q0 -173 -74.5 -301.5t-197.5 -193t-275 -64.5q-169 0 -284.5 69.5t-169.5 188.5t-54 280zM291 539q0 -84 18 -153.5t55 -124.5t100 -85.5t148 -30.5q146 0 240 99t94 282 q0 191 -87.5 293.5t-240.5 102.5q-138 0 -232.5 -101.5t-94.5 -281.5zM317 1339q0 46 32.5 78.5t78.5 32.5t77.5 -32.5t31.5 -78.5t-31.5 -77t-77.5 -31t-78.5 31.5t-32.5 76.5zM711 1339q0 46 32 78.5t78 32.5t77.5 -32.5t31.5 -78.5t-31.5 -77t-77.5 -31t-78 31t-32 77z " />
<glyph unicode="&#xf7;" horiz-adv-x="1202" d="M94 451v155h1014v-155h-1014zM477 115q0 51 36.5 87t88.5 36q51 0 87 -36t36 -87q0 -52 -36 -88.5t-87 -36.5q-52 0 -88.5 36t-36.5 89zM477 940q0 51 36.5 87t88.5 36q51 0 87 -36t36 -87q0 -52 -36 -88.5t-87 -36.5q-52 0 -88.5 36.5t-36.5 88.5z" />
<glyph unicode="&#xf8;" horiz-adv-x="1179" d="M66 522q0 128 43 235t116.5 177t170.5 108.5t206 38.5q54 0 109 -10l59 162l127 -43l-55 -154q129 -55 199.5 -180t70.5 -315q0 -129 -42.5 -235.5t-116.5 -176t-172.5 -107.5t-211.5 -38q-65 0 -114 12l-68 -178l-127 43l64 172q-128 60 -193 187.5t-65 301.5zM256 539 q0 -244 131 -332l270 706q-41 8 -94 5q-132 -6 -219.5 -107t-87.5 -272zM506 154q36 -8 106 -4q139 6 224.5 105t85.5 271q0 118 -37.5 206t-108.5 132z" />
<glyph unicode="&#xf9;" horiz-adv-x="1298" d="M188 369v696h187v-664q0 -264 276 -264q275 0 275 283v645h184v-659q0 -88 -27.5 -162.5t-82.5 -133.5t-148 -92.5t-215 -33.5q-220 0 -334.5 99.5t-114.5 285.5zM406 1378l94 129l291 -225l-76 -106z" />
<glyph unicode="&#xfa;" horiz-adv-x="1298" d="M188 369v696h187v-664q0 -264 276 -264q275 0 275 283v645h184v-659q0 -88 -27.5 -162.5t-82.5 -133.5t-148 -92.5t-215 -33.5q-220 0 -334.5 99.5t-114.5 285.5zM520 1280l291 227l92 -127l-309 -202z" />
<glyph unicode="&#xfb;" horiz-adv-x="1298" d="M188 369v696h187v-664q0 -264 276 -264q275 0 275 283v645h184v-659q0 -88 -27.5 -162.5t-82.5 -133.5t-148 -92.5t-215 -33.5q-220 0 -334.5 99.5t-114.5 285.5zM362 1292l279 191l289 -187l-74 -110l-217 139l-209 -139z" />
<glyph unicode="&#xfc;" horiz-adv-x="1298" d="M188 369v696h187v-664q0 -264 276 -264q275 0 275 283v645h184v-659q0 -88 -27.5 -162.5t-82.5 -133.5t-148 -92.5t-215 -33.5q-220 0 -334.5 99.5t-114.5 285.5zM334 1339q0 46 32 78.5t78 32.5t77.5 -32.5t31.5 -78.5t-31.5 -77t-77.5 -31t-78 31t-32 77zM727 1339 q0 46 32.5 78.5t78.5 32.5q45 0 76.5 -32.5t31.5 -78.5t-31 -77t-77 -31t-78.5 31.5t-32.5 76.5z" />
<glyph unicode="&#xfd;" horiz-adv-x="944" d="M27 1065h204l160 -330q45 -97 80 -196h2q40 110 92 209l156 317h197l-355 -698v-367h-186v365zM360 1280l291 227l92 -127l-307 -202z" />
<glyph unicode="&#xfe;" horiz-adv-x="1015" d="M199 0v1065h186v-164q65 6 135 6q201 0 314.5 -87.5t113.5 -252.5q0 -170 -131.5 -272t-327.5 -102q-57 0 -104 6v-199h-186zM385 348q41 -8 100 -8q121 0 194 60t73 163q0 88 -65 141.5t-198 53.5q-51 0 -104 -6v-404z" />
<glyph unicode="&#xff;" horiz-adv-x="970" d="M18 1065h207l172 -334q44 -82 88 -192h2q36 83 101 206l170 320h194l-377 -698v-367h-186v365zM162 1339q0 46 32 78.5t78 32.5t77.5 -32.5t31.5 -78.5t-31.5 -77t-77.5 -31t-78 31t-32 77zM555 1339q0 46 32.5 78.5t78.5 32.5q45 0 76.5 -32.5t31.5 -78.5t-31 -77 t-77 -31t-78.5 31.5t-32.5 76.5z" />
<glyph unicode="&#x152;" horiz-adv-x="1703" d="M86 680q0 163 50.5 299t138 225.5t204.5 139t250 49.5q53 0 140 -5.5t126 -5.5h568v-155h-525v-439h498v-151h-498v-479h525v-158h-564q-57 0 -156 -6t-151 -6q-155 0 -272.5 51t-189.5 144.5t-108 218t-36 278.5zM283 698q0 -118 24 -214t74 -172t137 -118t205 -42 q77 0 133 12v1057q-64 12 -135 12q-90 0 -169.5 -36.5t-139.5 -103.5t-94.5 -169t-34.5 -226z" />
<glyph unicode="&#x153;" horiz-adv-x="1456" d="M92 522q0 125 41 230t112 175t166 109t203 39q39 0 131.5 -5t131.5 -5h440v-145h-416v-302h395v-141h-395v-327h416v-150h-434q-44 0 -152 -5t-147 -5q-125 0 -220 39t-154 110.5t-88.5 167.5t-29.5 215zM289 539q0 -83 17.5 -151t54.5 -122t101.5 -84t151.5 -30 q62 0 103 10v743q-62 8 -111 8q-133 0 -225 -100.5t-92 -273.5z" />
<glyph unicode="&#x178;" horiz-adv-x="1099" d="M18 1382h207l219 -467q61 -128 105 -239h2q33 84 119 264l213 442h196l-440 -884v-498h-188v498zM233 1624q0 46 32.5 78.5t78.5 32.5t77.5 -32.5t31.5 -78.5t-31.5 -77t-77.5 -31t-78.5 31.5t-32.5 76.5zM627 1624q0 46 32 78.5t78 32.5t77.5 -32.5t31.5 -78.5 t-31.5 -77t-77.5 -31t-78 31t-32 77z" />
<glyph unicode="&#x2c6;" horiz-adv-x="886" d="M160 1292l278 191l289 -187l-74 -110l-217 139l-209 -139z" />
<glyph unicode="&#x2dc;" horiz-adv-x="1015" d="M186 1370q84 84 197 84q46 0 88.5 -15t70 -33t64.5 -33t74 -15q79 0 141 65l43 -125q-34 -34 -86.5 -57.5t-107.5 -23.5q-49 0 -92.5 15t-70 33t-64 33t-76.5 15q-72 0 -138 -66z" />
<glyph unicode="&#x2000;" horiz-adv-x="910" />
<glyph unicode="&#x2001;" horiz-adv-x="1821" />
<glyph unicode="&#x2002;" horiz-adv-x="910" />
<glyph unicode="&#x2003;" horiz-adv-x="1821" />
<glyph unicode="&#x2004;" horiz-adv-x="607" />
<glyph unicode="&#x2005;" horiz-adv-x="455" />
<glyph unicode="&#x2006;" horiz-adv-x="303" />
<glyph unicode="&#x2007;" horiz-adv-x="303" />
<glyph unicode="&#x2008;" horiz-adv-x="227" />
<glyph unicode="&#x2009;" horiz-adv-x="364" />
<glyph unicode="&#x200a;" horiz-adv-x="101" />
<glyph unicode="&#x2010;" horiz-adv-x="675" d="M96 440v148h484v-148h-484z" />
<glyph unicode="&#x2011;" horiz-adv-x="675" d="M96 440v148h484v-148h-484z" />
<glyph unicode="&#x2012;" horiz-adv-x="675" d="M96 440v148h484v-148h-484z" />
<glyph unicode="&#x2013;" horiz-adv-x="1024" d="M0 512v160h1024v-160h-1024z" />
<glyph unicode="&#x2014;" horiz-adv-x="2048" d="M0 512v160h2048v-160h-2048z" />
<glyph unicode="&#x2018;" horiz-adv-x="497" d="M132 1053q-45 86 6 217q54 134 198 266l80 -72q-173 -186 -88 -293q26 -40 24.5 -80.5t-34 -72t-80.5 -31.5q-72 0 -106 66z" />
<glyph unicode="&#x2019;" horiz-adv-x="497" d="M80 1044q173 186 88 293q-26 40 -24.5 81t34 72.5t80.5 31.5q72 0 106 -66q45 -86 -6 -217q-54 -134 -198 -266z" />
<glyph unicode="&#x201a;" horiz-adv-x="497" d="M80 -246q174 187 88 295q-26 39 -24.5 79.5t34 71.5t80.5 31q72 0 107 -66q45 -87 -8 -217q-54 -133 -197 -263z" />
<glyph unicode="&#x201c;" horiz-adv-x="886" d="M132 1053q-45 86 6 217q54 134 198 266l80 -72q-173 -186 -88 -293q26 -40 24.5 -80.5t-34 -72t-80.5 -31.5q-72 0 -106 66zM521 1053q-45 86 6 217q54 134 198 266l80 -72q-173 -186 -88 -293q26 -40 24.5 -80.5t-34 -72t-80.5 -31.5q-72 0 -106 66z" />
<glyph unicode="&#x201d;" horiz-adv-x="886" d="M80 1044q173 186 88 293q-26 40 -24.5 81t34 72.5t80.5 31.5q72 0 106 -66q45 -86 -6 -217q-54 -134 -198 -266zM469 1044q173 186 88 293q-26 40 -24.5 81t34 72.5t80.5 31.5q72 0 106 -66q45 -86 -6 -217q-54 -134 -198 -266z" />
<glyph unicode="&#x201e;" horiz-adv-x="886" d="M80 -246q174 187 88 295q-26 39 -24.5 79.5t34 71.5t80.5 31q72 0 107 -66q45 -87 -8 -217q-54 -133 -197 -263zM469 -246q174 187 88 295q-26 39 -24.5 79.5t34 71.5t80.5 31q72 0 107 -66q45 -87 -8 -217q-54 -133 -197 -263z" />
<glyph unicode="&#x2022;" horiz-adv-x="880" d="M182 598q0 101 72.5 174.5t173.5 73.5q102 0 175 -73t73 -175q0 -103 -72.5 -175.5t-175.5 -72.5q-101 0 -173.5 72.5t-72.5 175.5z" />
<glyph unicode="&#x2026;" horiz-adv-x="1361" d="M106 104q0 52 36 88.5t89 36.5q51 0 87 -36.5t36 -88.5q0 -51 -36 -86.5t-87 -35.5q-52 0 -88.5 35.5t-36.5 86.5zM547 104q0 52 36 88.5t87 36.5q52 0 88.5 -36.5t36.5 -88.5q0 -51 -36.5 -86.5t-88.5 -35.5q-51 0 -87 35.5t-36 86.5zM987 104q0 52 36 88.5t87 36.5 q52 0 88.5 -36.5t36.5 -88.5q0 -51 -36.5 -86.5t-88.5 -35.5q-51 0 -87 35.5t-36 86.5z" />
<glyph unicode="&#x202f;" horiz-adv-x="364" />
<glyph unicode="&#x2039;" horiz-adv-x="641" d="M109 504l247 370l138 -77l-203 -291l201 -287l-142 -80z" />
<glyph unicode="&#x203a;" horiz-adv-x="641" d="M147 217l203 291l-200 287l141 79l241 -364l-247 -371z" />
<glyph unicode="&#x205f;" horiz-adv-x="455" />
<glyph unicode="&#x20ac;" horiz-adv-x="1126" d="M27 471v121h176q-2 20 -2 63q0 45 4 123h-178v119h192q88 506 565 506q116 0 248 -31l-33 -158q-115 35 -237 35q-289 0 -348 -352h383v-119h-396q-4 -58 -4 -92q0 -17 1 -48.5t1 -45.5h398v-121h-385q27 -169 111 -250.5t243 -81.5q62 0 132.5 12t117.5 31l35 -147 q-151 -55 -324 -55q-231 0 -357 122.5t-159 368.5h-184z" />
<glyph unicode="&#x2122;" horiz-adv-x="1431" d="M90 1270v112h442v-112h-149v-463h-141v463h-152zM567 807l90 575h177l92 -315l20 -94l19 86l96 323h176l88 -575h-141l-45 301l-15 111l-24 -95l-92 -317h-142l-90 321l-22 91l-6 -76l-50 -336h-131z" />
<glyph unicode="&#x25fc;" horiz-adv-x="1064" d="M0 0v1065h1065v-1065h-1065z" />
<glyph unicode="&#xfb01;" horiz-adv-x="1472" d="M195 0v1065h596v-145h-410v-314h387v-143h-387v-463h-186zM1092 0v1065h186v-1065h-186z" />
<glyph unicode="&#xfb02;" horiz-adv-x="1705" d="M195 0v1065h596v-145h-410v-314h387v-143h-387v-463h-186zM1092 0v1065h186v-905h381v-160h-567z" />
<glyph unicode="&#xfb03;" horiz-adv-x="2369" d="M195 0v1065h596v-145h-410v-314h387v-143h-387v-463h-186zM1092 0v1065h596v-145h-410v-314h387v-143h-387v-463h-186zM1989 0v1065h186v-1065h-186z" />
<glyph unicode="&#xfb04;" horiz-adv-x="2603" d="M195 0v1065h596v-145h-410v-314h387v-143h-387v-463h-186zM1092 0v1065h596v-145h-410v-314h387v-143h-387v-463h-186zM1989 0v1065h186v-905h381v-160h-567z" />
</font>
</defs>
</svg>
