<!-- Generator: Adobe Illustrator 19.1.0, SVG Export Plug-In  -->
<svg version="1.1"
	 xmlns="http://www.w3.org/2000/svg" xmlns:xlink="http://www.w3.org/1999/xlink" xmlns:a="http://ns.adobe.com/AdobeSVGViewerExtensions/3.0/"
	 x="0px" y="0px" width="188.4px" height="47.4px" viewBox="0 0 188.4 47.4" enable-background="new 0 0 188.4 47.4"
	 xml:space="preserve">
<defs>
</defs>
<g>
	<g>
		<path fill-rule="evenodd" clip-rule="evenodd" fill="#ffffff" d="M28.6,3.2h-7.5c0,0-1.1,0-1.1,1.1v11.8c0,1.1-1.1,1.1-1.1,1.1
			h-1.1c0,0-1,0-1-1.1l0-11.8c0-1.1-1.1-1.1-1.1-1.1H7.2v12.9c0,1.1-1.1,1.1-1.1,1.1H5c0,0-1.1,0-1.1-1.1V3.2H1.1c0,0-1.1,0-1.1-1.1
			V1.1C0,0,1.1,0,1.1,0h30.8c0,0,1.1,0,1.1,1.1v15c0,1.1-1.1,1.1-1.1,1.1h-1.1c0,0-1.1,0-1.1-1.1V4.3C29.7,3.2,28.7,3.2,28.6,3.2
			L28.6,3.2z"/>
	</g>
	<g>
		<path fill-rule="evenodd" clip-rule="evenodd" fill="#ffffff" d="M64,16.1v-15c0-1.1-1-1.1-1-1.1H41.5c0,0-1.1,0-1.1,1.1v1.1
			c0,1.1,1.1,1.1,1.1,1.1h18.2c0,0,1.1,0,1.1,1.1v2.2H41.5c0,0-1.1,0-1.1,1.1v8.6c0,1.1,1.1,1.1,1.1,1.1h21.4
			C62.9,17.1,63.9,17.1,64,16.1L64,16.1z M60.7,9.6v3.2c0,1.1-1.1,1.1-1.1,1.1h-15c0,0-1.1,0-1.1-1.1v-2.2c0-1.1,1.1-1.1,1.1-1.1
			H60.7z"/>
	</g>
	<g>
		<path fill-rule="evenodd" clip-rule="evenodd" fill="#ffffff" d="M81.7,11.8v12.6c0,1.1,1.1,1.1,1.1,1.1h1.1c0,0,1.1,0,1.1-1.1
			l0-12.7c0-1.1,1.1-1.1,1.1-1.1s0,0,8.1,0c0,0,1.1,0,1.1-1.1l0-8.6C95.1,0,94,0,94,0h-1.1c0,0-1.1,0-1.1,1.1l0,5.3
			c0,1.1-1.1,1.1-1.1,1.1h-15c0,0-1.1,0-1.1-1.1l0-5.4C74.7,0,73.6,0,73.6,0h-1.1c0,0-1.1,0-1.1,1.1v8.6c0,1.1,1.1,1.1,1.1,1.1h8.1
			C80.6,10.7,81.6,10.7,81.7,11.8L81.7,11.8z"/>
	</g>
	<g>
		<path fill-rule="evenodd" clip-rule="evenodd" fill="#ffffff" d="M103.8,0l21.4,0c0,0,1.1,0,1.1,1.1l0,3.2c0,1.1-1,1.1-1,1.1h-1.1
			c0,0-1.1,0-1.1-1.1l0-1.1h-16c0,0-1.1,0-1.1,1.1l0,8.6c0,1.1,1.1,1.1,1.1,1.1l18.2,0c0,0,1.1,0,1.1,1.1v1.1c0,1.1-1,1.1-1,1.1
			h-21.5c0,0-1.1,0-1.1-1.1v-15C102.8,0,103.8,0,103.8,0z"/>
	</g>
	<g>
		<path fill-rule="evenodd" clip-rule="evenodd" fill="#ffffff" d="M156.9,16.1v-15c0-1.1-1.1-1.1-1.1-1.1h-21.5c0,0-1.1,0-1.1,1.1
			v1.1c0,1.1,1.1,1.1,1.1,1.1h18.2c0,0,1.1,0,1.1,1.1v2.2h-19.3c0,0-1.1,0-1.1,1.1v8.6c0,1.1,1.1,1.1,1.1,1.1h21.4
			C155.8,17.1,156.9,17.1,156.9,16.1L156.9,16.1z M153.7,9.6v3.2c0,1.1-1.1,1.1-1.1,1.1h-15c0,0-1.1,0-1.1-1.1l0-2.2
			c0-1.1,1.1-1.1,1.1-1.1H153.7z"/>
	</g>
	<g>
		<path fill-rule="evenodd" clip-rule="evenodd" fill="#ffffff" d="M165.4,13.9h2.1h16c0,0,1.1,0,1.1-1.1v-1.1
			c0-1.1-1.1-1.1-1.1-1.1h-18.2c0,0-1.1,0-1.1-1.1V1.1c0-1.1,1.1-1.1,1.1-1.1l21.4,0c0,0,1.1,0,1.1,1.1v3.2c0,1.1-1.1,1.1-1.1,1.1
			h-1.1c0,0-1.1,0-1.1-1.1V3.2h-16c0,0-1.1,0-1.1,1.1v2.2c0,1.1,1.1,1.1,1.1,1.1h18.2c0,0,1.1,0,1.1,1.1v7.5c0,1.1-1.1,1.1-1.1,1.1
			h-21.4c0,0-1.1,0-1.1-1.1V15C164.4,13.9,165.4,13.9,165.4,13.9z"/>
	</g>
	<g>
		<g>
			<g>
				<path fill-rule="evenodd" clip-rule="evenodd" fill="#ffffff" d="M112.1,33.5h-7.5c0,0-1.1,0-1.1,1.1v11.8c0,1.1-1,1.1-1,1.1
					h-1.1c0,0-1,0-1-1.1l0-11.8c0-1.1-1.1-1.1-1.1-1.1h-8.6v12.9c0,1.1-1.1,1.1-1.1,1.1h-1.1c0,0-1.1,0-1.1-1.1V33.5h-2.9
					c0,0-1.1,0-1.1-1.1v-1.1c0-1.1,1.1-1.1,1.1-1.1h30.8c0,0,1,0,1,1.1v15c0,1.1-1,1.1-1,1.1h-1.1c0,0-1.1,0-1.1-1.1V34.6
					C113.2,33.5,112.2,33.5,112.1,33.5L112.1,33.5z"/>
			</g>
			<g>
				<path fill-rule="evenodd" clip-rule="evenodd" fill="#ffffff" d="M147.5,46.4v-15c0-1.1-1.1-1.1-1.1-1.1H125c0,0-1.1,0-1.1,1.1
					v1.1c0,1.1,1.1,1.1,1.1,1.1h18.2c0,0,1.1,0,1.1,1.1v2.2H125c0,0-1.1,0-1.1,1.1v8.6c0,1.1,1.1,1.1,1.1,1.1h21.4
					C146.4,47.4,147.4,47.4,147.5,46.4L147.5,46.4z M144.2,39.9v3.2c0,1.1-1.1,1.1-1.1,1.1h-15c0,0-1.1,0-1.1-1.1V41
					c0-1.1,1.1-1.1,1.1-1.1H144.2z"/>
			</g>
			<g>
				<path fill-rule="evenodd" clip-rule="evenodd" fill="#ffffff" d="M67.7,47.4c0,0,1.1,0,1.1-1.1l0-3.7c0-1.1-1.1-1.1-1.1-1.1
					h-1.1c0,0-1.1,0-1.1,1.1l0,0.5c0,1.1-1,1.1-1,1.1h-15c0,0-1.1,0-1.1-1.1l0-11.8c0-1.1-1.1-1.1-1.1-1.1h-1.1c0,0-1.1,0-1.1,1.1
					v15c0,1.1,1.1,1.1,1.1,1.1S59.6,47.4,67.7,47.4z"/>
			</g>
			<g>
				<path fill-rule="evenodd" clip-rule="evenodd" fill="#ffffff" d="M156.2,30.3l21.4,0c0,0,1.1,0,1.1,1.1l0,3.2
					c0,1.1-1.1,1.1-1.1,1.1h-1.1c0,0-1.1,0-1.1-1.1l0-1.1h-16c0,0-1,0-1,1.1v11.8c0,1.1-1.1,1.1-1.1,1.1h-1.1c0,0-1.1,0-1.1-1.1v-15
					C155.2,30.3,156.2,30.3,156.2,30.3z"/>
			</g>
			<g>
				<path fill-rule="evenodd" clip-rule="evenodd" fill="#ffffff" d="M185.5,30.3l1.2,0c0,0,1,0,1,1.1l-0.1,15
					c0,1.1-1.1,1.1-1.1,1.1h-1.1c0,0-1.1,0-1.1-1.1v-15C184.4,30.3,185.5,30.3,185.5,30.3z"/>
			</g>
			<g>
				<path fill-rule="evenodd" clip-rule="evenodd" fill="#ffffff" d="M76.2,30.3l1.2,0c0,0,1.1,0,1.1,1.1l-0.1,15c0,1.1-1,1.1-1,1.1
					h-1.1c0,0-1.1,0-1.1-1.1v-15C75.1,30.3,76.2,30.3,76.2,30.3z"/>
			</g>
		</g>
	</g>
	<g>
		<g>
			
				<path fill-rule="evenodd" clip-rule="evenodd" fill="none" stroke="#FFFFFF" stroke-width="1.3554" stroke-linecap="round" stroke-linejoin="round" stroke-miterlimit="3.8637" d="
				M8.4,30.3H4.2v6c0,0,4.7,0,4.3,0c2.2,0,3.5-1.5,3.5-3.1C11.9,31.7,10.4,30.3,8.4,30.3z M8.3,35.7c0.6,0-3.3,0-3.3,0v-4.6h3.3
				c1.9,0,2.7,1,2.7,2.2C11,34.5,10.3,35.7,8.3,35.7z"/>
			<path fill-rule="evenodd" clip-rule="evenodd" fill="#FFFFFF" stroke="#FFFFFF" stroke-miterlimit="10" d="M8.4,30.3H4.2v6
				c0,0,4.7,0,4.3,0c2.2,0,3.5-1.5,3.5-3.1C11.9,31.7,10.4,30.3,8.4,30.3z M8.3,35.7c0.6,0-3.3,0-3.3,0v-4.6h3.3
				c1.9,0,2.7,1,2.7,2.2C11,34.5,10.3,35.7,8.3,35.7z"/>
		</g>
		<g>
			
				<polygon fill-rule="evenodd" clip-rule="evenodd" fill="none" stroke="#FFFFFF" stroke-width="1.3554" stroke-linecap="round" stroke-linejoin="round" stroke-miterlimit="3.8637" points="
				22.6,35.7 16.6,35.7 16.6,33.6 19.9,33.6 19.9,33 16.6,33 16.6,31 22.4,31 22.4,30.3 15.8,30.3 15.8,36.4 22.6,36.4 			"/>
			<polygon fill-rule="evenodd" clip-rule="evenodd" fill="#FFFFFF" stroke="#FFFFFF" stroke-miterlimit="10" points="22.6,35.7 
				16.6,35.7 16.6,33.6 19.9,33.6 19.9,33 16.6,33 16.6,31 22.4,31 22.4,30.3 15.8,30.3 15.8,36.4 22.6,36.4 			"/>
		</g>
		<g>
			<polygon fill-rule="evenodd" clip-rule="evenodd" fill="none" stroke="#FFFFFF" stroke-width="0.9527" points="33.1,35.7 
				27.4,35.7 27.4,30.3 26.6,30.3 26.6,36.4 33.1,36.4 			"/>
			<polygon fill-rule="evenodd" clip-rule="evenodd" fill="#FFFFFF" stroke="#FFFFFF" stroke-miterlimit="10" points="33.1,35.7 
				27.4,35.7 27.4,30.3 26.6,30.3 26.6,36.4 33.1,36.4 			"/>
		</g>
	</g>
	<g>
		<g>
			<path fill-rule="evenodd" clip-rule="evenodd" fill="#FFFFFF" d="M85.6,0.4l0,3.5c0,0,0,0.4-0.4,0.4l-3.7,0C81,4.4,81,3.9,81,3.9
				V0.4c0,0,0-0.4,0.4-0.4h3.7C85.6,0,85.6,0.4,85.6,0.4z"/>
		</g>
	</g>
	<g>
		<g>
			<path fill-rule="evenodd" clip-rule="evenodd" fill="#FFFFFF" d="M188.4,21.9l0,3.5c0,0,0,0.4-0.4,0.4l-3.7,0
				c-0.4,0-0.4-0.4-0.4-0.4v-3.5c0,0,0-0.4,0.4-0.4h3.7C188.4,21.5,188.4,21.9,188.4,21.9z"/>
		</g>
	</g>
</g>
</svg>
