<!-- Generator: Adobe Illustrator 19.1.0, SVG Export Plug-In  -->
<svg version="1.1"
	 xmlns="http://www.w3.org/2000/svg" xmlns:xlink="http://www.w3.org/1999/xlink" xmlns:a="http://ns.adobe.com/AdobeSVGViewerExtensions/3.0/"
	 x="0px" y="0px" width="133.4px" height="33.6px" viewBox="0 0 133.4 33.6" enable-background="new 0 0 133.4 33.6"
	 xml:space="preserve">
<defs>
</defs>
<g>
	<g>
		<path fill-rule="evenodd" clip-rule="evenodd" fill="#FFFFFF" d="M20.3,2.3h-5.3c0,0-0.7,0-0.7,0.7v8.4c0,0.7-0.7,0.7-0.7,0.7
			h-0.8c0,0-0.7,0-0.7-0.7l0-8.3c0-0.8-0.7-0.8-0.7-0.8H5.1v9.1c0,0.7-0.7,0.7-0.7,0.7H3.6c0,0-0.7,0-0.7-0.7V2.3H0.7
			c0,0-0.7,0-0.7-0.7V0.7C0,0,0.7,0,0.7,0h21.8c0,0,0.7,0,0.7,0.7v10.6c0,0.7-0.7,0.7-0.7,0.7h-0.8c0,0-0.7,0-0.7-0.7V3
			C21,2.3,20.3,2.3,20.3,2.3L20.3,2.3z"/>
	</g>
	<g>
		<path fill-rule="evenodd" clip-rule="evenodd" fill="#FFFFFF" d="M45.3,11.4V0.7C45.3,0,44.5,0,44.5,0H29.3c0,0-0.7,0-0.7,0.7v0.8
			c0,0.7,0.7,0.7,0.7,0.7h12.9c0,0,0.8,0,0.8,0.7v1.6H29.3c0,0-0.7,0-0.7,0.7v6.1c0,0.7,0.7,0.7,0.7,0.7h15.2
			C44.5,12.1,45.3,12.1,45.3,11.4L45.3,11.4z M43,6.8v2.3c0,0.8-0.7,0.8-0.7,0.8H31.6c0,0-0.8,0-0.8-0.7V7.6c0-0.7,0.7-0.7,0.7-0.7
			H43z"/>
	</g>
	<g>
		<path fill-rule="evenodd" clip-rule="evenodd" fill="#FFFFFF" d="M57.8,8.3v8.9c0,0.8,0.7,0.8,0.7,0.8h0.7c0,0,0.7,0,0.7-0.7l0-9
			c0-0.8,0.7-0.8,0.7-0.8s0,0,5.7,0c0,0,0.7,0,0.7-0.7l0-6.1C67.3,0,66.6,0,66.6,0h-0.8c0,0-0.7,0-0.7,0.7l0,3.8
			c0,0.8-0.7,0.8-0.7,0.8H53.6c0,0-0.7,0-0.7-0.7l0-3.8C52.8,0,52.1,0,52.1,0h-0.8c0,0-0.7,0-0.7,0.7v6.1c0,0.7,0.7,0.7,0.7,0.7H57
			C57,7.6,57.8,7.6,57.8,8.3L57.8,8.3z"/>
	</g>
	<g>
		<path fill-rule="evenodd" clip-rule="evenodd" fill="#FFFFFF" d="M73.5,0l15.2,0c0,0,0.7,0,0.7,0.7l0,2.3c0,0.7-0.7,0.7-0.7,0.7
			h-0.8c0,0-0.7,0-0.7-0.7l0-0.8H75.8c0,0-0.7,0-0.7,0.7l0,6.1c0,0.8,0.7,0.8,0.7,0.8l12.9,0c0,0,0.8,0,0.8,0.7v0.8
			c0,0.7-0.7,0.7-0.7,0.7H73.5c0,0-0.7,0-0.7-0.7V0.8C72.7,0,73.5,0,73.5,0z"/>
	</g>
	<g>
		<path fill-rule="evenodd" clip-rule="evenodd" fill="#FFFFFF" d="M111,11.4V0.7c0-0.7-0.7-0.7-0.7-0.7H95.1c0,0-0.7,0-0.7,0.7v0.8
			c0,0.7,0.7,0.7,0.7,0.7H108c0,0,0.8,0,0.8,0.7v1.6H95.1c0,0-0.7,0-0.7,0.7v6.1c0,0.7,0.7,0.7,0.7,0.7h15.2
			C110.3,12.1,111,12.1,111,11.4L111,11.4z M108.8,6.8v2.3c0,0.8-0.7,0.8-0.7,0.8H97.4c0,0-0.7,0-0.7-0.7l0-1.6
			c0-0.7,0.7-0.7,0.7-0.7H108.8z"/>
	</g>
	<g>
		<path fill-rule="evenodd" clip-rule="evenodd" fill="#FFFFFF" d="M117.1,9.9h1.5H130c0,0,0.7,0,0.7-0.7V8.3c0-0.7-0.7-0.7-0.7-0.7
			h-12.9c0,0-0.7,0-0.7-0.7V0.8c0-0.7,0.7-0.7,0.7-0.7l15.1,0c0,0,0.7,0,0.7,0.7v2.3c0,0.7-0.7,0.7-0.7,0.7h-0.8c0,0-0.7,0-0.7-0.7
			V2.3h-11.4c0,0-0.7,0-0.7,0.7v1.5c0,0.8,0.7,0.8,0.7,0.8h12.9c0,0,0.7,0,0.7,0.7v5.3c0,0.7-0.7,0.7-0.7,0.7h-15.1
			c0,0-0.7,0-0.7-0.7v-0.8C116.3,9.9,117.1,9.9,117.1,9.9z"/>
	</g>
	<g>
		<g>
			<g>
				<path fill-rule="evenodd" clip-rule="evenodd" fill="#FFFFFF" d="M79.4,23.7h-5.3c0,0-0.7,0-0.7,0.7v8.4c0,0.7-0.7,0.7-0.7,0.7
					h-0.8c0,0-0.7,0-0.7-0.7l0-8.3c0-0.8-0.7-0.8-0.7-0.8h-6.1v9.1c0,0.7-0.7,0.7-0.7,0.7h-0.8c0,0-0.7,0-0.7-0.7v-9.1h-2.1
					c0,0-0.7,0-0.7-0.7v-0.8c0-0.7,0.7-0.7,0.7-0.7h21.8c0,0,0.7,0,0.7,0.7v10.6c0,0.7-0.7,0.7-0.7,0.7h-0.8c0,0-0.7,0-0.7-0.7v-8.3
					C80.1,23.7,79.4,23.7,79.4,23.7L79.4,23.7z"/>
			</g>
			<g>
				<path fill-rule="evenodd" clip-rule="evenodd" fill="#FFFFFF" d="M104.4,32.8V22.2c0-0.7-0.7-0.7-0.7-0.7H88.4
					c0,0-0.7,0-0.7,0.7V23c0,0.7,0.7,0.7,0.7,0.7h12.9c0,0,0.8,0,0.8,0.7V26H88.4c0,0-0.7,0-0.7,0.7v6.1c0,0.7,0.7,0.7,0.7,0.7h15.2
					C103.6,33.6,104.3,33.6,104.4,32.8L104.4,32.8z M102.1,28.3v2.3c0,0.8-0.7,0.8-0.7,0.8H90.7c0,0-0.8,0-0.8-0.7V29
					c0-0.7,0.7-0.7,0.7-0.7H102.1z"/>
			</g>
			<g>
				<path fill-rule="evenodd" clip-rule="evenodd" fill="#FFFFFF" d="M47.9,33.6c0,0,0.7,0,0.7-0.7l0-2.7c0-0.7-0.7-0.7-0.7-0.7
					h-0.8c0,0-0.7,0-0.7,0.7l0,0.4c0,0.8-0.7,0.8-0.7,0.8H35c0,0-0.7,0-0.7-0.7l0-8.3c0-0.7-0.7-0.7-0.7-0.7h-0.8c0,0-0.7,0-0.7,0.7
					v10.6c0,0.7,0.7,0.7,0.7,0.7S42.2,33.6,47.9,33.6z"/>
			</g>
			<g>
				<path fill-rule="evenodd" clip-rule="evenodd" fill="#FFFFFF" d="M110.6,21.4l15.2,0c0,0,0.7,0,0.7,0.7l0,2.3
					c0,0.7-0.7,0.7-0.7,0.7H125c0,0-0.7,0-0.7-0.7l0-0.8h-11.3c0,0-0.7,0-0.7,0.7v8.4c0,0.7-0.7,0.7-0.7,0.7h-0.8c0,0-0.7,0-0.7-0.7
					V22.2C109.8,21.4,110.6,21.4,110.6,21.4z"/>
			</g>
			<g>
				<path fill-rule="evenodd" clip-rule="evenodd" fill="#FFFFFF" d="M131.3,21.4l0.9,0c0,0,0.7,0,0.7,0.7l0,10.6
					c0,0.7-0.7,0.7-0.7,0.7h-0.8c0,0-0.7,0-0.7-0.7V22.2C130.5,21.4,131.3,21.4,131.3,21.4z"/>
			</g>
			<g>
				<path fill-rule="evenodd" clip-rule="evenodd" fill="#FFFFFF" d="M53.9,21.4l0.9,0c0,0,0.7,0,0.7,0.7l-0.1,10.6
					c0,0.7-0.7,0.7-0.7,0.7h-0.8c0,0-0.7,0-0.7-0.7V22.2C53.2,21.4,53.9,21.4,53.9,21.4z"/>
			</g>
		</g>
	</g>
	<g>
		<g>
			
				<path fill-rule="evenodd" clip-rule="evenodd" fill="#FFFFFF" stroke="#FFFFFF" stroke-width="1.3554" stroke-linecap="round" stroke-linejoin="round" stroke-miterlimit="3.8637" d="
				M6,21.5h-3v4.3c0,0,3.3,0,3,0c1.6,0,2.5-1,2.5-2.2C8.4,22.4,7.3,21.5,6,21.5z M5.9,25.3c0.4,0-2.3,0-2.3,0V22h2.3
				c1.3,0,1.9,0.7,1.9,1.6C7.8,24.4,7.3,25.3,5.9,25.3z"/>
			<path fill-rule="evenodd" clip-rule="evenodd" fill="#FFFFFF" stroke="#FFFFFF" stroke-miterlimit="10" d="M6,21.5h-3v4.3
				c0,0,3.3,0,3,0c1.6,0,2.5-1,2.5-2.2C8.4,22.4,7.3,21.5,6,21.5z M5.9,25.3c0.4,0-2.3,0-2.3,0V22h2.3c1.3,0,1.9,0.7,1.9,1.6
				C7.8,24.4,7.3,25.3,5.9,25.3z"/>
		</g>
		<g>
			
				<polygon fill-rule="evenodd" clip-rule="evenodd" fill="#FFFFFF" stroke="#FFFFFF" stroke-width="1.3554" stroke-linecap="round" stroke-linejoin="round" stroke-miterlimit="3.8637" points="
				16,25.3 11.8,25.3 11.8,23.8 14.1,23.8 14.1,23.4 11.8,23.4 11.8,21.9 15.9,21.9 15.9,21.5 11.2,21.5 11.2,25.8 16,25.8 			"/>
			<polygon fill-rule="evenodd" clip-rule="evenodd" fill="#FFFFFF" stroke="#FFFFFF" stroke-miterlimit="10" points="16,25.3 
				11.8,25.3 11.8,23.8 14.1,23.8 14.1,23.4 11.8,23.4 11.8,21.9 15.9,21.9 15.9,21.5 11.2,21.5 11.2,25.8 16,25.8 			"/>
		</g>
		<g>
			<polygon fill-rule="evenodd" clip-rule="evenodd" fill="#FFFFFF" stroke="#FFFFFF" stroke-width="0.9527" points="23.4,25.3 
				19.4,25.3 19.4,21.5 18.8,21.5 18.8,25.8 23.4,25.8 			"/>
			<polygon fill-rule="evenodd" clip-rule="evenodd" fill="#FFFFFF" stroke="#FFFFFF" stroke-miterlimit="10" points="23.4,25.3 
				19.4,25.3 19.4,21.5 18.8,21.5 18.8,25.8 23.4,25.8 			"/>
		</g>
	</g>
	<g>
		<g>
			<path fill-rule="evenodd" clip-rule="evenodd" fill="#FFFFFF" d="M60.6,0.3l0,2.5c0,0,0,0.3-0.3,0.3l-2.6,0
				c-0.3,0-0.3-0.3-0.3-0.3V0.3c0,0,0-0.3,0.3-0.3h2.6C60.6,0,60.6,0.3,60.6,0.3z"/>
		</g>
	</g>
	<g>
		<g>
			<path fill-rule="evenodd" clip-rule="evenodd" fill="#FFFFFF" d="M133.4,15.5l0,2.5c0,0,0,0.3-0.3,0.3l-2.6,0
				c-0.3,0-0.3-0.3-0.3-0.3v-2.5c0,0,0-0.3,0.3-0.3h2.6C133.4,15.2,133.4,15.5,133.4,15.5z"/>
		</g>
	</g>
</g>
</svg>
