<!-- Generator: Adobe Illustrator 19.1.0, SVG Export Plug-In  -->
<svg version="1.1"
	 xmlns="http://www.w3.org/2000/svg" xmlns:xlink="http://www.w3.org/1999/xlink" xmlns:a="http://ns.adobe.com/AdobeSVGViewerExtensions/3.0/"
	 x="0px" y="0px" width="735.7px" height="371.2px" viewBox="0 0 735.7 371.2" enable-background="new 0 0 735.7 371.2"
	 xml:space="preserve">
<defs>
	
		<pattern  x="694.5" y="200.8" width="72" height="72" patternUnits="userSpaceOnUse" id="Unnamed_Pattern" viewBox="0 -72 72 72" overflow="visible">
		<g>
			<polygon fill="none" points="0,-72 72,-72 72,0 0,0 			"/>
			<g>
				<defs>
					<rect id="SVGID_1_" y="-72" width="72" height="72"/>
				</defs>
				<clipPath id="SVGID_2_">
					<use xlink:href="#SVGID_1_"  overflow="visible"/>
				</clipPath>
				
					<line clip-path="url(#SVGID_2_)" fill="none" stroke="#1D1D1B" stroke-width="0.5" stroke-linecap="round" x1="21" y1="-2.8" x2="21" y2="-2.8"/>
				
					<line clip-path="url(#SVGID_2_)" fill="none" stroke="#1D1D1B" stroke-width="0.5" stroke-linecap="round" x1="20" y1="-8" x2="20" y2="-8"/>
				
					<line clip-path="url(#SVGID_2_)" fill="none" stroke="#1D1D1B" stroke-width="0.5" stroke-linecap="round" x1="20.2" y1="-10.2" x2="20.2" y2="-10.2"/>
				
					<line clip-path="url(#SVGID_2_)" fill="none" stroke="#1D1D1B" stroke-width="0.5" stroke-linecap="round" x1="18" y1="-12.5" x2="18" y2="-12.5"/>
				
					<line clip-path="url(#SVGID_2_)" fill="none" stroke="#1D1D1B" stroke-width="0.5" stroke-linecap="round" x1="15.2" y1="-10.2" x2="15.2" y2="-10.2"/>
				
					<line clip-path="url(#SVGID_2_)" fill="none" stroke="#1D1D1B" stroke-width="0.5" stroke-linecap="round" x1="22.8" y1="-19.8" x2="22.8" y2="-19.8"/>
				
					<line clip-path="url(#SVGID_2_)" fill="none" stroke="#1D1D1B" stroke-width="0.5" stroke-linecap="round" x1="15.2" y1="-22.8" x2="15.2" y2="-22.8"/>
				
					<line clip-path="url(#SVGID_2_)" fill="none" stroke="#1D1D1B" stroke-width="0.5" stroke-linecap="round" x1="14" y1="-23.8" x2="14" y2="-23.8"/>
				
					<line clip-path="url(#SVGID_2_)" fill="none" stroke="#1D1D1B" stroke-width="0.5" stroke-linecap="round" x1="24" y1="-26.8" x2="24" y2="-26.8"/>
				
					<line clip-path="url(#SVGID_2_)" fill="none" stroke="#1D1D1B" stroke-width="0.5" stroke-linecap="round" x1="30.8" y1="-25.5" x2="30.8" y2="-25.5"/>
				
					<line clip-path="url(#SVGID_2_)" fill="none" stroke="#1D1D1B" stroke-width="0.5" stroke-linecap="round" x1="31.2" y1="-23" x2="31.2" y2="-23"/>
				
					<line clip-path="url(#SVGID_2_)" fill="none" stroke="#1D1D1B" stroke-width="0.5" stroke-linecap="round" x1="29.2" y1="-18" x2="29.2" y2="-18"/>
				
					<line clip-path="url(#SVGID_2_)" fill="none" stroke="#1D1D1B" stroke-width="0.5" stroke-linecap="round" x1="32.2" y1="-18" x2="32.2" y2="-18"/>
				
					<line clip-path="url(#SVGID_2_)" fill="none" stroke="#1D1D1B" stroke-width="0.5" stroke-linecap="round" x1="32.5" y1="-13.5" x2="32.5" y2="-13.5"/>
				
					<line clip-path="url(#SVGID_2_)" fill="none" stroke="#1D1D1B" stroke-width="0.5" stroke-linecap="round" x1="31.8" y1="-11.5" x2="31.8" y2="-11.5"/>
				
					<line clip-path="url(#SVGID_2_)" fill="none" stroke="#1D1D1B" stroke-width="0.5" stroke-linecap="round" x1="29.2" y1="-10.5" x2="29.2" y2="-10.5"/>
				
					<line clip-path="url(#SVGID_2_)" fill="none" stroke="#1D1D1B" stroke-width="0.5" stroke-linecap="round" x1="32.2" y1="-6.8" x2="32.2" y2="-6.8"/>
				
					<line clip-path="url(#SVGID_2_)" fill="none" stroke="#1D1D1B" stroke-width="0.5" stroke-linecap="round" x1="32" y1="-2.8" x2="32" y2="-2.8"/>
				
					<line clip-path="url(#SVGID_2_)" fill="none" stroke="#1D1D1B" stroke-width="0.5" stroke-linecap="round" x1="29.2" y1="-3" x2="29.2" y2="-3"/>
				
					<line clip-path="url(#SVGID_2_)" fill="none" stroke="#1D1D1B" stroke-width="0.5" stroke-linecap="round" x1="34" y1="-1" x2="34" y2="-1"/>
				
					<line clip-path="url(#SVGID_2_)" fill="none" stroke="#1D1D1B" stroke-width="0.5" stroke-linecap="round" x1="41.5" y1="-6.8" x2="41.5" y2="-6.8"/>
				
					<line clip-path="url(#SVGID_2_)" fill="none" stroke="#1D1D1B" stroke-width="0.5" stroke-linecap="round" x1="45.5" y1="-6.5" x2="45.5" y2="-6.5"/>
				
					<line clip-path="url(#SVGID_2_)" fill="none" stroke="#1D1D1B" stroke-width="0.5" stroke-linecap="round" x1="40.2" y1="-10" x2="40.2" y2="-10"/>
				
					<line clip-path="url(#SVGID_2_)" fill="none" stroke="#1D1D1B" stroke-width="0.5" stroke-linecap="round" x1="45" y1="-11.5" x2="45" y2="-11.5"/>
				
					<line clip-path="url(#SVGID_2_)" fill="none" stroke="#1D1D1B" stroke-width="0.5" stroke-linecap="round" x1="45" y1="-13.2" x2="45" y2="-13.2"/>
				
					<line clip-path="url(#SVGID_2_)" fill="none" stroke="#1D1D1B" stroke-width="0.5" stroke-linecap="round" x1="47" y1="-14" x2="47" y2="-14"/>
				
					<line clip-path="url(#SVGID_2_)" fill="none" stroke="#1D1D1B" stroke-width="0.5" stroke-linecap="round" x1="47" y1="-16" x2="47" y2="-16"/>
				
					<line clip-path="url(#SVGID_2_)" fill="none" stroke="#1D1D1B" stroke-width="0.5" stroke-linecap="round" x1="47.2" y1="-22.5" x2="47.2" y2="-22.5"/>
				
					<line clip-path="url(#SVGID_2_)" fill="none" stroke="#1D1D1B" stroke-width="0.5" stroke-linecap="round" x1="39" y1="-20.5" x2="39" y2="-20.5"/>
				
					<line clip-path="url(#SVGID_2_)" fill="none" stroke="#1D1D1B" stroke-width="0.5" stroke-linecap="round" x1="50.2" y1="-13.2" x2="50.2" y2="-13.2"/>
				
					<line clip-path="url(#SVGID_2_)" fill="none" stroke="#1D1D1B" stroke-width="0.5" stroke-linecap="round" x1="52.2" y1="-11.8" x2="52.2" y2="-11.8"/>
				
					<line clip-path="url(#SVGID_2_)" fill="none" stroke="#1D1D1B" stroke-width="0.5" stroke-linecap="round" x1="54.8" y1="-10.8" x2="54.8" y2="-10.8"/>
				
					<line clip-path="url(#SVGID_2_)" fill="none" stroke="#1D1D1B" stroke-width="0.5" stroke-linecap="round" x1="54.8" y1="-6.5" x2="54.8" y2="-6.5"/>
				
					<line clip-path="url(#SVGID_2_)" fill="none" stroke="#1D1D1B" stroke-width="0.5" stroke-linecap="round" x1="56.5" y1="-0.5" x2="56.5" y2="-0.5"/>
				
					<line clip-path="url(#SVGID_2_)" fill="none" stroke="#1D1D1B" stroke-width="0.5" stroke-linecap="round" x1="64" y1="-6.2" x2="64" y2="-6.2"/>
				
					<line clip-path="url(#SVGID_2_)" fill="none" stroke="#1D1D1B" stroke-width="0.5" stroke-linecap="round" x1="65" y1="-2.2" x2="65" y2="-2.2"/>
				
					<line clip-path="url(#SVGID_2_)" fill="none" stroke="#1D1D1B" stroke-width="0.5" stroke-linecap="round" x1="68" y1="-2.8" x2="68" y2="-2.8"/>
				
					<line clip-path="url(#SVGID_2_)" fill="none" stroke="#1D1D1B" stroke-width="0.5" stroke-linecap="round" x1="68" y1="-10" x2="68" y2="-10"/>
				
					<line clip-path="url(#SVGID_2_)" fill="none" stroke="#1D1D1B" stroke-width="0.5" stroke-linecap="round" x1="64.2" y1="-12" x2="64.2" y2="-12"/>
				
					<line clip-path="url(#SVGID_2_)" fill="none" stroke="#1D1D1B" stroke-width="0.5" stroke-linecap="round" x1="65.2" y1="-15.5" x2="65.2" y2="-15.5"/>
				
					<line clip-path="url(#SVGID_2_)" fill="none" stroke="#1D1D1B" stroke-width="0.5" stroke-linecap="round" x1="64" y1="-19.5" x2="64" y2="-19.5"/>
				
					<line clip-path="url(#SVGID_2_)" fill="none" stroke="#1D1D1B" stroke-width="0.5" stroke-linecap="round" x1="66.2" y1="-19.5" x2="66.2" y2="-19.5"/>
				
					<line clip-path="url(#SVGID_2_)" fill="none" stroke="#1D1D1B" stroke-width="0.5" stroke-linecap="round" x1="68" y1="-21" x2="68" y2="-21"/>
				
					<line clip-path="url(#SVGID_2_)" fill="none" stroke="#1D1D1B" stroke-width="0.5" stroke-linecap="round" x1="69.2" y1="-20" x2="69.2" y2="-20"/>
				
					<line clip-path="url(#SVGID_2_)" fill="none" stroke="#1D1D1B" stroke-width="0.5" stroke-linecap="round" x1="69.5" y1="-17.8" x2="69.5" y2="-17.8"/>
				
					<line clip-path="url(#SVGID_2_)" fill="none" stroke="#1D1D1B" stroke-width="0.5" stroke-linecap="round" x1="71.2" y1="-17.2" x2="71.2" y2="-17.2"/>
				
					<line clip-path="url(#SVGID_2_)" fill="none" stroke="#1D1D1B" stroke-width="0.5" stroke-linecap="round" x1="8" y1="-46.8" x2="8" y2="-46.8"/>
				
					<line clip-path="url(#SVGID_2_)" fill="none" stroke="#1D1D1B" stroke-width="0.5" stroke-linecap="round" x1="7" y1="-52" x2="7" y2="-52"/>
				
					<line clip-path="url(#SVGID_2_)" fill="none" stroke="#1D1D1B" stroke-width="0.5" stroke-linecap="round" x1="7.2" y1="-54.2" x2="7.2" y2="-54.2"/>
				
					<line clip-path="url(#SVGID_2_)" fill="none" stroke="#1D1D1B" stroke-width="0.5" stroke-linecap="round" x1="5" y1="-56.5" x2="5" y2="-56.5"/>
				
					<line clip-path="url(#SVGID_2_)" fill="none" stroke="#1D1D1B" stroke-width="0.5" stroke-linecap="round" x1="2.2" y1="-54.2" x2="2.2" y2="-54.2"/>
				
					<line clip-path="url(#SVGID_2_)" fill="none" stroke="#1D1D1B" stroke-width="0.5" stroke-linecap="round" x1="9.8" y1="-63.8" x2="9.8" y2="-63.8"/>
				
					<line clip-path="url(#SVGID_2_)" fill="none" stroke="#1D1D1B" stroke-width="0.5" stroke-linecap="round" x1="2.2" y1="-66.8" x2="2.2" y2="-66.8"/>
				
					<line clip-path="url(#SVGID_2_)" fill="none" stroke="#1D1D1B" stroke-width="0.5" stroke-linecap="round" x1="1" y1="-67.8" x2="1" y2="-67.8"/>
				
					<line clip-path="url(#SVGID_2_)" fill="none" stroke="#1D1D1B" stroke-width="0.5" stroke-linecap="round" x1="11" y1="-70.8" x2="11" y2="-70.8"/>
				
					<line clip-path="url(#SVGID_2_)" fill="none" stroke="#1D1D1B" stroke-width="0.5" stroke-linecap="round" x1="17.8" y1="-69.5" x2="17.8" y2="-69.5"/>
				
					<line clip-path="url(#SVGID_2_)" fill="none" stroke="#1D1D1B" stroke-width="0.5" stroke-linecap="round" x1="18.2" y1="-67" x2="18.2" y2="-67"/>
				
					<line clip-path="url(#SVGID_2_)" fill="none" stroke="#1D1D1B" stroke-width="0.5" stroke-linecap="round" x1="16.2" y1="-62" x2="16.2" y2="-62"/>
				
					<line clip-path="url(#SVGID_2_)" fill="none" stroke="#1D1D1B" stroke-width="0.5" stroke-linecap="round" x1="19.2" y1="-62" x2="19.2" y2="-62"/>
				
					<line clip-path="url(#SVGID_2_)" fill="none" stroke="#1D1D1B" stroke-width="0.5" stroke-linecap="round" x1="19.5" y1="-57.5" x2="19.5" y2="-57.5"/>
				
					<line clip-path="url(#SVGID_2_)" fill="none" stroke="#1D1D1B" stroke-width="0.5" stroke-linecap="round" x1="18.8" y1="-55.5" x2="18.8" y2="-55.5"/>
				
					<line clip-path="url(#SVGID_2_)" fill="none" stroke="#1D1D1B" stroke-width="0.5" stroke-linecap="round" x1="16.2" y1="-54.5" x2="16.2" y2="-54.5"/>
				
					<line clip-path="url(#SVGID_2_)" fill="none" stroke="#1D1D1B" stroke-width="0.5" stroke-linecap="round" x1="19.2" y1="-50.8" x2="19.2" y2="-50.8"/>
				
					<line clip-path="url(#SVGID_2_)" fill="none" stroke="#1D1D1B" stroke-width="0.5" stroke-linecap="round" x1="19" y1="-46.8" x2="19" y2="-46.8"/>
				
					<line clip-path="url(#SVGID_2_)" fill="none" stroke="#1D1D1B" stroke-width="0.5" stroke-linecap="round" x1="16.2" y1="-47" x2="16.2" y2="-47"/>
				
					<line clip-path="url(#SVGID_2_)" fill="none" stroke="#1D1D1B" stroke-width="0.5" stroke-linecap="round" x1="21" y1="-45" x2="21" y2="-45"/>
				
					<line clip-path="url(#SVGID_2_)" fill="none" stroke="#1D1D1B" stroke-width="0.5" stroke-linecap="round" x1="28.5" y1="-50.8" x2="28.5" y2="-50.8"/>
				
					<line clip-path="url(#SVGID_2_)" fill="none" stroke="#1D1D1B" stroke-width="0.5" stroke-linecap="round" x1="32.5" y1="-50.5" x2="32.5" y2="-50.5"/>
				
					<line clip-path="url(#SVGID_2_)" fill="none" stroke="#1D1D1B" stroke-width="0.5" stroke-linecap="round" x1="27.2" y1="-54" x2="27.2" y2="-54"/>
				
					<line clip-path="url(#SVGID_2_)" fill="none" stroke="#1D1D1B" stroke-width="0.5" stroke-linecap="round" x1="32" y1="-55.5" x2="32" y2="-55.5"/>
				
					<line clip-path="url(#SVGID_2_)" fill="none" stroke="#1D1D1B" stroke-width="0.5" stroke-linecap="round" x1="32" y1="-57.2" x2="32" y2="-57.2"/>
				
					<line clip-path="url(#SVGID_2_)" fill="none" stroke="#1D1D1B" stroke-width="0.5" stroke-linecap="round" x1="34" y1="-58" x2="34" y2="-58"/>
				
					<line clip-path="url(#SVGID_2_)" fill="none" stroke="#1D1D1B" stroke-width="0.5" stroke-linecap="round" x1="34" y1="-60" x2="34" y2="-60"/>
				
					<line clip-path="url(#SVGID_2_)" fill="none" stroke="#1D1D1B" stroke-width="0.5" stroke-linecap="round" x1="34.2" y1="-66.5" x2="34.2" y2="-66.5"/>
				
					<line clip-path="url(#SVGID_2_)" fill="none" stroke="#1D1D1B" stroke-width="0.5" stroke-linecap="round" x1="26" y1="-64.5" x2="26" y2="-64.5"/>
				
					<line clip-path="url(#SVGID_2_)" fill="none" stroke="#1D1D1B" stroke-width="0.5" stroke-linecap="round" x1="37.2" y1="-57.2" x2="37.2" y2="-57.2"/>
				
					<line clip-path="url(#SVGID_2_)" fill="none" stroke="#1D1D1B" stroke-width="0.5" stroke-linecap="round" x1="39.2" y1="-55.8" x2="39.2" y2="-55.8"/>
				
					<line clip-path="url(#SVGID_2_)" fill="none" stroke="#1D1D1B" stroke-width="0.5" stroke-linecap="round" x1="41.8" y1="-54.8" x2="41.8" y2="-54.8"/>
				
					<line clip-path="url(#SVGID_2_)" fill="none" stroke="#1D1D1B" stroke-width="0.5" stroke-linecap="round" x1="41.8" y1="-50.5" x2="41.8" y2="-50.5"/>
				
					<line clip-path="url(#SVGID_2_)" fill="none" stroke="#1D1D1B" stroke-width="0.5" stroke-linecap="round" x1="43.5" y1="-44.5" x2="43.5" y2="-44.5"/>
				
					<line clip-path="url(#SVGID_2_)" fill="none" stroke="#1D1D1B" stroke-width="0.5" stroke-linecap="round" x1="51" y1="-50.2" x2="51" y2="-50.2"/>
				
					<line clip-path="url(#SVGID_2_)" fill="none" stroke="#1D1D1B" stroke-width="0.5" stroke-linecap="round" x1="52" y1="-46.2" x2="52" y2="-46.2"/>
				
					<line clip-path="url(#SVGID_2_)" fill="none" stroke="#1D1D1B" stroke-width="0.5" stroke-linecap="round" x1="55" y1="-46.8" x2="55" y2="-46.8"/>
				
					<line clip-path="url(#SVGID_2_)" fill="none" stroke="#1D1D1B" stroke-width="0.5" stroke-linecap="round" x1="55" y1="-54" x2="55" y2="-54"/>
				
					<line clip-path="url(#SVGID_2_)" fill="none" stroke="#1D1D1B" stroke-width="0.5" stroke-linecap="round" x1="51.2" y1="-56" x2="51.2" y2="-56"/>
				
					<line clip-path="url(#SVGID_2_)" fill="none" stroke="#1D1D1B" stroke-width="0.5" stroke-linecap="round" x1="52.2" y1="-59.5" x2="52.2" y2="-59.5"/>
				
					<line clip-path="url(#SVGID_2_)" fill="none" stroke="#1D1D1B" stroke-width="0.5" stroke-linecap="round" x1="51" y1="-63.5" x2="51" y2="-63.5"/>
				
					<line clip-path="url(#SVGID_2_)" fill="none" stroke="#1D1D1B" stroke-width="0.5" stroke-linecap="round" x1="53.2" y1="-63.5" x2="53.2" y2="-63.5"/>
				
					<line clip-path="url(#SVGID_2_)" fill="none" stroke="#1D1D1B" stroke-width="0.5" stroke-linecap="round" x1="55" y1="-65" x2="55" y2="-65"/>
				
					<line clip-path="url(#SVGID_2_)" fill="none" stroke="#1D1D1B" stroke-width="0.5" stroke-linecap="round" x1="56.2" y1="-64" x2="56.2" y2="-64"/>
				
					<line clip-path="url(#SVGID_2_)" fill="none" stroke="#1D1D1B" stroke-width="0.5" stroke-linecap="round" x1="56.5" y1="-61.8" x2="56.5" y2="-61.8"/>
				
					<line clip-path="url(#SVGID_2_)" fill="none" stroke="#1D1D1B" stroke-width="0.5" stroke-linecap="round" x1="58.2" y1="-61.2" x2="58.2" y2="-61.2"/>
				
					<line clip-path="url(#SVGID_2_)" fill="none" stroke="#1D1D1B" stroke-width="0.5" stroke-linecap="round" x1="21" y1="-26.8" x2="21" y2="-26.8"/>
				
					<line clip-path="url(#SVGID_2_)" fill="none" stroke="#1D1D1B" stroke-width="0.5" stroke-linecap="round" x1="22.8" y1="-23.8" x2="22.8" y2="-23.8"/>
				
					<line clip-path="url(#SVGID_2_)" fill="none" stroke="#1D1D1B" stroke-width="0.5" stroke-linecap="round" x1="25.2" y1="-24.2" x2="25.2" y2="-24.2"/>
				
					<line clip-path="url(#SVGID_2_)" fill="none" stroke="#1D1D1B" stroke-width="0.5" stroke-linecap="round" x1="35.2" y1="-23" x2="35.2" y2="-23"/>
				
					<line clip-path="url(#SVGID_2_)" fill="none" stroke="#1D1D1B" stroke-width="0.5" stroke-linecap="round" x1="39" y1="-24.5" x2="39" y2="-24.5"/>
				
					<line clip-path="url(#SVGID_2_)" fill="none" stroke="#1D1D1B" stroke-width="0.5" stroke-linecap="round" x1="45" y1="-29.2" x2="45" y2="-29.2"/>
				
					<line clip-path="url(#SVGID_2_)" fill="none" stroke="#1D1D1B" stroke-width="0.5" stroke-linecap="round" x1="46.2" y1="-28.8" x2="46.2" y2="-28.8"/>
				
					<line clip-path="url(#SVGID_2_)" fill="none" stroke="#1D1D1B" stroke-width="0.5" stroke-linecap="round" x1="55.2" y1="-27.8" x2="55.2" y2="-27.8"/>
				
					<line clip-path="url(#SVGID_2_)" fill="none" stroke="#1D1D1B" stroke-width="0.5" stroke-linecap="round" x1="51.2" y1="-25" x2="51.2" y2="-25"/>
				
					<line clip-path="url(#SVGID_2_)" fill="none" stroke="#1D1D1B" stroke-width="0.5" stroke-linecap="round" x1="52" y1="-29.2" x2="52" y2="-29.2"/>
				
					<line clip-path="url(#SVGID_2_)" fill="none" stroke="#1D1D1B" stroke-width="0.5" stroke-linecap="round" x1="62.5" y1="-35.2" x2="62.5" y2="-35.2"/>
				
					<line clip-path="url(#SVGID_2_)" fill="none" stroke="#1D1D1B" stroke-width="0.5" stroke-linecap="round" x1="58.2" y1="-38" x2="58.2" y2="-38"/>
				
					<line clip-path="url(#SVGID_2_)" fill="none" stroke="#1D1D1B" stroke-width="0.5" stroke-linecap="round" x1="49" y1="-38.8" x2="49" y2="-38.8"/>
				
					<line clip-path="url(#SVGID_2_)" fill="none" stroke="#1D1D1B" stroke-width="0.5" stroke-linecap="round" x1="48" y1="-41" x2="48" y2="-41"/>
				
					<line clip-path="url(#SVGID_2_)" fill="none" stroke="#1D1D1B" stroke-width="0.5" stroke-linecap="round" x1="52" y1="-42.8" x2="52" y2="-42.8"/>
				
					<line clip-path="url(#SVGID_2_)" fill="none" stroke="#1D1D1B" stroke-width="0.5" stroke-linecap="round" x1="53.5" y1="-44.8" x2="53.5" y2="-44.8"/>
				
					<line clip-path="url(#SVGID_2_)" fill="none" stroke="#1D1D1B" stroke-width="0.5" stroke-linecap="round" x1="62.2" y1="-47.8" x2="62.2" y2="-47.8"/>
				
					<line clip-path="url(#SVGID_2_)" fill="none" stroke="#1D1D1B" stroke-width="0.5" stroke-linecap="round" x1="65" y1="-51.5" x2="65" y2="-51.5"/>
				
					<line clip-path="url(#SVGID_2_)" fill="none" stroke="#1D1D1B" stroke-width="0.5" stroke-linecap="round" x1="67" y1="-51.5" x2="67" y2="-51.5"/>
				
					<line clip-path="url(#SVGID_2_)" fill="none" stroke="#1D1D1B" stroke-width="0.5" stroke-linecap="round" x1="69.5" y1="-44.8" x2="69.5" y2="-44.8"/>
				
					<line clip-path="url(#SVGID_2_)" fill="none" stroke="#1D1D1B" stroke-width="0.5" stroke-linecap="round" x1="60" y1="-38.8" x2="60" y2="-38.8"/>
				
					<line clip-path="url(#SVGID_2_)" fill="none" stroke="#1D1D1B" stroke-width="0.5" stroke-linecap="round" x1="47.2" y1="-47.5" x2="47.2" y2="-47.5"/>
				
					<line clip-path="url(#SVGID_2_)" fill="none" stroke="#1D1D1B" stroke-width="0.5" stroke-linecap="round" x1="32.5" y1="-46.8" x2="32.5" y2="-46.8"/>
				
					<line clip-path="url(#SVGID_2_)" fill="none" stroke="#1D1D1B" stroke-width="0.5" stroke-linecap="round" x1="37" y1="-44.2" x2="37" y2="-44.2"/>
				
					<line clip-path="url(#SVGID_2_)" fill="none" stroke="#1D1D1B" stroke-width="0.5" stroke-linecap="round" x1="26.2" y1="-37.5" x2="26.2" y2="-37.5"/>
				
					<line clip-path="url(#SVGID_2_)" fill="none" stroke="#1D1D1B" stroke-width="0.5" stroke-linecap="round" x1="29.8" y1="-35.2" x2="29.8" y2="-35.2"/>
				
					<line clip-path="url(#SVGID_2_)" fill="none" stroke="#1D1D1B" stroke-width="0.5" stroke-linecap="round" x1="17" y1="-28.2" x2="17" y2="-28.2"/>
				
					<line clip-path="url(#SVGID_2_)" fill="none" stroke="#1D1D1B" stroke-width="0.5" stroke-linecap="round" x1="10.5" y1="-29.2" x2="10.5" y2="-29.2"/>
				
					<line clip-path="url(#SVGID_2_)" fill="none" stroke="#1D1D1B" stroke-width="0.5" stroke-linecap="round" x1="6" y1="-31.2" x2="6" y2="-31.2"/>
				
					<line clip-path="url(#SVGID_2_)" fill="none" stroke="#1D1D1B" stroke-width="0.5" stroke-linecap="round" x1="2.5" y1="-35" x2="2.5" y2="-35"/>
				
					<line clip-path="url(#SVGID_2_)" fill="none" stroke="#1D1D1B" stroke-width="0.5" stroke-linecap="round" x1="11.2" y1="-36.5" x2="11.2" y2="-36.5"/>
				
					<line clip-path="url(#SVGID_2_)" fill="none" stroke="#1D1D1B" stroke-width="0.5" stroke-linecap="round" x1="17" y1="-41.8" x2="17" y2="-41.8"/>
				
					<line clip-path="url(#SVGID_2_)" fill="none" stroke="#1D1D1B" stroke-width="0.5" stroke-linecap="round" x1="12.8" y1="-35.8" x2="12.8" y2="-35.8"/>
				
					<line clip-path="url(#SVGID_2_)" fill="none" stroke="#1D1D1B" stroke-width="0.5" stroke-linecap="round" x1="26.5" y1="-30" x2="26.5" y2="-30"/>
				
					<line clip-path="url(#SVGID_2_)" fill="none" stroke="#1D1D1B" stroke-width="0.5" stroke-linecap="round" x1="37.8" y1="-30.8" x2="37.8" y2="-30.8"/>
				
					<line clip-path="url(#SVGID_2_)" fill="none" stroke="#1D1D1B" stroke-width="0.5" stroke-linecap="round" x1="39.5" y1="-32.2" x2="39.5" y2="-32.2"/>
				
					<line clip-path="url(#SVGID_2_)" fill="none" stroke="#1D1D1B" stroke-width="0.5" stroke-linecap="round" x1="28" y1="-41.8" x2="28" y2="-41.8"/>
				
					<line clip-path="url(#SVGID_2_)" fill="none" stroke="#1D1D1B" stroke-width="0.5" stroke-linecap="round" x1="6.5" y1="-20.2" x2="6.5" y2="-20.2"/>
				
					<line clip-path="url(#SVGID_2_)" fill="none" stroke="#1D1D1B" stroke-width="0.5" stroke-linecap="round" x1="10.2" y1="-20" x2="10.2" y2="-20"/>
				
					<line clip-path="url(#SVGID_2_)" fill="none" stroke="#1D1D1B" stroke-width="0.5" stroke-linecap="round" x1="11.8" y1="-23.2" x2="11.8" y2="-23.2"/>
				
					<line clip-path="url(#SVGID_2_)" fill="none" stroke="#1D1D1B" stroke-width="0.5" stroke-linecap="round" x1="3" y1="-25.5" x2="3" y2="-25.5"/>
				
					<line clip-path="url(#SVGID_2_)" fill="none" stroke="#1D1D1B" stroke-width="0.5" stroke-linecap="round" x1="64.2" y1="-29.2" x2="64.2" y2="-29.2"/>
				
					<line clip-path="url(#SVGID_2_)" fill="none" stroke="#1D1D1B" stroke-width="0.5" stroke-linecap="round" x1="67.5" y1="-30.5" x2="67.5" y2="-30.5"/>
				
					<line clip-path="url(#SVGID_2_)" fill="none" stroke="#1D1D1B" stroke-width="0.5" stroke-linecap="round" x1="69.5" y1="-29.5" x2="69.5" y2="-29.5"/>
				
					<line clip-path="url(#SVGID_2_)" fill="none" stroke="#1D1D1B" stroke-width="0.5" stroke-linecap="round" x1="7.2" y1="-15.5" x2="7.2" y2="-15.5"/>
				
					<line clip-path="url(#SVGID_2_)" fill="none" stroke="#1D1D1B" stroke-width="0.5" stroke-linecap="round" x1="1.5" y1="-8.8" x2="1.5" y2="-8.8"/>
				
					<line clip-path="url(#SVGID_2_)" fill="none" stroke="#1D1D1B" stroke-width="0.5" stroke-linecap="round" x1="14.5" y1="-6.2" x2="14.5" y2="-6.2"/>
				
					<line clip-path="url(#SVGID_2_)" fill="none" stroke="#1D1D1B" stroke-width="0.5" stroke-linecap="round" x1="8.5" y1="-5" x2="8.5" y2="-5"/>
				
					<line clip-path="url(#SVGID_2_)" fill="none" stroke="#1D1D1B" stroke-width="0.5" stroke-linecap="round" x1="3.5" y1="-2.2" x2="3.5" y2="-2.2"/>
				
					<line clip-path="url(#SVGID_2_)" fill="none" stroke="#1D1D1B" stroke-width="0.5" stroke-linecap="round" x1="3.8" y1="-5.8" x2="3.8" y2="-5.8"/>
				
					<line clip-path="url(#SVGID_2_)" fill="none" stroke="#1D1D1B" stroke-width="0.5" stroke-linecap="round" x1="12.8" y1="-14" x2="12.8" y2="-14"/>
				
					<line clip-path="url(#SVGID_2_)" fill="none" stroke="#1D1D1B" stroke-width="0.5" stroke-linecap="round" x1="18.5" y1="-19" x2="18.5" y2="-19"/>
				
					<line clip-path="url(#SVGID_2_)" fill="none" stroke="#1D1D1B" stroke-width="0.5" stroke-linecap="round" x1="21.2" y1="-36.8" x2="21.2" y2="-36.8"/>
				
					<line clip-path="url(#SVGID_2_)" fill="none" stroke="#1D1D1B" stroke-width="0.5" stroke-linecap="round" x1="0.8" y1="-44" x2="0.8" y2="-44"/>
				
					<line clip-path="url(#SVGID_2_)" fill="none" stroke="#1D1D1B" stroke-width="0.5" stroke-linecap="round" x1="66.5" y1="-37" x2="66.5" y2="-37"/>
				
					<line clip-path="url(#SVGID_2_)" fill="none" stroke="#1D1D1B" stroke-width="0.5" stroke-linecap="round" x1="68" y1="-65.8" x2="68" y2="-65.8"/>
				
					<line clip-path="url(#SVGID_2_)" fill="none" stroke="#1D1D1B" stroke-width="0.5" stroke-linecap="round" x1="59.8" y1="-69.5" x2="59.8" y2="-69.5"/>
				
					<line clip-path="url(#SVGID_2_)" fill="none" stroke="#1D1D1B" stroke-width="0.5" stroke-linecap="round" x1="40.5" y1="-67.8" x2="40.5" y2="-67.8"/>
				
					<line clip-path="url(#SVGID_2_)" fill="none" stroke="#1D1D1B" stroke-width="0.5" stroke-linecap="round" x1="44" y1="-62.8" x2="44" y2="-62.8"/>
				
					<line clip-path="url(#SVGID_2_)" fill="none" stroke="#1D1D1B" stroke-width="0.5" stroke-linecap="round" x1="25.8" y1="-69.8" x2="25.8" y2="-69.8"/>
				
					<line clip-path="url(#SVGID_2_)" fill="none" stroke="#1D1D1B" stroke-width="0.5" stroke-linecap="round" x1="4.5" y1="-59.8" x2="4.5" y2="-59.8"/>
				
					<line clip-path="url(#SVGID_2_)" fill="none" stroke="#1D1D1B" stroke-width="0.5" stroke-linecap="round" x1="26.5" y1="-59.2" x2="26.5" y2="-59.2"/>
				
					<line clip-path="url(#SVGID_2_)" fill="none" stroke="#1D1D1B" stroke-width="0.5" stroke-linecap="round" x1="37.2" y1="-48.2" x2="37.2" y2="-48.2"/>
				
					<line clip-path="url(#SVGID_2_)" fill="none" stroke="#1D1D1B" stroke-width="0.5" stroke-linecap="round" x1="22" y1="-41.5" x2="22" y2="-41.5"/>
				
					<line clip-path="url(#SVGID_2_)" fill="none" stroke="#1D1D1B" stroke-width="0.5" stroke-linecap="round" x1="8.8" y1="-40" x2="8.8" y2="-40"/>
				
					<line clip-path="url(#SVGID_2_)" fill="none" stroke="#1D1D1B" stroke-width="0.5" stroke-linecap="round" x1="24" y1="-28.8" x2="24" y2="-28.8"/>
				
					<line clip-path="url(#SVGID_2_)" fill="none" stroke="#1D1D1B" stroke-width="0.5" stroke-linecap="round" x1="41.5" y1="-34.2" x2="41.5" y2="-34.2"/>
				
					<line clip-path="url(#SVGID_2_)" fill="none" stroke="#1D1D1B" stroke-width="0.5" stroke-linecap="round" x1="51.5" y1="-37.2" x2="51.5" y2="-37.2"/>
				
					<line clip-path="url(#SVGID_2_)" fill="none" stroke="#1D1D1B" stroke-width="0.5" stroke-linecap="round" x1="60.8" y1="-45.8" x2="60.8" y2="-45.8"/>
				
					<line clip-path="url(#SVGID_2_)" fill="none" stroke="#1D1D1B" stroke-width="0.5" stroke-linecap="round" x1="67.5" y1="-43.5" x2="67.5" y2="-43.5"/>
				
					<line clip-path="url(#SVGID_2_)" fill="none" stroke="#1D1D1B" stroke-width="0.5" stroke-linecap="round" x1="51.2" y1="-66" x2="51.2" y2="-66"/>
				
					<line clip-path="url(#SVGID_2_)" fill="none" stroke="#1D1D1B" stroke-width="0.5" stroke-linecap="round" x1="40" y1="-37.5" x2="40" y2="-37.5"/>
				
					<line clip-path="url(#SVGID_2_)" fill="none" stroke="#1D1D1B" stroke-width="0.5" stroke-linecap="round" x1="53.2" y1="-14.8" x2="53.2" y2="-14.8"/>
				
					<line clip-path="url(#SVGID_2_)" fill="none" stroke="#1D1D1B" stroke-width="0.5" stroke-linecap="round" x1="34" y1="-15.8" x2="34" y2="-15.8"/>
				
					<line clip-path="url(#SVGID_2_)" fill="none" stroke="#1D1D1B" stroke-width="0.5" stroke-linecap="round" x1="27.5" y1="-13.2" x2="27.5" y2="-13.2"/>
				
					<line clip-path="url(#SVGID_2_)" fill="none" stroke="#1D1D1B" stroke-width="0.5" stroke-linecap="round" x1="12.8" y1="-19" x2="12.8" y2="-19"/>
				
					<line clip-path="url(#SVGID_2_)" fill="none" stroke="#1D1D1B" stroke-width="0.5" stroke-linecap="round" x1="19.8" y1="-26.2" x2="19.8" y2="-26.2"/>
				
					<line clip-path="url(#SVGID_2_)" fill="none" stroke="#1D1D1B" stroke-width="0.5" stroke-linecap="round" x1="49.5" y1="-4.2" x2="49.5" y2="-4.2"/>
				
					<line clip-path="url(#SVGID_2_)" fill="none" stroke="#1D1D1B" stroke-width="0.5" stroke-linecap="round" x1="11.8" y1="-1.5" x2="11.8" y2="-1.5"/>
				
					<line clip-path="url(#SVGID_2_)" fill="none" stroke="#1D1D1B" stroke-width="0.5" stroke-linecap="round" x1="55.2" y1="-3.5" x2="55.2" y2="-3.5"/>
				
					<line clip-path="url(#SVGID_2_)" fill="none" stroke="#1D1D1B" stroke-width="0.5" stroke-linecap="round" x1="59" y1="-20.5" x2="59" y2="-20.5"/>
				
					<line clip-path="url(#SVGID_2_)" fill="none" stroke="#1D1D1B" stroke-width="0.5" stroke-linecap="round" x1="67.5" y1="-57" x2="67.5" y2="-57"/>
				
					<line clip-path="url(#SVGID_2_)" fill="none" stroke="#1D1D1B" stroke-width="0.5" stroke-linecap="round" x1="47.2" y1="-69.5" x2="47.2" y2="-69.5"/>
				
					<line clip-path="url(#SVGID_2_)" fill="none" stroke="#1D1D1B" stroke-width="0.5" stroke-linecap="round" x1="5.2" y1="-69.5" x2="5.2" y2="-69.5"/>
				
					<line clip-path="url(#SVGID_2_)" fill="none" stroke="#1D1D1B" stroke-width="0.5" stroke-linecap="round" x1="4.8" y1="-40" x2="4.8" y2="-40"/>
				
					<line clip-path="url(#SVGID_2_)" fill="none" stroke="#1D1D1B" stroke-width="0.5" stroke-linecap="round" x1="69.8" y1="-12.5" x2="69.8" y2="-12.5"/>
				
					<line clip-path="url(#SVGID_2_)" fill="none" stroke="#1D1D1B" stroke-width="0.5" stroke-linecap="round" x1="23.2" y1="-13.8" x2="23.2" y2="-13.8"/>
				
					<line clip-path="url(#SVGID_2_)" fill="none" stroke="#1D1D1B" stroke-width="0.5" stroke-linecap="round" x1="20.5" y1="-17" x2="20.5" y2="-17"/>
				
					<line clip-path="url(#SVGID_2_)" fill="none" stroke="#1D1D1B" stroke-width="0.5" stroke-linecap="round" x1="14.8" y1="-17" x2="14.8" y2="-17"/>
				
					<line clip-path="url(#SVGID_2_)" fill="none" stroke="#1D1D1B" stroke-width="0.5" stroke-linecap="round" x1="2.8" y1="-13" x2="2.8" y2="-13"/>
				
					<line clip-path="url(#SVGID_2_)" fill="none" stroke="#1D1D1B" stroke-width="0.5" stroke-linecap="round" x1="6" y1="-11.5" x2="6" y2="-11.5"/>
				
					<line clip-path="url(#SVGID_2_)" fill="none" stroke="#1D1D1B" stroke-width="0.5" stroke-linecap="round" x1="7" y1="-2.5" x2="7" y2="-2.5"/>
				
					<line clip-path="url(#SVGID_2_)" fill="none" stroke="#1D1D1B" stroke-width="0.5" stroke-linecap="round" x1="10" y1="-8" x2="10" y2="-8"/>
				
					<line clip-path="url(#SVGID_2_)" fill="none" stroke="#1D1D1B" stroke-width="0.5" stroke-linecap="round" x1="16" y1="-8" x2="16" y2="-8"/>
				
					<line clip-path="url(#SVGID_2_)" fill="none" stroke="#1D1D1B" stroke-width="0.5" stroke-linecap="round" x1="16.5" y1="-3" x2="16.5" y2="-3"/>
				
					<line clip-path="url(#SVGID_2_)" fill="none" stroke="#1D1D1B" stroke-width="0.5" stroke-linecap="round" x1="25.8" y1="-6.8" x2="25.8" y2="-6.8"/>
				
					<line clip-path="url(#SVGID_2_)" fill="none" stroke="#1D1D1B" stroke-width="0.5" stroke-linecap="round" x1="37" y1="-7.2" x2="37" y2="-7.2"/>
				
					<line clip-path="url(#SVGID_2_)" fill="none" stroke="#1D1D1B" stroke-width="0.5" stroke-linecap="round" x1="40.5" y1="-4.2" x2="40.5" y2="-4.2"/>
				
					<line clip-path="url(#SVGID_2_)" fill="none" stroke="#1D1D1B" stroke-width="0.5" stroke-linecap="round" x1="37.5" y1="-4" x2="37.5" y2="-4"/>
				
					<line clip-path="url(#SVGID_2_)" fill="none" stroke="#1D1D1B" stroke-width="0.5" stroke-linecap="round" x1="43.2" y1="-2" x2="43.2" y2="-2"/>
				
					<line clip-path="url(#SVGID_2_)" fill="none" stroke="#1D1D1B" stroke-width="0.5" stroke-linecap="round" x1="49.5" y1="-8" x2="49.5" y2="-8"/>
				
					<line clip-path="url(#SVGID_2_)" fill="none" stroke="#1D1D1B" stroke-width="0.5" stroke-linecap="round" x1="46" y1="-9" x2="46" y2="-9"/>
				
					<line clip-path="url(#SVGID_2_)" fill="none" stroke="#1D1D1B" stroke-width="0.5" stroke-linecap="round" x1="35.8" y1="-10.8" x2="35.8" y2="-10.8"/>
				
					<line clip-path="url(#SVGID_2_)" fill="none" stroke="#1D1D1B" stroke-width="0.5" stroke-linecap="round" x1="39.2" y1="-14.8" x2="39.2" y2="-14.8"/>
				
					<line clip-path="url(#SVGID_2_)" fill="none" stroke="#1D1D1B" stroke-width="0.5" stroke-linecap="round" x1="24.8" y1="-17.8" x2="24.8" y2="-17.8"/>
				
					<line clip-path="url(#SVGID_2_)" fill="none" stroke="#1D1D1B" stroke-width="0.5" stroke-linecap="round" x1="8.2" y1="-27" x2="8.2" y2="-27"/>
				
					<line clip-path="url(#SVGID_2_)" fill="none" stroke="#1D1D1B" stroke-width="0.5" stroke-linecap="round" x1="16" y1="-31.5" x2="16" y2="-31.5"/>
				
					<line clip-path="url(#SVGID_2_)" fill="none" stroke="#1D1D1B" stroke-width="0.5" stroke-linecap="round" x1="10.5" y1="-33.2" x2="10.5" y2="-33.2"/>
				
					<line clip-path="url(#SVGID_2_)" fill="none" stroke="#1D1D1B" stroke-width="0.5" stroke-linecap="round" x1="5.2" y1="-36.8" x2="5.2" y2="-36.8"/>
				
					<line clip-path="url(#SVGID_2_)" fill="none" stroke="#1D1D1B" stroke-width="0.5" stroke-linecap="round" x1="2.8" y1="-31.8" x2="2.8" y2="-31.8"/>
				
					<line clip-path="url(#SVGID_2_)" fill="none" stroke="#1D1D1B" stroke-width="0.5" stroke-linecap="round" x1="7.5" y1="-24.8" x2="7.5" y2="-24.8"/>
				
					<line clip-path="url(#SVGID_2_)" fill="none" stroke="#1D1D1B" stroke-width="0.5" stroke-linecap="round" x1="3.2" y1="-20.2" x2="3.2" y2="-20.2"/>
				
					<line clip-path="url(#SVGID_2_)" fill="none" stroke="#1D1D1B" stroke-width="0.5" stroke-linecap="round" x1="20.5" y1="-30.5" x2="20.5" y2="-30.5"/>
				
					<line clip-path="url(#SVGID_2_)" fill="none" stroke="#1D1D1B" stroke-width="0.5" stroke-linecap="round" x1="17.5" y1="-35.2" x2="17.5" y2="-35.2"/>
				
					<line clip-path="url(#SVGID_2_)" fill="none" stroke="#1D1D1B" stroke-width="0.5" stroke-linecap="round" x1="16" y1="-38.8" x2="16" y2="-38.8"/>
				
					<line clip-path="url(#SVGID_2_)" fill="none" stroke="#1D1D1B" stroke-width="0.5" stroke-linecap="round" x1="12.8" y1="-41" x2="12.8" y2="-41"/>
				
					<line clip-path="url(#SVGID_2_)" fill="none" stroke="#1D1D1B" stroke-width="0.5" stroke-linecap="round" x1="12.8" y1="-46.2" x2="12.8" y2="-46.2"/>
				
					<line clip-path="url(#SVGID_2_)" fill="none" stroke="#1D1D1B" stroke-width="0.5" stroke-linecap="round" x1="4" y1="-46.5" x2="4" y2="-46.5"/>
				
					<line clip-path="url(#SVGID_2_)" fill="none" stroke="#1D1D1B" stroke-width="0.5" stroke-linecap="round" x1="5.8" y1="-48.2" x2="5.8" y2="-48.2"/>
				
					<line clip-path="url(#SVGID_2_)" fill="none" stroke="#1D1D1B" stroke-width="0.5" stroke-linecap="round" x1="11" y1="-50.2" x2="11" y2="-50.2"/>
				
					<line clip-path="url(#SVGID_2_)" fill="none" stroke="#1D1D1B" stroke-width="0.5" stroke-linecap="round" x1="11" y1="-54.2" x2="11" y2="-54.2"/>
				
					<line clip-path="url(#SVGID_2_)" fill="none" stroke="#1D1D1B" stroke-width="0.5" stroke-linecap="round" x1="15.5" y1="-58.2" x2="15.5" y2="-58.2"/>
				
					<line clip-path="url(#SVGID_2_)" fill="none" stroke="#1D1D1B" stroke-width="0.5" stroke-linecap="round" x1="10" y1="-59.5" x2="10" y2="-59.5"/>
				
					<line clip-path="url(#SVGID_2_)" fill="none" stroke="#1D1D1B" stroke-width="0.5" stroke-linecap="round" x1="6" y1="-63.2" x2="6" y2="-63.2"/>
				
					<line clip-path="url(#SVGID_2_)" fill="none" stroke="#1D1D1B" stroke-width="0.5" stroke-linecap="round" x1="2.2" y1="-61.8" x2="2.2" y2="-61.8"/>
				
					<line clip-path="url(#SVGID_2_)" fill="none" stroke="#1D1D1B" stroke-width="0.5" stroke-linecap="round" x1="7.2" y1="-67.5" x2="7.2" y2="-67.5"/>
				
					<line clip-path="url(#SVGID_2_)" fill="none" stroke="#1D1D1B" stroke-width="0.5" stroke-linecap="round" x1="13.5" y1="-69.2" x2="13.5" y2="-69.2"/>
				
					<line clip-path="url(#SVGID_2_)" fill="none" stroke="#1D1D1B" stroke-width="0.5" stroke-linecap="round" x1="13.5" y1="-65.5" x2="13.5" y2="-65.5"/>
				
					<line clip-path="url(#SVGID_2_)" fill="none" stroke="#1D1D1B" stroke-width="0.5" stroke-linecap="round" x1="21.5" y1="-68.2" x2="21.5" y2="-68.2"/>
				
					<line clip-path="url(#SVGID_2_)" fill="none" stroke="#1D1D1B" stroke-width="0.5" stroke-linecap="round" x1="23" y1="-65.5" x2="23" y2="-65.5"/>
				
					<line clip-path="url(#SVGID_2_)" fill="none" stroke="#1D1D1B" stroke-width="0.5" stroke-linecap="round" x1="22.2" y1="-59.8" x2="22.2" y2="-59.8"/>
				
					<line clip-path="url(#SVGID_2_)" fill="none" stroke="#1D1D1B" stroke-width="0.5" stroke-linecap="round" x1="24.2" y1="-57.2" x2="24.2" y2="-57.2"/>
				
					<line clip-path="url(#SVGID_2_)" fill="none" stroke="#1D1D1B" stroke-width="0.5" stroke-linecap="round" x1="22" y1="-53" x2="22" y2="-53"/>
				
					<line clip-path="url(#SVGID_2_)" fill="none" stroke="#1D1D1B" stroke-width="0.5" stroke-linecap="round" x1="26.2" y1="-47.5" x2="26.2" y2="-47.5"/>
				
					<line clip-path="url(#SVGID_2_)" fill="none" stroke="#1D1D1B" stroke-width="0.5" stroke-linecap="round" x1="25.8" y1="-43.2" x2="25.8" y2="-43.2"/>
				
					<line clip-path="url(#SVGID_2_)" fill="none" stroke="#1D1D1B" stroke-width="0.5" stroke-linecap="round" x1="31.2" y1="-37.2" x2="31.2" y2="-37.2"/>
				
					<line clip-path="url(#SVGID_2_)" fill="none" stroke="#1D1D1B" stroke-width="0.5" stroke-linecap="round" x1="32.2" y1="-30.8" x2="32.2" y2="-30.8"/>
				
					<line clip-path="url(#SVGID_2_)" fill="none" stroke="#1D1D1B" stroke-width="0.5" stroke-linecap="round" x1="26" y1="-33.8" x2="26" y2="-33.8"/>
				
					<line clip-path="url(#SVGID_2_)" fill="none" stroke="#1D1D1B" stroke-width="0.5" stroke-linecap="round" x1="34.2" y1="-27.5" x2="34.2" y2="-27.5"/>
				
					<line clip-path="url(#SVGID_2_)" fill="none" stroke="#1D1D1B" stroke-width="0.5" stroke-linecap="round" x1="37.2" y1="-28.2" x2="37.2" y2="-28.2"/>
				
					<line clip-path="url(#SVGID_2_)" fill="none" stroke="#1D1D1B" stroke-width="0.5" stroke-linecap="round" x1="41.8" y1="-25.5" x2="41.8" y2="-25.5"/>
				
					<line clip-path="url(#SVGID_2_)" fill="none" stroke="#1D1D1B" stroke-width="0.5" stroke-linecap="round" x1="43" y1="-20.5" x2="43" y2="-20.5"/>
				
					<line clip-path="url(#SVGID_2_)" fill="none" stroke="#1D1D1B" stroke-width="0.5" stroke-linecap="round" x1="36.5" y1="-19" x2="36.5" y2="-19"/>
				
					<line clip-path="url(#SVGID_2_)" fill="none" stroke="#1D1D1B" stroke-width="0.5" stroke-linecap="round" x1="27.8" y1="-22" x2="27.8" y2="-22"/>
				
					<line clip-path="url(#SVGID_2_)" fill="none" stroke="#1D1D1B" stroke-width="0.5" stroke-linecap="round" x1="52" y1="-21.8" x2="52" y2="-21.8"/>
				
					<line clip-path="url(#SVGID_2_)" fill="none" stroke="#1D1D1B" stroke-width="0.5" stroke-linecap="round" x1="43.2" y1="-17.5" x2="43.2" y2="-17.5"/>
				
					<line clip-path="url(#SVGID_2_)" fill="none" stroke="#1D1D1B" stroke-width="0.5" stroke-linecap="round" x1="50.5" y1="-17.8" x2="50.5" y2="-17.8"/>
				
					<line clip-path="url(#SVGID_2_)" fill="none" stroke="#1D1D1B" stroke-width="0.5" stroke-linecap="round" x1="59.5" y1="-17" x2="59.5" y2="-17"/>
				
					<line clip-path="url(#SVGID_2_)" fill="none" stroke="#1D1D1B" stroke-width="0.5" stroke-linecap="round" x1="58.2" y1="-13.8" x2="58.2" y2="-13.8"/>
				
					<line clip-path="url(#SVGID_2_)" fill="none" stroke="#1D1D1B" stroke-width="0.5" stroke-linecap="round" x1="61.5" y1="-10.8" x2="61.5" y2="-10.8"/>
				
					<line clip-path="url(#SVGID_2_)" fill="none" stroke="#1D1D1B" stroke-width="0.5" stroke-linecap="round" x1="58.8" y1="-7.2" x2="58.8" y2="-7.2"/>
				
					<line clip-path="url(#SVGID_2_)" fill="none" stroke="#1D1D1B" stroke-width="0.5" stroke-linecap="round" x1="60" y1="-4.5" x2="60" y2="-4.5"/>
				
					<line clip-path="url(#SVGID_2_)" fill="none" stroke="#1D1D1B" stroke-width="0.5" stroke-linecap="round" x1="67.5" y1="-5.8" x2="67.5" y2="-5.8"/>
				
					<line clip-path="url(#SVGID_2_)" fill="none" stroke="#1D1D1B" stroke-width="0.5" stroke-linecap="round" x1="69.5" y1="-7.8" x2="69.5" y2="-7.8"/>
				
					<line clip-path="url(#SVGID_2_)" fill="none" stroke="#1D1D1B" stroke-width="0.5" stroke-linecap="round" x1="65.8" y1="-9.5" x2="65.8" y2="-9.5"/>
				
					<line clip-path="url(#SVGID_2_)" fill="none" stroke="#1D1D1B" stroke-width="0.5" stroke-linecap="round" x1="61.8" y1="-16.2" x2="61.8" y2="-16.2"/>
				
					<line clip-path="url(#SVGID_2_)" fill="none" stroke="#1D1D1B" stroke-width="0.5" stroke-linecap="round" x1="60.2" y1="-23.5" x2="60.2" y2="-23.5"/>
				
					<line clip-path="url(#SVGID_2_)" fill="none" stroke="#1D1D1B" stroke-width="0.5" stroke-linecap="round" x1="55.5" y1="-23.5" x2="55.5" y2="-23.5"/>
				
					<line clip-path="url(#SVGID_2_)" fill="none" stroke="#1D1D1B" stroke-width="0.5" stroke-linecap="round" x1="55.5" y1="-18.5" x2="55.5" y2="-18.5"/>
				
					<line clip-path="url(#SVGID_2_)" fill="none" stroke="#1D1D1B" stroke-width="0.5" stroke-linecap="round" x1="65" y1="-25.5" x2="65" y2="-25.5"/>
				
					<line clip-path="url(#SVGID_2_)" fill="none" stroke="#1D1D1B" stroke-width="0.5" stroke-linecap="round" x1="61.2" y1="-26.8" x2="61.2" y2="-26.8"/>
				
					<line clip-path="url(#SVGID_2_)" fill="none" stroke="#1D1D1B" stroke-width="0.5" stroke-linecap="round" x1="57.8" y1="-30.5" x2="57.8" y2="-30.5"/>
				
					<line clip-path="url(#SVGID_2_)" fill="none" stroke="#1D1D1B" stroke-width="0.5" stroke-linecap="round" x1="52.8" y1="-32.5" x2="52.8" y2="-32.5"/>
				
					<line clip-path="url(#SVGID_2_)" fill="none" stroke="#1D1D1B" stroke-width="0.5" stroke-linecap="round" x1="47.5" y1="-33.5" x2="47.5" y2="-33.5"/>
				
					<line clip-path="url(#SVGID_2_)" fill="none" stroke="#1D1D1B" stroke-width="0.5" stroke-linecap="round" x1="44.2" y1="-39" x2="44.2" y2="-39"/>
				
					<line clip-path="url(#SVGID_2_)" fill="none" stroke="#1D1D1B" stroke-width="0.5" stroke-linecap="round" x1="34" y1="-41.2" x2="34" y2="-41.2"/>
				
					<line clip-path="url(#SVGID_2_)" fill="none" stroke="#1D1D1B" stroke-width="0.5" stroke-linecap="round" x1="40.8" y1="-47.8" x2="40.8" y2="-47.8"/>
				
					<line clip-path="url(#SVGID_2_)" fill="none" stroke="#1D1D1B" stroke-width="0.5" stroke-linecap="round" x1="45.8" y1="-52" x2="45.8" y2="-52"/>
				
					<line clip-path="url(#SVGID_2_)" fill="none" stroke="#1D1D1B" stroke-width="0.5" stroke-linecap="round" x1="46.5" y1="-56.5" x2="46.5" y2="-56.5"/>
				
					<line clip-path="url(#SVGID_2_)" fill="none" stroke="#1D1D1B" stroke-width="0.5" stroke-linecap="round" x1="42" y1="-59.2" x2="42" y2="-59.2"/>
				
					<line clip-path="url(#SVGID_2_)" fill="none" stroke="#1D1D1B" stroke-width="0.5" stroke-linecap="round" x1="40" y1="-62.5" x2="40" y2="-62.5"/>
				
					<line clip-path="url(#SVGID_2_)" fill="none" stroke="#1D1D1B" stroke-width="0.5" stroke-linecap="round" x1="36" y1="-62.5" x2="36" y2="-62.5"/>
				
					<line clip-path="url(#SVGID_2_)" fill="none" stroke="#1D1D1B" stroke-width="0.5" stroke-linecap="round" x1="36.5" y1="-52.5" x2="36.5" y2="-52.5"/>
				
					<line clip-path="url(#SVGID_2_)" fill="none" stroke="#1D1D1B" stroke-width="0.5" stroke-linecap="round" x1="30" y1="-63.2" x2="30" y2="-63.2"/>
				
					<line clip-path="url(#SVGID_2_)" fill="none" stroke="#1D1D1B" stroke-width="0.5" stroke-linecap="round" x1="31.5" y1="-68.2" x2="31.5" y2="-68.2"/>
				
					<line clip-path="url(#SVGID_2_)" fill="none" stroke="#1D1D1B" stroke-width="0.5" stroke-linecap="round" x1="37" y1="-70.8" x2="37" y2="-70.8"/>
				
					<line clip-path="url(#SVGID_2_)" fill="none" stroke="#1D1D1B" stroke-width="0.5" stroke-linecap="round" x1="58.8" y1="-56.8" x2="58.8" y2="-56.8"/>
				
					<line clip-path="url(#SVGID_2_)" fill="none" stroke="#1D1D1B" stroke-width="0.5" stroke-linecap="round" x1="63" y1="-56.8" x2="63" y2="-56.8"/>
				
					<line clip-path="url(#SVGID_2_)" fill="none" stroke="#1D1D1B" stroke-width="0.5" stroke-linecap="round" x1="60" y1="-50.5" x2="60" y2="-50.5"/>
				
					<line clip-path="url(#SVGID_2_)" fill="none" stroke="#1D1D1B" stroke-width="0.5" stroke-linecap="round" x1="54.5" y1="-50.2" x2="54.5" y2="-50.2"/>
				
					<line clip-path="url(#SVGID_2_)" fill="none" stroke="#1D1D1B" stroke-width="0.5" stroke-linecap="round" x1="59.2" y1="-44" x2="59.2" y2="-44"/>
				
					<line clip-path="url(#SVGID_2_)" fill="none" stroke="#1D1D1B" stroke-width="0.5" stroke-linecap="round" x1="54.8" y1="-41.5" x2="54.8" y2="-41.5"/>
				
					<line clip-path="url(#SVGID_2_)" fill="none" stroke="#1D1D1B" stroke-width="0.5" stroke-linecap="round" x1="55.8" y1="-35.2" x2="55.8" y2="-35.2"/>
				
					<line clip-path="url(#SVGID_2_)" fill="none" stroke="#1D1D1B" stroke-width="0.5" stroke-linecap="round" x1="62.5" y1="-42" x2="62.5" y2="-42"/>
				
					<line clip-path="url(#SVGID_2_)" fill="none" stroke="#1D1D1B" stroke-width="0.5" stroke-linecap="round" x1="67" y1="-47.2" x2="67" y2="-47.2"/>
				
					<line clip-path="url(#SVGID_2_)" fill="none" stroke="#1D1D1B" stroke-width="0.5" stroke-linecap="round" x1="69.5" y1="-54" x2="69.5" y2="-54"/>
				
					<line clip-path="url(#SVGID_2_)" fill="none" stroke="#1D1D1B" stroke-width="0.5" stroke-linecap="round" x1="63.5" y1="-61.5" x2="63.5" y2="-61.5"/>
				
					<line clip-path="url(#SVGID_2_)" fill="none" stroke="#1D1D1B" stroke-width="0.5" stroke-linecap="round" x1="69.2" y1="-63.2" x2="69.2" y2="-63.2"/>
				
					<line clip-path="url(#SVGID_2_)" fill="none" stroke="#1D1D1B" stroke-width="0.5" stroke-linecap="round" x1="64.8" y1="-65.2" x2="64.8" y2="-65.2"/>
				
					<line clip-path="url(#SVGID_2_)" fill="none" stroke="#1D1D1B" stroke-width="0.5" stroke-linecap="round" x1="65.8" y1="-68" x2="65.8" y2="-68"/>
				
					<line clip-path="url(#SVGID_2_)" fill="none" stroke="#1D1D1B" stroke-width="0.5" stroke-linecap="round" x1="69.2" y1="-70.2" x2="69.2" y2="-70.2"/>
				
					<line clip-path="url(#SVGID_2_)" fill="none" stroke="#1D1D1B" stroke-width="0.5" stroke-linecap="round" x1="62.5" y1="-70" x2="62.5" y2="-70"/>
				
					<line clip-path="url(#SVGID_2_)" fill="none" stroke="#1D1D1B" stroke-width="0.5" stroke-linecap="round" x1="60.8" y1="-65.5" x2="60.8" y2="-65.5"/>
				
					<line clip-path="url(#SVGID_2_)" fill="none" stroke="#1D1D1B" stroke-width="0.5" stroke-linecap="round" x1="52.8" y1="-69.5" x2="52.8" y2="-69.5"/>
				
					<line clip-path="url(#SVGID_2_)" fill="none" stroke="#1D1D1B" stroke-width="0.5" stroke-linecap="round" x1="44.8" y1="-66.2" x2="44.8" y2="-66.2"/>
				
					<line clip-path="url(#SVGID_2_)" fill="none" stroke="#1D1D1B" stroke-width="0.5" stroke-linecap="round" x1="44.5" y1="-71" x2="44.5" y2="-71"/>
				
					<line clip-path="url(#SVGID_2_)" fill="none" stroke="#1D1D1B" stroke-width="0.5" stroke-linecap="round" x1="28.5" y1="-71" x2="28.5" y2="-71"/>
				
					<line clip-path="url(#SVGID_2_)" fill="none" stroke="#1D1D1B" stroke-width="0.5" stroke-linecap="round" x1="0.8" y1="-29.2" x2="0.8" y2="-29.2"/>
				
					<line clip-path="url(#SVGID_2_)" fill="none" stroke="#1D1D1B" stroke-width="0.5" stroke-linecap="round" x1="24.5" y1="-0.8" x2="24.5" y2="-0.8"/>
				
					<line clip-path="url(#SVGID_2_)" fill="none" stroke="#1D1D1B" stroke-width="0.5" stroke-linecap="round" x1="13.2" y1="-4.8" x2="13.2" y2="-4.8"/>
				
					<line clip-path="url(#SVGID_2_)" fill="none" stroke="#1D1D1B" stroke-width="0.5" stroke-linecap="round" x1="71" y1="-35" x2="71" y2="-35"/>
			</g>
		</g>
	</pattern>
</defs>
<g>
	<path fill="#EDE7D5" d="M450.1,151.4c1.1-4.6-6.5-5.3-6-11.8c-4.9-1.5-5.1-6-10.6-0.3c-9.7-3.5-5.6,8.4-10.8,9.5
		c-0.2,1.4,0.7,4.4,0.3,5.3c-0.7,1.8-1.5,1.1-2.7,2.5c-2.6,3.1-4.4,3.9-8.4,5.1c-0.1,4.1-3.3,3.1-5,5.4c-1.7,2.3-2.1,5.8-2.8,8.5
		c-1.7-0.1-3.6,0.3-5.2,0.2c-1.5,7-5.1,12-11.4,14.7c-5.1,2.2-12,4.7-17.4,5.8c-6.4,1.2-11.1-0.4-17.3-1.6c-3.9-0.7-5.9-0.1-9.7-1.7
		c-5.1-2.1-7.4-3.7-12.8-2.1c-1.3-4-11.2-3.4-14.7-2.2c-2.6,0.9-4.5,3.2-7,4.3c-3,1.3-2.8,1.1-6.6,1.2c-2.4,0-5.6,0.5-7.9,0
		c-2.9-0.6-5.1-3-8-3.7c-5.1-1.2-8.1,4.5-13.1,5.3c-2.4,0.4-2.9,2.4-4.9,3.8c-3.5,2.4-6.2,4.6-8.1,8.1c-1.8,3.3-3,2.5-4.9,5.9
		c-2.5,4.6-4.4,6.8-9.7,9.7c-3.6,2-7.3,4.3-10.2,7.6c-0.6,0.7-4.1,3.6-4.3,3.8c4.3-3.1,1.8-3.7,7.6-3.2c4.4,0.3,9.6-0.6,14.6-1.6
		c4.2-0.8,8.2-7.9,11.9-9.7c6.4-3.2,12.7-2,17.3-4.3c7.3-3.6,13.4-3.4,21.6-3.8c4.5-0.2,19.8-11.4,19.5-1.2
		c6.2-0.2,11.4,2.7,17.3,3.3c2.3,0.2,1.4,4.5,3.6,4.9c3.8,0.7,9.5,2.3,12.9,3.2c5.5,1.5,12.3,1.1,17.8,2.7c5.3,1.6,5.9-8.3,11.9-8.6
		c3.1-0.2,9.3-1.3,12.4-1.6c2.6-0.2,3.9,0.4,6.5-0.5c4.4-1.6,2.9,0.5,5.4-2.2c1.5-1.6,1.2,3.9,2.9,2.6c2.4-1.8,6.4-1.6,9-3.3
		c4.1-2.5,9.3-3.3,12.4-6.9c2.8-3.2,9.7-0.2,13.5-2.7c2-1.4,10.1-3.2,11.3-5.4c0.8-1.5,5.7-5,7-6.5c2.3-2.7,1.6-6.1,4.3-8.6
		c2.4-2.3,0.2-8.3,2.2-10.8c3-3.9-2.8-1.4-6.3-7.6c-2.1-3.8-9.4-5.4-13.5-4.9c0.3-1.2-0.4-3-0.2-4.2c-2.7,0.5-4.5-1.1-4.2-3.9"/>
	<path fill="#ABDBDE" d="M518.8,244c0,0-0.1,9,0,13.5c0.1,4.5-1.2,5.7-1.1,9.9c0,4.2-0.1,3.2,1.1,7.8c1.5,5.5,6.2,3.9,9,5.9
		c9.2,6.6,5.5,4.9,8.5,6.1c3,1.2,9.1-0.6,10.9,0c1.7,0.6,4-2.5,6.6,0.4c5.9,6.8,10.5,5.1,11.3,7c0.8,2,4.1,7.5,6,3.9
		c1.9-3.5-1.2-6,4.2-8.4c5.4-2.4,6-2.4,5.4-6c-0.6-3.6-2.2-7.8-4.8-9c-2.6-1.2,1.6-1.3-4.3-4.6c-5.9-3.2-4.6-2.8-10.6,0
		c-6,2.8-2.7,1.1-9.5,2.2c-6.8,1.1-9.3-0.7-9.8-2.2c-0.5-1.4-3.7-11,0-13.1c3.7-2.1,3-5.1,7.8-3.3c4.9,1.8,10.6,6.2,13.6,1.1
		c3-5.1-2.7-9.9-2.7-9.9c-9-1.4,1.5,1.7-5.2-0.5c0,0-1.5-1.9-8.1-3.1c-6.6-1.2-8-2-12.8-0.9c-4.8,1.1-18.9-5.1-18.9-5.1l1.9,4.3
		L518.8,244z"/>
	<path fill="#ABDBDE" d="M474.2,118.8c0,0,6.3-11.9,6.9-14.7c0.6-2.9-3.8-8.2,1.6-14.5c5.4-6.3-1.1,1.2,2.6-1.8c3.7-3,3.2-6.6,6-5.1
		c10.2,5.4,5.4,3,10.2,5.4c4.8,2.4,10.8,0.6,12,2.4c1.2,1.8-1,2.4,2.9,5.2c3.9,2.7-2.8,10.9-2.8,10.9s-3.1,3.1-6.1,4.3
		c-3,1.2-13,5-13,5s-0.6,0.6-5.3,1c0,0,1.1-1-6,1.4C476.1,120.6,474.2,118.8,474.2,118.8"/>
	<path fill="#86754D" d="M417,192.1c-2.4-2-2.5-3.2-2.4-5.8c0.1-2.6,0.1-2.5,0-4.9c-0.2-2.4,2.4-2.6,3.8-4c1.4-1.4,2.2-2.6,3.8-3
		c1.6-0.4,3-2.9,4.2-3.6c1.2-0.6,1.2-3.3,2-4c0.8-0.7,0.6-0.9,2.2-4.5c1.6-3.6-0.6-3.2,2.8-6c3.4-2.8,5.2-4,6.4-4
		c1.2,0,4.3-1.8,4.8-0.2c0.6,1.6,2,2.4,2.4,3.6c0.4,1.2-1.6,2.7,0,3.9c1.6,1.3,3.2,1.7,4,2.5c0.8,0.8,1.7,0.4,2.7,2
		c1,1.6,2,0.8,2,2.7c0,1.9-0.2,3.9-1,4.9c-0.8,1-1,2.6-2.6,3.6c-1.6,1-3.6,0.8-4.8,2c-1.2,1.2-2.4,1.6-3.2,3.8
		c-0.8,2.2-0.6,2.6-1.4,3.8c-0.8,1.2-0.6,2.2-3.6,2.6c-3,0.4-4.4-0.2-6-0.2c-1.6,0-2.8-1.2-4.6,0.4c-1.8,1.6-1.8,2-3,2.8
		c-1.2,0.8-0.8,0.8-2.2,1.4c-1.4,0.6-2,1-3.6,1.2C418,193.5,417,192.1,417,192.1"/>
	<path opacity="0.5" fill="#857040" d="M153.2,0.8c-2.4,4.4-1.5,10.3-1,15c0.7,6.8,1.9,13.4,2.1,20.2c0.3,7.3-3.8,13.4-5.1,20.4
		c-1.5,8.8-2.8,16.1-7,24.2c-4.3,8.3-8.8,17.1-8.1,26.7c0.3,4.6,3.1,8,5.1,11.9c1.3,2.6,1.5,5.4,1.7,8.3c0.5,10,2.9,20,4.5,29.8
		c1.8,10.9,3.7,21.7,5.9,32.5c0.1,0.7,2.5,0.1,2.3-0.6c-2-10.1-3.8-20.3-5.5-30.4c-1.7-10.1-4-20.4-4.8-30.7
		c-0.2-2.9-0.3-5.6-1.2-8.3c-1.4-4-4.3-7.1-5.4-11.3c-2.5-10.1,4.3-21.4,8.8-29.9c3.8-7.2,4.8-14.4,6-22.3c1-6.5,4.8-12,5.1-18.6
		c0.3-6.6-1.1-13.3-1.9-19.8c-0.6-5.4-2-12.3,0.7-17.3C155.8,0,153.5,0.2,153.2,0.8"/>
	<path opacity="0.5" fill="#857040" d="M152.5,370.2c-1.6-13.3,0.8-26.7-2.4-39.8c-2.4-9.7-8.4-18.3-12.1-27.6
		c-1.8-4.4-2.9-9.2-2.3-14c0.4-3.3,1.6-6.3,1.9-9.7c0.7-9.7,1.1-18.7,5-27.7c2.1-4.9,6-8.6,8.2-13.4c0.6-1.4-0.4-2.5-1.5-3.1
		c-2.1-1.1-4.6-1.3-6.8-2.3c-4.6-2-3.4-7.1-4.6-11.1c-1.5-5.3-5.2-9.6-3.3-15.3c1.7-5.1,6.1-9.6,9.3-13.8c3-3.9,4.6-8.1,6.4-12.6
		c2.5-6.2,4.9-12.5,5.1-19.3c0-1-2.3-0.5-2.3,0.3c-0.4,11.1-5.7,24.1-12.4,32.9c-2.8,3.7-6.1,7.3-8,11.6c-2.2,5.1-0.5,8.9,1.6,13.9
		c2.8,6.5,0.7,13.1,8.6,15.5c1.8,0.6,6.2,0.9,5.4,3.6c-0.6,2.4-3.3,4.8-4.7,6.9c-1.7,2.5-3,5.3-4.2,8c-3.6,8.3-3.8,17.3-4.3,26.2
		c-0.2,3.4-1.2,6.4-1.9,9.7c-0.9,4.3,0.4,8.9,1.8,12.9c3.3,9.6,9.3,18.1,12.3,27.8c4,13.2,1.1,27.4,2.7,40.9
		C150.3,371.6,152.6,371.1,152.5,370.2"/>
	<path fill="#2CA5AC" d="M520.7,242.8c1.6,4.6,2.8,9.3,1.8,14.2c-0.8,3.8-2.2,7.5-2.8,11.3c-0.6,4.3,1,7,4.8,8.7
		c4.1,1.9,10.4-0.7,11.5,5.1c1.5,7.5,15.5,0.5,20,2.2c7.7,3,2.6,14.6,12.3,14.5c0.3,0,1-0.1,1.1-0.5c1.4-3.8,6.4-7.8,3-12.1
		c-5.2-6.6,0.1-12.8,1.8-19.7c0-0.2-0.1-0.3-0.3-0.3c-3.7-0.9-7.3-0.6-10.9,0.7c-7,2.5-13.2,5.8-20.8,6.4c-0.7,0.1-1.3,0.9-0.2,0.8
		c6.6-0.5,12.3-2.7,18.3-5.3c1.6-0.7,13-4.8,12-0.5c-0.9,3.7-3.1,6.9-3.8,10.7c-0.5,2.7,0,4.9,1.8,6.9c3.4,3.9,0.4,6.9-1.5,10.6
		c-2.6,4.9-5.5-2.8-5.9-4.9c-0.6-2.8-1.6-4.6-3.5-6.6c-3.7-3.8-9.8-1-14.2-0.8c-2.3,0.1-5.6,1-7.2-1.5c-0.7-1.1-0.6-2.7-1-3.9
		c-0.5-1.7-3.5-1.6-4.7-1.7c-5.1-0.3-9.8-0.9-10.9-6.7c-0.7-3.3,1-8.5,2-11.5c2-5.6,0.8-11.2-1.1-16.7
		C522.1,241.9,520.5,242.3,520.7,242.8"/>
	<path fill="#2CA5AC" d="M559,274.8c-4.3-1.3-8.7-2.6-13.1-4c-3.8-1.1-6.7-1.6-8-5.7c-1-3.1-1.2-6.3-0.4-9.4
		c2.1-8.5,13.7-1.5,19.3-2.1c3.2-0.3,9.9-5.8,4.6-7.9c-5.1-2.1-11.9-1.1-17.2-0.9c-6.1,0.3-12-2.9-18.1-3c-4.1,0-5.3-0.8-7.8-4.3
		c-2.7-3.8-4.6-8.3-6.9-12.4c-3.1-5.5-7.1-9.7-12.5-12.7c-7.3-4-12.4-6.9-14.8-15.4c-1.5-5.2-4.1-7.8-9.3-9.4
		c-6.6-2-8.9-6.3-10.1-12.7c-1.7-8.9-11.2-8.3-18.4-6.6c-4.7,1.2-8.2,4.4-11.5,7.7c-3.4,3.4-6.8,6.6-10.9,9
		c-3.8,2.2-7.9,3.7-11.8,5.7c-6.6,3.5-12.2,9.2-18.2,13.6c-9.5,7-20.1,11.9-32,8.3c-7.8-2.4-13.3-8.5-20-12.7
		c-5.3-3.3-11.2-3.7-17.3-2.9c-7.3,0.9-14.4,3.7-21.3,6.2c-7.6,2.7-17.4,7.5-25.6,5c-0.4-0.1-1.8,0.5-1.3,0.7
		c8.4,2.6,18.1-1.8,25.9-4.6c6.7-2.4,13.4-4.9,20.5-6.2c8.5-1.6,15.2,0.5,21.9,5.5c9.3,7,18.1,12.8,30.3,10.7
		c11.1-1.8,20.5-10,29-16.7c10-7.9,22.2-11.6,31.2-20.8c6.2-6.3,12.3-9.8,21.6-8.5c5.9,0.8,5.8,6,7,10.6c1.2,4.5,3.9,7.4,8.3,8.9
		c3.6,1.2,6.7,2,8.8,5.5c1.6,2.8,2,6.4,3.3,9.3c2.1,4.8,7.5,7.4,11.9,9.6c8.5,4.2,12.7,11.2,16.9,19.4c1.8,3.4,3.7,6.5,6.1,9.5
		c2.4,3.1,5.5,1.2,9.3,1.7c5.9,0.7,11.4,2.8,17.5,2.6c4.1-0.1,8.3-0.3,12.4,0.4c1.5,0.2,4.2,0.9,3.5,2.9c-1.8,5.9-10,3.3-14.1,2.1
		c-3.1-0.8-7.5-1.1-9.8,1.6c-4.1,4.8-2.4,11.4-0.2,16.7c0.4,1.1,6.8,2.2,8.1,2.6c2,0.6,3.9,1.2,5.9,1.8c2,0.6,3.9,1.2,5.9,1.8
		C558.2,275.6,559.6,275,559,274.8"/>
	<g>
		<path fill="#B6A98C" d="M182.6,148.1v2.4h2.6v0.8h-2.6v3.3h-1v-7.3h3.7v0.8H182.6z"/>
		<path fill="#B6A98C" d="M189.9,154.5l-1.8-2.4h0v2.4h-1v-5.6c0.4,0,1,0,1.7,0c1.3,0,2.1,0.5,2.1,1.5c0,1-0.7,1.5-1.7,1.6
			c0.1,0.2,0.3,0.4,0.5,0.6l1.5,1.9H189.9z M188.6,149.6c-0.2,0-0.4,0-0.6,0v1.8c0.2,0,0.4,0,0.6,0c0.7,0,1.1-0.4,1.1-1
			C189.8,149.9,189.3,149.6,188.6,149.6z"/>
		<path fill="#B6A98C" d="M196.4,154.5l-0.4-1.2h-2.5l-0.4,1.2h-1l2.2-5.6h1.1l2.2,5.6H196.4z M195,150.9c-0.1-0.3-0.2-0.7-0.3-0.9
			h0c-0.1,0.3-0.2,0.6-0.3,0.9l-0.7,1.8h2L195,150.9z"/>
		<path fill="#B6A98C" d="M201,152.6v1.9h-1v-1.9l-2-3.7h1.1l0.9,1.8c0.2,0.3,0.3,0.7,0.5,1h0c0.2-0.4,0.3-0.7,0.5-1.1l0.9-1.7h1
			L201,152.6z"/>
		<path fill="#B6A98C" d="M206.8,154.6c-0.3,0-0.6,0-0.8-0.1v-0.9c0.2,0.1,0.5,0.1,0.7,0.1c0.6,0,0.9-0.2,0.9-1.2v-5.3h1v5.4
			C208.6,153.8,208.2,154.6,206.8,154.6z"/>
		<path fill="#B6A98C" d="M213,154.6c-1.8,0-2.7-1.2-2.7-2.8c0-1.9,1.3-2.9,2.9-2.9c1.7,0,2.7,1,2.7,2.8
			C215.9,153.6,214.6,154.6,213,154.6z M213.1,149.7c-0.9,0-1.7,0.7-1.7,2c0,1.1,0.5,2.1,1.7,2.1c1,0,1.8-0.7,1.8-2
			C214.8,150.4,214.1,149.7,213.1,149.7z"/>
		<path fill="#B6A98C" d="M220.5,154.5l-1.8-2.4h0v2.4h-1v-5.6c0.4,0,1,0,1.7,0c1.3,0,2.1,0.5,2.1,1.5c0,1-0.7,1.5-1.7,1.6
			c0.1,0.2,0.3,0.4,0.5,0.6l1.5,1.9H220.5z M219.2,149.6c-0.2,0-0.4,0-0.6,0v1.8c0.2,0,0.4,0,0.6,0c0.7,0,1.1-0.4,1.1-1
			C220.3,149.9,219.9,149.6,219.2,149.6z"/>
		<path fill="#B6A98C" d="M225.7,154.6c-1.7,0-2.9-1-2.9-2.8c0-1.7,1.2-3,3.1-3c0.6,0,1.1,0.1,1.7,0.2l-0.2,0.9
			c-0.5-0.2-1-0.3-1.5-0.3c-1.1,0-2.1,0.7-2.1,2.1c0,1.3,0.8,2,2,2c0.3,0,0.7,0,0.9-0.1v-2h1v2.6
			C227.1,154.5,226.5,154.6,225.7,154.6z"/>
		<path fill="#B6A98C" d="M230,154.5v-5.6h3.2v0.8H231v1.6h2.1v0.7H231v1.7h2.2v0.8H230z"/>
	</g>
	<g>
		<path fill="#B6A98C" d="M24.8,119.3c-0.5,0-1-0.1-1.5-0.2l0.1-1c0.4,0.2,1,0.3,1.5,0.3c0.9,0,1.6-0.4,1.6-1.3c0-1.6-3.3-1-3.3-3.3
			c0-1.2,1-2.1,2.6-2.1c0.4,0,0.9,0,1.3,0.1l-0.1,0.9c-0.4-0.1-0.9-0.2-1.3-0.2c-1,0-1.5,0.5-1.5,1.1c0,1.6,3.3,1,3.3,3.3
			C27.5,118.3,26.5,119.3,24.8,119.3z"/>
		<path fill="#B6A98C" d="M32.9,119.2l-0.4-1.2H30l-0.4,1.2h-1l2.2-5.6h1.1l2.2,5.6H32.9z M31.6,115.5c-0.1-0.3-0.2-0.7-0.3-0.9h0
			c-0.1,0.3-0.2,0.6-0.3,0.9l-0.7,1.8h2L31.6,115.5z"/>
		<path fill="#B6A98C" d="M39.2,119.2l-2.1-3.3c-0.2-0.3-0.5-0.8-0.6-1.1h0c0,0.4,0,0.7,0,1.3v3.1h-1v-5.6h1.3l2.1,3.2
			c0.2,0.4,0.5,0.7,0.7,1.1h0c0-0.4,0-1,0-1.8l0-2.6h1v5.6H39.2z"/>
		<path fill="#B6A98C" d="M44.6,114.4v4.8h-1v-4.8H42v-0.8h4.2v0.8H44.6z"/>
		<path fill="#B6A98C" d="M47.7,119.2v-5.6h1v5.6H47.7z"/>
		<path fill="#B6A98C" d="M54.6,119.2l-0.4-1.2h-2.5l-0.4,1.2h-1l2.2-5.6h1.1l2.2,5.6H54.6z M53.3,115.5c-0.1-0.3-0.2-0.7-0.3-0.9h0
			c-0.1,0.3-0.2,0.6-0.3,0.9l-0.7,1.8h2L53.3,115.5z"/>
		<path fill="#B6A98C" d="M59.6,119.3c-1.7,0-2.9-1-2.9-2.8c0-1.7,1.2-3,3.1-3c0.6,0,1.1,0.1,1.7,0.2l-0.2,0.9
			c-0.5-0.2-1-0.3-1.5-0.3c-1.1,0-2.1,0.7-2.1,2.1c0,1.3,0.8,2,2,2c0.3,0,0.7,0,0.9-0.1v-2h1v2.6C61,119.1,60.3,119.3,59.6,119.3z"
			/>
		<path fill="#B6A98C" d="M66,119.3c-1.8,0-2.7-1.2-2.7-2.8c0-1.9,1.3-2.9,2.9-2.9c1.7,0,2.7,1,2.7,2.8
			C68.9,118.2,67.6,119.3,66,119.3z M66.1,114.3c-0.9,0-1.7,0.7-1.7,2c0,1.1,0.5,2.1,1.7,2.1c1,0,1.8-0.7,1.8-2
			C67.8,115.1,67.1,114.3,66.1,114.3z"/>
	</g>
	<g>
		<path fill="#B6A98C" d="M186.1,167.5l-2.8-4.5c-0.3-0.5-0.6-1-0.8-1.5c0,0.8,0.1,2.5,0.1,3.7v2.3h-1v-7.3h1.3l2.7,4.4
			c0.3,0.5,0.6,1.1,0.9,1.6c0-0.9-0.1-2.7-0.1-3.9v-2.1h1v7.3H186.1z"/>
		<path fill="#B6A98C" d="M193.2,167.5l-0.4-1.2h-2.5l-0.4,1.2h-1l2.2-5.6h1.1l2.2,5.6H193.2z M191.8,163.8
			c-0.1-0.3-0.2-0.7-0.3-0.9h0c-0.1,0.3-0.2,0.6-0.3,0.9l-0.7,1.8h2L191.8,163.8z"/>
		<path fill="#B6A98C" d="M197.6,162.7v4.8h-1v-4.8H195v-0.8h4.2v0.8H197.6z"/>
		<path fill="#B6A98C" d="M200.7,167.5v-5.6h1v5.6H200.7z"/>
		<path fill="#B6A98C" d="M206.2,167.6c-1.8,0-2.7-1.2-2.7-2.8c0-1.9,1.3-2.9,2.9-2.9c1.7,0,2.7,1,2.7,2.8
			C209.1,166.5,207.8,167.6,206.2,167.6z M206.3,162.6c-0.9,0-1.7,0.7-1.7,2c0,1.1,0.5,2.1,1.7,2.1c1,0,1.8-0.7,1.8-2
			C208,163.3,207.3,162.6,206.3,162.6z"/>
		<path fill="#B6A98C" d="M214.5,167.5l-2.1-3.3c-0.2-0.3-0.5-0.8-0.6-1.1h0c0,0.4,0,0.7,0,1.3v3.1h-1v-5.6h1.3l2.1,3.2
			c0.2,0.4,0.5,0.7,0.7,1.1h0c0-0.4,0-1,0-1.8l0-2.6h1v5.6H214.5z"/>
		<path fill="#B6A98C" d="M221.7,167.5l-0.4-1.2h-2.5l-0.4,1.2h-1l2.2-5.6h1.1l2.2,5.6H221.7z M220.3,163.8
			c-0.1-0.3-0.2-0.7-0.3-0.9h0c-0.1,0.3-0.2,0.6-0.3,0.9l-0.7,1.8h2L220.3,163.8z"/>
		<path fill="#B6A98C" d="M224.3,167.5v-5.6h1v4.8h2v0.8H224.3z"/>
		<path fill="#B6A98C" d="M232.9,164.7c-0.2,0-0.4,0-0.6,0v2.8h-1v-7.3c0.5,0,1.1,0,1.8,0c1.7,0,2.6,0.8,2.6,2.1
			C235.8,163.7,234.6,164.7,232.9,164.7z M233,161c-0.3,0-0.5,0-0.7,0v2.9c0.2,0,0.4,0,0.6,0c1.1,0,1.8-0.6,1.8-1.5
			C234.7,161.5,234.2,161,233,161z"/>
		<path fill="#B6A98C" d="M240.2,167.5l-0.4-1.2h-2.5l-0.4,1.2h-1l2.2-5.6h1.1l2.2,5.6H240.2z M238.9,163.8
			c-0.1-0.3-0.2-0.7-0.3-0.9h0c-0.1,0.3-0.2,0.6-0.3,0.9l-0.7,1.8h2L238.9,163.8z"/>
		<path fill="#B6A98C" d="M245.7,167.5l-1.8-2.4h0v2.4h-1v-5.6c0.4,0,1,0,1.7,0c1.3,0,2.1,0.5,2.1,1.5c0,1-0.7,1.5-1.7,1.6
			c0.1,0.2,0.3,0.4,0.5,0.6l1.5,1.9H245.7z M244.4,162.6c-0.2,0-0.4,0-0.6,0v1.8c0.2,0,0.4,0,0.6,0c0.7,0,1.1-0.4,1.1-1
			C245.6,162.9,245.1,162.6,244.4,162.6z"/>
		<path fill="#B6A98C" d="M251.9,167.5l-2.3-2.7v2.7h-1v-5.6h1v2.6l2.2-2.6h1.2l-2.4,2.7l2.5,2.9H251.9z"/>
	</g>
	<g>
		<path fill="#B6A98C" d="M611.6,206.5l-0.7-1.9h-3.4l-0.7,1.9h-1.1l2.9-8.1h1.2l3,8.1H611.6z M609.6,200.9
			c-0.2-0.4-0.3-0.8-0.4-1.2h0c-0.1,0.4-0.2,0.8-0.4,1.2l-1,2.9h2.9L609.6,200.9z"/>
		<path fill="#B6A98C" d="M618.4,206.5l-2.3-3.7c-0.3-0.4-0.5-0.8-0.7-1.2h0c0,0.4,0,0.8,0,1.5v3.4h-1.1v-6.2h1.4l2.3,3.6
			c0.3,0.4,0.5,0.8,0.7,1.2h0c0-0.4,0-1.1,0-2l0-2.8h1.1v6.2H618.4z"/>
		<path fill="#B6A98C" d="M624.3,206.6c-0.7,0-1.3,0-1.8,0v-6.2c0.5,0,1.4,0,2.1,0c2,0,3.3,0.9,3.3,3.1
			C628,205.5,626.4,206.6,624.3,206.6z M624.5,201.2c-0.3,0-0.6,0-0.9,0v4.4c0.2,0,0.6,0,0.8,0c1.4,0,2.4-0.7,2.4-2.3
			C626.8,201.9,626,201.2,624.5,201.2z"/>
		<path fill="#B6A98C" d="M629.9,206.5v-6.2h3.5v0.9H631v1.8h2.3v0.8H631v1.9h2.4v0.9H629.9z"/>
		<path fill="#B6A98C" d="M636.7,206.6c-0.5,0-1-0.1-1.3-0.2l0-1c0.4,0.2,0.9,0.3,1.4,0.3c0.7,0,1.3-0.3,1.3-1
			c0-1.2-2.9-0.6-2.9-2.6c0-1.1,0.9-1.9,2.5-1.9c0.4,0,0.9,0,1.2,0.1l0,0.9c-0.3-0.1-0.9-0.2-1.2-0.2c-0.9,0-1.3,0.3-1.3,0.9
			c0,1.2,2.9,0.7,2.9,2.6C639.3,205.9,638.2,206.6,636.7,206.6z"/>
		<path fill="#B6A98C" d="M652.1,206.5l-0.7-4.7c-0.1-0.9-0.2-1.5-0.3-2h0c-0.1,0.4-0.2,0.9-0.4,1.5l-1.7,5.2h-1.2l-1.6-4.9
			c-0.2-0.6-0.4-1.3-0.5-1.8h0c0,0.7-0.1,1.3-0.2,2.1l-0.6,4.6h-1.1l1.2-8.1h1.4l1.7,5.1c0.2,0.6,0.4,1.1,0.5,1.6h0
			c0.1-0.6,0.2-1,0.4-1.5l1.8-5.2h1.4l1.2,8.1H652.1z"/>
		<path fill="#B6A98C" d="M657.7,206.6c-2,0-3-1.3-3-3.2c0-2.1,1.5-3.3,3.2-3.3c1.8,0,3,1.1,3,3.2
			C660.9,205.4,659.4,206.6,657.7,206.6z M657.8,201.1c-1,0-1.9,0.8-1.9,2.2c0,1.3,0.5,2.3,1.9,2.3c1.1,0,2-0.7,2-2.2
			C659.7,201.9,659,201.1,657.8,201.1z"/>
		<path fill="#B6A98C" d="M665.4,206.6c-1.7,0-2.6-0.8-2.6-2.3v-4.1h1.1v3.9c0,1.1,0.6,1.5,1.6,1.5c1.2,0,1.6-0.7,1.6-1.7v-3.8h1.1
			v3.9C668.2,205.5,667.4,206.6,665.4,206.6z"/>
		<path fill="#B6A98C" d="M674.8,206.5l-2.3-3.7c-0.3-0.4-0.5-0.8-0.7-1.2h0c0,0.4,0,0.8,0,1.5v3.4h-1.1v-6.2h1.4l2.3,3.6
			c0.3,0.4,0.5,0.8,0.7,1.2h0c0-0.4,0-1.1,0-2l0-2.8h1.1v6.2H674.8z"/>
		<path fill="#B6A98C" d="M680.8,201.2v5.3h-1.1v-5.3h-1.8v-0.9h4.7v0.9H680.8z"/>
		<path fill="#B6A98C" d="M687.7,206.5l-0.5-1.3h-2.8l-0.5,1.3h-1.1l2.4-6.2h1.2l2.4,6.2H687.7z M686.2,202.5
			c-0.1-0.3-0.3-0.7-0.3-1h0c-0.1,0.3-0.2,0.7-0.3,1l-0.8,2h2.2L686.2,202.5z"/>
		<path fill="#B6A98C" d="M690.7,206.5v-6.2h1.1v6.2H690.7z"/>
		<path fill="#B6A98C" d="M698.4,206.5l-2.3-3.7c-0.3-0.4-0.5-0.8-0.7-1.2h0c0,0.4,0,0.8,0,1.5v3.4h-1.1v-6.2h1.4l2.3,3.6
			c0.3,0.4,0.5,0.8,0.7,1.2h0c0-0.4,0-1.1,0-2l0-2.8h1.1v6.2H698.4z"/>
		<path fill="#B6A98C" d="M703.4,206.6c-0.5,0-1-0.1-1.3-0.2l0-1c0.4,0.2,0.9,0.3,1.4,0.3c0.7,0,1.3-0.3,1.3-1
			c0-1.2-2.9-0.6-2.9-2.6c0-1.1,0.9-1.9,2.5-1.9c0.4,0,0.9,0,1.2,0.1l0,0.9c-0.3-0.1-0.9-0.2-1.2-0.2c-0.9,0-1.3,0.3-1.3,0.9
			c0,1.2,2.9,0.7,2.9,2.6C706,205.9,704.9,206.6,703.4,206.6z"/>
	</g>
	<g>
		<path fill="#B6A98C" d="M508.8,311.7v-7.3h1v6.4h2.6v0.9H508.8z"/>
		<path fill="#B6A98C" d="M517.5,311.7l-0.4-1.2h-2.5l-0.4,1.2h-1l2.2-5.6h1.1l2.2,5.6H517.5z M516.1,308.1
			c-0.1-0.3-0.2-0.7-0.3-0.9h0c-0.1,0.3-0.2,0.6-0.3,0.9l-0.7,1.8h2L516.1,308.1z"/>
		<path fill="#B6A98C" d="M524.2,309c-0.2,0-0.4,0-0.6,0v2.8h-1v-7.3c0.5,0,1.1,0,1.8,0c1.7,0,2.6,0.8,2.6,2.1
			C527,308,525.8,309,524.2,309z M524.3,305.2c-0.3,0-0.5,0-0.7,0v2.9c0.2,0,0.4,0,0.6,0c1.1,0,1.8-0.6,1.8-1.5
			C525.9,305.7,525.4,305.2,524.3,305.2z"/>
		<path fill="#B6A98C" d="M531.5,311.7l-0.4-1.2h-2.5l-0.4,1.2h-1l2.2-5.6h1.1l2.2,5.6H531.5z M530.1,308.1
			c-0.1-0.3-0.2-0.7-0.3-0.9h0c-0.1,0.3-0.2,0.6-0.3,0.9l-0.7,1.8h2L530.1,308.1z"/>
		<path fill="#B6A98C" d="M534.1,311.7v-5.6h1v4.8h2v0.8H534.1z"/>
		<path fill="#B6A98C" d="M540.8,311.8c-1.8,0-2.7-1.2-2.7-2.8c0-1.9,1.3-2.9,2.9-2.9c1.7,0,2.7,1,2.7,2.8
			C543.6,310.7,542.3,311.8,540.8,311.8z M540.8,306.9c-0.9,0-1.7,0.7-1.7,2c0,1.1,0.5,2.1,1.7,2.1c1,0,1.8-0.7,1.8-2
			C542.6,307.6,541.9,306.9,540.8,306.9z"/>
		<path fill="#B6A98C" d="M551.3,311.7l-0.4-3.1c-0.1-0.6-0.1-1-0.2-1.3h0c-0.1,0.3-0.2,0.6-0.3,1l-1.2,3.5h-1l-1.1-3.2
			c-0.1-0.4-0.3-0.9-0.4-1.2h0c0,0.4-0.1,0.9-0.1,1.4l-0.4,3.1h-1l0.9-5.6h1.2l1.2,3.4c0.1,0.4,0.2,0.7,0.3,1.1h0
			c0.1-0.4,0.2-0.7,0.3-1l1.2-3.4h1.3l0.8,5.6H551.3z"/>
		<path fill="#B6A98C" d="M557.8,311.7l-0.4-1.2h-2.5l-0.4,1.2h-1l2.2-5.6h1.1l2.2,5.6H557.8z M556.5,308.1
			c-0.1-0.3-0.2-0.7-0.3-0.9h0c-0.1,0.3-0.2,0.6-0.3,0.9l-0.7,1.8h2L556.5,308.1z"/>
	</g>
	<g>
		<path fill="#B6A98C" d="M512.3,324.7l-2.5-3.3h0v3.3h-1v-7.3c0.5,0,1,0,1.8,0c1.4,0,2.5,0.5,2.5,1.9c0,1.2-1,2-2.2,2.1
			c0.2,0.3,0.4,0.5,0.6,0.8l2.1,2.6H512.3z M510.4,318.2c-0.2,0-0.5,0-0.7,0v2.5c0.1,0,0.3,0,0.6,0c1,0,1.7-0.5,1.7-1.3
			C512,318.5,511.5,318.2,510.4,318.2z"/>
		<path fill="#B6A98C" d="M515.1,324.7v-5.6h3.2v0.8h-2.2v1.6h2.1v0.7h-2.1v1.7h2.2v0.8H515.1z"/>
		<path fill="#B6A98C" d="M521.2,324.8c-0.4,0-0.9-0.1-1.2-0.1l0-0.9c0.3,0.2,0.8,0.2,1.3,0.2c0.6,0,1.2-0.2,1.2-0.9
			c0-1.1-2.6-0.6-2.6-2.4c0-1,0.8-1.7,2.2-1.7c0.3,0,0.8,0,1.1,0.1l0,0.9c-0.3-0.1-0.8-0.2-1.1-0.2c-0.8,0-1.2,0.3-1.2,0.8
			c0,1.1,2.7,0.6,2.7,2.4C523.6,324.1,522.6,324.8,521.2,324.8z"/>
		<path fill="#B6A98C" d="M525.5,324.7v-5.6h3.2v0.8h-2.2v1.6h2.1v0.7h-2.1v1.7h2.2v0.8H525.5z"/>
		<path fill="#B6A98C" d="M533.5,324.7l-1.8-2.4h0v2.4h-1v-5.6c0.4,0,1,0,1.7,0c1.3,0,2.1,0.5,2.1,1.5c0,1-0.7,1.5-1.7,1.6
			c0.1,0.2,0.3,0.4,0.5,0.6l1.5,1.9H533.5z M532.2,319.8c-0.2,0-0.4,0-0.6,0v1.8c0.2,0,0.4,0,0.6,0c0.7,0,1.1-0.4,1.1-1
			C533.4,320.1,532.9,319.8,532.2,319.8z"/>
		<path fill="#B6A98C" d="M538.8,324.7h-1.1l-2.2-5.6h1.1l1.2,3.1c0.2,0.5,0.3,1,0.5,1.4h0c0.2-0.5,0.3-1,0.5-1.4l1.2-3.2h1
			L538.8,324.7z"/>
		<path fill="#B6A98C" d="M544.6,324.8c-1.8,0-2.7-1.2-2.7-2.8c0-1.9,1.3-2.9,2.9-2.9c1.7,0,2.7,1,2.7,2.8
			C547.4,323.7,546.1,324.8,544.6,324.8z M544.7,319.8c-0.9,0-1.7,0.7-1.7,2c0,1.1,0.5,2.1,1.7,2.1c1,0,1.8-0.7,1.8-2
			C546.4,320.5,545.7,319.8,544.7,319.8z"/>
		<path fill="#B6A98C" d="M549.2,324.7v-5.6h1v5.6H549.2z"/>
		<path fill="#B6A98C" d="M555.4,324.7l-1.8-2.4h0v2.4h-1v-5.6c0.4,0,1,0,1.7,0c1.3,0,2.1,0.5,2.1,1.5c0,1-0.7,1.5-1.7,1.6
			c0.1,0.2,0.3,0.4,0.5,0.6l1.5,1.9H555.4z M554.1,319.8c-0.2,0-0.4,0-0.6,0v1.8c0.2,0,0.4,0,0.6,0c0.7,0,1.1-0.4,1.1-1
			C555.2,320.1,554.8,319.8,554.1,319.8z"/>
	</g>
	<text transform="matrix(1 0 0 1 557.2937 324.6723)" fill="#B6A98C" font-family="'TheSans-RegularCaps'" font-size="10.791px"> </text>
	<g>
		<path fill="#B6A98C" d="M509.2,65.6l-2.5-3.3h0v3.3h-1v-7.3c0.5,0,1,0,1.8,0c1.4,0,2.5,0.5,2.5,1.9c0,1.2-1,2-2.2,2.1
			c0.2,0.3,0.4,0.5,0.6,0.8l2.1,2.6H509.2z M507.4,59c-0.2,0-0.5,0-0.7,0v2.5c0.1,0,0.3,0,0.6,0c1,0,1.7-0.5,1.7-1.3
			C509,59.4,508.4,59,507.4,59z"/>
		<path fill="#B6A98C" d="M512,65.6v-5.6h3.2v0.8H513v1.6h2.1V63H513v1.7h2.2v0.8H512z"/>
		<path fill="#B6A98C" d="M519.5,65.6c-1.8,0-2.7-1-2.7-2.8c0-1.6,0.9-3,3-3c0.4,0,0.9,0.1,1.3,0.2l-0.1,0.9
			c-0.4-0.1-0.8-0.2-1.3-0.2c-1.2,0-1.8,0.9-1.8,2.1c0,1.3,0.7,2,1.9,2c0.4,0,0.9-0.1,1.3-0.3l0.1,0.9
			C520.6,65.5,520,65.6,519.5,65.6z"/>
		<path fill="#B6A98C" d="M524.9,65.6c-1.8,0-2.7-1.2-2.7-2.8c0-1.9,1.3-2.9,2.9-2.9c1.7,0,2.7,1,2.7,2.8
			C527.8,64.6,526.5,65.6,524.9,65.6z M525,60.7c-0.9,0-1.7,0.7-1.7,2c0,1.1,0.5,2.1,1.7,2.1c1,0,1.8-0.7,1.8-2
			C526.8,61.4,526.1,60.7,525,60.7z"/>
		<path fill="#B6A98C" d="M529.6,65.6v-5.6h1v4.8h2v0.8H529.6z"/>
		<path fill="#B6A98C" d="M534.1,65.6v-5.6h3.2v0.8h-2.2v1.6h2.1V63h-2.1v1.7h2.2v0.8H534.1z"/>
		<path fill="#B6A98C" d="M541.1,60.8v4.8h-1v-4.8h-1.6v-0.8h4.2v0.8H541.1z"/>
		<path fill="#B6A98C" d="M547.4,65.6l-0.4-1.2h-2.5l-0.4,1.2h-1l2.2-5.6h1.1l2.2,5.6H547.4z M546,61.9c-0.1-0.3-0.2-0.7-0.3-0.9h0
			c-0.1,0.3-0.2,0.6-0.3,0.9l-0.7,1.8h2L546,61.9z"/>
	</g>
	<g>
		<path fill="#B6A98C" d="M509.2,78.5l-2.5-3.3h0v3.3h-1v-7.3c0.5,0,1,0,1.8,0c1.4,0,2.5,0.5,2.5,1.9c0,1.2-1,2-2.2,2.1
			c0.2,0.3,0.4,0.5,0.6,0.8l2.1,2.6H509.2z M507.4,72c-0.2,0-0.5,0-0.7,0v2.5c0.1,0,0.3,0,0.6,0c1,0,1.7-0.5,1.7-1.3
			C509,72.3,508.4,72,507.4,72z"/>
		<path fill="#B6A98C" d="M512,78.5v-5.6h3.2v0.8H513v1.6h2.1V76H513v1.7h2.2v0.8H512z"/>
		<path fill="#B6A98C" d="M518.1,78.6c-0.4,0-0.9-0.1-1.2-0.1l0-0.9c0.3,0.2,0.8,0.2,1.3,0.2c0.6,0,1.2-0.2,1.2-0.9
			c0-1.1-2.6-0.6-2.6-2.4c0-1,0.8-1.7,2.2-1.7c0.3,0,0.8,0,1.1,0.1l0,0.9c-0.3-0.1-0.8-0.2-1.1-0.2c-0.8,0-1.2,0.3-1.2,0.8
			c0,1.1,2.7,0.6,2.7,2.4C520.5,77.9,519.5,78.6,518.1,78.6z"/>
		<path fill="#B6A98C" d="M522.4,78.5v-5.6h3.2v0.8h-2.2v1.6h2.1V76h-2.1v1.7h2.2v0.8H522.4z"/>
		<path fill="#B6A98C" d="M530.4,78.5l-1.8-2.4h0v2.4h-1v-5.6c0.4,0,1,0,1.7,0c1.3,0,2.1,0.5,2.1,1.5c0,1-0.7,1.5-1.7,1.6
			c0.1,0.2,0.3,0.4,0.5,0.6l1.5,1.9H530.4z M529.2,73.6c-0.2,0-0.4,0-0.6,0v1.8c0.2,0,0.4,0,0.6,0c0.7,0,1.1-0.4,1.1-1
			C530.3,73.9,529.9,73.6,529.2,73.6z"/>
		<path fill="#B6A98C" d="M535.8,78.5h-1.1l-2.2-5.6h1.1l1.2,3.1c0.2,0.5,0.3,1,0.5,1.4h0c0.2-0.5,0.3-1,0.5-1.4l1.2-3.2h1
			L535.8,78.5z"/>
		<path fill="#B6A98C" d="M541.5,78.6c-1.8,0-2.7-1.2-2.7-2.8c0-1.9,1.3-2.9,2.9-2.9c1.7,0,2.7,1,2.7,2.8
			C544.4,77.5,543.1,78.6,541.5,78.6z M541.6,73.6c-0.9,0-1.7,0.7-1.7,2c0,1.1,0.5,2.1,1.7,2.1c1,0,1.8-0.7,1.8-2
			C543.3,74.4,542.7,73.6,541.6,73.6z"/>
		<path fill="#B6A98C" d="M546.2,78.5v-5.6h1v5.6H546.2z"/>
		<path fill="#B6A98C" d="M552.3,78.5l-1.8-2.4h0v2.4h-1v-5.6c0.4,0,1,0,1.7,0c1.3,0,2.1,0.5,2.1,1.5c0,1-0.7,1.5-1.7,1.6
			c0.1,0.2,0.3,0.4,0.5,0.6l1.5,1.9H552.3z M551,73.6c-0.2,0-0.4,0-0.6,0v1.8c0.2,0,0.4,0,0.6,0c0.7,0,1.1-0.4,1.1-1
			C552.2,73.9,551.7,73.6,551,73.6z"/>
	</g>
	<g>
		<path fill="#B6A98C" d="M180.3,244.4v-8.7h1.2v7.7h3.1v1H180.3z"/>
		<path fill="#B6A98C" d="M186.3,244.4v-6.7h1.2v6.7H186.3z"/>
		<path fill="#B6A98C" d="M197.2,244.4l-0.5-3.7c-0.1-0.7-0.1-1.2-0.2-1.6h0c-0.1,0.3-0.2,0.8-0.3,1.2l-1.4,4.2h-1.3l-1.3-3.9
			c-0.2-0.5-0.3-1-0.4-1.5h0c0,0.5-0.1,1-0.2,1.7l-0.5,3.7h-1.2l1-6.7h1.5l1.4,4.1c0.1,0.4,0.3,0.9,0.4,1.3h0
			c0.1-0.5,0.2-0.8,0.3-1.2l1.4-4.1h1.5l1,6.7H197.2z"/>
		<path fill="#B6A98C" d="M205.1,244.4l-0.5-1.4h-3l-0.5,1.4h-1.2l2.6-6.7h1.3l2.6,6.7H205.1z M203.5,240c-0.1-0.4-0.3-0.8-0.4-1.1
			h0c-0.1,0.3-0.2,0.7-0.3,1.1l-0.8,2.1h2.4L203.5,240z"/>
		<path fill="#B6A98C" d="M211.7,244.4l-2.2-2.9h-0.1v2.9h-1.2v-6.7c0.4,0,1.2,0,2,0c1.6,0,2.5,0.6,2.5,1.8c0,1.1-0.9,1.8-2,1.9
			c0.2,0.2,0.4,0.4,0.6,0.7l1.8,2.3H211.7z M210.1,238.5c-0.3,0-0.5,0-0.7,0v2.1c0.2,0,0.5,0,0.7,0c0.8,0,1.3-0.5,1.3-1.2
			C211.5,238.9,211,238.5,210.1,238.5z"/>
		<path fill="#B6A98C" d="M215.5,237l-0.5-0.6l1.8-1.4l0.6,0.8L215.5,237z M215.2,244.4v-6.7h1.2v6.7H215.2z"/>
		<path fill="#B6A98C" d="M242.1,244.4l-3-3.9h-0.1v3.9h-1.2v-8.7c0.6,0,1.2-0.1,2.2-0.1c1.7,0,3,0.6,3,2.3c0,1.5-1.1,2.4-2.7,2.5
			c0.3,0.3,0.5,0.6,0.8,0.9l2.5,3.1H242.1z M239.9,236.6c-0.3,0-0.6,0-0.8,0v3c0.1,0,0.4,0,0.7,0c1.3,0,2-0.6,2-1.6
			C241.8,237,241.2,236.6,239.9,236.6z"/>
		<path fill="#B6A98C" d="M245.5,244.4v-6.7h1.2v6.7H245.5z"/>
		<path fill="#B6A98C" d="M252.3,244.4H251l-2.6-6.7h1.3l1.4,3.8c0.2,0.6,0.4,1.1,0.6,1.7h0c0.2-0.6,0.4-1.2,0.6-1.7l1.5-3.8h1.2
			L252.3,244.4z"/>
		<path fill="#B6A98C" d="M256.7,244.4v-6.7h3.8v0.9h-2.6v1.9h2.5v0.9h-2.5v2.1h2.6v0.9H256.7z"/>
		<path fill="#B6A98C" d="M266.3,244.4l-2.2-2.9h-0.1v2.9h-1.2v-6.7c0.4,0,1.2,0,2,0c1.6,0,2.5,0.6,2.5,1.8c0,1.1-0.9,1.8-2,1.9
			c0.2,0.2,0.4,0.4,0.6,0.7l1.8,2.3H266.3z M264.7,238.5c-0.3,0-0.5,0-0.7,0v2.1c0.2,0,0.5,0,0.7,0c0.8,0,1.3-0.5,1.3-1.2
			C266.1,238.9,265.6,238.5,264.7,238.5z"/>
	</g>
	<g>
		<path fill="#B6A98C" d="M433,201.6c-3.2,0-4.8-2-4.8-5.3c0-3.5,2.3-5.6,5.1-5.6c2.8,0,4.8,1.7,4.8,5.3
			C438.2,199.5,435.9,201.6,433,201.6z M433.2,192.6c-1.5,0-2.8,1.2-2.8,3.5c0,2.2,0.9,3.7,2.8,3.7c1.4,0,2.8-1.1,2.8-3.6
			C436,193.9,435,192.6,433.2,192.6z"/>
		<path fill="#B6A98C" d="M444.5,201.5h-2.4l-3-8.1h2.2l1.4,3.8c0.2,0.6,0.5,1.4,0.7,2.2h0c0.2-0.8,0.4-1.5,0.7-2.2l1.4-3.8h2.1
			L444.5,201.5z"/>
		<path fill="#B6A98C" d="M453.9,201.5l-0.5-1.4h-3.1l-0.5,1.4h-2l3-8.1h2.4l3,8.1H453.9z M452.2,196.7c-0.1-0.4-0.3-0.8-0.4-1.2h0
			c-0.1,0.4-0.2,0.8-0.4,1.2l-0.7,2h2.2L452.2,196.7z"/>
		<path fill="#B6A98C" d="M458,201.5v-8.1h2v6.3h2.6v1.8H458z"/>
		<path fill="#B6A98C" d="M464.5,201.5v-8.1h2v6.3h2.6v1.8H464.5z"/>
		<path fill="#B6A98C" d="M471.1,201.5v-8.1h5v1.6h-3v1.6h2.8v1.5h-2.8v1.8h3v1.6H471.1z"/>
	</g>
	<g>
		<path fill="#B6A98C" d="M211.9,336v7.2h-1.1V336h-2.3V335h5.8v0.9H211.9z"/>
		<path fill="#B6A98C" d="M218.8,343.1l-0.5-1.3h-2.8l-0.5,1.3h-1.1l2.4-6.2h1.2l2.4,6.2H218.8z M217.2,339.1
			c-0.1-0.3-0.3-0.7-0.3-1h0c-0.1,0.3-0.2,0.7-0.3,1l-0.8,2h2.2L217.2,339.1z"/>
		<path fill="#B6A98C" d="M221.7,343.1v-6.2h1.1v5.3h2.2v0.9H221.7z"/>
		<path fill="#B6A98C" d="M226.7,343.1v-6.2h1.1v6.2H226.7z"/>
		<path fill="#B6A98C" d="M234.4,343.1l-2.3-3.7c-0.3-0.4-0.5-0.8-0.7-1.2h0c0,0.4,0,0.8,0,1.5v3.4h-1.1v-6.2h1.4l2.3,3.6
			c0.3,0.4,0.5,0.8,0.7,1.2h0c0-0.4,0-1.1,0-2l0-2.8h1.1v6.2H234.4z"/>
		<path fill="#B6A98C" d="M242.5,343.1l-0.5-1.3h-2.8l-0.5,1.3h-1.1l2.4-6.2h1.2l2.4,6.2H242.5z M240.9,339.1
			c-0.1-0.3-0.3-0.7-0.3-1h0c-0.1,0.3-0.2,0.7-0.3,1l-0.8,2h2.2L240.9,339.1z"/>
		<path fill="#B6A98C" d="M247.6,341v2.1h-1.1V341l-2.2-4.1h1.2l1,2c0.2,0.4,0.4,0.7,0.5,1.1h0c0.2-0.4,0.4-0.8,0.6-1.2l1-1.9h1.1
			L247.6,341z"/>
		<path fill="#B6A98C" d="M259.4,343.1v-3.7h-4.1v3.7h-1.1V335h1.1v3.4h4.1V335h1.1v8.1H259.4z"/>
		<path fill="#B6A98C" d="M262.9,343.1v-6.2h1.1v6.2H262.9z"/>
		<path fill="#B6A98C" d="M266.6,343.1v-6.2h1.1v5.3h2.2v0.9H266.6z"/>
		<path fill="#B6A98C" d="M271.6,343.1v-6.2h1.1v5.3h2.2v0.9H271.6z"/>
		<path fill="#B6A98C" d="M277.7,343.2c-0.5,0-1-0.1-1.3-0.2l0-1c0.4,0.2,0.9,0.3,1.4,0.3c0.7,0,1.3-0.3,1.3-1
			c0-1.2-2.9-0.6-2.9-2.6c0-1.1,0.9-1.9,2.5-1.9c0.4,0,0.9,0,1.2,0.1l0,0.9c-0.3-0.1-0.9-0.2-1.2-0.2c-0.9,0-1.3,0.3-1.3,0.9
			c0,1.2,2.9,0.7,2.9,2.6C280.3,342.5,279.2,343.2,277.7,343.2z"/>
	</g>
	<path fill="#2CA5AC" d="M473.7,121.5c3.3-0.9,6.4-2.7,9.3-4.5c2.4-1.5,6.3-0.5,9.2-1.6c2.6-1,4.6-4.5,6.4-6.5c5-5.6,9-1.2,14.1-3.3
		c2.5-1,4-3.8,4.5-6.4c0.5-2.5-7-4.8-8.4-5.2c-5.4-1.3-13.4-1.7-14.9-8.3c-0.6-2.7,0.8-7-2.5-8.2c-0.4-0.2-1.2,0-1.4,0.5
		c-2.7,5.3-6.6,11.2-6.4,17.4c0.2,4.6,3.9,10.1,1.2,14.6c-0.9,1.5-3,2.7-4.4,3.7c-2.2,1.7-4.3,3.6-6.1,5.7c-1.6,1.8-2.9,3.8-4.4,5.6
		c-2.9,3.5-7.4,5.1-11.3,7.1c-11.3,5.8-10.6,19-17.1,28.4c-2.4,3.4-2.2,7.7-4.2,11.2c-2.8,4.9-9,7.8-13.7,10.5
		c-9.1,5.2-17.7,10.2-25.9,16.7c-11,8.7-27,18.2-41.1,11.5c-5.9-2.8-10.3-8-16.2-10.7c-5.9-2.7-13.8-2.4-20.1-2
		c-13.2,0.8-25.9,4.8-39,6.4c-5.9,0.7-10.9,0.6-15.8,4.3c-4.2,3.2-6.5,8.3-9.6,12.5c-2.5,3.3-5.7,5.4-9.8,5.9
		c-2.9,0.4-6,0.9-8.6,2.3c-6.2,3.4-9.1,9.7-14.1,14.4c-5.9,5.7-15,8-22.8,9.6c-7.1,1.4-14.6,2.1-21.9,1.4c-6.8-0.6-13-3.8-19.8-4.2
		c-6.6-0.5-13.2,1.8-19.4,3.4c-0.9,0.2-0.7,1,0.2,0.7c5.7-1.5,11.5-3.3,17.5-3.3c6.3-0.1,12.1,2.6,18.2,3.9
		c8.5,1.8,18.1,0.4,26.4-1.3c8.4-1.7,17.4-4.6,23.7-10.6c3.8-3.6,6.2-8.2,10.2-11.6c4.7-4,10.8-2.6,15.9-5.4
		c7.1-3.9,9.3-12.3,15.2-17.4c5-4.3,12.9-3.4,19-4.4c7.3-1.1,14.4-2.9,21.7-4.2c7.1-1.3,14.3-1.9,21.4-1.6c9.9,0.4,15.9,5.6,23.6,11
		c8.4,5.9,17.8,4.7,26.8,1.2c7.5-2.9,14.3-7.4,20.6-12.4c6.3-4.9,12.7-9,19.7-12.9c5.7-3.2,12.3-6.1,16.8-10.9
		c1.9-2,3.2-3.8,3.8-6.6c0.9-4.2,3.1-7.5,5-11.2c2-3.9,3-8.4,4.6-12.6c2.3-6.2,6.5-10.1,12.4-13c2.9-1.4,6-2.8,8.2-5.2
		c3.2-3.3,5.6-7.1,9-10.2c3.7-3.3,7.8-4.8,7.7-10.2c-0.1-3.7-1.4-7-2-10.6c-0.9-5.6,4-12.4,6.4-17.2c-0.5,0.2-0.9,0.3-1.4,0.5
		c2.8,1.1,2,5.7,2.2,7.9c0.2,3.2,3.4,5.3,6,6.3c3.6,1.5,7.7,1.7,11.4,3c2.2,0.8,6.8,2.5,5.3,5.6c-2.4,4.8-5.7,3.9-9.6,3.4
		c-5.2-0.7-8.1,4.1-11.1,7.5c-2.7,3.1-6.7,3.4-10.4,3.6c-0.3,0-0.6,0.1-0.9,0.3c-2.9,1.9-6.1,3.9-9.5,4.8
		C472.6,121,472.8,121.7,473.7,121.5"/>
	<path opacity="0.2" fill="#857040" d="M728.2,39.2c-9.7-4.8-17.3-13-26.1-19.2c-6.6-4.7-14.1-8.7-22.4-6.9c-3.5,0.7-6.8,2.6-10,4.2
		c-6,3.1-12,6.1-17.9,9.2c-9.5,4.9-18.9,10-28.5,14.7c-1,0.5-0.1,0.9,0.6,0.6c17.5-8.4,34.2-18.4,51.8-26.5
		c11.3-5.2,21.4,2.6,30.2,9.1c7.1,5.3,13.1,11.5,21.1,15.5C727.4,40.1,728.8,39.5,728.2,39.2"/>
	<path opacity="0.5" fill="#857040" d="M715,153.7c-6.6,2-16-5.6-21.6-8.4c-3.7-1.8-7.4-3.3-10.9-5.4c-4.3-2.6-8.3-5.6-12.5-8.2
		c-4.1-2.5-8.4-4.5-12.5-7c-3.2-2-6.4-4-10-5.3c-4.4-1.6-9.7-0.8-14,0.8c-7.3,2.8-14.3,6.4-21.4,9.6c-17.4,7.6-35.2,14.4-53.1,20.7
		c-1,0.4-0.1,0.6,0.6,0.4c17-6,33.8-12.4,50.4-19.5c7.9-3.4,15.6-7.2,23.5-10.5c8.6-3.6,15.4-0.1,22.6,4.4
		c8.3,5.2,16.8,10,25.1,15.2c6.5,4.1,13.9,7.1,20.7,10.6c4,2,8.9,4.6,13.5,3.2C716,154,715.9,153.4,715,153.7"/>
	<path opacity="0.2" fill="#857040" d="M577.9,193.7c11.7-2.6,22.7-8.1,33.2-13.6c11.5-6,22.7-12.8,33.8-19.5c3-1.8,6.2-4.1,9.9-3.7
		c2.3,0.3,4.7,0.8,7,1c3.5,0.3,7.1,0.1,10.5,1c2.5,0.7,4.8,2.7,6.9,4c13.1,8.4,27.8,15.9,43,19.7c0.4,0.1,1.8-0.5,1.3-0.7
		c-16.3-4.1-32-12.4-45.9-21.7c-4.6-3.1-9.4-2.7-14.7-3.1c-3.7-0.3-7.3-1.6-11-0.8c-4.9,1-9.4,4.8-13.7,7.3
		c-6.1,3.7-12.2,7.3-18.4,10.7c-13.2,7.4-27.2,15.3-42.1,18.5C576.8,193.3,577,193.9,577.9,193.7"/>
	<path opacity="0.2" fill="#857040" d="M658.3,126.6c5.3,0.1,10.4-2,15.1-3.9c5.4-2.2,11.4-4.5,16.5-7.4c7.3-4.1,13.8-7.8,22.2-3.6
		c5.7,2.8,9.8,8.1,15.9,10.2c0.5,0.2,1.9-0.5,1.2-0.8c-6-2.1-10.4-7.1-15.9-10.2c-5.6-3.1-11.2-2.4-16.9-0.4c-2.1,0.8-3.9,2-5.8,3.2
		c-2.7,1.8-5.9,2.8-8.8,4.1c-7.1,3.2-15.1,8-23,7.8C658.3,125.7,657.2,126.6,658.3,126.6"/>
	<path opacity="0.5" fill="#857040" d="M559.5,123.3c11.5-3.6,21.4-10.5,32.4-15.3c8.5-3.7,14.5-1.7,21.7,3.2
		c5.6,3.8,11.6,7.1,17.7,10.1c0.4,0.2,1.6-0.5,1.5-0.5c-7.2-3.5-13.9-7.6-20.5-12c-4.6-3.1-9-4.1-14.4-3.1
		c-4.8,0.9-9.3,3.2-13.6,5.4c-8.3,4.3-16.3,9.1-25.3,11.9C557.9,123.4,558.9,123.5,559.5,123.3"/>
	<path opacity="0.2" fill="#857040" d="M641.1,94c8.3-3.8,16.5-7.9,24.4-12.5c4.1-2.4,8.1-4.7,12.9-5.1c2.8-0.2,5.7,0.2,8.5-0.2
		c3.4-0.4,5.8-0.9,9.2,0.7c2.7,1.3,5.4,2.8,8,4.3c7.6,4.4,16,10.2,25.1,10.5c0.8,0,1.6-1.1,0.5-1.1c-11.3-0.3-21.6-9-31.3-14
		c-2.9-1.5-5.8-2.7-9.1-2c-3.9,0.9-7.6,0.4-11.5,0.7c-4.2,0.4-7.9,2.3-11.6,4.4c-8.5,4.8-17,9.3-25.9,13.3
		C639.4,93.5,640.3,94.3,641.1,94"/>
	<path opacity="0.2" fill="#857040" d="M576.1,82.7c15.6-4.3,30.6-8.6,44.4-17.4c7-4.5,14.3-8.1,21.6-12.1
		c8.7-4.8,17.2-10,27.4-10.9c4.8-0.4,9.7,2,14,3.9c5.4,2.3,10.8,4.9,16.1,7.5C709,58.2,718.7,63.9,729,66c0.6,0.1,1.9-0.7,0.9-0.9
		c-11.4-2.3-22.3-8.9-32.7-13.9c-5.4-2.6-10.9-5.2-16.5-7.4c-2.9-1.1-6.2-2.5-9.4-2.4c-7.7,0.2-14.5,2.9-21.2,6.4
		c-7.2,3.7-14.6,7.4-21.6,11.5c-8.2,4.7-15.7,10.4-24.6,14c-9,3.7-18.7,6.1-28.1,8.7C574.9,82.1,575.2,83,576.1,82.7"/>
	<path opacity="0.2" fill="#857040" d="M608.5,261c7.1,0.7,14.5-3.3,20.8-6c9.1-3.9,19.1-6.1,27.9-10.8c7.3-3.9,13.5-8.9,22.2-5.9
		c5.4,1.9,10.5,5.6,15.3,8.6c10.2,6.5,20.2,13.5,31.8,17.2c0.5,0.2,1.9-0.5,1.2-0.8c-11.6-3.8-21.7-10.7-31.8-17.2
		c-7-4.5-16.4-11.9-25.3-9.5c-4.7,1.2-8.7,3.8-12.8,6.2c-5.7,3.3-12.1,5.3-18.3,7.4c-4.6,1.6-9,3.3-13.4,5.2
		c-5.2,2.2-11.2,5.2-16.9,4.6C608.5,260,607.4,260.9,608.5,261"/>
	<path opacity="0.2" fill="#857040" d="M615.1,321.4c20.9-6.3,39.8-19.4,58.7-29.9c3.9-2.2,7.9-4.3,12-6.1c5.6-2.5,9.4-0.4,14.7,2.7
		c6.9,4.1,12.9,9.7,19.3,14.4c4.4,3.2,10.9,5,14.4,9.3c0.4,0.4,1.9-0.1,1.5-0.6c-3.3-3.9-9.3-6-13.5-8.7
		c-7.1-4.6-13.2-10.6-20.4-15.2c-3.1-2-7.6-4.9-11.5-4.2c-3.1,0.5-6.1,2.1-8.8,3.5c-22.2,10.9-42.6,26.9-66.5,34.1
		C613.9,320.9,614.1,321.7,615.1,321.4"/>
	<path opacity="0.5" fill="#857040" d="M608.5,301.9c9.3-1.8,17.2-7,25.4-11.5c2.8-1.5,5.7-2.8,8.7-3.7c3.6-1,6.6,0.2,9.8,1.6
		c4.9,2,9.7,4.1,14.8,5.3c0.5,0.1,1.8-0.6,1-0.8c-9.1-2.1-17.5-9.1-27-6.5c-11.6,3.2-20.4,12.5-32.5,14.8
		C608,301.2,607.4,302.1,608.5,301.9"/>
	<path opacity="0.2" fill="#857040" d="M696.6,248.2c9.7,2.9,21.8-7.2,28.6-12.9c0.8-0.7-0.4-1.2-1-0.7c-6.3,5.1-18,15.2-26.7,12.5
		C696.8,246.9,695.6,247.9,696.6,248.2"/>
	<path opacity="0.5" fill="#857040" d="M654.1,244c-7.2-2.2-13.9-5.8-20.6-9c-3.9-1.9-8.9-4.7-13.4-4.5c-4.4,0.2-8.6,2.7-12.4,4.8
		c-7.5,4-14.7,8.4-22.9,11c-0.9,0.3-0.7,1.1,0.2,0.8c11.5-3.6,21-11.7,32.5-15.3c5.6-1.7,12.8,3.1,17.6,5.4c5.9,2.9,11.7,5.8,18,7.7
		C653.6,245.1,655,244.3,654.1,244"/>
	<path opacity="0.5" fill="none" stroke="#857040" stroke-width="1.1721" stroke-miterlimit="10" d="M640,33.5
		c-14.8,1-26.7-13-40.5-14.8c-5.8-0.7-11.4,3.3-16.7,5.1c-6.9,2.4-10.7,7.9-26.3,12.4"/>
	<path opacity="0.5" fill="#857040" d="M85.6,20h17.3c0.7,0,1.6-1,0.6-1H86.1C85.5,19,84.5,20,85.6,20"/>
	<path opacity="0.5" fill="#857040" d="M105.3,37.1h17.3c0.3,0,1.8-0.6,1-0.6h-17.3C106,36.4,104.5,37.1,105.3,37.1"/>
	<path opacity="0.5" fill="#857040" d="M90.3,76.6h17.3c0.9,0,1.2-1.2,0.1-1.2H90.5C89.5,75.4,89.3,76.6,90.3,76.6"/>
	<path opacity="0.5" fill="#857040" d="M99.8,45.1h17.3c0.9,0,1.2-1.2,0.1-1.2H99.9C99,43.9,98.7,45.1,99.8,45.1"/>
	<path fill="#857040" d="M118,54.4h17.3c0.9,0,1.2-1.1,0.1-1.1h-17.3C117.3,53.2,116.9,54.4,118,54.4"/>
	<path fill="#857040" d="M128.8,62h10.9c0.5,0,1.7-0.8,0.6-0.8h-10.9C129,61.2,127.8,62,128.8,62"/>
	<path opacity="0.5" fill="#857040" d="M94.2,82.1h10.9c0.6,0,1.7-0.9,0.6-0.9H94.8C94.2,81.1,93.2,82.1,94.2,82.1"/>
	<path fill="#857040" d="M119.8,137h10.9c0.6,0,1.7-0.8,0.6-0.8h-10.9C119.9,136.1,118.7,137,119.8,137"/>
	<path opacity="0.5" fill="#857040" d="M103.9,146.4h10.9c0.3,0,1.8-0.7,1-0.7h-10.9C104.5,145.7,103.1,146.4,103.9,146.4"/>
	<path opacity="0.5" fill="#857040" d="M94.4,117h10.9c0.6,0,1.7-0.9,0.6-0.9H95C94.4,116.1,93.3,117,94.4,117"/>
	<path fill="#857040" d="M117.1,91.4H128c0.9,0,1.2-1.2,0.1-1.2h-10.9C116.3,90.2,116,91.4,117.1,91.4"/>
	<path fill="#857040" d="M116.8,82h10.9c0.5,0,1.7-0.8,0.6-0.8h-10.9C116.9,81.2,115.7,82,116.8,82"/>
	<path fill="#857040" d="M108.5,169.5h10.9c0.6,0,1.6-0.9,0.6-0.9h-10.9C108.5,168.6,107.4,169.5,108.5,169.5"/>
	<path opacity="0.5" fill="#857040" d="M88.2,141.4h17.3c0.6,0,1.7-0.9,0.6-0.9H88.8C88.2,140.4,87.1,141.4,88.2,141.4"/>
	<path fill="#857040" d="M117.1,165.5h17.3c0.6,0,1.7-0.9,0.6-0.9h-17.3C117.2,164.6,116,165.5,117.1,165.5"/>
	<path fill="#857040" d="M115.7,179.7H133c0.3,0,1.8-0.6,1-0.6h-17.3C116.4,179.1,114.9,179.7,115.7,179.7"/>
	<path fill="#857040" d="M114.1,128.1h17.3c0.7,0,1.6-1,0.6-1h-17.3C114,127.1,113.1,128.1,114.1,128.1"/>
	<path opacity="0.5" fill="#857040" d="M100,184.7h10.9c0.9,0,1.2-1.1,0.2-1.1h-10.9C99.3,183.6,99,184.7,100,184.7"/>
	<path fill="#857040" d="M121,188h10.9c0.3,0,1.8-0.7,1-0.7H122C121.6,187.4,120.2,188,121,188"/>
	<path fill="#857040" d="M121.5,142.1h10.9c0.6,0,1.7-0.9,0.6-0.9h-10.9C121.5,141.2,120.4,142.1,121.5,142.1"/>
	<path fill="#857040" d="M117.7,102.9h10.9c0.9,0,1.2-1.1,0.1-1.1h-10.9C117,101.8,116.7,102.9,117.7,102.9"/>
	<path opacity="0.5" fill="#857040" d="M103.1,58H114c0.9,0,1.2-1.1,0.2-1.1h-10.9C102.4,56.9,102,58,103.1,58"/>
	<path fill="#857040" d="M134.3,37h10.9c0.3,0,1.8-0.6,1-0.6h-10.9C135,36.4,133.5,37,134.3,37"/>
	<path opacity="0.5" fill="#857040" d="M77.8,100.7h10.9c0.3,0,1.8-0.6,1-0.6H78.8C78.5,100.1,77,100.7,77.8,100.7"/>
	<path opacity="0.5" fill="#857040" d="M97.4,100.8h10.9c0.6,0,1.7-0.9,0.6-0.9H98C97.5,100,96.4,100.8,97.4,100.8"/>
	<path opacity="0.5" fill="#857040" d="M86.8,92h17.3c0.7,0,1.6-1,0.6-1H87.4C86.7,91,85.7,92,86.8,92"/>
	<path fill="#857040" d="M113,115.7h17.3c0.7,0,1.6-1,0.6-1h-17.3C112.9,114.6,112,115.7,113,115.7"/>
	<path fill="#857040" d="M122.8,71.4h17.3c0.7,0,1.6-1,0.6-1h-17.3C122.7,70.3,121.7,71.4,122.8,71.4"/>
	<path opacity="0.5" fill="#857040" d="M91.2,239.7h17.3c0.7,0,1.6-1,0.6-1H91.8C91.1,238.7,90.1,239.7,91.2,239.7"/>
	<path fill="#857040" d="M122.6,14.4h17.3c0.7,0,1.6-1,0.6-1h-17.3C122.5,13.4,121.6,14.4,122.6,14.4"/>
	<path opacity="0.5" fill="#857040" d="M105.2,68.3h17.3c0.7,0,1.6-1,0.6-1h-17.3C105.1,67.2,104.2,68.3,105.2,68.3"/>
	<path opacity="0.5" fill="#857040" d="M78.1,128.1h17.3c0.7,0,1.6-1,0.6-1H78.6C78,127.1,77,128.1,78.1,128.1"/>
	<path opacity="0.5" fill="#857040" d="M102.1,156.2h17.3c0.7,0,1.6-1,0.6-1h-17.3C102,155.2,101,156.2,102.1,156.2"/>
	<line fill="#E7E2D9" x1="115.7" y1="194.1" x2="133" y2="194.1"/>
	<path fill="#857040" d="M115.4,194.6h17.3c0.7,0,1.6-1,0.6-1H116C115.3,193.6,114.4,194.6,115.4,194.6"/>
	<path fill="#857040" d="M114.2,20h17.3c0.7,0,1.6-1,0.6-1h-17.3C114.1,19,113.1,20,114.2,20"/>
	<path opacity="0.5" fill="#857040" d="M80.1,38.3H91c0.5,0,1.7-0.8,0.6-0.8H80.7C80.2,37.5,79,38.3,80.1,38.3"/>
	<path fill="#857040" d="M116,109.5h10.9c0.5,0,1.7-0.8,0.6-0.8h-10.9C116.1,108.7,115,109.5,116,109.5"/>
	<path fill="#857040" d="M125.3,77.3h10.9c0.5,0,1.7-0.8,0.6-0.8h-10.9C125.4,76.5,124.3,77.3,125.3,77.3"/>
	<path opacity="0.5" fill="#857040" d="M74.6,121.1h10.9c0.5,0,1.7-0.8,0.6-0.8H75.3C74.8,120.3,73.6,121.1,74.6,121.1"/>
	<path fill="#857040" d="M128.1,44.9h14.3c0.5,0,1.7-0.8,0.6-0.8h-14.3C128.2,44.1,127.1,44.9,128.1,44.9"/>
	<path fill="#857040" d="M109.7,8.6h10.9c0.5,0,1.7-0.8,0.6-0.8h-10.9C109.9,7.8,108.7,8.6,109.7,8.6"/>
	<path opacity="0.5" fill="#857040" d="M91.8,14.7c3.6-0.1,7.3-0.1,10.9-0.2c0.5,0,1.7-0.8,0.6-0.8c-3.6,0.1-7.3,0.1-10.9,0.2
		C91.9,13.9,90.7,14.7,91.8,14.7"/>
	<path fill="#857040" d="M121.2,30.2h10.9c0.5,0,1.7-0.8,0.6-0.8h-10.9C121.3,29.4,120.1,30.2,121.2,30.2"/>
	<path fill="#857040" d="M132,26.4h10.9c0.5,0,1.7-0.8,0.6-0.8h-10.9C132.1,25.6,130.9,26.4,132,26.4"/>
	<path opacity="0.5" fill="#857040" d="M100.5,121.6h17.3c0.5,0,1.7-0.8,0.6-0.8h-17.3C100.5,120.8,99.4,121.6,100.5,121.6"/>
	<path opacity="0.5" fill="#857040" d="M87,151.5h17.3c0.9,0,1.2-1.1,0.2-1.1H87.1C86.3,150.4,85.9,151.5,87,151.5"/>
	<path opacity="0.5" fill="#857040" d="M100.4,132h17.3c0.5,0,1.7-0.7,0.6-0.7h-17.3C100.6,131.2,99.4,132,100.4,132"/>
	<path fill="#857040" d="M118.1,150.1h17.3c0.3,0,1.8-0.7,1-0.7h-17.3C118.8,149.4,117.4,150.1,118.1,150.1"/>
	<path fill="#857040" d="M128.8,159.8h10.9c0.9,0,1.2-1.2,0.1-1.2h-10.9C128,158.6,127.7,159.8,128.8,159.8"/>
	<path opacity="0.5" fill="#857040" d="M97.8,175.5h10.9c0.6,0,1.7-0.9,0.6-0.9H98.4C97.8,174.6,96.8,175.5,97.8,175.5"/>
	<path fill="#857040" d="M112.3,232.7h10.9c0.6,0,1.7-0.8,0.6-0.8h-10.9C112.4,231.9,111.3,232.7,112.3,232.7"/>
	<path opacity="0.5" fill="#857040" d="M104.8,247.7h10.9c0.3,0,1.8-0.7,1-0.7h-10.9C105.5,247,104,247.7,104.8,247.7"/>
	<path opacity="0.5" fill="#857040" d="M90.2,214.6h10.9c0.6,0,1.7-0.9,0.6-0.9H90.8C90.3,213.7,89.2,214.6,90.2,214.6"/>
	<path opacity="0.5" fill="#857040" d="M86.6,267.1h10.9c0.6,0,1.7-0.9,0.6-0.9H87.2C86.6,266.2,85.6,267.1,86.6,267.1"/>
	<path fill="#857040" d="M115.5,255.4h17.3c0.9,0,1.2-1.1,0.1-1.1h-17.3C114.8,254.3,114.5,255.4,115.5,255.4"/>
	<path opacity="0.5" fill="#857040" d="M91.2,229.5h17.3c0.6,0,1.7-0.9,0.6-0.9H91.8C91.1,228.6,90.1,229.5,91.2,229.5"/>
	<path fill="#857040" d="M115,263.8h17.3c0.6,0,1.7-0.9,0.6-0.9h-17.3C115.1,263,113.9,263.8,115,263.8"/>
	<path fill="#857040" d="M113,272.7h17.3c0.3,0,1.8-0.6,1-0.6H114C113.7,272.1,112.2,272.7,113,272.7"/>
	<path fill="#857040" d="M112.6,225.7h17.3c0.7,0,1.6-1,0.6-1h-17.3C112.6,224.7,111.6,225.7,112.6,225.7"/>
	<path opacity="0.5" fill="#857040" d="M100.9,277.6h10.9c0.9,0,1.2-1.1,0.2-1.1h-10.9C100.2,276.6,99.9,277.6,100.9,277.6"/>
	<path fill="#857040" d="M120.7,281h10.9c0.3,0,1.8-0.7,1-0.7h-10.9C121.4,280.3,119.9,281,120.7,281"/>
	<path fill="#857040" d="M122.4,239.7h10.9c0.6,0,1.7-0.9,0.6-0.9H123C122.4,238.8,121.3,239.7,122.4,239.7"/>
	<path fill="#857040" d="M118.6,200.5h10.9c0.9,0,1.2-1.1,0.1-1.1h-10.9C117.9,199.4,117.6,200.5,118.6,200.5"/>
	<path opacity="0.5" fill="#857040" d="M82.3,198.3h10.9c0.3,0,1.8-0.6,1-0.6H83.3C83,197.7,81.6,198.3,82.3,198.3"/>
	<path opacity="0.5" fill="#857040" d="M100.7,198.4h10.9c0.6,0,1.7-0.9,0.6-0.9h-10.9C100.8,197.6,99.7,198.4,100.7,198.4"/>
	<path opacity="0.5" fill="#857040" d="M90.1,189.6h17.3c0.7,0,1.6-1,0.6-1H90.7C90,188.6,89,189.6,90.1,189.6"/>
	<path fill="#857040" d="M106.7,213.2H124c0.7,0,1.6-1,0.6-1h-17.3C106.6,212.2,105.7,213.2,106.7,213.2"/>
	<path opacity="0.5" fill="#857040" d="M81.9,168.9h17.3c0.7,0,1.6-1,0.6-1H82.5C81.8,167.9,80.8,168.9,81.9,168.9"/>
	<path opacity="0.5" fill="#857040" d="M83.4,224.8h17.3c0.7,0,1.6-1,0.6-1H84C83.3,223.8,82.4,224.8,83.4,224.8"/>
	<path opacity="0.5" fill="#857040" d="M90.1,259.9h17.3c0.7,0,1.6-1,0.6-1H90.7C90,258.9,89,259.9,90.1,259.9"/>
	<path fill="#857040" d="M111.8,287.7h17.3c0.7,0,1.6-1,0.6-1h-17.3C111.7,286.7,110.7,287.7,111.8,287.7"/>
	<path opacity="0.5" fill="#857040" d="M84.6,135.9h10.9c0.5,0,1.7-0.8,0.6-0.8H85.2C84.7,135.1,83.6,135.9,84.6,135.9"/>
	<path fill="#857040" d="M113.3,207.1h10.9c0.5,0,1.7-0.8,0.6-0.8H114C113.5,206.3,112.3,207.1,113.3,207.1"/>
	<path fill="#857040" d="M127.4,174.9h10.9c0.5,0,1.7-0.8,0.6-0.8h-10.9C127.5,174.1,126.4,174.9,127.4,174.9"/>
	<path opacity="0.5" fill="#857040" d="M91.1,205.4H102c0.5,0,1.7-0.8,0.6-0.8H91.8C91.3,204.6,90.1,205.4,91.1,205.4"/>
	<path opacity="0.5" fill="#857040" d="M98.3,108.7h10.9c0.5,0,1.7-0.8,0.6-0.8H99C98.4,108,97.3,108.7,98.3,108.7"/>
	<path opacity="0.5" fill="#857040" d="M79.2,112.1H90c0.5,0,1.7-0.8,0.6-0.8H79.8C79.3,111.3,78.1,112.1,79.2,112.1"/>
	<path opacity="0.5" fill="#857040" d="M76.7,87.5h10.9c0.6,0,1.7-0.9,0.6-0.9H77.3C76.7,86.6,75.6,87.5,76.7,87.5"/>
	<path fill="#857040" d="M114.5,219.8h10.9c0.6,0,1.7-0.8,0.6-0.8h-10.9C114.5,218.9,113.4,219.8,114.5,219.8"/>
	<path opacity="0.5" fill="#857040" d="M84,282.7h10.9c0.6,0,1.7-0.9,0.6-0.9H84.6C84,281.8,82.9,282.7,84,282.7"/>
	<path opacity="0.5" fill="#857040" d="M86.6,251.8h10.9c0.6,0,1.7-0.9,0.6-0.9H87.2C86.6,250.9,85.6,251.8,86.6,251.8"/>
	<path opacity="0.5" fill="#857040" d="M87.8,289.7h10.9c0.6,0,1.7-0.9,0.6-0.9H88.4C87.8,288.7,86.8,289.7,87.8,289.7"/>
	<path opacity="0.5" fill="#857040" d="M90,64.2h10.9c0.6,0,1.7-0.9,0.6-0.9H90.6C89.9,63.3,88.9,64.2,90,64.2"/>
	<path opacity="0.5" fill="#857040" d="M83,50.9h10.9c0.9,0,1.2-1.2,0.1-1.2H83.1C82.2,49.7,81.9,50.9,83,50.9"/>
	<path opacity="0.5" fill="#857040" d="M95.3,30.4h10.9c0.9,0,1.2-1.2,0.1-1.2H95.4C94.5,29.2,94.2,30.4,95.3,30.4"/>
	<path opacity="0.5" fill="#857040" d="M76.4,303.7h17.3c0.5,0,1.7-0.8,0.6-0.8H77C76.5,302.9,75.4,303.7,76.4,303.7"/>
	<path opacity="0.5" fill="#857040" d="M91.5,320.9h17.3c0.5,0,1.7-0.8,0.6-0.8H92.2C91.7,320.1,90.5,320.9,91.5,320.9"/>
	<path opacity="0.5" fill="#857040" d="M98,360.4h17.3c0.9,0,1.2-1.1,0.1-1.1H98.1C97.2,359.3,96.9,360.4,98,360.4"/>
	<path opacity="0.5" fill="#857040" d="M85.6,328.8h17.3c0.6,0,1.7-0.9,0.6-0.9H86.2C85.6,327.9,84.6,328.8,85.6,328.8"/>
	<path fill="#857040" d="M122.1,338.2h17.3c0.9,0,1.2-1.2,0.1-1.2h-17.3C121.3,337,121,338.2,122.1,338.2"/>
	<path fill="#857040" d="M124.5,345.8h10.9c0.5,0,1.7-0.8,0.6-0.8h-10.9C124.6,345,123.4,345.8,124.5,345.8"/>
	<path fill="#857040" d="M107.1,367.5H118c0.6,0,1.7-0.9,0.6-0.9h-10.9C107,366.6,106,367.5,107.1,367.5"/>
	<path fill="#857040" d="M128,368.2h10.9c0.5,0,1.7-0.8,0.6-0.8h-10.9C128.1,367.4,127,368.2,128,368.2"/>
	<path opacity="0.5" fill="#857040" d="M104.8,341.8h10.9c0.9,0,1.2-1.1,0.2-1.1h-10.9C104,340.7,103.7,341.8,104.8,341.8"/>
	<path fill="#857040" d="M120.8,321.1h10.9c0.9,0,1.2-1.2,0.1-1.2h-10.9C120,320,119.7,321.1,120.8,321.1"/>
	<path opacity="0.5" fill="#857040" d="M75.8,341.8h10.9c0.5,0,1.7-0.7,0.7-0.7H76.4C76,341.1,74.7,341.8,75.8,341.8"/>
	<path fill="#857040" d="M123.2,353.8h17.3c0.5,0,1.7-0.8,0.6-0.8h-17.3C123.4,353.1,122.2,353.8,123.2,353.8"/>
	<path fill="#857040" d="M108.9,298.2h17.3c0.9,0,1.2-1.1,0.2-1.1h-17.3C108.2,297.1,107.8,298.2,108.9,298.2"/>
	<path opacity="0.5" fill="#857040" d="M104.5,349.5h17.3c0.5,0,1.7-0.7,0.6-0.7h-17.3C104.6,348.8,103.4,349.5,104.5,349.5"/>
	<path opacity="0.5" fill="#857040" d="M100.5,303.8h17.3c0.9,0,1.2-1.1,0.1-1.1h-17.3C99.7,302.7,99.4,303.8,100.5,303.8"/>
	<path opacity="0.5" fill="#857040" d="M73.4,322.1h10.9c0.6,0,1.7-0.9,0.6-0.9H74C73.4,321.3,72.3,322.1,73.4,322.1"/>
	<path fill="#857040" d="M129.4,361.2h10.9c0.6,0,1.7-0.9,0.6-0.9H130C129.4,360.2,128.3,361.2,129.4,361.2"/>
	<path opacity="0.5" fill="#857040" d="M80.8,364.5h10.9c0.5,0,1.7-0.8,0.6-0.8H81.5C80.9,363.7,79.8,364.5,80.8,364.5"/>
	<path fill="#857040" d="M114.2,328.7h14.3c0.5,0,1.7-0.8,0.6-0.8h-14.3C114.3,327.9,113.1,328.7,114.2,328.7"/>
	<path opacity="0.5" fill="#857040" d="M88.9,295h10.9c0.6,0,1.7-0.9,0.6-0.9H89.5C88.9,294.1,87.9,295,88.9,295"/>
	<path opacity="0.5" fill="#857040" d="M74.1,298H85c0.3,0,1.8-0.6,1-0.6H75.1C74.8,297.4,73.3,298,74.1,298"/>
	<path fill="#857040" d="M107.2,314h10.9c0.6,0,1.7-0.8,0.6-0.8h-10.9C107.3,313.2,106.2,314,107.2,314"/>
	<path fill="#857040" d="M118,310.2h10.9c0.5,0,1.7-0.7,0.7-0.7h-10.9C118.2,309.4,117,310.2,118,310.2"/>
	<path opacity="0.5" fill="#857040" d="M77,353.2h10.9c0.7,0,1.6-1.1,0.6-1.1H77.5C76.8,352.1,75.9,353.2,77,353.2"/>
	<path opacity="0.5" fill="#857040" d="M85.4,347.9h10.9c0.3,0,1.8-0.6,1-0.6H86.4C86.1,347.2,84.7,347.9,85.4,347.9"/>
	<path opacity="0.5" fill="#857040" d="M84.4,334.5h10.9c0.6,0,1.7-0.8,0.6-0.8H85C84.4,333.7,83.3,334.5,84.4,334.5"/>
	<path opacity="0.5" fill="#857040" d="M80.9,314h10.9c0.3,0,1.8-0.7,1-0.7H81.9C81.6,313.3,80.1,314,80.9,314"/>
	<path fill="#857040" d="M123.4,244.7h10.9c0.9,0,1.2-1.1,0.1-1.1h-10.9C122.7,243.5,122.4,244.7,123.4,244.7"/>
	<path fill="#857040" d="M131.3,6.9h10.9c0.5,0,1.7-0.7,0.7-0.7H132C131.5,6.2,130.3,6.9,131.3,6.9"/>
	<path fill="#857040" d="M287.5,322.4c-9.8-5-20.9-21.3-33.5-18.2c-6.5,1.6-12.7,5.7-18.6,8.8c-7,3.6-13.9,7.4-21,10.8
		c-1,0.5-0.1,0.9,0.6,0.6c11.8-5.7,23.3-12.2,35.1-18c13.6-6.6,25.2,11.2,36.1,16.7C286.7,323.3,288.1,322.7,287.5,322.4"/>
	<path fill="#857040" d="M221.5,302.2c8,0.1,16.3-5,23.4-8.3c5.9-2.7,10.5-6.3,17.3-2.7c4.1,2.1,7.2,5.9,11.6,7.5
		c0.4,0.2,1.9-0.5,1.3-0.7c-4.4-1.6-7.7-5.2-11.6-7.5c-4-2.4-8-2.1-12.3-0.8c-3.9,1.2-7.3,3.8-11.1,5.5c-5.6,2.5-11.7,6.3-18,6.2
		C221.6,301.3,220.4,302.2,221.5,302.2"/>
	<path opacity="0.2" fill="#857040" d="M643.3,344.3c8.3-3.8,16.5-7.9,24.4-12.5c4.1-2.4,8.1-4.7,12.9-5.1c2.8-0.2,5.7,0.2,8.5-0.2
		c3.4-0.4,5.8-0.9,9.2,0.7c2.7,1.3,5.4,2.8,8,4.3c7.6,4.4,16,10.2,25.1,10.5c0.7,0,1.6-1.1,0.5-1.1c-11.3-0.3-21.6-9-31.3-14
		c-2.9-1.5-5.8-2.7-9.1-2c-3.9,0.9-7.6,0.4-11.5,0.7c-4.2,0.4-7.9,2.3-11.6,4.4c-8.5,4.8-17,9.3-25.9,13.3
		C641.6,343.8,642.5,344.6,643.3,344.3"/>
	<path fill="none" stroke="#857040" stroke-width="1.1721" stroke-miterlimit="10" d="M241.8,310.4c-9.5,0.7-17.1-9-26-10.3
		c-3.7-0.5-7.3,2.3-10.7,3.5c-4.4,1.7-6.9,5.5-16.9,8.6"/>
	<pattern  id="SVGID_3_" xlink:href="#Unnamed_Pattern" patternTransform="matrix(0.6904 0 0 -0.6904 -2520.6958 3312.6953)">
	</pattern>
	<path fill="url(#SVGID_3_)" d="M154.8,0c10.1,4.4,27.4-0.1,38.7,1.4c11.9,1.6,7.5,9,4.3,18.1c-2.1,6.1-2.4,11.9-3.4,18
		c-1,6.8-4.2,9.4-7.2,14.9c-4.8,8.6-2.8,20.8-2.1,30.4c0.8,11.9,4.3,23.5,6.4,35.1c2.3,13.2-7.3,17.6-15.6,25.9
		c-14.5,14.4,3.3,35,0.5,52.4c-2.5,15.4-3.2,23.7-5.1,40.3c-1.4,12.8,6.3,16.9,2.5,28.8c-4.8,15.2,1.7,24.7,7.6,38.1
		c5,11.3,11.5,26.8,13.1,39c0.8,6-2.1,9.8-3.5,15.1c-0.6,2.3,0.6,9.9-1,11.4c-3.3,3.2-19,0.6-23.6,0.6c-6.4,0-13.1,2.2-19.3,1.3
		c-0.5-9.1-2-19-1.6-27.9c0.1-1.8,1.8-5,1.5-6.5c-0.3-2.1-3.1-2.7-3.6-4.9c-1-4.7-0.1-10.5-0.1-15.2c0-10.9,1.9-22,0.7-32.9
		c-1.2-10.8-8.3-17.9-8.6-29.6c-0.3-9.1-3.5-18.5-2.2-27.5c1.3-8.8,6.6-16.4,7.9-25.7c2.6-18.4,1.2-37.3,4.3-55.5
		c1.1-6.2,3.2-14.7,2.2-20.9c-1-5.9-5.4-10.7-6.3-17.1c-2.3-15.1,6.5-30.2,7-45.5c0.5-12.1-1.1-24.1,0-36.1c0.7-8.1,6.8-17.2,5.8-25
		"/>
	<g>
		<path fill="none" stroke="#867042" stroke-width="1.3289" stroke-miterlimit="10" d="M3.9,14.4c2.2-1,4-2.7,5.3-4.8
			c0.3-0.5,0.7-1,1-1.4c0.5,6,7,9.4,7.2,15.4c0,1-0.1,2-0.2,3c-0.1,3.2,1,6.5,3,9c0.3,0.3,0.5,0.6,0.7,1c0.2,0.4,0.3,0.9,0.4,1.3
			c0.8,2.2,3.7,2.6,6,2.7c-0.3,0-0.7,6.1-0.9,6.8c-0.6,2-2.7,2.9-4.4,4.1c-0.3,0.2-0.6,0.4-0.7,0.7c-0.3,0.5-0.3,1.1-0.3,1.7
			c0.3,4.5,0.6,9,0.9,13.6c0.1,0.9-0.1,2.1-1,2.2"/>
		<path fill="none" stroke="#867042" stroke-width="1.3289" stroke-miterlimit="10" d="M20.9,68c-2,3.7-4,7.3-6,11
			c-0.5,0.9-1,1.8-1.2,2.7c-0.5,2.9,1.6,5.9,0.9,8.7c-0.3,1.2-1.5,2.3-1.7,3.5c-0.2,1.4,0.7,3.5,1.1,4.8c0.9,3.3,2,6.6,3,9.9
			c0.5,1.6,1,3.2,1.6,4.8c0.2,0.7,0.5,1.4,0.5,2.1c0.1,1.2-0.3,2.4-0.7,3.5c-1.8,5.2-3.7,10.4-5.5,15.7c-2,5.7,2.2,12.1,1.1,18.1
			c-0.3,1.5-0.6,2.9-0.8,4.4c-0.2,1.7-0.2,3.3-0.1,5c0,2.1,0.1,4.2,0.1,6.3c0,1.8,0.1,3.7,0.4,5.5c0.5,3.1,1.7,6.1,1.1,9.1
			c1.2,0,2.9,1,3.2,2.1c0.2,1.2-0.1,2.3-0.3,3.5c-1,4.4-1.6,8.8-1.7,13.3c-0.1,3.1,0,6.2-1.1,9c-1,2.7-3,5-3.8,7.8
			c-0.3,0.9-0.4,1.9-0.1,2.8c0.4,1.3,1.8,2.1,3.1,2.4c0.8,0.2,1.6,0.1,2.4,0.5c2.7,1.2,2,5.8,4.4,7.5c0.7,0.5,1.6,0.7,2.5,0.9
			c5.1,1,10.1,2,15.3,2.2"/>
		<path fill="none" stroke="#867042" stroke-width="1.3289" stroke-miterlimit="10" d="M38.6,257.3c-2.3-0.4-4.6-0.9-6.9-1.3
			c-2.3-0.4-4.6-0.9-6.4-2.3c-1.4-1.1-2.3-2.6-3.6-3.8c-2.8-2.6-6.9-3.3-10.1-5.5c-2.7-1.8-4.7-4.6-5.9-7.7s-1.8-6.3-2.1-9.6"/>
		<path fill="none" stroke="#867042" stroke-width="1.3289" stroke-miterlimit="10" d="M34.5,233.3c0.1,6.4-0.2,12.9-0.8,19.3
			c2.2-1,4.6-1.8,7-2.2"/>
		<path fill="none" stroke="#867042" stroke-width="1.3289" stroke-miterlimit="10" d="M39.8,249.2c0.7,1.7,1.6,3.2,2.7,4.7
			c-1.4,0.4-2.8,0.8-4.2,1.1c-0.2,0.6-0.4,1.2-0.6,1.9"/>
		<path fill="none" stroke="#867042" stroke-width="1.3289" stroke-miterlimit="10" d="M4,181.8c1.2,0.3,2.4,0.5,3.6,0.4
			c0.3,0,0.7-0.1,0.9-0.2c0.5-0.3,0.7-1,0.8-1.6c0.5-2.7,0.9-5.4,0.7-8.1c-0.1-2-0.7-4-0.4-6c-2.4,0.4-4.6-0.2-7.1-0.3
			c0.4-2-0.7-4-0.4-6c0.1-1.4,0.9-2.6,1.1-4c0.2-1.1,0.1-2.2-0.1-3.2c-0.3-2.5-0.6-5-0.9-7.5c-0.3-2.3-0.6-4.7-1.7-6.8
			c0.4-4.4,2.9-8.8,4.2-13c1.4-4.6,1.8-9.6,2.1-14.4c0.3-5.3,0.7-10.7-0.7-15.8c-0.6-2.2-1.5-4.5-0.9-6.7c0.2-0.6,0.5-1.2,0.6-1.8
			c0.6-2.6-1.5-5.3-1-7.9c2.2-11.3,0.5-23.7,0.7-35.2c0-0.6,0-1.2,0.2-1.7C6,41.8,6.2,41.4,6.4,41c0.9-1.7,0.8-3.8,0.7-5.7
			C6.6,28.1,5.6,20.9,4,13.9"/>
		<path fill="none" stroke="#867042" stroke-width="1.3289" stroke-miterlimit="10" d="M4,182.4c0.2,5.8,0.4,11.6-0.1,17.4
			c-0.4,4-1.1,8-1,12c0.1,1.8,0.3,3.6,0.2,5.5c-0.1,1.8-0.6,3.6-0.7,5.4c-0.2,3.2,0.9,6.4,2.8,8.8"/>
		<path fill="none" stroke="#867042" stroke-width="1.3289" stroke-miterlimit="10" d="M2.5,175.9c0.2-0.5,0.6-1,0.6-1.5
			c0.1-1-1-1.6-1.5-2.5c-0.5-0.9-0.4-1.9-0.4-2.9c0-0.2,0-0.3,0.2-0.4c0.1-0.1,0.3-0.1,0.4-0.1c1.4,0.2,2.8,0.4,4.2,0.5
			c0.4,0.9,0.7,1.8,0.8,2.7c0.2,1.2,0.3,2.4,0.4,3.7c0,0.5,0,1-0.1,1.5c-0.2,0.7-0.7,1.2-1.4,1.4c-0.8,0.3-1.8,0.1-2.7,0.4
			C2.6,177.9,2.1,176.9,2.5,175.9z"/>
		<rect x="0.4" y="81.3" fill="#00AFAA" width="22.1" height="13"/>
		<circle fill="#00AFAA" cx="13.8" cy="116.5" r="2.3"/>
	</g>
</g>
</svg>
