<!-- Generator: Adobe Illustrator 19.1.0, SVG Export Plug-In  -->
<svg version="1.1"
	 xmlns="http://www.w3.org/2000/svg" xmlns:xlink="http://www.w3.org/1999/xlink" xmlns:a="http://ns.adobe.com/AdobeSVGViewerExtensions/3.0/"
	 x="0px" y="0px" width="305.5px" height="76.9px" viewBox="0 0 305.5 76.9" enable-background="new 0 0 305.5 76.9"
	 xml:space="preserve">
<defs>
</defs>
<g>
	<g>
		<g>
			<path fill-rule="evenodd" clip-rule="evenodd" fill="#FFFFFF" d="M46.4,5.2H34.2c0,0-1.7,0-1.7,1.7v19.2c0,1.7-1.7,1.7-1.7,1.7
				h-1.8c0,0-1.7,0-1.7-1.7L27.3,7c0-1.8-1.7-1.8-1.7-1.8H11.6v20.9c0,1.7-1.7,1.7-1.7,1.7H8.2c0,0-1.7,0-1.7-1.7V5.2H1.7
				c0,0-1.7,0-1.7-1.7V1.7C0,0,1.7,0,1.7,0h50c0,0,1.7,0,1.7,1.7v24.4c0,1.7-1.7,1.7-1.7,1.7h-1.8c0,0-1.7,0-1.7-1.7V7
				C48.2,5.2,46.5,5.2,46.4,5.2L46.4,5.2z"/>
		</g>
		<g>
			<path fill-rule="evenodd" clip-rule="evenodd" fill="#FFFFFF" d="M103.7,26.1V1.7C103.7,0,102,0,102,0H67.2c0,0-1.7,0-1.7,1.7
				v1.8c0,1.7,1.7,1.7,1.7,1.7h29.6c0,0,1.8,0,1.8,1.7v3.6H67.2c0,0-1.7,0-1.7,1.7v13.9c0,1.7,1.7,1.7,1.7,1.7H102
				C102,27.8,103.7,27.8,103.7,26.1L103.7,26.1z M98.5,15.6v5.2c0,1.8-1.7,1.8-1.7,1.8H72.4c0,0-1.8,0-1.8-1.7v-3.6
				c0-1.7,1.7-1.7,1.7-1.7H98.5z"/>
		</g>
		<g>
			<path fill-rule="evenodd" clip-rule="evenodd" fill="#FFFFFF" d="M132.4,19.1v20.5c0,1.8,1.7,1.8,1.7,1.8h1.7c0,0,1.7,0,1.7-1.7
				l0.1-20.6c0-1.8,1.7-1.8,1.7-1.8s0,0,13.1,0c0,0,1.7,0,1.7-1.7l0.1-13.9c0-1.7-1.7-1.7-1.7-1.7h-1.8c0,0-1.7,0-1.7,1.7l-0.1,8.6
				c0,1.8-1.7,1.8-1.7,1.8h-24.4c0,0-1.7,0-1.7-1.7l-0.1-8.7c0-1.7-1.7-1.7-1.7-1.7h-1.8c0,0-1.7,0-1.7,1.7v13.9
				c0,1.7,1.7,1.7,1.7,1.7h13.1C130.7,17.3,132.4,17.3,132.4,19.1L132.4,19.1z"/>
		</g>
		<g>
			<path fill-rule="evenodd" clip-rule="evenodd" fill="#FFFFFF" d="M168.3,0l34.8,0c0,0,1.7,0,1.7,1.7l0.1,5.2
				c0,1.7-1.7,1.7-1.7,1.7h-1.8c0,0-1.7,0-1.7-1.7l-0.1-1.8h-26c0,0-1.7,0-1.7,1.7l-0.1,13.9c0,1.8,1.7,1.8,1.7,1.8l29.6,0
				c0,0,1.8,0,1.8,1.7v1.8c0,1.7-1.7,1.7-1.7,1.7h-34.8c0,0-1.7,0-1.7-1.7V1.8C166.6,0,168.3,0,168.3,0z"/>
		</g>
		<g>
			<path fill-rule="evenodd" clip-rule="evenodd" fill="#FFFFFF" d="M254.4,26.1V1.7c0-1.7-1.7-1.7-1.7-1.7h-34.8c0,0-1.7,0-1.7,1.7
				v1.8c0,1.7,1.7,1.7,1.7,1.7h29.6c0,0,1.8,0,1.8,1.7v3.6h-31.3c0,0-1.7,0-1.7,1.7v13.9c0,1.7,1.7,1.7,1.7,1.7h34.8
				C252.6,27.8,254.3,27.8,254.4,26.1L254.4,26.1z M249.1,15.6v5.2c0,1.8-1.7,1.8-1.7,1.8h-24.4c0,0-1.7,0-1.7-1.7l-0.1-3.6
				c0-1.7,1.7-1.7,1.7-1.7H249.1z"/>
		</g>
		<g>
			<path fill-rule="evenodd" clip-rule="evenodd" fill="#FFFFFF" d="M268.2,22.6h3.5h26c0,0,1.7,0,1.7-1.7v-1.8
				c0-1.7-1.7-1.7-1.7-1.7h-29.5c0,0-1.7,0-1.7-1.7V1.8c0-1.7,1.7-1.7,1.7-1.7l34.7,0c0,0,1.7,0,1.7,1.7V7c0,1.7-1.7,1.7-1.7,1.7
				h-1.8c0,0-1.7,0-1.7-1.7V5.3h-26c0,0-1.7,0-1.7,1.7v3.5c0,1.8,1.7,1.8,1.7,1.8h29.5c0,0,1.7,0,1.7,1.7v12.2
				c0,1.7-1.7,1.7-1.7,1.7h-34.7c0,0-1.7,0-1.7-1.7v-1.8C266.5,22.6,268.2,22.6,268.2,22.6z"/>
		</g>
		<g>
			<g>
				<g>
					<path fill-rule="evenodd" clip-rule="evenodd" fill="#FFFFFF" d="M181.8,54.3h-12.1c0,0-1.7,0-1.7,1.7v19.2
						c0,1.7-1.7,1.7-1.7,1.7h-1.8c0,0-1.7,0-1.7-1.7l-0.1-19.1c0-1.8-1.7-1.8-1.7-1.8h-13.9v20.9c0,1.7-1.7,1.7-1.7,1.7h-1.8
						c0,0-1.7,0-1.7-1.7V54.3h-4.7c0,0-1.7,0-1.7-1.7v-1.8c0-1.7,1.7-1.7,1.7-1.7h49.9c0,0,1.7,0,1.7,1.7v24.4
						c0,1.7-1.7,1.7-1.7,1.7h-1.8c0,0-1.7,0-1.7-1.7V56.1C183.6,54.3,181.9,54.3,181.8,54.3L181.8,54.3z"/>
				</g>
				<g>
					<path fill-rule="evenodd" clip-rule="evenodd" fill="#FFFFFF" d="M239.1,75.2V50.8c0-1.7-1.7-1.7-1.7-1.7h-34.8
						c0,0-1.7,0-1.7,1.7v1.8c0,1.7,1.7,1.7,1.7,1.7h29.5c0,0,1.8,0,1.8,1.7v3.5h-31.3c0,0-1.7,0-1.7,1.7v13.9c0,1.7,1.7,1.7,1.7,1.7
						h34.7C237.3,76.9,239,76.9,239.1,75.2L239.1,75.2z M233.8,64.7v5.2c0,1.8-1.7,1.8-1.7,1.8h-24.3c0,0-1.8,0-1.8-1.7v-3.6
						c0-1.7,1.7-1.7,1.7-1.7H233.8z"/>
				</g>
				<g>
					<path fill-rule="evenodd" clip-rule="evenodd" fill="#FFFFFF" d="M109.7,76.9c0,0,1.7,0,1.7-1.7l0.1-6.1c0-1.7-1.7-1.7-1.7-1.7
						H108c0,0-1.7,0-1.7,1.7l-0.1,0.8c0,1.8-1.7,1.8-1.7,1.8H80.2c0,0-1.7,0-1.7-1.7l-0.1-19.1c0-1.7-1.7-1.7-1.7-1.7h-1.8
						c0,0-1.7,0-1.7,1.7v24.3c0,1.7,1.7,1.7,1.7,1.7S96.6,76.9,109.7,76.9z"/>
				</g>
				<g>
					<path fill-rule="evenodd" clip-rule="evenodd" fill="#FFFFFF" d="M253.3,49.1l34.7,0c0,0,1.7,0,1.7,1.7l0.1,5.2
						c0,1.7-1.7,1.7-1.7,1.7h-1.8c0,0-1.7,0-1.7-1.7l-0.1-1.8h-26c0,0-1.7,0-1.7,1.7v19.2c0,1.7-1.7,1.7-1.7,1.7h-1.9
						c0,0-1.7,0-1.7-1.7V50.9C251.6,49.1,253.3,49.1,253.3,49.1z"/>
				</g>
				<g>
					<path fill-rule="evenodd" clip-rule="evenodd" fill="#FFFFFF" d="M300.7,49.1l2,0c0,0,1.7,0,1.7,1.7l-0.1,24.3
						c0,1.7-1.7,1.7-1.7,1.7h-1.9c0,0-1.7,0-1.7-1.7V50.9C299,49.1,300.7,49.1,300.7,49.1z"/>
				</g>
				<g>
					<path fill-rule="evenodd" clip-rule="evenodd" fill="#FFFFFF" d="M123.5,49.1l2,0c0,0,1.7,0,1.7,1.7L127,75.2
						c0,1.7-1.7,1.7-1.7,1.7h-1.9c0,0-1.7,0-1.7-1.7V50.9C121.8,49.1,123.5,49.1,123.5,49.1z"/>
				</g>
			</g>
		</g>
		<g>
			<g>
				
					<path fill-rule="evenodd" clip-rule="evenodd" fill="#FFFFFF" stroke="#FFFFFF" stroke-width="1.3554" stroke-linecap="round" stroke-linejoin="round" stroke-miterlimit="3.8637" d="
					M13.7,49.2H6.8V59c0,0,7.6,0,6.9,0c3.6,0,5.6-2.4,5.6-5C19.3,51.4,16.8,49.2,13.7,49.2z M13.4,57.9c1,0-5.3,0-5.3,0v-7.5h5.3
					c3.1,0,4.3,1.7,4.4,3.6C17.9,55.9,16.6,57.9,13.4,57.9z"/>
				<path fill-rule="evenodd" clip-rule="evenodd" fill="#FFFFFF" stroke="#FFFFFF" stroke-miterlimit="10" d="M13.7,49.2H6.8V59
					c0,0,7.6,0,6.9,0c3.6,0,5.6-2.4,5.6-5C19.3,51.4,16.8,49.2,13.7,49.2z M13.4,57.9c1,0-5.3,0-5.3,0v-7.5h5.3
					c3.1,0,4.3,1.7,4.4,3.6C17.9,55.9,16.6,57.9,13.4,57.9z"/>
			</g>
			<g>
				
					<polygon fill-rule="evenodd" clip-rule="evenodd" fill="#FFFFFF" stroke="#FFFFFF" stroke-width="1.3554" stroke-linecap="round" stroke-linejoin="round" stroke-miterlimit="3.8637" points="
					36.7,57.9 27,57.9 27,54.5 32.3,54.5 32.3,53.5 27,53.5 27,50.3 36.4,50.3 36.4,49.2 25.7,49.2 25.7,59 36.7,59 				"/>
				<polygon fill-rule="evenodd" clip-rule="evenodd" fill="#FFFFFF" stroke="#FFFFFF" stroke-miterlimit="10" points="36.7,57.9 
					27,57.9 27,54.5 32.3,54.5 32.3,53.5 27,53.5 27,50.3 36.4,50.3 36.4,49.2 25.7,49.2 25.7,59 36.7,59 				"/>
			</g>
			<g>
				<polygon fill-rule="evenodd" clip-rule="evenodd" fill="#FFFFFF" stroke="#FFFFFF" stroke-width="0.9527" points="53.7,57.9 
					44.4,57.9 44.4,49.2 43.2,49.2 43.2,59 53.7,59 				"/>
				<polygon fill-rule="evenodd" clip-rule="evenodd" fill="#FFFFFF" stroke="#FFFFFF" stroke-miterlimit="10" points="53.7,57.9 
					44.4,57.9 44.4,49.2 43.2,49.2 43.2,59 53.7,59 				"/>
			</g>
		</g>
		<g>
			<g>
				<path fill-rule="evenodd" clip-rule="evenodd" fill="#FFFFFF" d="M138.7,0.7l0,5.7c0,0,0,0.7-0.7,0.7l-6,0
					c-0.7,0-0.7-0.7-0.7-0.7V0.7c0,0,0-0.7,0.7-0.7h6C138.7,0,138.7,0.7,138.7,0.7z"/>
			</g>
		</g>
		<g>
			<g>
				<path fill-rule="evenodd" clip-rule="evenodd" fill="#FFFFFF" d="M305.5,35.5l0,5.7c0,0,0,0.7-0.7,0.7l-6,0
					c-0.7,0-0.7-0.7-0.7-0.7v-5.7c0,0,0-0.7,0.7-0.7h6C305.5,34.8,305.5,35.5,305.5,35.5z"/>
			</g>
		</g>
	</g>
</g>
</svg>
