<!-- Generator: Adobe Illustrator 19.1.0, SVG Export Plug-In  -->
<svg version="1.1"
	 xmlns="http://www.w3.org/2000/svg" xmlns:xlink="http://www.w3.org/1999/xlink" xmlns:a="http://ns.adobe.com/AdobeSVGViewerExtensions/3.0/"
	 x="0px" y="0px" width="262.1px" height="9.2px" viewBox="0 0 262.1 9.2" enable-background="new 0 0 262.1 9.2"
	 xml:space="preserve">
<defs>
</defs>
<g>
	<circle fill="#86754D" cx="247.9" cy="5.3" r="1.5"/>
	<circle fill="#86754D" cx="260.6" cy="5.3" r="1.5"/>
	<path fill-rule="evenodd" clip-rule="evenodd" fill="#86754D" d="M36.2,5.2C37.3,4.9,38,3.9,38,2.8c0-1.3-0.7-2.6-2.2-2.6h-5.9V9
		h1.6V5.4h3L36.5,9h1.7L36.2,5.2z M35.4,3.9h-4V1.7h4.1c0.5,0,1,0.6,1,1.1C36.6,3.4,36,3.9,35.4,3.9z"/>
	<polygon fill-rule="evenodd" clip-rule="evenodd" fill="#86754D" points="51.3,7.5 45.3,7.5 45.3,5.1 48.7,5.1 48.7,3.6 45.3,3.6 
		45.3,1.7 51.1,1.7 51.1,0.2 43.8,0.2 43.8,9 51.3,9 	"/>
	<path fill-rule="evenodd" clip-rule="evenodd" fill="#86754D" d="M62.2,3.8l-2.9-0.3c-0.6-0.1-1.4-0.4-1.3-1c0.1-0.6,1.2-1,2.1-1
		c1.3,0,2.6,0.6,3.6,1.1l1.1-1.1c-1.1-0.9-2.5-1.4-3.9-1.5c-1.9-0.1-4.4,0.6-4.4,2.5c0,1.1,1,2.1,2.2,2.3l4.3,0.6
		c0.5,0.1,0.6,0.5,0.6,0.9c0,0.9-1.5,1.3-2.5,1.3c-1.5,0-3.1-0.7-4.2-1.6l-1,1.1c0,0,2.2,1.9,5.3,1.9c2.8,0,4.1-1.7,4-3
		C65,4.6,63.5,3.9,62.2,3.8z"/>
	<polygon fill-rule="evenodd" clip-rule="evenodd" fill="#86754D" points="78.3,7.5 72.2,7.5 72.2,5.1 75.6,5.1 75.6,3.6 72.2,3.6 
		72.2,1.7 78,1.7 78,0.2 70.7,0.2 70.7,9 78.3,9 	"/>
	<path fill-rule="evenodd" clip-rule="evenodd" fill="#86754D" d="M90.1,5.2c1.1-0.3,1.8-1.3,1.8-2.4c0-1.3-0.7-2.6-2.2-2.6h-5.9V9
		h1.6V5.4h3l2,3.6h1.7L90.1,5.2z M89.3,3.9h-4V1.7h4.1c0.5,0,1,0.6,1,1.1C90.4,3.4,89.9,3.9,89.3,3.9z"/>
	<path fill-rule="evenodd" clip-rule="evenodd" fill="#86754D" d="M104.9,0.2l-3.3,6.6l-3.4-6.6h-1.7l4.3,8.7h1.4
		c1.5-2.9,3-5.8,4.3-8.7H104.9z"/>
	<path fill-rule="evenodd" clip-rule="evenodd" fill="#86754D" d="M114.1,0.2h-1.5L108.5,9h1.6l1.3-2.5h4.3l1.2,2.5h1.6L114.1,0.2z
		 M112,5.1l1.4-2.8l1.4,2.8H112z"/>
	<polygon fill-rule="evenodd" clip-rule="evenodd" fill="#86754D" points="142.9,7.5 136.9,7.5 136.9,5.1 140.3,5.1 140.3,3.6 
		136.9,3.6 136.9,1.7 142.7,1.7 142.7,0.2 135.3,0.2 135.3,9 142.9,9 	"/>
	<path fill-rule="evenodd" clip-rule="evenodd" fill="#86754D" d="M153.8,3.8l-2.9-0.3c-0.6-0.1-1.4-0.4-1.3-1c0.1-0.6,1.2-1,2.1-1
		c1.3,0,2.6,0.6,3.6,1.1l1.1-1.1c-1.1-0.9-2.5-1.4-3.9-1.5c-1.9-0.1-4.4,0.6-4.4,2.5c0,1.1,1,2.1,2.2,2.3l4.3,0.6
		c0.5,0.1,0.6,0.5,0.6,0.9c0,0.9-1.5,1.3-2.5,1.3c-1.5,0-3.1-0.7-4.2-1.6l-1,1.1c0,0,2.2,1.9,5.3,1.9c2.8,0,4.1-1.7,4-3
		C156.6,4.6,155.1,3.9,153.8,3.8z"/>
	<path fill-rule="evenodd" clip-rule="evenodd" fill="#86754D" d="M168.3,0.2h-6V9h1.5V5.4h4.6c0.7,0,2-1,2-2.5
		C170.5,1.5,169.4,0.2,168.3,0.2z M168.2,3.9l-4.4,0V1.8h4.2c0.5,0,1,0.7,1,1.2C169,3.3,168.5,3.9,168.2,3.9z"/>
	<polygon fill-rule="evenodd" clip-rule="evenodd" fill="#86754D" points="183.6,7.5 177.6,7.5 177.6,5.1 181,5.1 181,3.6 
		177.6,3.6 177.6,1.7 183.4,1.7 183.4,0.2 176.1,0.2 176.1,9 183.6,9 	"/>
	<path fill-rule="evenodd" clip-rule="evenodd" fill="#86754D" d="M197,6.2c-1,0.8-2.3,1.4-3.5,1.4c-1.6,0-3.4-1.2-3.4-3
		c0-2,1.6-3,3.2-3c1.2,0,2.9,0.8,3.1,1.1l1.1-1.1c-1.3-0.9-2.6-1.6-4.1-1.5c-2.5,0-4.9,1.9-4.9,4.5c0,2.9,2.5,4.6,5,4.6
		c1.7,0,3.4-0.6,4.5-1.9L197,6.2z"/>
	<rect x="203.5" y="0.2" fill-rule="evenodd" clip-rule="evenodd" fill="#86754D" width="1.5" height="8.7"/>
	<path fill-rule="evenodd" clip-rule="evenodd" fill="#86754D" d="M215.9,0.2h-1.5L210.2,9h1.6l1.3-2.5h4.3l1.2,2.5h1.6L215.9,0.2z
		 M213.8,5.1l1.4-2.8l1.4,2.8H213.8z"/>
	<polygon fill-rule="evenodd" clip-rule="evenodd" fill="#86754D" points="233,7.5 227,7.5 227,0.2 225.5,0.2 225.5,9 233,9 	"/>
	<circle fill="#86754D" cx="247.6" cy="5.9" r="1.5"/>
	<circle fill="#86754D" cx="260.3" cy="5.9" r="1.5"/>
	<circle fill="#86754D" cx="1.8" cy="5.3" r="1.5"/>
	<circle fill="#86754D" cx="14.5" cy="5.3" r="1.5"/>
	<circle fill="#86754D" cx="1.5" cy="5.9" r="1.5"/>
	<circle fill="#86754D" cx="14.3" cy="5.9" r="1.5"/>
</g>
</svg>
