<!-- Generator: Adobe Illustrator 19.1.0, SVG Export Plug-In  -->
<svg version="1.1"
	 xmlns="http://www.w3.org/2000/svg" xmlns:xlink="http://www.w3.org/1999/xlink" xmlns:a="http://ns.adobe.com/AdobeSVGViewerExtensions/3.0/"
	 x="0px" y="0px" width="136.5px" height="40.1px" viewBox="0 0 136.5 40.1" enable-background="new 0 0 136.5 40.1"
	 xml:space="preserve">
<defs>
</defs>
<g>
	<path fill="#86754D" d="M13.3,8.5c-0.6,0.5-1.1,0.8-1.3,1c-0.3,0.2-0.4,0.4-0.6,0.5c-0.1,0.1-0.2,0.2-0.3,0.2
		c-0.1,0.1-0.3,0.1-0.7,0.3L9,12c-0.2,0.3-0.4,0.5-0.5,0.6c-0.1,0.1-0.1,0.2-0.2,0.2c-0.1,0.1-0.1,0.1-0.2,0.2
		c-0.1,0.1-0.3,0.2-0.6,0.5c-0.3,0.5-0.6,0.9-0.7,1c-0.1,0.2-0.3,0.3-0.4,0.5c-0.1,0.1-0.3,0.3-0.4,0.4c-0.2,0.2-0.4,0.4-0.9,0.9
		c-0.2,0.4-0.3,0.7-0.3,0.8c-0.1,0.2-0.1,0.3-0.2,0.4c-0.1,0.1-0.1,0.2-0.2,0.3c-0.1,0.1-0.3,0.4-0.5,0.7c-0.1,0.3-0.2,0.5-0.3,0.7
		c-0.1,0.1-0.1,0.2-0.2,0.3c-0.1,0.1-0.1,0.2-0.3,0.3C3.1,19.9,3,20,2.8,20.3c-0.1,0.3-0.1,0.5-0.1,0.6c0,0.1-0.1,0.2-0.1,0.3
		c-0.1,0.1-0.1,0.2-0.3,0.4C2.2,21.8,2,22,1.7,22.4l-0.3,1.6c0.1,0.2,0.1,0.3,0.1,0.3c0,0,0,0.1,0,0.2c0,0.1,0,0.2,0,0.2
		c0,0.1-0.1,0.3-0.1,0.5c0.1,0.7,0.4,1,0.9,1c0.2,0,0.3,0,0.5,0c0.2,0,0.3,0,0.5-0.1l1.3-0.8C5.4,24.6,6,24,6.3,23.7
		c0.3-0.3,0.5-0.5,0.6-0.5c0.1,0,0.2,0.1,0.3,0.2l-0.2,0.5c-0.3,0.5-0.6,0.8-0.7,0.9C6.1,25,6,25.2,5.8,25.3
		c-0.2,0.1-0.4,0.3-0.8,0.6c-0.3,0.2-0.9,0.6-1.8,1.2c-0.3,0.1-0.7,0.2-0.9,0.3c-0.3,0.1-0.5,0.1-0.8,0.1c-0.7,0-1.1-0.3-1.2-0.8
		c-0.1-0.5-0.2-1-0.2-1.6c0-0.2,0-0.4,0.1-0.5c0.1-0.1,0.2-0.5,0.4-1.1c0-0.4,0.1-0.6,0.1-0.8c0-0.1,0.1-0.3,0.1-0.3
		c0-0.1,0.1-0.2,0.2-0.4c0.1-0.2,0.2-0.4,0.4-0.9l1.1-1.8c0.3-0.6,0.5-1,0.6-1.2c0.1-0.2,0.2-0.4,0.3-0.6c0.1-0.2,0.3-0.5,0.6-0.8
		c0.3-0.3,0.8-1,1.5-1.9c0.6-0.7,1.3-1.5,2.1-2.4c0.8-0.9,1.7-1.7,2.6-2.5c0.9-0.8,1.8-1.4,2.6-1.9c0.9-0.5,1.7-0.8,2.4-0.8
		c0.1,0,0.2,0,0.2,0c0.1,0,0.2,0,0.2,0c0.5,0.3,1,0.6,1.3,1.1c0.3,0.4,0.5,0.9,0.5,1.5c0,0.5,0,1.1-0.1,1.7c0,0.6-0.1,1.1-0.2,1.6
		c-0.2,0.9-0.4,1.6-0.6,2.1c-0.1,0.5-0.3,0.9-0.4,1.3c-0.1,0.4-0.3,0.7-0.5,1c-0.2,0.3-0.5,0.7-0.8,1.2c-0.1,0.7-0.2,1.2-0.4,1.6
		c-0.1,0.3-0.3,0.7-0.5,1c-0.2,0.3-0.5,0.8-0.8,1.3c-0.3,0.5-0.8,1.4-1.4,2.4c-0.2,0.8-0.5,1.6-0.9,2.4c-0.4,0.8-0.9,1.5-1.4,2.2
		c-0.2,0.9-0.4,1.7-0.8,2.4c-0.4,0.7-0.7,1.5-1,2.3c-0.1,0.4-0.1,0.6-0.1,0.8c0,0.1,0,0.2-0.1,0.3c0,0.1-0.1,0.3-0.1,0.5
		c0,0.2-0.1,0.6-0.2,1.1c0.2,0.4,0.2,0.7,0.1,0.9c-0.1,0.2,0,0.3,0.3,0.3c0.1,0,0.2,0,0.3,0c0.1,0,0.3,0,0.4,0
		c0.9-0.6,1.4-1,1.7-1.2c0.3-0.2,0.6-0.4,0.8-0.6c0.2-0.2,0.5-0.4,0.8-0.6c0.3-0.3,0.9-0.8,1.7-1.5c0.1-0.2,0.1-0.3,0.1-0.3
		c0-0.1,0.1-0.1,0.1-0.1c0.1,0,0.1-0.1,0.3-0.2c0.1-0.1,0.3-0.2,0.5-0.4l4.5-4.8c0.8-1,1.5-2,2.3-2.9c0.8-0.9,1.5-1.9,2.3-2.9
		c0.5-0.7,0.8-1.1,1-1.4c0.2-0.3,0.3-0.5,0.4-0.7c0.1-0.2,0.3-0.4,0.5-0.7c0.2-0.3,0.6-0.7,1.2-1.2c0.3-0.2,0.5-0.3,0.5-0.4
		c0-0.2,0-0.5,0.1-0.9c0.1-0.2,0.3-0.4,0.5-0.7c0.2-0.3,0.5-0.6,0.7-1c0.2-0.3,0.4-0.7,0.6-1c0.2-0.3,0.3-0.6,0.3-0.8
		c0.5-0.7,0.9-1.4,1.3-2.2c0.4-0.8,0.8-1.6,1-2.4c0.2-0.3,0.3-0.6,0.3-0.8c0-0.2,0.1-0.4,0.1-0.6c0-0.6,0.2-1.2,0.5-1.7l0.1-1.2
		c0-0.2-0.1-0.3-0.2-0.4c-0.1-0.1-0.4-0.4-0.8-0.8c-0.7-0.5-1.1-0.8-1.3-0.9C30.1,2.7,30,2.5,30,2.3c0-0.1,0-0.2,0-0.4
		c0-0.2,0-0.4,0.1-0.6C30.8,0.4,31.4,0,32,0c0.5,0,1,0.3,1.5,1c0.1,0.3,0.2,0.6,0.3,0.9c0.1,0.3,0.1,0.5,0.1,0.8
		c0,0.3-0.1,0.6-0.2,0.9c0.2,0.5,0.2,1,0.2,1.5c0,0.5-0.2,1-0.5,1.6c-0.1,0.2-0.1,0.3-0.1,0.4c0,0.1,0,0.1,0,0.2c0,0,0,0.1,0,0.1
		c0,0.1,0,0.2-0.1,0.3c-0.1,0.4-0.2,0.7-0.2,1c-0.1,0.3-0.2,0.5-0.3,0.7c-0.1,0.2-0.2,0.5-0.4,0.7c-0.2,0.3-0.4,0.6-0.7,0.9
		c-0.1,0.3-0.2,0.5-0.3,0.6s-0.1,0.2-0.1,0.3c0,0.1-0.1,0.1-0.1,0.2c0,0.1,0,0.3-0.1,0.5c-0.4,0.8-0.7,1.3-0.9,1.6
		c-0.2,0.3-0.3,0.6-0.4,0.7c-0.1,0.2-0.3,0.4-0.4,0.6c-0.2,0.2-0.5,0.7-1,1.3c-0.2,0.4-0.4,0.7-0.6,1c-0.2,0.3-0.4,0.6-0.6,0.8
		c-0.2,0.3-0.4,0.6-0.6,0.8c-0.2,0.3-0.5,0.6-0.8,1c-0.2,0.3-0.3,0.5-0.4,0.6c-0.1,0.1-0.1,0.2-0.1,0.3c0,0.1-0.1,0.2-0.2,0.3
		c-0.1,0.1-0.3,0.3-0.5,0.7c-0.9,1-1.5,1.7-1.8,2.1c-0.3,0.4-0.6,0.7-0.8,1c-0.2,0.3-0.5,0.7-0.9,1.2c-0.4,0.5-1.1,1.4-2,2.8
		c-1.6,1.7-3.3,3.4-4.9,5.1c-1.6,1.7-3.3,3.1-5,4.2c-0.3,0.2-0.6,0.3-0.8,0.4C8.2,39.4,8,39.4,8,39.5c-0.1,0-0.2,0.1-0.2,0.1
		c-0.1,0-0.3,0-0.5,0.1C6.8,39.9,6.6,40,6.5,40c-0.1,0-0.3,0.1-0.6,0.1c-0.6,0-1-0.1-1.2-0.4c-0.2-0.3-0.3-0.8-0.3-1.5
		c0-0.3,0-0.6,0-0.9c0-0.3,0-0.7,0.1-1c0.1-0.6,0.2-1.1,0.3-1.6c0.1-0.5,0.2-0.9,0.3-1.3c0.1-0.4,0.3-0.8,0.4-1.2
		c0.2-0.4,0.4-0.9,0.7-1.4c0.1-0.6,0.3-1.3,0.6-2.1c0.3-0.8,0.7-1.5,1.2-2.1c0.4-0.9,0.7-1.6,0.8-1.9c0.2-0.3,0.3-0.6,0.4-0.9
		c0.1-0.3,0.3-0.6,0.5-1c0.2-0.4,0.5-1.1,1-2.1l0.6-1.3c0-0.3,0.1-0.5,0.2-0.6c0.1-0.1,0.2-0.2,0.3-0.2c0.1-0.1,0.2-0.1,0.3-0.2
		c0.1-0.1,0.1-0.3,0.1-0.5c0.2-0.5,0.3-0.8,0.3-1c0.1-0.2,0.1-0.3,0.2-0.5c0.1-0.1,0.1-0.3,0.2-0.5c0.1-0.2,0.3-0.6,0.6-1.2
		c0.2-0.8,0.3-1.4,0.3-1.7c0.1-0.3,0.1-0.6,0.2-0.8c0-0.2,0.1-0.4,0.1-0.6c0.1-0.2,0.2-0.7,0.4-1.3c-0.1-0.5-0.1-0.9-0.2-1.2
		c0-0.3-0.3-0.5-0.9-0.5H13.3z"/>
	<path fill="#86754D" d="M28.5,27c0.2,0,0.3,0.1,0.3,0.4c-0.5,0.8-0.9,1.5-1.4,2.2c-0.5,0.7-0.8,1.5-1,2.3l-0.3,0.7V33l0.5,0.2H27
		l0.3-0.2l0.8-0.5l1.2-0.6l0.7-0.5c0.1,0,0.3-0.1,0.4-0.1c0.2,0,0.2,0,0.2,0.1c0,0.2-0.2,0.4-0.6,0.6c-0.4,0.3-0.7,0.5-0.9,0.6
		L28.5,33l-1.4,1c-0.5,0.3-1.1,0.7-1.5,0.9c-0.5,0.3-1.1,0.4-1.7,0.4h-0.5l-0.2-0.2c0.2-0.9,0.4-1.6,0.8-2.2
		c0.3-0.6,0.7-1.3,1.1-2.1v-0.3l-0.8-0.2l-0.7,0.2l-1,0.5l-0.9,0.6l-1.1,0.6h-0.4l0.1-0.4l1.7-1.2l1.9-1.2l0.8-0.5
		c0.5-0.3,1.1-0.7,1.7-1.1c0.6-0.4,1.2-0.7,1.8-0.9H28.5z M31.8,22.9c-0.3,0.2-0.6,0.3-0.9,0.3c-0.6,0-1.1-0.3-1.6-0.8
		c-0.5-0.5-0.7-1-0.7-1.6v-0.1c0-0.2,0-0.3,0.1-0.3c0.1,0,0.3-0.1,0.7-0.4l0.2-0.1l0.6,0.1l1.6,2.4L31.8,22.9z"/>
	<path fill="#86754D" d="M40.4,30.5c0-0.3-0.2-0.4-0.3-0.4c-0.2,0-0.3,0.1-0.5,0.2c-0.2,0.1-0.3,0.2-0.5,0.3l-3,2.4
		c-0.2,0.2-0.4,0.4-0.8,0.7c-0.3,0.3-0.6,0.6-1,0.8c-0.3,0.3-0.7,0.5-1,0.7c-0.3,0.2-0.7,0.3-0.9,0.3l-0.1-0.1l0.1-0.5l1.9-3.5
		c0.2-0.3,0.3-0.6,0.3-0.9c0-0.3-0.2-0.5-0.5-0.5c-0.2,0-0.4,0.1-0.8,0.2c-0.3,0.1-0.6,0.3-0.9,0.5l-1.7,1c-0.5,0.3-0.9,0.5-1.2,0.5
		c-0.1,0-0.1,0-0.1-0.1l0.1-0.2l1.7-1.2c0.8-0.5,1.6-1,2.4-1.5c0.8-0.4,1.7-0.8,2.6-1.1c0.5,0,0.8,0.3,0.8,0.8
		c0,0.4-0.1,0.9-0.3,1.3c-0.2,0.5-0.3,0.8-0.4,1L36,31.8l0.1,0.1l2-1.6c0.6-0.5,1.3-1,2.1-1.4c0.8-0.4,1.5-0.7,2.3-0.7
		c0.2,0.2,0.3,0.5,0.3,0.9c0,0.4-0.1,0.8-0.3,1.2c-0.2,0.4-0.3,0.7-0.5,1c-0.2,0.2-0.4,0.5-0.6,0.8c-0.2,0.3-0.3,0.6-0.3,0.9
		c0,0.2,0.1,0.3,0.2,0.5c0.2,0,0.3-0.1,0.4-0.1c0.1,0,0.2,0,0.3,0c0.2-0.1,0.4-0.2,0.7-0.4c0.3-0.2,0.9-0.6,1.9-1.1
		c0.7-0.4,1.1-0.6,1.2-0.6l0.1,0.1c0,0.1-0.1,0.3-0.4,0.6c-0.3,0.3-0.5,0.5-0.8,0.7c-1,0.7-1.9,1.2-2.7,1.7
		c-0.8,0.5-1.8,0.8-2.8,0.8c-0.3-0.2-0.5-0.5-0.5-0.8c0-0.2,0-0.3,0.1-0.5c0.1-0.2,0.1-0.4,0.2-0.6L40.4,30.5z"/>
	<path fill="#86754D" d="M54.9,31.6l1.3-0.2c0.4-0.2,0.7-0.3,0.9-0.3c0.1,0,0.1,0,0.1,0.1c0,0.1-0.2,0.3-0.5,0.5
		c-0.3,0.3-0.6,0.5-1,0.7c-0.7,0.3-1.1,0.4-1.3,0.4c-0.2,0-0.3,0-0.4-0.1c-0.1,0-0.3-0.1-0.6-0.1l-0.8,0.6c-0.3,0.3-0.5,0.5-0.6,0.7
		c-0.1,0.2-0.2,0.3-0.3,0.3c-0.1,0.1-0.1,0.1-0.3,0.1c-0.1,0-0.3,0.1-0.6,0.2c-0.2,0.3-0.4,0.4-0.4,0.3l-0.5,0.1
		c-0.2,0.2-0.3,0.3-0.4,0.4c-0.1,0.1-0.1,0.1-0.2,0.1c-0.1,0-0.2,0-0.4,0c-0.2,0-0.4,0-0.8-0.1c-0.5-0.2-0.9-0.4-1.1-0.6
		c-0.3-0.2-0.4-0.5-0.4-0.8c0-0.3,0.1-0.7,0.3-1c0.1-0.2,0.1-0.4,0.2-0.5c0-0.1,0-0.2,0.1-0.2c0-0.1,0.1-0.1,0.2-0.2
		c0.1-0.1,0.2-0.3,0.4-0.5l0.1-0.4c-0.2-0.1-0.3-0.1-0.5-0.1c-0.1,0-0.2,0-0.3,0.1c-0.1,0.1-0.3,0.2-0.7,0.3
		c-0.2,0.1-0.5,0.3-0.8,0.5c-0.3,0.2-0.5,0.3-0.7,0.3l-0.1-0.1c0-0.1,0-0.2,0.1-0.3c0.9-0.7,1.8-1.3,2.7-1.8c0.9-0.5,1.9-0.9,3-1
		l0.6,0.2l0.5-0.1c0.2-0.3,0.5-0.6,0.8-0.7c0.4-0.2,0.7-0.3,1-0.3c0.3,0,0.5,0.1,0.7,0.2c0.5,0.5,0.8,1,0.8,1.5
		c0,0.4-0.2,0.9-0.5,1.6L54.9,31.6z M49,33.6c0.6,0.1,1,0.2,1.3,0.2c0.4,0,0.8-0.1,1-0.3c0.3-0.2,0.7-0.6,1.2-1.2l0.1-0.6
		c-0.3-0.3-0.5-0.5-0.6-0.6c-0.1-0.1-0.2-0.2-0.2-0.3c0-0.1-0.1-0.2-0.1-0.3c0-0.2-0.1-0.4-0.2-0.7l-0.3-0.1c-0.1,0-0.1,0-0.1,0.1
		c0,0.1-0.1,0.2-0.3,0.4c-0.3,0.3-0.5,0.5-0.7,0.7c-0.2,0.2-0.4,0.4-0.5,0.6c-0.1,0.2-0.3,0.5-0.4,0.7c-0.1,0.3-0.2,0.6-0.3,1
		L49,33.6z"/>
	<path fill="#86754D" d="M64,27.5c0.3,0,0.5,0.1,0.5,0.3l-0.2,0.3c-0.5,0.2-0.9,0.3-1.1,0.4c-0.2,0.1-0.6,0.3-1,0.7l-0.2,0.3
		c0.2,0.4,0.4,0.7,0.6,1c0.2,0.3,0.3,0.6,0.3,1.1c0,0.2,0,0.3-0.1,0.6l0.2,0.2c0.4-0.2,0.6-0.3,0.8-0.3c0.1,0,0.2-0.1,0.3-0.1
		c0.1,0,0.2-0.1,0.3-0.2c0.1-0.1,0.3-0.2,0.6-0.5c0.3-0.1,0.5-0.2,0.6-0.2c0.2,0,0.2,0.1,0.2,0.2c0,0-0.1,0.1-0.3,0.3
		c-0.5,0.3-0.8,0.5-1,0.6c-0.2,0.1-0.3,0.2-0.4,0.2c-0.1,0.1-0.3,0.2-0.4,0.3c-0.2,0.1-0.4,0.4-0.9,0.7l-0.6,0.9L62,34.9l-0.5,0.5
		l-0.6,0.8c-0.4,0.3-0.7,0.6-1,0.7c-0.2,0.2-0.4,0.3-0.6,0.4c-0.2,0.1-0.5,0.2-0.8,0.2c-0.3,0-0.8,0.1-1.3,0.1
		c-0.2-0.1-0.4-0.1-0.6-0.2c-0.1-0.1-0.2-0.2-0.2-0.5c0-0.3,0.2-0.6,0.5-0.9c0.3-0.3,0.6-0.5,0.8-0.7l2.7-1.5
		c0.1-0.3,0.2-0.6,0.2-0.7c0-0.1,0-0.2,0-0.4c0-0.1-0.1-0.3-0.1-0.6c-0.1-0.3-0.2-0.5-0.3-0.6c-0.1-0.1-0.1-0.2-0.1-0.3
		c0-0.1,0-0.2-0.1-0.3c0-0.1,0-0.2-0.1-0.4c-0.7,0.2-1.3,0.4-1.8,0.6c-0.6,0.2-1.2,0.5-1.9,0.9c-0.1,0-0.1,0-0.1,0c0,0,0,0-0.1,0
		c-0.1,0-0.1,0-0.1-0.1c0-0.1,0.2-0.3,0.7-0.7c0.5-0.3,0.8-0.6,1.2-0.8c0.5-0.2,0.8-0.4,0.9-0.5c0.2-0.1,0.3-0.2,0.4-0.2
		c0.1-0.1,0.2-0.1,0.4-0.2c0.2-0.1,0.5-0.2,0.9-0.3c0.4-0.6,0.9-1,1.4-1.2c0.5-0.2,1.1-0.4,1.8-0.7H64z M60.4,34.8
		c-0.2,0-0.3,0-0.5,0.1c-0.2,0-0.3,0.1-0.3,0.1c-0.2,0.1-0.4,0.1-0.4,0.2c0,0.1-0.1,0.2-0.3,0.4c-0.2,0.1-0.3,0.2-0.4,0.3
		c-0.1,0.1-0.2,0.2-0.2,0.4c0,0.3,0.2,0.5,0.5,0.5c0.3,0,0.6-0.1,0.9-0.3c0.3-0.2,0.6-0.4,0.6-0.5c0.2-0.3,0.3-0.5,0.3-0.6
		c0.1-0.1,0.1-0.1,0.1-0.2C60.7,34.9,60.6,34.8,60.4,34.8z"/>
	<path fill="#86754D" d="M79.1,27c0.2,0,0.3,0.1,0.3,0.4c-0.5,0.8-0.9,1.5-1.4,2.2c-0.5,0.7-0.8,1.5-1,2.3l-0.3,0.7V33l0.5,0.2h0.3
		l0.3-0.2l0.8-0.5l1.2-0.6l0.7-0.5c0.1,0,0.3-0.1,0.4-0.1c0.2,0,0.2,0,0.2,0.1c0,0.2-0.2,0.4-0.6,0.6c-0.4,0.3-0.7,0.5-0.9,0.6
		L79.1,33l-1.4,1c-0.5,0.3-1.1,0.7-1.5,0.9c-0.5,0.3-1.1,0.4-1.7,0.4h-0.5l-0.2-0.2c0.2-0.9,0.4-1.6,0.8-2.2
		c0.3-0.6,0.7-1.3,1.1-2.1v-0.3l-0.8-0.2l-0.7,0.2l-1,0.5l-0.9,0.6l-1.1,0.6h-0.4l0.1-0.4l1.7-1.2l1.9-1.2l0.8-0.5
		c0.5-0.3,1.1-0.7,1.7-1.1c0.6-0.4,1.2-0.7,1.8-0.9H79.1z M84.8,19.8c-0.1,0.2-0.3,0.3-0.5,0.5L84,20.4l-0.3,0.3
		c-0.3,0.3-0.6,0.7-0.9,1c-0.3,0.3-0.6,0.6-1.1,0.9c-0.3,0.2-0.6,0.4-0.8,0.6c-0.2,0.2-0.5,0.3-0.9,0.5l-0.6,0.3
		c-0.5,0.2-0.9,0.3-1,0.3c-0.2,0-0.4-0.2-0.6-0.6c0-0.1,0-0.1,0-0.2c0-0.1,0-0.1,0-0.2c0-0.9,0.3-1.4,1-1.5c0.2,0,0.5,0,0.9-0.1
		c0.4-0.1,0.7-0.2,1.1-0.4c0.4-0.2,0.7-0.3,1.1-0.5c0.3-0.2,0.6-0.3,0.9-0.4l0.8-0.4c0.2-0.1,0.4-0.1,0.4-0.2c0.1,0,0.1-0.1,0.1-0.1
		c0,0,0.1-0.1,0.1-0.1c0,0,0.2-0.1,0.3-0.2l0.5-0.1c0.1,0,0.1,0,0.1,0.1C85,19.5,85,19.6,84.8,19.8z"/>
	<path fill="#86754D" d="M86.6,30c0-0.1,0.1-0.3,0.1-0.4c0-0.2,0-0.3-0.1-0.4c0-0.1-0.2-0.1-0.3-0.1c-0.6,0-1.1,0.3-1.6,0.9
		c-0.5,0.6-0.8,1.1-0.9,1.5l-0.2,0.6l-0.1,0.6c0,0.7,0.4,1.1,1.1,1.1c0.4,0,0.7-0.1,1-0.2c0.3-0.1,0.7-0.3,1.2-0.6l2.2-1.2
		c0.2-0.2,0.5-0.3,0.7-0.4c0.2-0.1,0.4-0.1,0.4-0.1c0.1,0,0.1,0,0.1,0.1c0,0.1-0.1,0.2-0.3,0.5L89,32.4l-1.5,0.9L86.5,34
		c-0.3,0.2-0.6,0.4-0.9,0.5c-0.2,0.1-0.5,0.3-0.7,0.3c-0.2,0.1-0.5,0.2-0.7,0.2c-0.3,0.1-0.6,0.1-1,0.1L82.7,35l-0.6-0.1
		c-0.3-0.2-0.6-0.4-0.6-0.6c-0.1-0.2-0.1-0.5-0.1-0.8v-0.1c0-0.9,0.3-1.6,1-2.2c0.6-0.6,1.3-1.2,1.9-1.7c0.5-0.4,0.9-0.7,1.4-1
		c0.5-0.3,0.9-0.4,1.2-0.4c0.3,0,0.5,0.1,0.7,0.2c0.2,0.1,0.3,0.4,0.3,0.8c-0.2,0.3-0.3,0.7-0.5,1c-0.2,0.4-0.4,0.6-0.9,0.6
		l-0.2-0.2L86.6,30z"/>
	<path fill="#86754D" d="M99.1,31.6l1.3-0.2c0.4-0.2,0.7-0.3,0.9-0.3c0.1,0,0.1,0,0.1,0.1c0,0.1-0.2,0.3-0.5,0.5
		c-0.3,0.3-0.6,0.5-1,0.7c-0.7,0.3-1.1,0.4-1.3,0.4c-0.2,0-0.3,0-0.4-0.1c-0.1,0-0.3-0.1-0.6-0.1l-0.8,0.6c-0.3,0.3-0.5,0.5-0.6,0.7
		c-0.1,0.2-0.2,0.3-0.3,0.3c-0.1,0.1-0.1,0.1-0.3,0.1c-0.1,0-0.3,0.1-0.6,0.2c-0.2,0.3-0.4,0.4-0.4,0.3l-0.5,0.1
		c-0.2,0.2-0.3,0.3-0.4,0.4c-0.1,0.1-0.1,0.1-0.2,0.1c-0.1,0-0.2,0-0.4,0c-0.2,0-0.4,0-0.8-0.1c-0.5-0.2-0.9-0.4-1.1-0.6
		c-0.3-0.2-0.4-0.5-0.4-0.8c0-0.3,0.1-0.7,0.3-1c0.1-0.2,0.1-0.4,0.2-0.5c0-0.1,0-0.2,0.1-0.2c0-0.1,0.1-0.1,0.2-0.2
		c0.1-0.1,0.2-0.3,0.4-0.5l0.1-0.4c-0.2-0.1-0.3-0.1-0.5-0.1c-0.1,0-0.2,0-0.3,0.1c-0.1,0.1-0.3,0.2-0.7,0.3
		c-0.2,0.1-0.5,0.3-0.8,0.5c-0.3,0.2-0.5,0.3-0.7,0.3L89,32.1c0-0.1,0-0.2,0.1-0.3c0.9-0.7,1.8-1.3,2.7-1.8c0.9-0.5,1.9-0.9,3-1
		l0.6,0.2l0.5-0.1c0.2-0.3,0.5-0.6,0.8-0.7c0.4-0.2,0.7-0.3,1-0.3c0.3,0,0.5,0.1,0.7,0.2c0.5,0.5,0.8,1,0.8,1.5
		c0,0.4-0.2,0.9-0.5,1.6L99.1,31.6z M93.3,33.6c0.6,0.1,1,0.2,1.3,0.2c0.4,0,0.8-0.1,1-0.3c0.3-0.2,0.7-0.6,1.2-1.2l0.1-0.6
		c-0.3-0.3-0.5-0.5-0.6-0.6c-0.1-0.1-0.2-0.2-0.2-0.3c0-0.1-0.1-0.2-0.1-0.3c0-0.2-0.1-0.4-0.2-0.7l-0.3-0.1c-0.1,0-0.1,0-0.1,0.1
		c0,0.1-0.1,0.2-0.3,0.4c-0.3,0.3-0.5,0.5-0.7,0.7c-0.2,0.2-0.4,0.4-0.5,0.6c-0.1,0.2-0.3,0.5-0.4,0.7c-0.1,0.3-0.2,0.6-0.3,1
		L93.3,33.6z"/>
	<path fill="#86754D" d="M111.1,30.5c0-0.3-0.2-0.4-0.3-0.4c-0.2,0-0.3,0.1-0.5,0.2c-0.2,0.1-0.3,0.2-0.5,0.3l-3,2.4
		c-0.2,0.2-0.4,0.4-0.8,0.7c-0.3,0.3-0.6,0.6-1,0.8c-0.3,0.3-0.7,0.5-1,0.7c-0.3,0.2-0.7,0.3-0.9,0.3l-0.1-0.1l0.1-0.5l1.9-3.5
		c0.2-0.3,0.3-0.6,0.3-0.9c0-0.3-0.2-0.5-0.5-0.5c-0.2,0-0.4,0.1-0.8,0.2c-0.3,0.1-0.6,0.3-0.9,0.5l-1.7,1c-0.5,0.3-0.9,0.5-1.2,0.5
		c-0.1,0-0.1,0-0.1-0.1l0.1-0.2l1.7-1.2c0.8-0.5,1.6-1,2.4-1.5c0.8-0.4,1.7-0.8,2.6-1.1c0.5,0,0.8,0.3,0.8,0.8
		c0,0.4-0.1,0.9-0.3,1.3c-0.2,0.5-0.3,0.8-0.4,1l-0.3,0.7l0.1,0.1l2-1.6c0.6-0.5,1.3-1,2.1-1.4c0.8-0.4,1.5-0.7,2.3-0.7
		c0.2,0.2,0.3,0.5,0.3,0.9c0,0.4-0.1,0.8-0.3,1.2c-0.2,0.4-0.3,0.7-0.5,1c-0.2,0.2-0.4,0.5-0.6,0.8c-0.2,0.3-0.3,0.6-0.3,0.9
		c0,0.2,0.1,0.3,0.2,0.5c0.2,0,0.3-0.1,0.4-0.1c0.1,0,0.2,0,0.3,0c0.2-0.1,0.4-0.2,0.7-0.4c0.3-0.2,0.9-0.6,1.9-1.1
		c0.7-0.4,1.1-0.6,1.2-0.6l0.1,0.1c0,0.1-0.1,0.3-0.4,0.6c-0.3,0.3-0.5,0.5-0.8,0.7c-1,0.7-1.9,1.2-2.7,1.7
		c-0.8,0.5-1.8,0.8-2.8,0.8c-0.3-0.2-0.5-0.5-0.5-0.8c0-0.2,0-0.3,0.1-0.5c0.1-0.2,0.1-0.4,0.2-0.6L111.1,30.5z"/>
	<path fill="#86754D" d="M125.6,31.6l1.3-0.2c0.4-0.2,0.7-0.3,0.9-0.3c0.1,0,0.1,0,0.1,0.1c0,0.1-0.2,0.3-0.5,0.5
		c-0.3,0.3-0.6,0.5-1,0.7c-0.7,0.3-1.1,0.4-1.3,0.4c-0.2,0-0.3,0-0.4-0.1c-0.1,0-0.3-0.1-0.6-0.1l-0.8,0.6c-0.3,0.3-0.5,0.5-0.6,0.7
		c-0.1,0.2-0.2,0.3-0.3,0.3c-0.1,0.1-0.1,0.1-0.3,0.1c-0.1,0-0.3,0.1-0.6,0.2c-0.2,0.3-0.4,0.4-0.4,0.3l-0.5,0.1
		c-0.2,0.2-0.3,0.3-0.4,0.4c-0.1,0.1-0.1,0.1-0.2,0.1s-0.2,0-0.4,0c-0.2,0-0.4,0-0.8-0.1c-0.5-0.2-0.9-0.4-1.1-0.6
		c-0.3-0.2-0.4-0.5-0.4-0.8c0-0.3,0.1-0.7,0.3-1c0.1-0.2,0.1-0.4,0.2-0.5c0-0.1,0-0.2,0.1-0.2c0-0.1,0.1-0.1,0.2-0.2
		c0.1-0.1,0.2-0.3,0.4-0.5l0.1-0.4c-0.2-0.1-0.3-0.1-0.5-0.1c-0.1,0-0.2,0-0.3,0.1c-0.1,0.1-0.3,0.2-0.7,0.3
		c-0.2,0.1-0.5,0.3-0.8,0.5c-0.3,0.2-0.5,0.3-0.7,0.3l-0.1-0.1c0-0.1,0-0.2,0.1-0.3c0.9-0.7,1.8-1.3,2.7-1.8c0.9-0.5,1.9-0.9,3-1
		l0.6,0.2l0.5-0.1c0.2-0.3,0.5-0.6,0.8-0.7c0.4-0.2,0.7-0.3,1-0.3c0.3,0,0.5,0.1,0.7,0.2c0.5,0.5,0.8,1,0.8,1.5
		c0,0.4-0.2,0.9-0.5,1.6L125.6,31.6z M119.7,33.6c0.6,0.1,1,0.2,1.3,0.2c0.4,0,0.8-0.1,1-0.3c0.3-0.2,0.7-0.6,1.2-1.2l0.1-0.6
		c-0.3-0.3-0.5-0.5-0.6-0.6c-0.1-0.1-0.2-0.2-0.2-0.3c0-0.1-0.1-0.2-0.1-0.3c0-0.2-0.1-0.4-0.2-0.7l-0.3-0.1c-0.1,0-0.1,0-0.1,0.1
		c0,0.1-0.1,0.2-0.3,0.4c-0.3,0.3-0.5,0.5-0.7,0.7c-0.2,0.2-0.4,0.4-0.5,0.6c-0.1,0.2-0.3,0.5-0.4,0.7c-0.1,0.3-0.2,0.6-0.3,1
		L119.7,33.6z"/>
	<path fill="#86754D" d="M134.6,27.5c0.3,0,0.5,0.1,0.5,0.3l-0.2,0.3c-0.5,0.2-0.9,0.3-1.1,0.4c-0.2,0.1-0.6,0.3-1,0.7l-0.2,0.3
		c0.2,0.4,0.4,0.7,0.6,1c0.2,0.3,0.3,0.6,0.3,1.1c0,0.2,0,0.3-0.1,0.6l0.2,0.2c0.4-0.2,0.6-0.3,0.8-0.3c0.1,0,0.2-0.1,0.3-0.1
		c0.1,0,0.2-0.1,0.3-0.2c0.1-0.1,0.3-0.2,0.6-0.5c0.3-0.1,0.5-0.2,0.6-0.2c0.2,0,0.2,0.1,0.2,0.2c0,0-0.1,0.1-0.3,0.3
		c-0.5,0.3-0.8,0.5-1,0.6c-0.2,0.1-0.3,0.2-0.4,0.2c-0.1,0.1-0.3,0.2-0.4,0.3c-0.2,0.1-0.4,0.4-0.9,0.7l-0.6,0.9l-0.3,0.5l-0.5,0.5
		l-0.6,0.8c-0.4,0.3-0.7,0.6-1,0.7c-0.2,0.2-0.4,0.3-0.6,0.4c-0.2,0.1-0.5,0.2-0.8,0.2c-0.3,0-0.8,0.1-1.3,0.1
		c-0.2-0.1-0.4-0.1-0.6-0.2c-0.1-0.1-0.2-0.2-0.2-0.5c0-0.3,0.2-0.6,0.5-0.9c0.3-0.3,0.6-0.5,0.8-0.7l2.7-1.5
		c0.1-0.3,0.2-0.6,0.2-0.7c0-0.1,0-0.2,0-0.4c0-0.1-0.1-0.3-0.1-0.6c-0.1-0.3-0.2-0.5-0.3-0.6c-0.1-0.1-0.1-0.2-0.1-0.3
		c0-0.1,0-0.2-0.1-0.3c0-0.1,0-0.2-0.1-0.4c-0.7,0.2-1.3,0.4-1.8,0.6c-0.6,0.2-1.2,0.5-1.9,0.9c-0.1,0-0.1,0-0.1,0c0,0,0,0-0.1,0
		c-0.1,0-0.1,0-0.1-0.1c0-0.1,0.2-0.3,0.7-0.7c0.5-0.3,0.8-0.6,1.2-0.8c0.5-0.2,0.8-0.4,0.9-0.5c0.2-0.1,0.3-0.2,0.4-0.2
		c0.1-0.1,0.2-0.1,0.4-0.2c0.2-0.1,0.5-0.2,0.9-0.3c0.4-0.6,0.9-1,1.4-1.2c0.5-0.2,1.1-0.4,1.8-0.7H134.6z M131,34.8
		c-0.2,0-0.3,0-0.5,0.1c-0.2,0-0.3,0.1-0.3,0.1c-0.2,0.1-0.4,0.1-0.4,0.2c0,0.1-0.1,0.2-0.3,0.4c-0.2,0.1-0.3,0.2-0.4,0.3
		c-0.1,0.1-0.2,0.2-0.2,0.4c0,0.3,0.2,0.5,0.5,0.5c0.3,0,0.6-0.1,0.9-0.3c0.3-0.2,0.6-0.4,0.6-0.5c0.2-0.3,0.3-0.5,0.3-0.6
		c0.1-0.1,0.1-0.1,0.1-0.2C131.4,34.9,131.3,34.8,131,34.8z"/>
</g>
</svg>
