<!-- Generator: Adobe Illustrator 19.1.0, SVG Export Plug-In  -->
<svg version="1.1"
	 xmlns="http://www.w3.org/2000/svg" xmlns:xlink="http://www.w3.org/1999/xlink" xmlns:a="http://ns.adobe.com/AdobeSVGViewerExtensions/3.0/"
	 x="0px" y="0px" width="19.8px" height="41.8px" viewBox="0 0 19.8 41.8" enable-background="new 0 0 19.8 41.8"
	 xml:space="preserve">
<defs>
</defs>
<g>
	<g>
		<g>
			<path fill="#f8f3eb" d="M4.6,35.7l-0.5-0.5H0.5L0,34.7v-3.9c0.3-0.6,1.1-0.6,1.4,0v2.4l0.5,0.5h6.8l0.5-0.5v-2.4
				c0.3-0.6,1.1-0.6,1.4,0v3.9l-0.5,0.5H6.5L6,35.7v5.7c-0.3,0.6-1.1,0.6-1.4,0V35.7z"/>
			<polygon fill="#f8f3eb" points="6.3,30.6 6.3,32.2 6.2,32.4 4.5,32.4 4.3,32.2 4.3,30.6 4.5,30.4 6.1,30.4 			"/>
			<path fill="#f8f3eb" d="M4.6,20.3l-0.5-0.5H0.5L0,19.3v-3.9c0.3-0.6,1.1-0.6,1.4,0v2.4l0.5,0.5h6.8l0.5-0.5v-2.4
				c0.3-0.6,1.1-0.6,1.4,0v3.9l-0.5,0.5H6.5L6,20.3V26c-0.3,0.6-1.1,0.6-1.4,0V20.3z"/>
			<polygon fill="#f8f3eb" points="6.3,15.2 6.3,16.8 6.2,17 4.5,17 4.3,16.8 4.3,15.2 4.5,15 6.1,15 			"/>
			<path fill="#f8f3eb" d="M15.2,11.4l0.5,0.5h3.6l0.5,0.5v3.9c-0.3,0.6-1.1,0.6-1.4,0v-2.4l-0.5-0.5h-6.8l-0.5,0.5v2.4
				c-0.3,0.6-1.1,0.6-1.4,0v-3.9l0.5-0.5h3.6l0.5-0.5V5.7c0.3-0.6,1.1-0.6,1.4,0C15.2,5.7,15.2,11.4,15.2,11.4z"/>
			<polygon fill="#f8f3eb" points="13.5,16.5 13.5,14.9 13.6,14.7 15.3,14.7 15.5,14.9 15.5,16.5 15.3,16.7 13.7,16.7 			"/>
			<path fill="#f8f3eb" d="M15.2,26.8l0.5,0.5h3.6l0.5,0.5v3.9c-0.3,0.6-1.1,0.6-1.4,0v-2.4l-0.5-0.5h-6.8l-0.5,0.5v2.4
				c-0.3,0.6-1.1,0.6-1.4,0v-3.9l0.5-0.5h3.6l0.5-0.5v-5.7c0.3-0.6,1.1-0.6,1.4,0C15.2,21.1,15.2,26.8,15.2,26.8z"/>
			<polygon fill="#f8f3eb" points="13.5,31.9 13.5,30.3 13.6,30.1 15.3,30.1 15.5,30.3 15.5,31.9 15.3,32.1 13.7,32.1 			"/>
			<path fill="#f8f3eb" d="M4.6,5.3L4.1,4.8H0.5L0,4.3V0.5c0.3-0.6,1.1-0.6,1.4,0v2.4l0.5,0.5h6.8l0.5-0.5V0.5
				c0.3-0.6,1.1-0.6,1.4,0v3.9l-0.5,0.5H6.5L6,5.3V11c-0.3,0.6-1.1,0.6-1.4,0V5.3z"/>
			<polygon fill="#f8f3eb" points="6.3,0.2 6.3,1.8 6.2,2 4.5,2 4.3,1.8 4.3,0.2 4.5,0 6.1,0 			"/>
		</g>
	</g>
</g>
</svg>
