<!-- Generator: Adobe Illustrator 19.1.0, SVG Export Plug-In  -->
<svg version="1.1"
	 xmlns="http://www.w3.org/2000/svg" xmlns:xlink="http://www.w3.org/1999/xlink" xmlns:a="http://ns.adobe.com/AdobeSVGViewerExtensions/3.0/"
	 x="0px" y="0px" width="57.7px" height="11.5px" viewBox="0 0 57.7 11.5" enable-background="new 0 0 57.7 11.5"
	 xml:space="preserve">
<defs>
</defs>
<g>
	<path fill="#CAC8C8" d="M4.6,5.3L4.1,4.8H0.5L0,4.3V0.5c0.3-0.6,1.1-0.6,1.4,0l0,2.4l0.5,0.5h6.8l0.5-0.5l0-2.4
		c0.3-0.6,1.1-0.6,1.4,0l0,3.9l-0.5,0.5H6.5L6,5.3L6,11c-0.3,0.6-1.1,0.6-1.4,0V5.3z"/>
	<polygon fill="#CAC8C8" points="6.3,0.2 6.3,1.8 6.2,2 4.5,2 4.3,1.8 4.3,0.2 4.5,0 6.1,0 	"/>
	<path fill="#CAC8C8" d="M20.3,5.3l-0.5-0.5h-3.6l-0.5-0.5V0.5c0.3-0.6,1.1-0.6,1.4,0l0,2.4l0.5,0.5h6.8l0.5-0.5l0-2.4
		c0.3-0.6,1.1-0.6,1.4,0l0,3.9l-0.5,0.5h-3.6l-0.5,0.5l0,5.7c-0.3,0.6-1.1,0.6-1.4,0V5.3z"/>
	<polygon fill="#CAC8C8" points="22.1,0.2 22,1.8 21.9,2 20.2,2 20,1.8 20,0.2 20.2,0 21.8,0 	"/>
	<path fill="#CAC8C8" d="M36,5.3l-0.5-0.5h-3.6l-0.5-0.5V0.5c0.3-0.6,1.1-0.6,1.4,0l0,2.4l0.5,0.5h6.8l0.5-0.5l0-2.4
		c0.3-0.6,1.1-0.6,1.4,0l0,3.9l-0.5,0.5h-3.6l-0.5,0.5l0,5.7c-0.3,0.6-1.1,0.6-1.4,0V5.3z"/>
	<polygon fill="#CAC8C8" points="37.8,0.2 37.8,1.8 37.6,2 35.9,2 35.7,1.8 35.7,0.2 35.9,0 37.6,0 	"/>
	<path fill="#CAC8C8" d="M51.7,5.3l-0.5-0.5h-3.6l-0.5-0.5V0.5c0.3-0.6,1.1-0.6,1.4,0l0,2.4L49,3.4h6.8l0.5-0.5l0-2.4
		c0.3-0.6,1.1-0.6,1.4,0l0,3.9l-0.5,0.5h-3.6l-0.5,0.5l0,5.7c-0.3,0.6-1.1,0.6-1.4,0V5.3z"/>
	<polygon fill="#CAC8C8" points="53.5,0.2 53.5,1.8 53.3,2 51.6,2 51.4,1.8 51.4,0.2 51.6,0 53.3,0 	"/>
</g>
</svg>
