<!-- Generator: Adobe Illustrator 19.1.0, SVG Export Plug-In  -->
<svg version="1.1"
	 xmlns="http://www.w3.org/2000/svg" xmlns:xlink="http://www.w3.org/1999/xlink" xmlns:a="http://ns.adobe.com/AdobeSVGViewerExtensions/3.0/"
	 x="0px" y="0px" width="104.9px" height="11.5px" viewBox="0 0 104.9 11.5" enable-background="new 0 0 104.9 11.5"
	 xml:space="preserve">
<defs>
</defs>
<g opacity="0.5">
	<path fill="#FFFFFF" d="M4.6,5.3L4.1,4.8H0.5L0,4.3V0.5c0.3-0.6,1.1-0.6,1.4,0l0,2.4l0.5,0.5h6.8l0.5-0.5l0-2.4
		c0.3-0.6,1.1-0.6,1.4,0l0,3.9l-0.5,0.5H6.5L6,5.3L6,11c-0.3,0.6-1.1,0.6-1.4,0V5.3z"/>
	<polygon fill="#FFFFFF" points="6.3,0.2 6.3,1.8 6.2,2 4.5,2 4.3,1.8 4.3,0.2 4.5,0 6.1,0 	"/>
	<path fill="#FFFFFF" d="M20.3,5.3l-0.5-0.5h-3.6l-0.5-0.5V0.5c0.3-0.6,1.1-0.6,1.4,0l0,2.4l0.5,0.5h6.8l0.5-0.5l0-2.4
		c0.3-0.6,1.1-0.6,1.4,0l0,3.9l-0.5,0.5h-3.6l-0.5,0.5l0,5.7c-0.3,0.6-1.1,0.6-1.4,0V5.3z"/>
	<polygon fill="#FFFFFF" points="22.1,0.2 22,1.8 21.9,2 20.2,2 20,1.8 20,0.2 20.2,0 21.8,0 	"/>
	<path fill="#FFFFFF" d="M36,5.3l-0.5-0.5h-3.6l-0.5-0.5V0.5c0.3-0.6,1.1-0.6,1.4,0l0,2.4l0.5,0.5h6.8l0.5-0.5l0-2.4
		c0.3-0.6,1.1-0.6,1.4,0l0,3.9l-0.5,0.5h-3.6l-0.5,0.5l0,5.7c-0.3,0.6-1.1,0.6-1.4,0V5.3z"/>
	<polygon fill="#FFFFFF" points="37.8,0.2 37.8,1.8 37.6,2 35.9,2 35.7,1.8 35.7,0.2 35.9,0 37.6,0 	"/>
	<path fill="#FFFFFF" d="M51.7,5.3l-0.5-0.5h-3.6l-0.5-0.5V0.5c0.3-0.6,1.1-0.6,1.4,0l0,2.4L49,3.4h6.8l0.5-0.5l0-2.4
		c0.3-0.6,1.1-0.6,1.4,0l0,3.9l-0.5,0.5h-3.6l-0.5,0.5l0,5.7c-0.3,0.6-1.1,0.6-1.4,0V5.3z"/>
	<polygon fill="#FFFFFF" points="53.5,0.2 53.5,1.8 53.3,2 51.6,2 51.4,1.8 51.4,0.2 51.6,0 53.3,0 	"/>
	<path fill="#FFFFFF" d="M67.4,5.3l-0.5-0.5h-3.6l-0.5-0.5V0.5c0.3-0.6,1.1-0.6,1.4,0l0,2.4l0.5,0.5h6.8L72,2.9l0-2.4
		c0.3-0.6,1.1-0.6,1.4,0l0,3.9L73,4.8h-3.6l-0.5,0.5l0,5.7c-0.3,0.6-1.1,0.6-1.4,0V5.3z"/>
	<polygon fill="#FFFFFF" points="69.2,0.2 69.2,1.8 69,2 67.3,2 67.1,1.8 67.1,0.2 67.3,0 69,0 	"/>
	<path fill="#FFFFFF" d="M83.1,5.3l-0.5-0.5H79l-0.5-0.5V0.5c0.3-0.6,1.1-0.6,1.4,0l0,2.4l0.5,0.5h6.8l0.5-0.5l0-2.4
		c0.3-0.6,1.1-0.6,1.4,0l0,3.9l-0.5,0.5H85l-0.5,0.5l0,5.7c-0.3,0.6-1.1,0.6-1.4,0V5.3z"/>
	<polygon fill="#FFFFFF" points="84.9,0.2 84.9,1.8 84.7,2 83,2 82.8,1.8 82.8,0.2 83,0 84.7,0 	"/>
	<path fill="#FFFFFF" d="M98.8,5.3l-0.5-0.5h-3.6l-0.5-0.5V0.5c0.3-0.6,1.1-0.6,1.4,0l0,2.4l0.5,0.5h6.8l0.5-0.5l0-2.4
		c0.3-0.6,1.1-0.6,1.4,0l0,3.9l-0.5,0.5h-3.6l-0.5,0.5l0,5.7c-0.3,0.6-1.1,0.6-1.4,0V5.3z"/>
	<polygon fill="#FFFFFF" points="100.6,0.2 100.6,1.8 100.4,2 98.7,2 98.5,1.8 98.5,0.2 98.7,0 100.4,0 	"/>
</g>
</svg>
