<!-- Generator: Adobe Illustrator 19.1.0, SVG Export Plug-In  -->
<svg version="1.1"
	 xmlns="http://www.w3.org/2000/svg" xmlns:xlink="http://www.w3.org/1999/xlink" xmlns:a="http://ns.adobe.com/AdobeSVGViewerExtensions/3.0/"
	 x="0px" y="0px" width="23px" height="21.6px" viewBox="0 0 23 21.6" enable-background="new 0 0 23 21.6" xml:space="preserve">
<defs>
</defs>
<g>
	<path fill="none" d="M20.6,17.6h-0.7c0,0,0,0,0,0H18c-0.3,0-0.5-0.2-0.5-0.5s0.2-0.5,0.5-0.5h1.7C19,12.6,16,9.8,12,9.5V9.2
		c1-0.2,0.8-0.7,0.8-1.2c0-0.8-0.5-1.4-1.2-1.4c0,0,0,0,0,0c-0.8,0-1.3,0.6-1.3,1.4c0,0.5-0.3,0.9,0.7,1.2v0.3
		c-4,0.3-6.9,3.1-7.5,7.1H15c0.3,0,0.5,0.2,0.5,0.5s-0.2,0.5-0.5,0.5H3.3c0,0,0,0,0,0H2.6C2,17.6,2,17.9,2,18.5v0.4
		c0,0.6,0,0.7,0.6,0.7h17.9c0.6,0,1.4,0,1.4-0.7v-0.4C22,17.9,21.2,17.6,20.6,17.6z"/>
	<path fill="#AEA299" d="M17.6,2.8c0,0.3,0.1,0.6,0.2,0.9C18,4,18.1,4.2,18.2,4.5c0.1,0.2,0.2,0.5,0.3,0.7c0,0.1,0.1,0.2,0.1,0.3
		l0,0.1l0,0.2c0,0.2,0,0.4,0,0.6c0,0.2-0.1,0.4-0.1,0.5c-0.1,0.3-0.3,0.6-0.4,0.7C18,7.8,18,7.9,18,7.9c-0.1,0.1-0.1,0.2-0.1,0.3
		c0.1,0.1,0.2,0.2,0.4,0.1l0,0c0,0,0.1-0.1,0.3-0.2c0.2-0.2,0.5-0.5,0.7-0.9c0.1-0.2,0.2-0.4,0.2-0.7c0.1-0.3,0.1-0.5,0-0.8l0-0.2
		l-0.1-0.2c0-0.1-0.1-0.3-0.1-0.4c-0.1-0.3-0.2-0.5-0.3-0.8c-0.1-0.2-0.2-0.5-0.3-0.7c-0.1-0.2-0.2-0.4-0.2-0.6l0-0.2l0-0.1
		c0-0.1,0-0.2,0-0.3c0-0.2,0.1-0.4,0.2-0.5C18.8,1.4,19,1.2,19.1,1c0.1-0.1,0.3-0.2,0.3-0.2c0.1,0,0.2-0.2,0.1-0.3
		c0-0.1-0.2-0.2-0.3-0.2l-0.1,0c0,0-0.1,0-0.4,0.2c-0.2,0.1-0.6,0.4-0.8,0.8c-0.1,0.2-0.2,0.4-0.3,0.7c0,0.1-0.1,0.3-0.1,0.4
		c0,0.1,0,0.1,0,0.2L17.6,2.8z"/>
	<path fill="#AEA299" d="M20.3,3.1c0.1,0.2,0.2,0.5,0.3,0.7C20.8,4,20.9,4.2,21,4.4c0,0.1,0.1,0.2,0.1,0.3l0,0.1l0,0.2
		c0,0.2,0,0.4,0,0.5c0,0.2-0.1,0.3-0.1,0.5c-0.1,0.3-0.3,0.5-0.4,0.7c-0.1,0.1-0.2,0.2-0.2,0.2c-0.1,0.1-0.1,0.2-0.1,0.3
		c0.1,0.1,0.2,0.2,0.3,0.1l0,0c0,0,0.1-0.1,0.3-0.2c0.2-0.2,0.4-0.4,0.6-0.8c0.2-0.4,0.3-0.9,0.3-1.4l0-0.2l0-0.2
		c0-0.1-0.1-0.3-0.1-0.4c-0.1-0.2-0.2-0.5-0.3-0.7C21.2,3.2,21.1,3,21,2.8c-0.1-0.2-0.2-0.4-0.2-0.6l0-0.2l0-0.1c0-0.1,0-0.2,0-0.3
		c0-0.2,0.1-0.3,0.2-0.5c0.1-0.3,0.3-0.5,0.5-0.6c0.1-0.1,0.3-0.2,0.3-0.2c0.1,0,0.2-0.1,0.1-0.3c0-0.1-0.1-0.2-0.3-0.2l-0.1,0
		c0,0-0.1,0-0.4,0.1c-0.2,0.1-0.5,0.3-0.8,0.7c-0.1,0.2-0.2,0.4-0.3,0.6c0,0.1-0.1,0.3-0.1,0.4c0,0.1,0,0.1,0,0.2l0,0.2
		C20.1,2.6,20.2,2.8,20.3,3.1z"/>
	<path fill="#AEA299" d="M2.6,3.8c0,0.3,0.1,0.6,0.2,0.9C3,5,3.1,5.2,3.2,5.5c0.1,0.2,0.2,0.5,0.3,0.7c0,0.1,0.1,0.2,0.1,0.3l0,0.1
		l0,0.2c0,0.2,0,0.4,0,0.6c0,0.2-0.1,0.4-0.1,0.5C3.5,8.2,3.3,8.5,3.2,8.7C3,8.8,3,8.9,3,8.9C2.9,9,2.8,9.1,2.9,9.2
		C3,9.3,3.1,9.4,3.3,9.3l0,0c0,0,0.1-0.1,0.3-0.2c0.2-0.2,0.5-0.5,0.7-0.9C4.4,8,4.4,7.8,4.5,7.5c0.1-0.3,0.1-0.5,0-0.8l0-0.2
		L4.4,6.2c0-0.1-0.1-0.3-0.1-0.4C4.2,5.5,4.1,5.3,4,5.1C3.8,4.8,3.7,4.6,3.6,4.4C3.5,4.2,3.5,3.9,3.4,3.8l0-0.2l0-0.1
		c0-0.1,0-0.2,0-0.3c0-0.2,0.1-0.4,0.2-0.5C3.8,2.4,4,2.2,4.1,2c0.1-0.1,0.3-0.2,0.3-0.2c0.1,0,0.2-0.2,0.1-0.3
		c0-0.1-0.2-0.2-0.3-0.2l-0.1,0c0,0-0.1,0-0.4,0.2C3.6,1.7,3.2,1.9,3,2.3C2.9,2.5,2.8,2.7,2.7,3c0,0.1-0.1,0.3-0.1,0.4
		c0,0.1,0,0.1,0,0.2L2.6,3.8z"/>
	<path fill="#AEA299" d="M5.3,4.1c0.1,0.2,0.2,0.5,0.3,0.7C5.8,5,5.9,5.2,6,5.4C6,5.5,6,5.6,6.1,5.7l0,0.1l0,0.2c0,0.2,0,0.4,0,0.5
		C6.1,6.7,6.1,6.9,6,7C5.9,7.3,5.8,7.6,5.6,7.7C5.5,7.9,5.4,7.9,5.4,7.9C5.3,8,5.3,8.1,5.4,8.2c0.1,0.1,0.2,0.2,0.3,0.1l0,0
		c0,0,0.1-0.1,0.3-0.2c0.2-0.2,0.4-0.4,0.6-0.8c0.2-0.4,0.3-0.9,0.3-1.4l0-0.2l0-0.2c0-0.1-0.1-0.3-0.1-0.4C6.6,4.8,6.5,4.6,6.4,4.4
		C6.2,4.2,6.1,4,6,3.8C5.9,3.6,5.9,3.3,5.9,3.2l0-0.2l0-0.1c0-0.1,0-0.2,0-0.3c0-0.2,0.1-0.3,0.2-0.5c0.1-0.3,0.3-0.5,0.5-0.6
		c0.1-0.1,0.3-0.2,0.3-0.2c0.1,0,0.2-0.1,0.1-0.3C6.9,1.1,6.7,1,6.6,1L6.6,1c0,0-0.1,0-0.4,0.1C6,1.3,5.7,1.5,5.5,1.8
		C5.3,2,5.2,2.2,5.2,2.5c0,0.1-0.1,0.3-0.1,0.4c0,0.1,0,0.1,0,0.2l0,0.2C5.1,3.6,5.2,3.8,5.3,4.1z"/>
	<path fill="#AEA299" d="M21.2,15.8c-0.7-3.5-3.2-6.4-6.6-7.6c0-0.1,0.1-0.3,0.1-0.4c0-1.7-1.3-3.3-3.1-3.3h0
		c-1.7,0-3.1,1.5-3.1,3.3c0,0.1,0,0.3,0,0.4c-3.4,1.1-5.9,4-6.6,7.6C0.7,16.1,0,17.3,0,18.5v0.4c0,1.6,1.1,2.7,2.6,2.7h17.9
		c1.6,0,2.4-1.1,2.4-2.7v-0.4C23,17.3,22.3,16.2,21.2,15.8z M22,18.9c0,0.6-0.8,0.7-1.4,0.7H2.6c-0.6,0-0.6,0-0.6-0.7v-0.4
		c0-0.6,0-0.9,0.6-0.9h0.7c0,0,0,0,0,0H15c0.3,0,0.5-0.2,0.5-0.5s-0.2-0.5-0.5-0.5H3.5c0.7-4,3.5-6.7,7.5-7.1V9.2
		c-1-0.2-0.7-0.7-0.7-1.2c0-0.8,0.6-1.4,1.3-1.4c0,0,0,0,0,0c0.8,0,1.2,0.6,1.2,1.4c0,0.5,0.2,0.9-0.8,1.2v0.3c4,0.3,7,3.1,7.7,7.1
		H18c-0.3,0-0.5,0.2-0.5,0.5s0.2,0.5,0.5,0.5h1.8c0,0,0,0,0,0h0.7c0.6,0,1.4,0.3,1.4,0.9V18.9z"/>
</g>
</svg>
