<!-- Generator: Adobe Illustrator 19.1.0, SVG Export Plug-In  -->
<svg version="1.1"
	 xmlns="http://www.w3.org/2000/svg" xmlns:xlink="http://www.w3.org/1999/xlink" xmlns:a="http://ns.adobe.com/AdobeSVGViewerExtensions/3.0/"
	 x="0px" y="0px" width="24px" height="21.3px" viewBox="0 0 24 21.3" enable-background="new 0 0 24 21.3" xml:space="preserve">
<defs>
</defs>
<g>
	<path d="M10,1.6L5.4,5.1H1.2C0.6,5.1,0,5.6,0,6.3V15c0,0.7,0.6,1.2,1.2,1.2h4.2l4.6,3.4c0.8,0.6,2,0,2-1v-16
		C12,1.6,10.8,1,10,1.6z"/>
	<path d="M16.1,3.7c-0.6-0.6-1.5-0.6-2.1,0c-0.6,0.6-0.6,1.5,0,2.1c2.7,2.7,2.7,7.1,0,9.8c-0.6,0.6-0.6,1.5,0,2.1
		c0.3,0.3,0.7,0.4,1,0.4c0.4,0,0.7-0.1,1-0.4C19.9,13.8,19.9,7.5,16.1,3.7z"/>
	<path d="M17.7,0.4c-0.6,0.6-0.6,1.5,0,2.1c2.2,2.2,3.4,5.1,3.4,8.2s-1.2,6-3.4,8.2c-0.6,0.6-0.6,1.5,0,2.1
		c0.3,0.3,0.7,0.4,1,0.4c0.4,0,0.7-0.1,1-0.4c2.7-2.7,4.2-6.4,4.2-10.2s-1.5-7.5-4.2-10.2C19.2-0.1,18.3-0.1,17.7,0.4z"/>
</g>
</svg>