<!-- Generator: Adobe Illustrator 19.1.0, SVG Export Plug-In  -->
<svg version="1.1"
	 xmlns="http://www.w3.org/2000/svg" xmlns:xlink="http://www.w3.org/1999/xlink" xmlns:a="http://ns.adobe.com/AdobeSVGViewerExtensions/3.0/"
	 x="0px" y="0px" width="22.1px" height="29px" viewBox="0 0 22.1 29" enable-background="new 0 0 22.1 29" xml:space="preserve">
<defs>
</defs>
<g>
	<path fill="none" d="M11.4,27.2c0.1-0.1,0.1-0.2,0.2-0.3c0.3-0.4,0.6-1,0.9-1.5c0.3-0.6,0.6-1.2,0.8-1.8c0.1-0.3,0.2-0.6,0.3-0.9
		c0.1-0.3,0.2-0.6,0.2-0.9c0-0.3,0-0.6,0-0.9c0-0.3-0.1-0.5-0.1-0.7c0-0.1-0.1-0.2-0.1-0.2c-0.8-0.1-1.7-0.2-2.6-0.2
		c-4.9,0-9,2.2-9.3,4.9c2.4,1.7,5.7,2.7,9.2,2.7C11,27.3,11.2,27.2,11.4,27.2z"/>
	<path fill="none" d="M8.1,12.8c0.3,0.3,0.7,0.4,1,0.2C9.4,13,9.6,13,9.7,13c0.3,0.1,0.5,0.1,0.7,0.1c1.4,0,2.5-1.1,2.5-2.5
		c0-0.8-0.4-1.5-1-2c-0.3-0.2-0.4-0.6-0.3-0.9c0-0.1,0.1-0.2,0.1-0.3c0-0.1,0-0.1,0-0.2c0-0.1,0-0.3,0-0.5c0-0.1,0-0.2,0-0.2
		c0-0.4-0.3-0.8-0.7-0.9c-0.3-0.1-0.5-0.3-0.6-0.6c-0.1-0.3,0-0.6,0.1-0.8c0.1-0.1,0.2-0.3,0.2-0.6c0-0.6-0.6-1-1.1-0.9
		C9.2,2.7,8.9,2.6,8.7,2.2C8.5,1.9,8.2,1.7,7.9,1.7c-0.5,0-0.9,0.4-0.9,0.9l0,0.1C7,3,6.9,3.2,6.7,3.4C6.5,3.6,6.3,3.6,6,3.6
		c0,0-0.1,0-0.1,0C5.5,3.6,5,4,5,4.6C5,4.8,5.2,5,5.3,5.1c0.2,0.2,0.2,0.5,0.1,0.8C5.3,6.2,5.1,6.4,4.8,6.5C4.4,6.6,4.1,7,4.1,7.4
		c0,0.1,0,0.3,0.1,0.4c0.1,0.3,0.1,0.7-0.2,1c-0.5,0.5-0.8,1.1-0.8,1.8c0,1.4,1.1,2.5,2.5,2.5c0,0,0.1,0,0.1,0c0,0,0,0,0,0
		c0,0,0.1,0,0.1,0c0,0,0.1,0,0.1,0c0.1,0,0.3,0,0.4-0.1c0,0,0.1,0,0.1-0.1c0.2-0.1,0.4-0.2,0.5-0.3C7.4,12.4,7.9,12.5,8.1,12.8z"/>
	<path fill="none" d="M15.9,20.4c0.1,0.3,0.3,0.6,0.4,0.9c0.1,0.4,0.2,0.8,0.3,1.3c0.1,0.4,0.1,0.9,0.1,1.3c0,0.4,0,0.9,0,1.3
		c0,0.4-0.1,0.7-0.1,1.1c1.4-0.5,2.7-1.1,3.8-2C20,22.7,18.3,21.3,15.9,20.4z"/>
	<path fill="#AEA299" d="M11.1,17.9c-0.7,0-1.3,0-1.9,0.1l0-3.2c0.1,0,0.3,0,0.4-0.1c0.3,0.1,0.6,0.1,0.9,0.1c2.3,0,4.2-1.9,4.2-4.2
		c0-1.1-0.4-2.2-1.2-3c0-0.1,0-0.2,0-0.2c0-0.2,0-0.3,0-0.5c0-0.2,0-0.3,0-0.5c0-0.9-0.4-1.6-1.1-2.1c0.1-0.2,0.1-0.5,0.1-0.7
		c0-1.4-1.1-2.6-2.5-2.6c-0.5-0.6-1.2-1-2-1C6.6,0,5.6,0.8,5.3,2c-1.1,0.3-2,1.3-2,2.6c0,0.3,0,0.5,0.1,0.7C2.8,5.8,2.4,6.6,2.4,7.4
		c0,0.2,0,0.3,0,0.5c-0.6,0.8-1,1.7-1,2.7c0,2.3,1.9,4.2,4.2,4.2c0,0,0.1,0,0.1,0c0.5,0.1,1-0.1,1.4-0.3c0,0,0.1,0,0.1-0.1l-0.2,3.9
		C2.9,19.4,0,21.9,0,25c0,0.3,0.1,0.5,0.3,0.7C3,27.8,6.9,29,10.9,29c4.2,0,8.2-1.3,10.9-3.6c0.2-0.2,0.3-0.4,0.3-0.7
		C21.9,20.9,17,17.9,11.1,17.9z M7,12.7c-0.1,0.1-0.3,0.2-0.5,0.3c0,0-0.1,0-0.1,0.1c-0.1,0.1-0.3,0.1-0.4,0.1c0,0-0.1,0-0.1,0
		c0,0-0.1,0-0.1,0c0,0,0,0,0,0c-0.1,0-0.1,0-0.1,0c-1.4,0-2.5-1.1-2.5-2.5c0-0.7,0.3-1.4,0.8-1.8c0.3-0.2,0.4-0.6,0.2-1
		C4.1,7.7,4.1,7.5,4.1,7.4c0-0.4,0.3-0.8,0.7-0.9c0.3-0.1,0.5-0.3,0.6-0.6c0.1-0.3,0-0.6-0.1-0.8C5.2,5,5,4.8,5,4.6
		C5,4,5.5,3.6,5.9,3.6c0,0,0.1,0,0.1,0c0.2,0,0.5-0.1,0.7-0.2C6.9,3.2,7,3,7,2.7l0-0.1c0-0.5,0.4-0.9,0.9-0.9c0.3,0,0.7,0.2,0.8,0.5
		c0.2,0.3,0.5,0.5,0.9,0.5c0.5-0.1,1.1,0.3,1.1,0.9c0,0.3-0.1,0.5-0.2,0.6c-0.2,0.2-0.2,0.5-0.1,0.8c0.1,0.3,0.3,0.5,0.6,0.6
		c0.4,0.1,0.7,0.5,0.7,0.9c0,0.1,0,0.1,0,0.2c0,0.1,0,0.3,0,0.5c0,0.1,0,0.2,0,0.2c0,0.1,0,0.2-0.1,0.3c-0.1,0.3,0,0.7,0.3,0.9
		c0.6,0.5,1,1.2,1,2c0,1.4-1.1,2.5-2.5,2.5c-0.2,0-0.4,0-0.7-0.1c-0.2,0-0.4,0-0.6,0c-0.4,0.1-0.8,0.1-1-0.2
		C7.9,12.5,7.4,12.4,7,12.7z M11.1,19.6c0.9,0,1.8,0.1,2.6,0.2c0,0.1,0.1,0.1,0.1,0.2c0.1,0.2,0.1,0.5,0.1,0.7c0,0.3,0,0.6,0,0.9
		c0,0.3-0.1,0.6-0.2,0.9c-0.1,0.3-0.2,0.6-0.3,0.9c-0.2,0.6-0.5,1.2-0.8,1.8c-0.3,0.6-0.7,1.1-0.9,1.5c-0.1,0.1-0.2,0.2-0.2,0.3
		c-0.2,0-0.3,0-0.5,0c-3.5,0-6.8-1-9.2-2.7C2.1,21.9,6.2,19.6,11.1,19.6z M16.5,26.3c0-0.3,0.1-0.7,0.1-1.1c0-0.4,0-0.9,0-1.3
		c0-0.5,0-0.9-0.1-1.3c-0.1-0.4-0.1-0.9-0.3-1.3c-0.1-0.3-0.2-0.6-0.4-0.9c2.4,0.8,4.1,2.3,4.5,3.9C19.3,25.2,18,25.9,16.5,26.3z"/>
</g>
</svg>
