<!-- Generator: Adobe Illustrator 19.1.0, SVG Export Plug-In  -->
<svg version="1.1"
	 xmlns="http://www.w3.org/2000/svg" xmlns:xlink="http://www.w3.org/1999/xlink" xmlns:a="http://ns.adobe.com/AdobeSVGViewerExtensions/3.0/"
	 x="0px" y="0px" width="10.1px" height="27.8px" viewBox="0 0 10.1 27.8" enable-background="new 0 0 10.1 27.8"
	 xml:space="preserve">
<defs>
</defs>
<g>
	<g>
		<path fill="#AEA299" d="M8,27.8H2.1c-1.2,0-2.1-0.9-2.1-2.1V12.3c0,0,0-0.1,0-0.1c0.1-1.8,1.1-3.5,2.7-4.3V1.2
			C2.7,0.5,3.3,0,3.9,0h2.3c0.6,0,1.2,0.5,1.2,1.2v6.7c1.6,0.8,2.7,2.5,2.7,4.3l0,13.5C10.1,26.8,9.2,27.8,8,27.8z M4.5,1.7v6.7
			c0,0.4-0.2,0.7-0.6,0.8c-1.3,0.5-2.1,1.7-2.2,3l0,13.4c0,0.2,0.2,0.4,0.4,0.4H8c0.2,0,0.4-0.2,0.4-0.4V12.3c0-1.4-0.9-2.6-2.2-3.1
			C5.9,9.1,5.6,8.8,5.6,8.4V1.7H4.5z"/>
	</g>
	<g>
		<rect x="1.2" y="11.6" fill="#AEA299" width="8" height="1"/>
	</g>
	<g>
		<rect x="1.2" y="20.6" fill="#AEA299" width="8" height="1"/>
	</g>
	<g>
		<path fill="#AEA299" d="M3.7,20.1c-0.3,0-0.5-0.2-0.5-0.5v-6c0-0.3,0.2-0.5,0.5-0.5s0.5,0.2,0.5,0.5v6C4.2,19.9,3.9,20.1,3.7,20.1
			z"/>
	</g>
</g>
</svg>
