<!-- Generator: Adobe Illustrator 19.1.0, SVG Export Plug-In  -->
<svg version="1.1"
	 xmlns="http://www.w3.org/2000/svg" xmlns:xlink="http://www.w3.org/1999/xlink" xmlns:a="http://ns.adobe.com/AdobeSVGViewerExtensions/3.0/"
	 x="0px" y="0px" width="16px" height="16px" viewBox="0 0 16 16" enable-background="new 0 0 16 16" xml:space="preserve">
<defs>
</defs>
<g>
	<g>
		<g>
			<path d="M16,0.7c-0.3-0.3-0.5-0.5-0.7-0.7H0.7C0.3,0,0,0.3,0,0.7v14.5
				c0.3,0.3,0.5,0.5,0.7,0.7H8v-6H6V7.3h2v-1c0-1.8,1.3-3.4,3-3.4h2.2v2.7H11c-0.2,0-0.5,0.3-0.5,0.7v1.1h2.7V10h-2.7v6h4.8
				c0.4,0,0.7-0.3,0.7-0.7V0.7z"/>
		</g>
	</g>
</g>
</svg>
