<!-- Generator: Adobe Illustrator 19.1.0, SVG Export Plug-In  -->
<svg version="1.1"
	 xmlns="http://www.w3.org/2000/svg" xmlns:xlink="http://www.w3.org/1999/xlink" xmlns:a="http://ns.adobe.com/AdobeSVGViewerExtensions/3.0/"
	 x="0px" y="0px" width="19.5px" height="27.2px" viewBox="0 0 19.5 27.2" enable-background="new 0 0 19.5 27.2"
	 xml:space="preserve">
<defs>
</defs>
<g>
	<path fill="none" d="M17.6,17c0.2-2,0.2-4.2-0.1-6.8c-2.5,0.4-5.1,0.6-7.4,0.6c-3.7,0-6.8-0.4-8.2-0.6c-0.2,2-0.2,4.3,0.1,6.8
		C3.6,17.2,10.8,18.3,17.6,17z M13.4,12.4c0.9,0,1.6,0.7,1.6,1.6c0,0.9-0.7,1.6-1.6,1.6c-0.9,0-1.6-0.7-1.6-1.6
		C11.8,13.1,12.5,12.4,13.4,12.4z"/>
	<path fill="none" d="M15.8,2.6c0-0.1-0.1-0.3-0.1-0.4c-1-0.2-3.4-0.5-6.3-0.5c-2.1,0-4,0.2-5.7,0.5c0,0,0,0.1,0,0.1
		C5.1,2.6,10.3,3.6,15.8,2.6z"/>
	<path fill="none" d="M10.3,19.3c-3.6,0-6.6-0.4-8-0.6c0.3,1.8,0.8,3.7,1.5,5.7c0.8,0.3,3,1.1,5.9,1.1h0c2.1,0,4.1-0.4,6-1.2
		c0.3-0.7,1.1-2.6,1.6-5.6C14.9,19.2,12.5,19.3,10.3,19.3z"/>
	<path fill="none" d="M17.3,8.5c-0.3-1.6-0.6-3.2-1.2-5C14.2,3.9,12.3,4,10.6,4C7,4,4.2,3.5,3.3,3.3C2.9,4.4,2.4,6.2,2,8.5
		C4.3,8.8,10.9,9.6,17.3,8.5z"/>
	<path fill="#AEA299" d="M17.1,1.1c-0.1-0.3-0.3-0.5-0.6-0.6C16.3,0.6,13.3,0,9.3,0C7,0,4.8,0.2,2.9,0.6C2.6,0.6,2.4,0.8,2.3,1
		c-0.2,0.4-5,10.5,0,24.3c0.1,0.2,0.2,0.4,0.4,0.5c0.1,0.1,2.9,1.4,7,1.4c0,0,0,0,0,0c2.4,0,4.7-0.5,7-1.4c0.2-0.1,0.3-0.2,0.4-0.4
		C17.3,25.1,22.3,15.7,17.1,1.1z M1.9,10.2c1.5,0.2,4.6,0.6,8.2,0.6c2.3,0,4.9-0.2,7.4-0.6c0.3,2.6,0.3,4.9,0.1,6.8
		C10.8,18.3,3.6,17.2,2,17C1.7,14.5,1.7,12.2,1.9,10.2z M9.3,1.7c2.9,0,5.3,0.3,6.3,0.5c0,0.1,0.1,0.3,0.1,0.4
		c-5.5,1-10.7,0.1-12.2-0.3c0,0,0-0.1,0-0.1C5.4,1.9,7.3,1.7,9.3,1.7z M3.3,3.3C4.2,3.5,7,4,10.6,4c1.7,0,3.6-0.1,5.5-0.5
		c0.5,1.7,0.9,3.4,1.2,5c-6.4,1.1-13,0.3-15.2,0C2.4,6.2,2.9,4.4,3.3,3.3z M15.7,24.4c-1.9,0.8-4,1.2-6,1.2h0
		c-2.9,0-5.1-0.8-5.9-1.1c-0.7-2-1.2-3.9-1.5-5.7c1.5,0.2,4.4,0.6,8,0.6c2.2,0,4.6-0.2,7-0.6C16.8,21.7,16,23.7,15.7,24.4z"/>
	<circle fill="#AEA299" cx="13.4" cy="13.9" r="1.6"/>
</g>
</svg>
