<!-- Generator: Adobe Illustrator 19.1.0, SVG Export Plug-In  -->
<svg version="1.1"
	 xmlns="http://www.w3.org/2000/svg" xmlns:xlink="http://www.w3.org/1999/xlink" xmlns:a="http://ns.adobe.com/AdobeSVGViewerExtensions/3.0/"
	 x="0px" y="0px" width="927.3px" height="1000px" viewBox="0 0 927.3 1000" enable-background="new 0 0 927.3 1000"
	 xml:space="preserve">
<defs>
</defs>
<g>
	<path fill="#86754D" d="M400.8,461.8l-43-43.1H41.3L0,377.4V41.3c26.9-54.9,98.7-54.9,125.6,0l1.7,210.6l41.3,41.3h590.2l41.2-43
		l1.8-208.8c26.9-54.9,98.7-54.9,125.5,0l-1.7,336.2l-41.4,41.3H567.8l-41.4,43.1l-1.7,497.4c-27.7,55.3-97.5,54.2-123.9-1.7V461.8z
		"/>
	<polygon fill="#00AFAA" points="553.5,16.7 553.5,155.5 536.7,172.4 390.5,171.2 373.7,154.5 373.7,16.7 390.5,0 536,0 	"/>
</g>
</svg>
