<!-- Generator: Adobe Illustrator 19.1.0, SVG Export Plug-In  -->
<svg version="1.1"
	 xmlns="http://www.w3.org/2000/svg" xmlns:xlink="http://www.w3.org/1999/xlink" xmlns:a="http://ns.adobe.com/AdobeSVGViewerExtensions/3.0/"
	 x="0px" y="0px" width="120px" height="120px" viewBox="0 0 120 120" enable-background="new 0 0 120 120" xml:space="preserve">
<defs>
</defs>
<g>
	<g>
		<path fill="#FFFFFF" d="M60,120C26.9,120,0,93.1,0,60S26.9,0,60,0s60,26.9,60,60S93.1,120,60,120z M60,9.2C32,9.2,9.2,32,9.2,60
			S32,110.8,60,110.8S110.8,88,110.8,60S88,9.2,60,9.2z"/>
	</g>
	<g>
		<path fill="#FFFFFF" d="M36.4,83.9V36.1c0-1.3,1.4-2.2,2.6-1.6l47.8,23.9c1.3,0.7,1.3,2.6,0,3.2L39,85.5
			C37.8,86.1,36.4,85.2,36.4,83.9z"/>
	</g>
</g>
</svg>
