<!-- Generator: Adobe Illustrator 19.1.0, SVG Export Plug-In  -->
<svg version="1.1"
	 xmlns="http://www.w3.org/2000/svg" xmlns:xlink="http://www.w3.org/1999/xlink" xmlns:a="http://ns.adobe.com/AdobeSVGViewerExtensions/3.0/"
	 x="0px" y="0px" width="20px" height="12.9px" viewBox="0 0 20 12.9" enable-background="new 0 0 20 12.9" xml:space="preserve">
<defs>
</defs>
<g>
	<g>
		<path d="M0.7,1.2C1.2,1.5,8.7,5.5,9,5.7c0.3,0.2,0.6,0.2,1,0.2c0.4,0,0.7-0.1,1-0.2c0.3-0.2,7.8-4.2,8.3-4.5
			C19.9,0.9,20.4,0,19.4,0H0.6C-0.4,0,0.1,0.9,0.7,1.2z M19.6,3.4C19,3.7,11.4,7.7,11,7.9c-0.4,0.2-0.6,0.2-1,0.2
			c-0.4,0-0.6,0-1-0.2C8.6,7.7,1,3.7,0.4,3.4C0,3.2,0,3.5,0,3.7s0,8.2,0,8.2c0,0.5,0.6,1.1,1.1,1.1h17.8c0.5,0,1.1-0.6,1.1-1.1
			c0,0,0-7.9,0-8.2S20,3.2,19.6,3.4z"/>
	</g>
</g>
</svg>
