<!-- Generator: Adobe Illustrator 19.1.0, SVG Export Plug-In  -->
<svg version="1.1"
	 xmlns="http://www.w3.org/2000/svg" xmlns:xlink="http://www.w3.org/1999/xlink" xmlns:a="http://ns.adobe.com/AdobeSVGViewerExtensions/3.0/"
	 x="0px" y="0px" width="17.7px" height="26.4px" viewBox="0 0 17.7 26.4" enable-background="new 0 0 17.7 26.4"
	 xml:space="preserve">
<defs>
</defs>
<g>
	<path fill="none" d="M15.2,1.4C14,1.2,11.8,1,8.8,1S3.7,1.2,2.5,1.4c1.1,0.2,3.4,0.4,6.3,0.4S14,1.6,15.2,1.4z"/>
	<path fill="none" d="M8.8,12.2C8.8,12.2,8.8,12.2,8.8,12.2c2.7,0,4.6-0.8,5.8-2.3c1.9-2.4,1.3-6.2,1.1-7.6
		c-1.3,0.4-3.6,0.5-6.8,0.5C5.6,2.8,3.3,2.6,2,2.3C1.7,3.7,1.2,7.5,3.1,9.9C4.2,11.4,6.1,12.2,8.8,12.2C8.8,12.2,8.8,12.2,8.8,12.2z
		 M3.1,5.7c0-0.3,0.3-0.5,0.6-0.3C4.5,5.8,6.2,6.4,9,5.9c2.4-0.4,4.5-0.5,5.4-0.5c0.2,0,0.4,0.2,0.4,0.4c-0.2,1.3-1.1,5.3-5.8,5.3
		C9,11.2,3.1,11.4,3.1,5.7z"/>
	<path fill="#AEA299" d="M9,11.2c4.7,0,5.6-4,5.8-5.3c0-0.2-0.1-0.4-0.4-0.4c-0.9,0-3.1,0.1-5.4,0.5C6.2,6.4,4.5,5.8,3.6,5.3
		c-0.3-0.1-0.6,0-0.6,0.3C3.1,11.4,9,11.2,9,11.2z"/>
	<path fill="#AEA299" d="M10.3,24.6L9.9,13.8c2.7-0.2,4.7-1.2,6-2.9c2.8-3.7,1.3-9.4,1.2-9.7c-0.1-0.5-0.6-0.7-1.1-0.6c0,0,0,0,0,0
		C15,0.2,12.5,0,8.8,0C5.1,0,2.7,0.2,1.6,0.7c0,0,0,0,0,0C1.1,0.5,0.6,0.8,0.5,1.3c-0.1,0.2-1.6,6,1.2,9.7c1.4,1.8,3.5,2.8,6.3,2.9
		L7.6,24.6c-3.1,0.1-5.4,0.5-5.4,0.9c0,0.5,2.9,0.9,6.6,0.9c0.1,0,0.1,0,0.2,0c0,0,0.1,0,0.1,0c0.1,0,0.2,0,0.2,0
		c3.9,0,7.1-0.4,7.1-0.9C16.4,25,13.7,24.6,10.3,24.6z M8.8,1c3,0,5.2,0.2,6.3,0.4C14,1.6,11.8,1.8,8.8,1.8S3.7,1.6,2.5,1.4
		C3.7,1.2,5.9,1,8.8,1z M3.1,9.9C1.2,7.5,1.7,3.7,2,2.3c1.3,0.4,3.6,0.5,6.8,0.5c3.3,0,5.6-0.2,6.8-0.5c0.3,1.4,0.8,5.2-1.1,7.6
		c-1.2,1.5-3.1,2.3-5.7,2.3c0,0,0,0,0,0c0,0,0,0,0,0C6.1,12.2,4.2,11.4,3.1,9.9z"/>
</g>
</svg>
