<!-- Generator: Adobe Illustrator 19.1.0, SVG Export Plug-In  -->
<svg version="1.1"
	 xmlns="http://www.w3.org/2000/svg" xmlns:xlink="http://www.w3.org/1999/xlink" xmlns:a="http://ns.adobe.com/AdobeSVGViewerExtensions/3.0/"
	 x="0px" y="0px" width="160px" height="42.4px" viewBox="0 0 160 42.4" enable-background="new 0 0 160 42.4" xml:space="preserve"
	>
<defs>
</defs>
<g>
	<path fill="#C2BAB0" d="M10.5,18.8c-1.1,0-1.1-0.3-2.4-0.5c-2.1-1.3-2.9-1.7-3.2-4.4c0.8-3.1,3-4.1,5.6-5.8c0.6-0.3,1-0.3,1.3-0.3
		c0.3,0,0.7,0.1,0.9,0.3c0,0.6-1.7,0.6-3.5,2.1c-1.4,1.7-0.7,1.1-1.4,2.7c0.3,2.9,1.5,4,4.4,4.4c1,0.3,1.3,0.3,1.6,0.3
		c0.4,0,0.9-0.1,3.3-0.3l1.7-0.2l0.5-0.4c4.8-6.1,6.4-8.7,12.4-13.2C34.4,1.5,37.7,0,40,0c0.9,0,1.3,0.1,1.7,0.2
		c0.4,0.1,1,0.6,1.4,1.2c0.3,0.4,0.3,0.8,0.3,1.2c0,1.3-1.1,2.4-1.7,3.4c-1.3,1.4-0.5,0.6-2.4,2.2c-2.1,1.8-4,3.3-6.4,4.8
		c-1.5,0.9-0.6,0.6-2.6,1.1c-1.2,0.8-0.6,0.5-1.7,0.9c-1.6,0.8-0.8,0.5-2.4,0.7c-1.3,0.8-1.5,0.8-2.9,1l-0.7,0.4l-1.3,1.9
		c-1.7,2.6-1,1.4-2.2,3.6c-1.5,2.6-4.7,6.8-6.5,8.7c-0.2,0.3-0.3,0.4-0.3,0.6c0,0.3,0.2,0.4,0.3,0.6c2.4,3.8,1.2,1.9,3.3,5.8
		c1.5,1.3,1.7,1.8,3.2,1.8h0.4c1.5,0,1.9-0.3,5.3-1.7c1.4-0.9,2.8-1.7,4.2-2.6l0.7-0.5h0.3c0.2,0,0.3,0.1,0.3,0.1
		c0,0.3-0.9,0.8-1.3,1.1L28.2,37c-1.6,1.1-3.1,2.2-4.7,3.3c-1.9,1-3.8,1.8-5.8,2.1c-3.6-0.2-4-0.8-6.2-4.6l-0.4-1.2l-0.7-0.8
		L10,35.7l-1.1-0.2L7.1,37c-1.1,1-2.6,1.4-4,1.8l-0.9,0.4c-1-0.2-1.6-0.1-2.2-1c0.1-2.7,0.3-3.3,2.1-4.9c4-2.1,2.2-1.5,5.3-2.2
		l2.5,0.4c1.7-1.4,3.7-5.5,5.6-8.5c1-1.5,2.1-3.1,2.6-4.5v-0.1c0-0.1,0-0.1-0.2-0.2c-1.5,0.4-2.5,0.7-3.3,0.7c-0.3,0-0.6-0.1-1-0.2
		L10.5,18.8z M7.8,33.7C7,33,6.9,32.8,6,32.8c-0.6,0-0.9,0.3-2.2,1C3.6,34.6,3.8,34.2,3,35c-0.3,0.7-0.6,1.2-0.6,1.6
		c0,0.3,0.1,0.5,0.5,0.8c1.9-0.3,1,0.1,2.8-1.5L7.8,33.7z M32.1,12.4L36,9.8l3.3-2.6l2.1-2.6c0.3-0.6,0.5-1.2,0.5-1.7
		c0-1-0.8-1.7-2-1.7c-0.7,0-1.3,0.1-2.1,0.3c-0.8,0.3-1.9,0.6-2.7,1.2c-1.3,1.1-2.8,2.4-3.8,3.5l-0.4,0.1l-2.1,2.2l-0.7,1l-0.6,0.3
		l-1.2,1.8l-0.9,1l-2.1,2.6l-0.1,0.4l0.3,0.1l5.6-1.9L32.1,12.4z"/>
	<path fill="#C2BAB0" d="M40.7,35.3l1.5-0.3c0.5-0.3,0.8-0.3,1-0.3c0.1,0,0.1,0,0.1,0.1c0,0.2-0.8,0.9-1.6,1.3
		c-0.8,0.3-1.2,0.4-1.5,0.4c-0.3,0-0.6-0.1-1.2-0.2l-1,0.7c-1.3,1.4-0.6,1-2,1.5c-0.5,0.6-0.2,0.4-1,0.5c-0.4,0.4-0.4,0.5-0.6,0.5
		c-0.2,0-0.5-0.1-1.3-0.1c-1-0.4-1.7-0.7-1.7-1.5c0-0.3,0.1-0.6,0.3-1.2c0.3-1.1,0-0.5,0.8-1.6l0.1-0.4c-0.3-0.1-0.4-0.1-0.5-0.1
		s-0.3,0.1-1.1,0.4c-0.5,0.3-1.3,0.8-1.6,0.8l-0.1-0.1c0-0.1,0.1-0.3,0.1-0.3c1.9-1.5,3.8-2.8,6.3-3.1l0.7,0.2l0.5-0.1
		c0.4-0.7,1.3-1.1,2.1-1.1c0.3,0,0.6,0.1,0.8,0.2c0.5,0.4,0.9,1,0.9,1.7c0,0.4-0.2,1-0.6,1.7L40.7,35.3z M34.1,37.5
		c0.6,0.1,1.1,0.2,1.4,0.2c0.9,0,1.2-0.4,2.5-1.7l0.1-0.7c-1.4-1.2-0.8-0.8-1.2-2.1C36.7,33,36.6,33,36.5,33c-0.1,0-0.1,0.1-0.5,0.5
		c-1.2,1.2-1.7,1.5-2.1,3.3L34.1,37.5z"/>
	<path fill="#C2BAB0" d="M50.7,30.8c0.3,0,0.5,0.1,0.6,0.4l-0.2,0.3c-1.1,0.4-1.3,0.4-2.3,1.3l-0.2,0.4c0.5,0.8,1,1.4,1,2.3
		c0,0.2-0.1,0.4-0.1,0.6l0.2,0.2c0.8-0.4,1-0.4,1.2-0.5c0.1-0.1,0.3-0.2,1-0.7c0.4-0.1,0.5-0.2,0.6-0.2c0.1,0,0.3,0.1,0.3,0.2
		c0,0.1-0.1,0.1-0.3,0.4c-2.1,1.2-1.1,0.5-3,1.9l-0.6,1l-0.3,0.6L48,39.5l-0.7,0.8c-1.9,1.4-1.5,1.3-4.1,1.6
		c-0.5-0.2-0.8-0.2-0.8-0.8c0-0.7,1-1.3,1.5-1.7l3-1.7C47,37.3,47,37.1,47,37c0-0.3-0.1-0.5-0.2-1.1c-0.6-1.2-0.4-0.8-0.6-1.7
		c-1.5,0.4-2.6,0.9-4.2,1.7c-0.1,0-0.2,0.1-0.3,0.1c-0.1,0-0.1-0.1-0.1-0.1c0-0.3,1.4-1.2,2.1-1.6c2-1,1-0.6,3-1.3
		c0.9-1.3,2.1-1.5,3.6-2.1H50.7z M46.7,38.7c-0.3,0-0.7,0.1-0.9,0.2c-0.5,0.1-0.4,0.2-0.8,0.6c-0.3,0.2-0.6,0.3-0.6,0.8
		c0,0.4,0.3,0.6,0.5,0.6c0.6,0,1.5-0.6,1.7-0.9c0.3-0.6,0.4-0.7,0.4-0.8C47.1,38.9,46.9,38.7,46.7,38.7z"/>
	<path fill="#C2BAB0" d="M93.7,15.8L93,16.7l-1.9,2.5l-2.2,2.6c-4.2,4.8-1.7,2.4-7.4,7.2c-3,2.4-1.5,1.6-3.9,2.9
		c-2.4,1.9-1.3,1.1-3.2,2.5c-2.7,2.4-6,4.6-8.8,5.1c-1.5-0.1-2.1,0.1-2.5-1.8c0.6-4,0.8-5.8,3-9.6c2.7-4.8,5.9-9,9.5-13.3
		c3.4-3.1,5.8-5.6,9.8-7.4c3-1.7,2.8-1.9,6.4-2.3c2.9,0.6,3,1.1,3.4,3.8c0.3,1.7,0.3,1.7-0.3,3.3C94.4,13.3,93.7,15.8,93.7,15.8z
		 M86.8,24.2c-2.3,3.7-1.9,5.6-1.8,7.2c0,0,0.1,1.6,0.8,3.3c0.3,0.6,0.7,1.3,1.4,1.9l1.2,0.9c1.8-0.3,2.1-0.4,3.8-1.4l1.1-0.6
		c0.5-0.3,1.2-0.6,1.3-0.6l0.1,0.1c0,0.1-0.4,0.4-1.4,1.2l-0.7,0.4c-0.5,0.3-2.2,1.7-2.7,1.9l-1,0.2l-1.1,0l-1.4-0.5
		c-1.1-0.2-1.2-0.5-1.6-1.5c-0.2-0.5-0.4-1.1-0.7-1.8c-1.3-3.2-2.2-4.9,0.4-8.3 M93.3,7.3C92.3,6.5,93,6.9,91,6.4
		c-1.5,0.6-2.7,1.4-4.1,2c-4.6,3-2.4,1.4-6.4,4.9l-1.4,1.3c-2.1,2.7-2.6,3-2.9,3.4c-0.6,1.3-1.2,1.9-2.1,2.5
		c-0.3,0.3-0.4,0.8-1.7,2.9c-0.9,1.5-2.3,2.5-2.4,4.2c-1.9,3.1-1.3,1.5-2.1,4.5l-0.6,2.4c0,0.5-0.1,1-0.1,1.3c0,0.4,0.1,0.6,0.6,0.6
		c0.3,0,0.6-0.1,1-0.2l2.1-0.8c3.5-2.1,6.4-4.4,9.6-6.9c4.9-5.1,2.5-2.7,7.3-7.2c3.3-4.2,2.1-2.3,4.1-5.4c0.1-0.1,0.1-0.3,0.1-0.4
		c0-0.2,0.4-0.7,0.4-0.8c0.1-0.8,0.5,0,0.9-2.5l0.1-2C93.8,9.3,94,9,94,8.8C94,8.5,93.8,8.3,93.3,7.3z"/>
	<path fill="#C2BAB0" d="M98.7,33.5c0.1-0.2,0.1-0.3,0.1-0.4c0-0.3,0-0.6-0.4-0.6c-1.3,0-2.4,1.7-2.8,2.6l-0.2,0.7l-0.1,0.7
		c0,0.8,0.4,1.2,1.2,1.2c0.8,0,1.2-0.2,2.4-0.9l2.4-1.3c0.5-0.4,1-0.6,1.2-0.6c0.1,0,0.1,0,0.1,0.1c0,0.1-0.1,0.3-0.4,0.5l-0.8,0.6
		l-1.6,1l-1.2,0.8c-1.5,0.9-1.8,1.1-3.6,1.3l-0.6-0.2l-0.6-0.1C93,38.5,93,38,93,37.3v-0.1c0-2,1.8-3.2,3.2-4.4
		c1-0.8,2.2-1.5,2.9-1.5c0.6,0.1,1,0.3,1,1.2c-0.3,0.7-0.6,1.8-1.5,1.8l-0.2-0.3L98.7,33.5z"/>
	<path fill="#C2BAB0" d="M111.2,36.2l-0.1-0.1l-0.3,0.2c-1.4,1-1.8,1.3-4,2.6l-1.3,0.6c-1-0.1-1.3,0.1-1.3-1.3
		c0-1.2,1.1-2.4,1.1-3.6c0-0.3-0.3-0.2-0.5-0.3l-0.7,0.3l-1.2,0.6l-1.4,0.7c-0.3,0-0.4-0.1-0.4-0.1c0-0.3,1.4-1.1,2.2-1.6
		c1.8-1.1,3.7-2.2,5.6-2.2c0.4,0,0.8,0.2,0.8,0.7c0,0.6-2.3,1.3-2.9,3.6c0.1,0.9-0.1,0.7,0.6,1.2c0.7,0,1.4-0.2,2.4-1
		c0.3-0.3,2.1-1.7,2.1-2.4c0-0.6-1.9-0.3-1.9-1.7c0-0.6,1-0.9,1.5-0.9c0.9,0,1.2,0.7,1.4,1.2c0.1,0,0.4,0.1,1.2,0.1
		c0.3,0.3,0.5,0.3,0.5,0.7c0,0.2-0.1,0.7-0.3,1c-0.2,0.4-1,1.6-1,2.4c0,0.1,0.1,0.4,0.3,0.4c0.3,0,0.5-0.3,1.1-0.5
		c1.2-0.6,0.5-0.4,1.9-1.2c0.3-0.2,1.2-0.7,1.5-0.7c0.1,0,0.1,0.1,0.1,0.1c0,0.1-0.1,0.3-0.3,0.6l-1.1,0.8l-0.7,0.4
		c-1.9,1.3-1,0.7-2.6,1.8c-0.6,0.3-0.7,0.4-0.9,0.5c-0.1,0.1-0.3,0.1-1,0.3l-0.6-0.3c-0.3-0.4-0.4-0.8-0.4-1.1
		c0-0.6,0.2-0.4,0.6-1.6L111.2,36.2z"/>
	<path fill="#C2BAB0" d="M124,33.5c0.1-0.2,0.1-0.3,0.1-0.4c0-0.3,0-0.6-0.4-0.6c-1.3,0-2.4,1.7-2.8,2.6l-0.2,0.7l-0.1,0.7
		c0,0.8,0.4,1.2,1.2,1.2c0.8,0,1.2-0.2,2.4-0.9l2.4-1.3c0.5-0.4,1-0.6,1.2-0.6c0.1,0,0.1,0,0.1,0.1c0,0.1-0.1,0.3-0.4,0.5l-0.8,0.6
		l-1.6,1l-1.2,0.8c-1.5,0.9-1.8,1.1-3.6,1.3l-0.6-0.2l-0.6-0.1c-0.8-0.4-0.8-0.9-0.8-1.6v-0.1c0-2,1.8-3.2,3.2-4.4
		c1-0.8,2.2-1.5,2.9-1.5c0.6,0.1,1,0.3,1,1.2c-0.3,0.7-0.6,1.8-1.5,1.8l-0.2-0.3L124,33.5z"/>
	<path fill="#C2BAB0" d="M135.7,30.2c0.3,0,0.4,0.1,0.4,0.4c-1,1.7-2.2,3.1-2.7,5l-0.4,0.8v0.4l0.6,0.2h0.4l0.4-0.3l0.9-0.5l1.3-0.7
		l0.8-0.6c0.2-0.1,0.3-0.1,0.4-0.1c0.2,0,0.3,0.1,0.3,0.1c0,0.3-1.2,1-1.6,1.3l-0.7,0.4l-1.5,1.1c-1.2,0.8-2.2,1.5-3.6,1.5H130
		l-0.2-0.2c0.4-1.9,1.1-3,2.1-4.8V34l-0.8-0.2l-0.8,0.3l-1.1,0.5l-1,0.6l-1.2,0.7h-0.4l0.1-0.4l1.9-1.3l2.1-1.3l0.9-0.5
		c1.2-0.8,2.4-1.7,3.8-2.2H135.7z M139.3,25.7c-0.3,0.2-0.6,0.3-1,0.3c-1.3,0-2.6-1.3-2.6-2.6v-0.1c0-0.5-0.1-0.1,0.9-0.8l0.3-0.1
		l0.7,0.1l1.7,2.6L139.3,25.7z"/>
	<path fill="#C2BAB0" d="M147.9,35.3l1.5-0.3c0.5-0.3,0.8-0.3,1-0.3c0.1,0,0.1,0,0.1,0.1c0,0.2-0.8,0.9-1.6,1.3
		c-0.8,0.3-1.2,0.4-1.5,0.4c-0.3,0-0.6-0.1-1.2-0.2l-1,0.7c-1.3,1.4-0.6,1-2,1.5c-0.5,0.6-0.2,0.4-1,0.5c-0.4,0.4-0.4,0.5-0.6,0.5
		c-0.2,0-0.5-0.1-1.3-0.1c-1-0.4-1.7-0.7-1.7-1.5c0-0.3,0.1-0.6,0.3-1.2c0.3-1.1,0-0.5,0.8-1.6l0.1-0.4c-0.3-0.1-0.4-0.1-0.5-0.1
		c-0.1,0-0.3,0.1-1.1,0.4c-0.5,0.3-1.3,0.8-1.6,0.8l-0.1-0.1c0-0.1,0.1-0.3,0.1-0.3c1.9-1.5,3.8-2.8,6.3-3.1l0.7,0.2l0.5-0.1
		c0.4-0.7,1.3-1.1,2.1-1.1c0.3,0,0.6,0.1,0.8,0.2c0.5,0.4,0.9,1,0.9,1.7c0,0.4-0.2,1-0.6,1.7L147.9,35.3z M141.4,37.5
		c0.6,0.1,1.1,0.2,1.4,0.2c0.9,0,1.2-0.4,2.5-1.7l0.1-0.7c-1.4-1.2-0.8-0.8-1.2-2.1c-0.2-0.1-0.3-0.1-0.4-0.1
		c-0.1,0-0.1,0.1-0.5,0.5c-1.2,1.2-1.7,1.5-2.1,3.3L141.4,37.5z"/>
	<path fill="#C2BAB0" d="M158,30.8c0.3,0,0.5,0.1,0.6,0.4l-0.2,0.3c-1.1,0.4-1.3,0.4-2.3,1.3l-0.2,0.4c0.5,0.8,1,1.4,1,2.3
		c0,0.2-0.1,0.4-0.1,0.6l0.2,0.2c0.8-0.4,1-0.4,1.2-0.5c0.1-0.1,0.3-0.2,1-0.7c0.4-0.1,0.5-0.2,0.6-0.2c0.1,0,0.3,0.1,0.3,0.2
		c0,0.1-0.1,0.1-0.3,0.4c-2.1,1.2-1.1,0.5-3,1.9l-0.6,1l-0.3,0.6l-0.5,0.5l-0.7,0.8c-1.9,1.4-1.5,1.3-4.1,1.6
		c-0.5-0.2-0.8-0.2-0.8-0.8c0-0.7,1-1.3,1.5-1.7l3-1.7c0.1-0.4,0.2-0.6,0.2-0.8c0-0.3-0.1-0.5-0.2-1.1c-0.6-1.2-0.4-0.8-0.6-1.7
		c-1.5,0.4-2.6,0.9-4.2,1.7c-0.1,0-0.2,0.1-0.3,0.1c-0.1,0-0.1-0.1-0.1-0.1c0-0.3,1.4-1.2,2.1-1.6c2-1,1-0.6,3-1.3
		c0.9-1.3,2.1-1.5,3.6-2.1H158z M154,38.7c-0.3,0-0.7,0.1-0.9,0.2c-0.5,0.1-0.4,0.2-0.8,0.6c-0.3,0.2-0.6,0.3-0.6,0.8
		c0,0.4,0.3,0.6,0.5,0.6c0.6,0,1.5-0.6,1.7-0.9c0.3-0.6,0.4-0.7,0.4-0.8C154.4,38.9,154.2,38.7,154,38.7z"/>
</g>
</svg>
