<!-- Generator: Adobe Illustrator 19.1.0, SVG Export Plug-In  -->
<svg version="1.1"
	 xmlns="http://www.w3.org/2000/svg" xmlns:xlink="http://www.w3.org/1999/xlink" xmlns:a="http://ns.adobe.com/AdobeSVGViewerExtensions/3.0/"
	 x="0px" y="0px" width="160px" height="57.3px" viewBox="0 0 160 57.3" enable-background="new 0 0 160 57.3" xml:space="preserve"
	>
<defs>
</defs>
<path fill="#C2BAB0" d="M35.3,31.3c1.4-0.8,2.1-1.6,3.1-2.8c0.3-0.5,0.1-0.8-0.4-0.8c-0.3,0-0.9,0.3-1.5,0.8c-0.6,0.5-1,1.1-1.3,1.9
	L35.3,31.3z M52.1,23.5h0.5c0.3-0.1,0.6-0.4,2.1-1.5c4.2-3.1,6.5-5.6,9.7-9.8c1-1.8,1.8-3.4,2.1-5.5l0.4-0.5l0.1-1.4
	c0-0.4,0.1-0.6,0.1-0.7C65.1,5,64.3,6,63,7.3c-1.8,3-3.1,4.6-5,6.7c-1.6,3-2,3.9-4.1,6.5C53,21.7,52.9,22,52.1,23.5z M106.2,6.3
	l-0.5,0.4c-1.8,0.3-3.1,1.1-5.5,3.5c-1.2,2.2-1.6,2.8-1.8,5.3l-0.6,3.3l-0.3,0.8v1l-0.4,0.9c-1.6,3.5-3.2,6.5-6,9.6
	c-1.9,1.4-4.1,2.9-6.6,2.9c-0.3,0-0.5-0.3-0.5-0.9c0-0.3,0-0.6,0.2-0.9c0.3-0.8,0.8-1.4,0.8-2c0-0.3-0.1-0.6-0.4-0.9
	c-1,0.3-1.3,0.4-2.6,1.1l-1.1,0.9l-0.7,0.4c-1.8,1.3-0.9,0.7-2.5,1.8c-0.6,0.3-0.7,0.4-0.9,0.5c-0.1,0.1-0.3,0.1-1,0.3L75.2,34
	c-0.3-0.4-0.4-0.8-0.4-1.1c0-0.6,0.2-0.4,0.6-1.6c-1.7,0.8-2.1,1.1-4.2,2.4L70,34.4c-0.9-0.1-1.3,0.1-1.3-1.3c0-1.1,1.1-2.4,1.1-3.5
	c0-0.3-0.3-0.2-0.5-0.3l-0.7,0.3l-1.2,0.6l-1.7,1.2L64.9,32c-1.4,1.1-2.8,2.3-4.7,2.6c-0.6-0.4-0.8-0.8-0.8-1.3
	c0-0.6,0.3-1.2,0.6-1.9l0.9-1.4l0.4-0.6l0.1-0.6l-0.8-0.1l-1.3,0.4l-1.4,1l-0.5,0.4l-1.4,1c-1.1,0.6-1.9,1-3,1c-0.5,0-1-0.1-1.6-0.4
	l-0.8,0.6c-1.5,1.2-3.2,2.1-4.2,2.1c-0.8,0-1.1-0.6-1.1-2.3c0-1.1,0.4-2,1.1-3.3l-0.5-0.4l-1.5,0.6l-2.1,1.2
	c-0.2,0.2-0.6,0.4-0.9,0.6l-0.8,0.6c-2.2,1.7-4,2.5-6.9,2.6c-1.1-0.3-1.1-0.7-1.2-1.9c0.2-0.5,0.4-1,0.6-1.5l-0.4,0.3
	c-1.2,0.9-2.5,1.7-3.8,2.5c-0.8,0.4-1.2,0.6-1.8,0.6c-0.3,0-0.5,0-0.9-0.1c-0.2-0.3-0.3-0.4-0.3-0.6c0-0.3,0.3-0.6,0.5-1.1l0.3-0.8
	l0.4-0.5c-2.2,1-3.5,2.3-5.7,3.1h-1.5l-0.2-0.8l0.5-1l1.4-2.8l0.1-0.2c0.8-1.6,1.5-2.8,1.5-2.8c0.2-0.1,0.9-0.4,1.5-0.4
	c0.3,0,0.5,0.1,0.5,0.3L25,28l-0.8,1.1l-1.1,2.4c0,0.6,0,0.8,0.3,0.8c0.2,0,0.4-0.1,0.9-0.2c3.6-2.7,2-1.3,4.8-4.2
	c1.1-0.9,1.2-1,2.2-1.1c0.1,1.6,0.1,0.6-1.1,2.8c-0.3,0.6-1.3,1.8-1.3,2.7l0.7,0.2l1.4-0.7l1.9-1.3c0.1-0.1,0.6-0.4,1-0.5
	c1-1.4,2.4-2.4,3.8-3.3c0.8-0.4,1.7-1.3,2.4-0.4c0,1.9-0.7,3-2.7,4.4l-1.1,0.8c-0.3,0.1-0.9,0.6-0.6,1.1l0.6,0.2
	c2.1-0.3,2.4-0.4,5.3-2.2c0.5-0.5,1.5-1,1.7-1.1l1.6-1.1l1.7-1.1c1.7-1.1,2.4-2.5,2.9-3.3l1.6-2.7l1.9-2.7c3.1-4.7,5.4-7.9,9.4-12
	c1.8-1.8,3.4-3.1,5.4-3.8l1,0.1l0.2,1.4l-0.4,2L67,9.9c-1.3,2.4-2.5,4-4.4,5.8c-2.3,3-1.8,2.3-3.3,3.3l-1.4,1.6l-6.2,4.8l-1.4,1.6
	l-1.1,2.5c-0.3,0.7-1.2,2.5-1.2,3c1.3,0.1,1.8,0.1,2.8-1l0.2-0.6c0-1.7,1.1-2.8,1.8-2.8c0.4,0,0.8,0.3,0.9,1.1L53,30.8l0.2,0.5h0.5
	c1.2,0,1.4-0.3,2.1-0.6c0.3-0.3,0.7-0.5,1.1-0.7c1.7-1.4,0.9-0.8,2.9-2l0.6-0.6l0.5-0.7l0.9-0.9c0.7,0,1.3,0,1.3,0.8
	c-0.4,0.6-0.4,0.6-0.4,0.7c0.6,0.5,1,0.6,1.3,1.1c-0.2,0.4-0.3,0.6-0.4,0.7c-0.1,0.1-0.3,0.2-1.1,1c-0.4,0.9-0.5,1.1-0.6,1.3
	c0,0.2-0.1,0.3-0.1,0.8l0.6,0.1c0.3,0,0.4-0.1,0.9-0.3l1.5-0.9l0.9-0.5c0.3-0.4,1.4-1,2.1-1.4c1.8-1.1,3.6-2.1,5.5-2.1
	c0.4,0,0.8,0.2,0.8,0.7c0,0.6-2.3,1.3-2.8,3.5c0.1,0.9-0.1,0.7,0.6,1.1c0.7,0,1.4-0.2,2.3-1c0.3-0.3,2-1.7,2-2.3
	c0-0.6-1.8-0.3-1.8-1.7c0-0.6,0.9-0.9,1.4-0.9c0.9,0,1.2,0.7,1.4,1.1c0.1,0,0.4,0.1,1.1,0.1c0.3,0.3,0.5,0.3,0.5,0.7
	c0,0.2-0.1,0.7-0.3,1c-0.2,0.4-1,1.6-1,2.3c0.5,0.4,0.8,0.2,1.3-0.1c1.2-0.6,0.5-0.4,1.8-1.2c0.2-0.1,0.7-0.4,1-0.6
	c0.5-0.3,1.1-0.7,1.3-0.8l1.4-0.8c1.4-0.9,2-1.3,3.7-1.6c1,0.2,1.4,0.5,1.4,0.8c0,0.4-0.9,1-1.8,1.4L87,29.9L86.4,32l1.5,0.2
	c3.1-1.9,4.7-3.8,5.9-9.5l0.8-3.6l0.3-0.9c0.8-3.3,0.1-1.8,1.4-4.8c1.7-2.6,2.1-3,5-5.1c1.9-1.4,3.5-2.1,4.7-2.3L106.2,6.3z
	 M103.4,31.4c-1.7,0.8-2.1,1.1-4.2,2.4l-1.3,0.6c-0.9-0.1-1.3,0.1-1.3-1.3c0-1.1,1.1-2.4,1.1-3.5c0-0.3-0.3-0.2-0.5-0.3l-0.7,0.3
	l-1.2,0.6l-1.4,0.7c-0.4-0.4,1-1.2,1.8-1.7c1.8-1.1,3.6-2.1,5.5-2.1c0.4,0,0.8,0.2,0.8,0.7c0,0.6-2.3,1.3-2.8,3.5
	c0.1,0.9-0.1,0.7,0.6,1.1c0.7,0,1.4-0.2,2.3-1c0.3-0.3,2-1.7,2-2.3c0-0.6-1.8-0.3-1.8-1.7c0-0.6,0.9-0.9,1.4-0.9
	c0.9,0,1.2,0.7,1.4,1.1c0.1,0,0.4,0.1,1.1,0.1c0.3,0.3,0.5,0.3,0.5,0.7c0,0.2-0.1,0.7-0.3,1c-0.2,0.4-1,1.6-1,2.3
	c0.5,0.4,0.8,0.2,1.3-0.1c1.2-0.6,0.5-0.4,1.8-1.2c0.3-0.2,1.1-0.7,1.4-0.7c0.1,0.2,0.1,0.4-0.1,0.7l-1.1,0.8l-0.7,0.4
	c-1.8,1.3-0.9,0.7-2.5,1.8c-0.6,0.3-0.7,0.4-0.9,0.5c-0.1,0.1-0.3,0.1-1,0.3l-0.6-0.3c-0.3-0.4-0.4-0.8-0.4-1.1
	C102.7,32.3,102.9,32.5,103.4,31.4z M151.8,4.5c0-0.5-0.3-1.6-1-1.9c-0.6-0.3-1.9-0.3-2.6-0.3c-1.8,0.3-3.7,1-5.2,1.6
	c-1.8,1-3.5,2.4-5.2,3.8c-2.8,3-4.7,6.6-6.7,9.9c-0.3,0.5-1.1,1.4-1.1,1.9c0,0.3-2.1,3.9-3.3,6.9l-0.6,1.6l-0.8,1.6l-1.6,3.3
	c-0.5,1.7-1.5,2.8-2.4,3.8c-1.2,2.4-1.2,2.6-1.4,2.9c-0.1,0.2-0.3,0.4-1.7,2.7c-1.1,2.3-2.3,3.2-4.2,5.6c-2.1,2.6-5.9,6.2-7.9,6.8
	c-1.7,1.4-5.1,2.4-7.5,2.6C98.1,57.4,98,57.2,96,57c-3.3-1.4-4.8-3.9-5-6.8c-0.1-1.4,0.1-2.8,0.5-4.1c1.8-4.1,2.1-4.8,5.6-7.1
	c0.8-0.5,1.6-0.6,1.8-0.6c0.9-0.1,1.4,0.4,1.5,1.2c0.1,0.7-0.9,2.1-1.9,2.2c-0.7,0.1-1-0.7-1.8-0.6c-1,0.2-0.4-0.1-1.5,1.3
	c-0.3,0.5-0.4,0.7-0.5,0.8L93.9,44l-1,2c-0.3,1.4-0.4,2.6-0.3,3.8c0.1,1.5,0.8,2.8,1.4,4c1.2,0.6,2.3,1.9,4.3,1.9
	c2.2-0.3,3.9,0.3,7.9-2.4c1-1,2.9-2.6,3.7-3.3c1.4-1.4,2.4-2.8,4-5.5c3.1-6.1,2.1-3.9,4.7-8.2c1.2-3.1,2.7-6.2,4.1-8l1.7-4.2
	c0,0,0.3-0.8,0.8-1.9c0.8-1.2,1.1-1.5,1.3-1.7c0.1-0.3,0.2-0.6,0.8-1.8c2.7-4.6,1.5-3,3.3-5.3c2.3-3,4.8-5.7,6.8-6.9
	c1.4-1.5,2.7-2.2,5-3.5l3.8-1.5c1-0.1,1.2-0.1,1.3-0.1c0.2-0.1,0.3-0.1,0.9-0.2c0.6,0,0.7-0.1,0.9-0.1c0.1,0,0.3,0.1,0.9,0.3
	c2.3,0.5,1.9,0.3,2.9,2.6c0.1,0.6,0.1,0.8,0.1,1c0,0.3-0.1,0.4-0.5,1.3l-0.6,1.4l-3.1,3.3c-1.3,1.4-2.2,2.2-3.4,3.1
	c-2.2,1.1-2.6-1.2-1.2-1.9c2.3-1.7,5-2.2,6.6-5.2C151.4,5.7,151.8,5,151.8,4.5z M129.3,31.3c1.4-0.8,2.1-1.6,3.1-2.8
	c0.3-0.5,0.1-0.8-0.4-0.8c-0.3,0-0.9,0.3-1.5,0.8c-0.6,0.5-1,1.1-1.3,1.9L129.3,31.3z M140.9,29.1l0.3-0.6c0.1-0.8,0.1-1-0.4-1
	c-1.3,0-2.4,1.6-2.7,2.6l-0.2,0.7l-0.1,0.7c0,0.8,0.4,1.2,1.2,1.2s1.2-0.2,2.4-0.9l2.2-1.2c0.3-0.4,1.4-1,2-1.4
	c1.8-1.1,3.6-2.1,5.5-2.1c0.4,0,0.8,0.2,0.8,0.7c0,0.6-2.3,1.3-2.8,3.5c0.1,0.9-0.1,0.7,0.6,1.1c0.7,0,1.4-0.2,2.3-1
	c0.3-0.3,2-1.7,2-2.3c0-0.6-1.8-0.3-1.8-1.7c0-0.6,0.9-0.9,1.4-0.9c0.9,0,1.2,0.7,1.4,1.1c0.1,0,0.4,0.1,1.1,0.1
	c0.3,0.3,0.5,0.3,0.5,0.7c0,0.2-0.1,0.7-0.3,1c-0.2,0.4-1,1.6-1,2.3c0.5,0.4,0.8,0.2,1.3-0.1c1.2-0.6,0.5-0.4,1.8-1.2
	c0.3-0.2,1.1-0.7,1.4-0.7c0.1,0.2,0.1,0.4-0.1,0.7l-1.1,0.8l-0.7,0.4c-1.8,1.3-0.9,0.7-2.5,1.8c-0.6,0.3-0.7,0.4-0.9,0.5
	c-0.1,0.1-0.3,0.1-1,0.3l-0.6-0.3c-0.3-0.4-0.4-0.8-0.4-1.1c0-0.6,0.2-0.4,0.6-1.6c-1.7,0.8-2.1,1.1-4.2,2.4l-1.3,0.6
	c-0.9-0.1-1.3,0.1-1.3-1.3c0-1.1,1.1-2.4,1.1-3.5c0-0.3-0.3-0.2-0.5-0.3l-0.7,0.3l-1.2,0.6l-0.8,0.4l-0.6,0.5l-1.6,1l-1.2,0.8
	c-1.5,0.9-1.8,1.1-3.5,1.3L137,34l-0.6-0.1c-0.8-0.4-0.8-0.9-0.8-1.6c0-0.5,0.1-0.9,0.2-1.2l-0.3,0.2l-0.8,0.6
	c-2.2,1.7-4,2.5-6.9,2.6c-1.1-0.3-1.1-0.7-1.2-1.9c0.8-2.8,2.8-4.5,5.1-5.9c0.8-0.4,1.7-1.3,2.4-0.4c0,1.9-0.7,3-2.7,4.4l-1.1,0.8
	c-0.3,0.1-0.9,0.6-0.6,1.1l0.6,0.2c2.1-0.3,2.4-0.4,5.3-2.2c0.3-0.2,0.6-0.4,0.8-0.5c0.6-0.8,1.5-1.5,2.3-2.1c1-0.8,2.1-1.5,2.8-1.5
	c0.6,0.1,1,0.3,1,1.1c-0.3,0.7-0.6,1.8-1.4,1.8L140.9,29.1z M0.4,35.6c0-0.1-0.1-0.2-0.1-0.3c-0.1-0.2-0.1-0.5-0.1-0.9
	C0.1,33.8,0,33,0,32.5c0.1-1.8,0.5-2.5,0.8-2.8c0.4-0.3,0.8-0.1,1.1-0.1c0.3,0.1,0.4,0.3,0.5,0.5c0,0.1,0,0.3,0,0.5l0,0.6
	c0,0.9,0.1,2.1,1.3,3.4c0.4,0.4,0.7,0.4,1.1,0.4c0.2,0,0.3-0.1,0.5-0.2c0.2,0,0.4-0.1,0.6-0.1c0.1,0,0.2,0,0.3-0.1
	c0.1,0,0.2-0.1,0.3-0.1l0.3-0.1c0.1,0,0.2-0.1,0.3-0.1l3.3-2.2c-0.4,0-0.3,0-1.2-0.2c-0.9,0-1.1,0-1.3,0c-0.2-0.1-0.4-0.3-1.2-0.7
	C6.1,30.5,5.9,30,6,29.5c0.5-1.5,3.2-0.9,4.8-0.3c0.6,0.2,1.3,0.9,1.9,1.4c2.2-1.5,3.7-2.9,5.2-4.1c1.5-1.4,2.6-2.4,5.8-6.5
	c1.3-1.8,1.8-2.7,2.1-3.2c0.3-0.5,0.5-0.7,1.2-1.2c0.1-0.8,1-2.7,1.7-4c0.8-1.9,1-2.4,1.2-2.9c0.2-0.6,0.2-1.2,0.7-3.7
	c-0.1-0.5-0.1-1-0.2-1.4c-0.1-0.4-0.2-0.7-0.4-1c-0.4-0.6-1-0.9-2-0.9c-1.6,0.6-2.2,0.8-2.5,0.9c-0.2,0.1-0.3,0.1-0.5,0.2
	c-0.2,0.1-0.4,0.2-0.8,0.4c-1.1,0.9-2,1.6-2.9,2.2c-0.9,0.6-1.8,1.2-3.1,1.9c-0.6,0.7-1,1.2-1.3,1.5C17,9,16.8,9.1,16.7,9.3
	c-0.1,0.1-0.3,0.2-0.6,0.4c-0.3,0.2-0.7,0.4-1.4,0.9l-1.2,1.5c-0.2,0.3-0.4,0.5-0.6,0.7c-0.4,0.4-1.2,1-3.4,3.2
	c-0.8,1.1-1.6,2.2-2.3,3.2c-0.7,1.1-1.4,2.2-2,3.5c-0.2,0.6-0.4,0.9-0.5,1.1c-0.1,0.2-0.1,0.3-0.1,0.6c0,0.2,0.1,0.6,0.1,1.3
	c0.7,0.7,1,1,1.4,1c0.1,0,0,0.6-0.1,0.8c-0.5,0.2-1.2,0.4-1.8,0.4c-0.5,0-1-0.1-1.3-0.6c-0.1-0.4-0.2-0.8-0.2-1.2
	c0-1.7,0.9-3.4,2.2-5.4c1.3-2,3.1-4.1,4.8-6.5c2.9-2.6,5.6-5.3,8.5-7.6c2.9-2.3,5.9-4.3,9.5-5.5c1-0.4,1.2-0.4,1.5-0.5
	c0.3-0.1,0.6-0.1,1.7-0.4c2,0.3,2.8,0.8,3.2,1.7c0.2,0.4,0.3,1,0.3,1.7c0,0.7,0,1.5,0.1,2.5C34.1,7.6,34,8,33.8,8.5
	c-0.2,0.4-0.4,0.8-1.1,2.4c-0.7,1.5-0.9,1.8-1.1,2.2c-0.2,0.4-0.5,0.8-1.3,2.4c-0.6,1.1-1.9,2.9-3.3,4c-0.5,1-1.2,1.8-1.9,2.6
	c-0.7,0.8-1.5,1.4-2,1.9c-0.9,1-1.6,1.5-2.1,1.9c-0.6,0.4-1,0.8-1.6,1.3c-0.8,0.7-1.5,1.3-2.1,1.7c-0.7,0.5-1.3,0.9-1.8,1.3
	c-0.5,0.4-1,0.8-1.5,1.1c0.4,0.4,1,0.9,1.2,0.9c0,0,1.7,1.3,2.6,2.3c1,0.6,1.2,0.8,1.4,1c0.3,0.3,0.5,0.6,2.3,2.2
	c3.2,2.8,2.7,1.5,4.9,4.2c1,0.6,1.3,1,1.9,1.9c1.4,1.3,2,1.7,2.2,1.8c0.4,0.1,0.5,0.2,0.6,0.3c1.1,1.2,1.4,1.4,3.6,2.2
	c0.5,0.2,0.7,0.1,2.5,0.1c0.7-0.1,1.3-0.2,1.5-0.1l-0.2,0.5L36,49.1c-2.5-0.2-3.5-0.2-4.6-0.6c-0.8-0.3-1.7-0.8-3.2-1.6
	c-0.7-0.7-1.6-1.4-2.4-2.3c-1.7-1.7-2.6-2.2-3.9-3.8c-0.7-0.8-1.4-1.3-2-2c-0.9-1-2.6-1.5-3-2.7c-1.2-0.4-1.8-1.9-3.2-2.7
	c-0.8-0.9-0.9-0.7-1.8-1l-0.4,0.3c-1,0.7-1.9,1.2-2.5,1.8c-0.6,0.3-1.2,0.7-2,1.2c-0.8,0.4-1.7,0.9-2.8,1.3l-0.6,0.2
	c-0.1,0-0.2,0.1-0.3,0.1c-0.2,0-0.4,0-1.1,0.1c-0.4,0.1-0.7-0.2-1.1-0.8C1,36.5,0.9,36.2,0.7,36c-0.1-0.1-0.1-0.2-0.2-0.3
	C0.5,35.7,0.4,35.6,0.4,35.6z"/>
</svg>
