<!-- Generator: Adobe Illustrator 19.1.0, SVG Export Plug-In  -->
<svg version="1.1"
	 xmlns="http://www.w3.org/2000/svg" xmlns:xlink="http://www.w3.org/1999/xlink" xmlns:a="http://ns.adobe.com/AdobeSVGViewerExtensions/3.0/"
	 x="0px" y="0px" width="160px" height="62.5px" viewBox="0 0 160 62.5" enable-background="new 0 0 160 62.5" xml:space="preserve"
	>
<defs>
</defs>
<g opacity="0.5">
	<path fill="#7A828D" d="M58.7,3.5c0-0.5-0.3-1.6-0.9-1.8c-0.6-0.2-1.9-0.3-2.5-0.2c-1.7,0.2-3.6,0.9-5,1.6c-1.7,0.9-3.4,2.3-5,3.7
		c-2.7,2.9-4.5,6.3-6.5,9.6c-0.3,0.5-1.1,1.4-1.1,1.9c0,0.3-2,3.8-3.2,6.7l-0.6,1.6l-0.8,1.5l-1.6,3.2c-0.5,1.7-1.4,2.7-2.4,3.7
		c-1.1,2.3-1.2,2.5-1.3,2.8c-0.1,0.2-0.3,0.4-1.6,2.6c-1.1,2.2-2.2,3.1-4,5.4c-2.1,2.5-5.7,6-7.6,6.5c-1.6,1.3-5,2.4-7.3,2.5
		c-0.5,0.1-0.6-0.1-2.5-0.3c-3.2-1.3-4.6-3.8-4.8-6.5c-0.1-1.3,0.1-2.7,0.4-4c1.8-3.9,2-4.7,5.4-6.9c0.8-0.4,1.6-0.6,1.7-0.6
		c0.9-0.1,1.4,0.4,1.4,1.1c0.1,0.7-0.9,2.1-1.9,2.1c-0.7,0.1-1-0.7-1.7-0.6C4.5,39,5.1,38.7,4,40c-0.3,0.5-0.4,0.6-0.5,0.8l-0.7,0.9
		l-0.9,1.9c-0.2,1.3-0.4,2.5-0.3,3.7c0.1,1.5,0.7,2.7,1.3,3.9C4,51.7,5.1,52.9,7,52.9c2.1-0.2,3.8,0.3,7.6-2.4
		c1-0.9,2.8-2.5,3.5-3.2c1.4-1.4,2.4-2.7,3.9-5.3c3-5.9,2.1-3.8,4.5-8c1.1-3,2.6-6,4-7.7l1.7-4.1c0,0,0.3-0.8,0.8-1.9
		c0.8-1.2,1.1-1.4,1.2-1.6c0.1-0.3,0.2-0.6,0.8-1.7c2.6-4.5,1.5-2.9,3.2-5.2c2.2-2.9,4.6-5.5,6.6-6.6c1.3-1.4,2.6-2.1,4.8-3.4
		l3.7-1.4c0.9-0.1,1.1-0.1,1.2-0.1c0.2-0.1,0.3-0.1,0.9-0.2C56,0.1,56.2,0,56.4,0c0.1,0,0.2,0.1,0.9,0.2C59.4,0.7,59,0.6,60,2.8
		c0.1,0.6,0.1,0.8,0.1,1C60.1,4,60,4.2,59.6,5l-0.6,1.3l-3,3.2c-1.2,1.3-2.1,2.1-3.3,3c-2.1,1.1-2.5-1.1-1.1-1.9
		c2.2-1.6,4.8-2.1,6.4-5C58.3,4.7,58.7,4,58.7,3.5"/>
	<path fill="#7A828D" d="M44.7,33.4l-0.1-0.1l-0.3,0.2c-0.3,0.2-0.6,0.4-0.8,0.6c-0.2,0.2-0.5,0.3-0.7,0.5c-0.3,0.2-0.5,0.3-0.9,0.6
		c-0.3,0.2-0.7,0.5-1.3,0.7l-1.2,0.5c-0.4,0-0.8-0.1-1-0.1c-0.2-0.1-0.3-0.4-0.3-1c0-0.6,0.2-1.1,0.5-1.7c0.3-0.6,0.5-1.1,0.5-1.7
		c0-0.1-0.1-0.2-0.2-0.2c-0.1,0-0.2,0-0.3-0.1L38.1,32l-1.1,0.5l-1.3,0.7c-0.2,0-0.4,0-0.4-0.1c0-0.2,0.2-0.4,0.7-0.7
		c0.5-0.3,0.9-0.6,1.3-0.8c0.8-0.5,1.7-1,2.6-1.4c0.9-0.4,1.8-0.6,2.6-0.6c0.2,0,0.4,0.1,0.5,0.1c0.2,0.1,0.2,0.3,0.2,0.5
		c0,0.2-0.1,0.3-0.4,0.5c-0.2,0.2-0.5,0.4-0.8,0.6c-0.3,0.2-0.6,0.5-0.9,0.9c-0.3,0.4-0.5,0.8-0.6,1.3c0,0.4,0.1,0.7,0.1,0.7
		s0.2,0.2,0.5,0.4c0.3,0,0.7-0.1,1-0.2c0.4-0.1,0.8-0.4,1.2-0.8c0.1-0.1,0.2-0.2,0.4-0.4c0.2-0.2,0.4-0.4,0.6-0.6
		c0.2-0.2,0.4-0.4,0.6-0.7c0.2-0.2,0.3-0.4,0.3-0.6c0-0.2-0.1-0.3-0.3-0.3c-0.2-0.1-0.4-0.1-0.6-0.2c-0.2-0.1-0.4-0.2-0.6-0.3
		c-0.2-0.1-0.3-0.4-0.3-0.7c0-0.3,0.2-0.5,0.5-0.7c0.3-0.1,0.6-0.2,0.9-0.2c0.4,0,0.7,0.1,0.9,0.4c0.2,0.3,0.3,0.5,0.4,0.7
		c0.1,0,0.2,0,0.4,0.1c0.2,0,0.4,0.1,0.7,0.1c0.2,0.1,0.3,0.2,0.4,0.3c0.1,0.1,0.1,0.2,0.1,0.4c0,0.1,0,0.2-0.1,0.4
		c0,0.2-0.1,0.4-0.2,0.5c-0.1,0.2-0.3,0.5-0.5,1c-0.3,0.5-0.4,0.9-0.4,1.2c0,0,0,0.1,0.1,0.2c0,0.1,0.1,0.2,0.2,0.2
		c0.1,0,0.2,0,0.4-0.1c0.1-0.1,0.3-0.2,0.6-0.3c0.3-0.2,0.5-0.3,0.6-0.3c0.1-0.1,0.2-0.1,0.2-0.2c0.1-0.1,0.1-0.1,0.3-0.2
		c0.1-0.1,0.3-0.2,0.7-0.4c0.2-0.1,0.4-0.2,0.7-0.4c0.3-0.2,0.5-0.3,0.7-0.3c0.1,0,0.1,0,0.1,0.1c0,0.1-0.1,0.3-0.2,0.5l-1,0.8
		L49.1,34c-0.4,0.3-0.7,0.5-0.9,0.6c-0.2,0.1-0.3,0.2-0.4,0.3c-0.1,0.1-0.2,0.2-0.4,0.3c-0.1,0.1-0.4,0.3-0.7,0.5
		c-0.3,0.2-0.5,0.3-0.6,0.3c-0.1,0.1-0.2,0.1-0.3,0.1c-0.1,0-0.2,0.1-0.3,0.1c-0.1,0-0.3,0.1-0.6,0.1l-0.6-0.2
		c-0.2-0.4-0.4-0.7-0.4-1c0-0.3,0-0.5,0.1-0.6c0.1-0.1,0.2-0.4,0.4-0.9L44.7,33.4z"/>
	<path fill="#7A828D" d="M61.1,31.4c0-0.3-0.2-0.4-0.4-0.4c-0.2,0-0.3,0.1-0.5,0.2c-0.2,0.1-0.3,0.2-0.5,0.3l-3.1,2.4
		c-0.2,0.2-0.5,0.4-0.8,0.7c-0.3,0.3-0.7,0.6-1,0.9c-0.4,0.3-0.7,0.5-1.1,0.7c-0.4,0.2-0.7,0.3-1,0.3l-0.1-0.1l0.1-0.5l1.9-3.6
		c0.2-0.4,0.3-0.7,0.3-0.9c0-0.3-0.2-0.5-0.5-0.5c-0.2,0-0.5,0.1-0.8,0.2c-0.3,0.1-0.6,0.3-1,0.5L51,32.6c-0.5,0.3-0.9,0.5-1.2,0.5
		c-0.1,0-0.1,0-0.1-0.1l0.1-0.2l1.7-1.3c0.8-0.6,1.7-1.1,2.5-1.5c0.8-0.4,1.7-0.8,2.7-1.1c0.6,0,0.8,0.3,0.8,0.8
		c0,0.4-0.1,0.9-0.3,1.4c-0.2,0.5-0.3,0.8-0.4,1l-0.3,0.7l0.1,0.1l2-1.7c0.6-0.5,1.4-1,2.2-1.5c0.8-0.5,1.6-0.7,2.4-0.7
		c0.2,0.2,0.3,0.5,0.3,0.9c0,0.4-0.1,0.8-0.3,1.2c-0.2,0.4-0.4,0.8-0.5,1.1c-0.2,0.2-0.4,0.5-0.6,0.8c-0.2,0.3-0.3,0.6-0.3,0.9
		c0,0.2,0.1,0.4,0.2,0.5c0.2,0,0.3-0.1,0.4-0.1c0.1,0,0.2,0,0.3,0c0.2-0.1,0.4-0.2,0.7-0.4c0.3-0.2,0.9-0.6,1.9-1.1
		c0.7-0.4,1.1-0.6,1.3-0.6l0.1,0.1c0,0.1-0.1,0.3-0.4,0.6c-0.3,0.3-0.5,0.5-0.9,0.7c-1,0.7-1.9,1.3-2.8,1.8
		c-0.9,0.5-1.8,0.8-2.8,0.8c-0.4-0.2-0.5-0.5-0.5-0.8c0-0.2,0-0.3,0.1-0.5c0.1-0.2,0.1-0.4,0.2-0.6L61.1,31.4z"/>
	<path fill="#7A828D" d="M99.9,10.6c0,0.1-0.1,0.3-0.2,0.7c-0.1,0.4-0.1,0.7-0.1,0.9c0,0.2,0,0.3,0,0.4c0,0.1,0,0.2-0.1,0.2
		c-0.1,0.1-0.1,0.2-0.3,0.4c0,0.4-0.1,0.7-0.2,1.2c-0.1,0.4-0.3,0.8-0.4,1.2c-0.1,0.4-0.3,0.8-0.4,1.1c-0.1,0.4-0.2,0.6-0.2,0.8
		c-0.2,0.2-0.4,0.6-0.6,1.2c-0.2,0.6-0.5,1.2-0.8,1.9L96.3,22l-0.8,1.3c-0.1,0.7-0.3,1.3-0.7,1.8c-0.3,0.5-0.6,1.1-0.8,1.7
		c-0.2,0.7-0.4,1.3-0.7,1.9c-0.3,0.6-0.6,1.1-0.9,1.7l-0.7,1c0,0.2-0.1,0.3-0.1,0.4c0,0.1-0.1,0.1-0.1,0.2c0,0.1-0.1,0.1-0.2,0.3
		c-0.1,0.1-0.2,0.3-0.3,0.5c0,0.6,0.1,0.9,0.2,0.9c0.1,0,0.4-0.2,1-0.6c0.3-0.1,0.5-0.1,0.5-0.1c0.1,0,0.2,0,0.3-0.1
		c0.1,0,0.2-0.1,0.2-0.1c0.1-0.1,0.2-0.2,0.5-0.3c0.1,0,0.2-0.1,0.3-0.1c0.1,0,0.2,0,0.2,0.1c0,0.1-0.2,0.2-0.5,0.5
		c-0.3,0.3-0.6,0.4-0.7,0.5l-0.6,0.5c-0.5,0.4-0.9,0.6-1.2,0.9c-0.3,0.2-0.6,0.4-0.9,0.6c-0.3,0.2-0.6,0.4-0.9,0.7
		c-0.3,0.3-0.7,0.6-1.1,1.1c-0.4,0.6-0.7,1-0.8,1.3c-0.1,0.2-0.3,0.4-0.4,0.6c-0.1,0.1-0.2,0.3-0.4,0.6c-0.2,0.2-0.5,0.7-0.9,1.3
		c-0.3,0.7-0.5,1.1-0.6,1.4c-0.1,0.2-0.2,0.4-0.3,0.6c-0.1,0.2-0.3,0.4-0.5,0.6c-0.2,0.2-0.6,0.7-1.2,1.3L83,45.3
		c-0.4,0.4-0.7,0.7-0.8,0.9c-0.2,0.1-0.3,0.3-0.4,0.4c-0.1,0.1-0.2,0.3-0.3,0.4c-0.1,0.2-0.3,0.4-0.7,0.8c-0.6,1.1-1.1,2-1.5,2.6
		c-0.4,0.6-0.7,1.1-1,1.6c-0.3,0.4-0.7,0.9-1.2,1.3c-0.5,0.4-1.1,1-2,1.8l-1,1.2c-0.4,0.5-0.7,0.9-0.8,1c-0.1,0.2-0.2,0.3-0.4,0.5
		c-0.1,0.2-0.3,0.4-0.5,0.6c-0.2,0.2-0.6,0.7-1.2,1.3c-0.5,0.2-0.8,0.3-0.9,0.5c-0.1,0.2-0.4,0.5-0.7,0.9c-0.2,0.1-0.4,0.2-0.5,0.3
		c-0.1,0.1-0.2,0.1-0.2,0.2c-0.2,0.2-0.4,0.3-0.5,0.4c-0.1,0.1-0.2,0.2-0.3,0.3c-0.1,0.1-0.2,0.1-0.4,0.1c-0.2,0-0.4,0.1-0.7,0.1
		c-0.2,0-0.3,0-0.4-0.1c-0.1-0.1-0.3-0.2-0.4-0.4c0-0.7,0-1.2,0-1.6c0-0.3,0-0.6,0.1-0.7c0-0.2,0.1-0.3,0.1-0.4
		c0.1-0.1,0.2-0.4,0.3-0.7l0.5-1.4c0.5-1,0.9-1.7,1.1-2.1c0.2-0.4,0.4-0.7,0.5-0.9c0.1-0.2,0.3-0.4,0.4-0.7c0.2-0.2,0.5-0.6,1-1.2
		l1.9-3.1c1-1.2,1.9-2.2,2.7-3.1c0.8-0.9,1.7-1.8,2.6-2.7c0.9-0.9,1.9-1.8,3.1-2.7c1.1-0.9,2.5-2,4-3.1l2.3-1.7
		c0.6-1.1,1.1-2,1.5-2.6c0.4-0.6,0.6-1.1,0.9-1.5c0.2-0.4,0.4-0.7,0.5-0.9c0.1-0.2,0.3-0.5,0.4-0.9c0.2-0.3,0.4-0.8,0.7-1.4
		c0.3-0.6,0.7-1.4,1.2-2.4c0.1-0.3,0.2-0.5,0.2-0.7c0-0.1,0.1-0.2,0.1-0.3c0-0.1,0.1-0.2,0.1-0.3c0.1-0.1,0.2-0.3,0.3-0.7l0.2-1
		c0.2-0.3,0.3-0.6,0.4-1c0.1-0.3,0.2-0.7,0.4-1.1l0.7-2.2c0.2-0.6,0.5-1.3,0.8-2.1c0.3-0.9,0.6-2.1,1.1-3.6c0.1-0.2,0.1-0.4,0.1-0.5
		c0-0.1,0-0.2,0-0.3c0-0.1,0-0.2,0-0.3c0-0.1,0.1-0.4,0.2-0.8c0.1-0.8,0.2-1.3,0.3-1.6C97,9.3,97,9.1,97,9c0-0.1-0.1-0.2-0.2-0.4
		l-0.4,0.2l-1.2,1c-0.4,0.2-0.7,0.3-0.8,0.3c-0.2,0.1-0.3,0.1-0.4,0.2c-0.1,0.1-0.3,0.2-0.5,0.4c-0.2,0.2-0.6,0.5-1.3,1.1
		c-0.3,0.1-0.5,0.2-0.6,0.2c-0.1,0.1-0.3,0.3-0.6,0.7c-0.2,0.1-0.4,0.1-0.5,0.2c-0.1,0-0.2,0.1-0.2,0.1c-0.1,0-0.1,0.1-0.2,0.1
		c0,0.1-0.1,0.2-0.3,0.3l-4.1,4.3c-0.2,0.5-0.4,0.8-0.5,1c-0.1,0.2-0.2,0.3-0.3,0.4c-0.1,0.1-0.1,0.2-0.1,0.3c0,0.1-0.1,0.3-0.1,0.7
		c-0.2,0.4-0.4,0.7-0.5,0.9c-0.1,0.2-0.2,0.3-0.2,0.4c0,0.1,0,0.3-0.1,0.5c0,0.2-0.1,0.5-0.2,1c-0.1,0.3-0.2,0.5-0.2,0.7
		c0,0.3,0.3,0.5,0.8,0.5c0.2,0,0.4,0,0.5-0.1l3-1.6c0.4,0,0.6,0.2,0.6,0.6c-0.5,0.4-0.9,0.7-1,0.9c-0.2,0.2-0.3,0.3-0.4,0.4
		c-0.1,0.1-0.3,0.2-0.4,0.3c-0.2,0.1-0.5,0.3-1,0.6c-0.3,0-0.5-0.1-0.7-0.1c-0.1,0-0.3-0.1-0.5-0.1c-0.3,0-0.5,0.1-0.7,0.2
		c-0.2,0.1-0.5,0.2-1,0.2c-0.4-0.2-0.7-0.4-0.8-0.6c-0.1-0.2-0.2-0.4-0.2-0.7c0-0.2,0-0.4,0.1-0.7c0-0.2,0.1-0.5,0.1-0.8
		c0.2-0.5,0.4-0.8,0.5-1c0.1-0.2,0.2-0.3,0.2-0.4c0.1-0.1,0.1-0.2,0.1-0.2c0-0.1,0-0.3,0.1-0.7c0.7-1.2,1.4-2.3,2.1-3.2
		c0.8-1,1.6-1.9,2.4-2.7c0.9-0.8,1.8-1.6,2.7-2.4c0.9-0.8,1.9-1.6,3-2.4l3.4-2.2c0.4-0.2,0.8-0.4,1.2-0.6c0.3-0.2,0.6-0.3,0.9-0.3
		c0.4,0,0.9,0.3,1.4,1c0,0.4,0,0.9,0.1,1.3c0,0.4,0.1,0.8,0.1,1.2C100,10.4,100,10.5,99.9,10.6z M84.9,38.1c-0.5,0.4-0.9,0.6-1,0.7
		c-0.2,0.1-0.3,0.3-0.5,0.4c-0.1,0.1-0.3,0.2-0.5,0.4c-0.2,0.2-0.6,0.5-1.2,1c-0.4,0.2-0.6,0.3-0.7,0.4c-0.1,0.1-0.3,0.2-0.3,0.2
		c-0.1,0.1-0.2,0.2-0.3,0.3c-0.1,0.1-0.3,0.3-0.6,0.7c-0.2,0.1-0.5,0.1-0.7,0.2c-0.2,0.1-0.3,0.2-0.4,0.5c-0.4,0.4-0.7,0.7-0.9,1
		c-0.3,0.3-0.5,0.6-0.8,0.9c-0.3,0.3-0.5,0.6-0.8,1c-0.3,0.4-0.7,0.8-1.1,1.3c-0.2,0.3-0.4,0.5-0.5,0.7c-0.1,0.1-0.2,0.2-0.3,0.3
		c-0.1,0.1-0.1,0.1-0.2,0.2c-0.1,0.1-0.2,0.2-0.3,0.5L73,49.9c-0.5,0.6-0.8,1-1,1.2c-0.2,0.2-0.3,0.4-0.4,0.6
		c-0.1,0.2-0.2,0.3-0.3,0.6c-0.1,0.2-0.3,0.6-0.6,1.2c-0.2,0.2-0.3,0.3-0.4,0.4c-0.1,0.1-0.1,0.1-0.2,0.2c0,0-0.1,0.1-0.1,0.1
		c0,0-0.1,0.1-0.1,0.3c-0.2,0.4-0.4,0.6-0.5,0.7c-0.1,0.1-0.2,0.2-0.2,0.3c0,0.1-0.1,0.2-0.1,0.2c0,0.1,0,0.3-0.1,0.6l-0.8,1.2
		c-0.1,0.4-0.2,0.7-0.3,0.9c-0.1,0.2-0.1,0.3-0.1,0.4c0,0.1-0.1,0.2-0.1,0.4c0,0.2,0,0.5,0,1c0.1,0.3,0.2,0.5,0.3,0.5
		c0.1,0,0.3-0.1,0.7-0.2l1.9-1.6l0.6-0.6l2.6-3.7c0.8-1.2,1.5-2.1,2.1-2.9c0.6-0.7,1-1.3,1.4-1.8c0.4-0.5,0.8-0.9,1.1-1.3
		c0.3-0.4,0.7-0.8,1-1.3c0.4-0.5,0.8-1.1,1.3-1.9c0.5-0.7,1.1-1.7,1.9-3l2.1-3.3c0-0.2,0.1-0.3,0.1-0.4c0.1-0.1,0.1-0.2,0.1-0.3
		C85.1,38.2,85.1,38.1,84.9,38.1z"/>
	<path fill="#7A828D" d="M97.4,31.7c-0.2,0-0.4,0-0.5,0c-0.2,0-0.3,0-0.5,0.1c-0.2,0.1-0.4,0.1-0.7,0.3c-0.3,0.1-0.6,0.3-1,0.5
		l-1.2,0.6c-0.2,0-0.4-0.1-0.4-0.2c0-0.2,0.4-0.5,1.3-1l2.1-1.4l2.6-1.3c0.1,0,0.3-0.1,0.5-0.2c0.3-0.1,0.6-0.2,0.9-0.2
		c0.3,0,0.5,0.1,0.5,0.3c0,0.1,0,0.2-0.1,0.3l-0.4,1l-0.7,1.1l-1.1,2.3V34c0,0.3,0.1,0.5,0.2,0.5c0.1,0,0.4-0.1,0.9-0.2
		c0.8-0.6,1.4-1.1,1.8-1.3c0.3-0.2,0.6-0.4,0.8-0.6c0.2-0.2,0.4-0.4,0.6-0.6c0.2-0.3,0.7-0.7,1.3-1.4c0.6-0.4,0.9-0.7,1.1-0.8
		c0.2-0.1,0.5-0.2,1-0.3l0.1,0.2c0,0.3,0,0.5,0,0.6c0,0.1-0.1,0.2-0.1,0.3c-0.1,0.1-0.2,0.2-0.4,0.4c-0.2,0.2-0.4,0.6-0.7,1.1
		c-0.2,0.3-0.4,0.7-0.7,1.2c-0.3,0.5-0.5,1-0.5,1.4c0,0.1,0,0.2,0.1,0.3l0.6-0.1l1.3-0.7l1.9-1.3c0.1-0.1,0.3-0.2,0.6-0.4
		c0.3-0.2,0.6-0.3,0.7-0.3c0.1,0,0.1,0,0.1,0.1c0,0.1-0.1,0.3-0.4,0.5l-1.1,0.8c-0.6,0.4-1.1,0.8-1.7,1.2c-0.6,0.4-1.2,0.8-1.9,1.2
		c-0.4,0.2-0.7,0.3-0.9,0.4c-0.2,0.1-0.5,0.1-0.8,0.1c-0.1,0-0.2,0-0.4,0c-0.1,0-0.3,0-0.5-0.1c-0.2-0.2-0.2-0.4-0.2-0.6
		c0-0.2,0-0.3,0.1-0.4c0.1-0.1,0.2-0.3,0.3-0.6l0.2-0.8l0.4-0.5c0-0.2,0-0.3-0.1-0.3c-0.1,0-0.1,0-0.3,0c-0.9,0.7-1.7,1.3-2.4,1.9
		c-0.7,0.6-1.6,1-2.7,1.4H96l-0.2-0.3l0.1-0.5l0.5-1l1.3-2.7l0.1-0.2L97.4,31.7z"/>
	<path fill="#7A828D" d="M119.1,32.8c0,0,0.2-0.1,0.5-0.3c0.3-0.1,0.5-0.2,0.6-0.2c0.1,0,0.1,0,0.1,0.1c0,0.1-0.1,0.3-0.4,0.5
		c-0.3,0.2-0.6,0.4-0.8,0.7c-1,0.8-2.1,1.5-3.3,2c-1.2,0.6-2.1,0.8-2.9,0.8c-0.4,0-0.7-0.1-1-0.4c-0.1-0.1-0.1-0.3-0.1-0.7v-0.1
		c0-0.3,0-0.5,0.1-0.8c0-0.3,0.1-0.5,0.2-0.8l0.5-1.7c0-0.4-0.2-0.5-0.5-0.5c-0.4,0-0.7,0.1-0.9,0.2l-1.1,0.5
		c-0.2,0.1-0.4,0.3-0.8,0.5c-0.4,0.3-0.7,0.4-0.9,0.4c-0.2,0-0.2-0.1-0.2-0.2c0-0.2,0.1-0.3,0.3-0.4c0.2-0.1,0.8-0.4,1.7-1l1.1-0.7
		l2.5-1.9l0.1-0.2l2.1-3.6c0.8-1.4,1.7-2.9,2.7-4.6c1-1.7,2-3.3,3.1-4.9c1.1-1.6,2.3-3.1,3.5-4.5c1.2-1.4,2.4-2.5,3.6-3.5
		c0.4-0.3,0.8-0.6,1-0.8c0.3-0.2,0.5-0.4,0.7-0.5c0.2-0.1,0.5-0.2,0.8-0.3c0.3-0.1,0.7-0.1,1.3-0.2c0.5,0.1,0.8,0.2,1.1,0.4
		c0.2,0.1,0.4,0.5,0.5,1.2c0,0.1-0.1,0.2-0.2,0.3c-0.2,0.1-0.4,0.4-0.7,0.8c0,1-0.2,1.9-0.8,2.7c-0.6,0.8-1.1,1.6-1.6,2.4
		c-0.9,1-1.7,2.1-2.6,3.1c-0.8,1-1.7,2-2.6,3.1c-1.2,1.5-2.6,2.9-4,4.1c-1.4,1.3-2.8,2.6-4.3,4c-0.8,1-1.4,1.9-1.9,2.9
		c-0.5,1-0.8,2-1,3.2c0,0.3,0.1,0.5,0.1,0.6c0,0.1,0.2,0.1,0.4,0.1h0.2c0.4-0.1,0.7-0.2,0.8-0.3c0.1-0.1,0.2-0.1,0.4-0.2
		c0.1-0.1,0.3-0.1,0.5-0.2c0.2-0.1,0.6-0.3,1.2-0.6L119.1,32.8z M120.2,24.5c0.6-0.6,1.5-1.4,2.7-2.6c1.1-1.2,2.5-2.7,4-4.6
		c0.8-1,1.6-2.1,2.4-3.1c0.8-1,1.6-2,2.4-3c0.2-0.7,0.3-1.2,0.4-1.4c0.1-0.3,0.2-0.5,0.2-0.6c0.1-0.1,0.1-0.2,0.1-0.3
		c0-0.1,0-0.4,0.1-0.7c-0.1-0.3-0.2-0.5-0.2-0.6c0-0.1-0.2-0.1-0.4-0.1c-0.5,0-1,0.3-1.7,0.8c-0.7,0.5-1.3,1.1-1.9,1.7
		c-0.6,0.7-1.2,1.3-1.8,2c-0.6,0.7-1,1.3-1.3,1.7l-2.8,4.2l-1.5,2.3l-2.1,3.6c-0.6,1-0.8,1.7-0.8,2.1c0,0.1,0,0.3,0.1,0.4
		L120.2,24.5z"/>
	<path fill="#7A828D" d="M127.8,27.8c0.2,0,0.4,0.1,0.4,0.4c-0.5,0.8-1,1.6-1.4,2.3c-0.5,0.7-0.8,1.5-1.1,2.4l-0.4,0.7V34l0.5,0.2
		h0.4l0.4-0.2l0.8-0.5l1.2-0.7l0.7-0.5c0.1,0,0.3-0.1,0.4-0.1c0.2,0,0.2,0,0.2,0.1c0,0.2-0.2,0.4-0.6,0.6c-0.4,0.3-0.7,0.5-0.9,0.6
		l-0.7,0.4l-1.4,1c-0.6,0.4-1.1,0.7-1.6,1c-0.5,0.3-1.1,0.4-1.8,0.4h-0.5l-0.2-0.2c0.2-0.9,0.5-1.7,0.8-2.3c0.3-0.6,0.7-1.3,1.1-2.2
		v-0.4l-0.8-0.2l-0.7,0.2l-1,0.5l-0.9,0.6l-1.1,0.7h-0.4l0.1-0.4l1.8-1.3l2-1.2l0.8-0.5c0.6-0.4,1.1-0.7,1.7-1.1
		c0.6-0.4,1.2-0.7,1.8-0.9H127.8z M131.2,23.6c-0.3,0.2-0.6,0.3-0.9,0.3c-0.6,0-1.1-0.3-1.6-0.8c-0.5-0.5-0.7-1.1-0.7-1.7v-0.1
		c0-0.2,0-0.3,0.1-0.3c0.1,0,0.3-0.1,0.7-0.4l0.2-0.1l0.7,0.1l1.6,2.4L131.2,23.6z"/>
	<path fill="#7A828D" d="M138,33.4l-0.1-0.1l-0.3,0.2c-0.3,0.2-0.6,0.4-0.8,0.6c-0.2,0.2-0.5,0.3-0.7,0.5c-0.3,0.2-0.5,0.3-0.9,0.6
		c-0.3,0.2-0.7,0.5-1.3,0.7l-1.2,0.5c-0.4,0-0.8-0.1-1-0.1c-0.2-0.1-0.3-0.4-0.3-1c0-0.6,0.2-1.1,0.5-1.7c0.3-0.6,0.5-1.1,0.5-1.7
		c0-0.1-0.1-0.2-0.2-0.2c-0.1,0-0.2,0-0.3-0.1l-0.7,0.3l-1.1,0.5l-1.3,0.7c-0.2,0-0.4,0-0.4-0.1c0-0.2,0.2-0.4,0.7-0.7
		c0.5-0.3,0.9-0.6,1.3-0.8c0.8-0.5,1.7-1,2.6-1.4c0.9-0.4,1.8-0.6,2.6-0.6c0.2,0,0.4,0.1,0.5,0.1c0.2,0.1,0.2,0.3,0.2,0.5
		c0,0.2-0.1,0.3-0.4,0.5c-0.2,0.2-0.5,0.4-0.8,0.6c-0.3,0.2-0.6,0.5-0.9,0.9c-0.3,0.4-0.5,0.8-0.6,1.3c0,0.4,0.1,0.7,0.1,0.7
		s0.2,0.2,0.5,0.4c0.3,0,0.7-0.1,1-0.2c0.4-0.1,0.8-0.4,1.2-0.8c0.1-0.1,0.2-0.2,0.4-0.4c0.2-0.2,0.4-0.4,0.6-0.6
		c0.2-0.2,0.4-0.4,0.6-0.7c0.2-0.2,0.3-0.4,0.3-0.6c0-0.2-0.1-0.3-0.3-0.3c-0.2-0.1-0.4-0.1-0.6-0.2c-0.2-0.1-0.4-0.2-0.6-0.3
		c-0.2-0.1-0.3-0.4-0.3-0.7c0-0.3,0.2-0.5,0.5-0.7c0.3-0.1,0.6-0.2,0.9-0.2c0.4,0,0.7,0.1,0.9,0.4c0.2,0.3,0.3,0.5,0.4,0.7
		c0.1,0,0.2,0,0.4,0.1c0.2,0,0.4,0.1,0.7,0.1c0.2,0.1,0.3,0.2,0.4,0.3c0.1,0.1,0.1,0.2,0.1,0.4c0,0.1,0,0.2-0.1,0.4
		c0,0.2-0.1,0.4-0.2,0.5c-0.1,0.2-0.3,0.5-0.5,1c-0.3,0.5-0.4,0.9-0.4,1.2c0,0,0,0.1,0.1,0.2c0,0.1,0.1,0.2,0.2,0.2
		c0.1,0,0.2,0,0.4-0.1c0.1-0.1,0.3-0.2,0.6-0.3c0.3-0.2,0.5-0.3,0.6-0.3c0.1-0.1,0.2-0.1,0.2-0.2c0.1-0.1,0.2-0.1,0.3-0.2
		c0.1-0.1,0.3-0.2,0.7-0.4c0.2-0.1,0.4-0.2,0.7-0.4c0.3-0.2,0.5-0.3,0.7-0.3c0.1,0,0.1,0,0.1,0.1c0,0.1-0.1,0.3-0.2,0.5l-1,0.8
		l-0.7,0.4c-0.4,0.3-0.7,0.5-0.9,0.6c-0.2,0.1-0.3,0.2-0.4,0.3c-0.1,0.1-0.2,0.2-0.4,0.3c-0.1,0.1-0.4,0.3-0.7,0.5
		c-0.3,0.2-0.5,0.3-0.6,0.3c-0.1,0.1-0.2,0.1-0.3,0.1c-0.1,0-0.2,0.1-0.3,0.1c-0.1,0-0.3,0.1-0.6,0.1l-0.6-0.2
		c-0.2-0.4-0.4-0.7-0.4-1c0-0.3,0.1-0.5,0.1-0.6c0.1-0.1,0.2-0.4,0.4-0.9L138,33.4z M144.9,21.3c-0.1,0.2-0.3,0.3-0.5,0.5l-0.3,0.2
		l-0.4,0.3c-0.3,0.4-0.6,0.7-0.9,1c-0.3,0.3-0.7,0.6-1.1,0.9c-0.3,0.2-0.6,0.4-0.8,0.6c-0.2,0.2-0.5,0.3-0.9,0.5l-0.6,0.3
		c-0.6,0.2-0.9,0.4-1.1,0.4c-0.2,0-0.4-0.2-0.7-0.6c0-0.1,0-0.1,0-0.2c0-0.1,0-0.1,0-0.2c0-0.9,0.3-1.4,1-1.5c0.2,0,0.5-0.1,0.9-0.2
		c0.4-0.1,0.8-0.2,1.1-0.4c0.4-0.2,0.7-0.3,1.1-0.5c0.4-0.2,0.7-0.3,0.9-0.4l0.8-0.4c0.2-0.1,0.4-0.1,0.4-0.2c0.1,0,0.1-0.1,0.1-0.1
		c0,0,0.1-0.1,0.1-0.1c0,0,0.2-0.1,0.4-0.2l0.5-0.1c0.1,0,0.1,0,0.1,0.1C145.1,21,145,21.2,144.9,21.3z"/>
	<path fill="#7A828D" d="M154.3,31.4c0-0.3-0.2-0.4-0.4-0.4c-0.2,0-0.3,0.1-0.5,0.2c-0.2,0.1-0.3,0.2-0.5,0.3l-3.1,2.4
		c-0.2,0.2-0.5,0.4-0.8,0.7c-0.3,0.3-0.7,0.6-1,0.9c-0.4,0.3-0.7,0.5-1.1,0.7c-0.4,0.2-0.7,0.3-1,0.3l-0.1-0.1l0.1-0.5l1.9-3.6
		c0.2-0.4,0.3-0.7,0.3-0.9c0-0.3-0.2-0.5-0.5-0.5c-0.2,0-0.5,0.1-0.8,0.2c-0.3,0.1-0.6,0.3-1,0.5l-1.7,1.1c-0.5,0.3-0.9,0.5-1.2,0.5
		c-0.1,0-0.1,0-0.1-0.1l0.1-0.2l1.7-1.3c0.8-0.6,1.7-1.1,2.5-1.5c0.8-0.4,1.7-0.8,2.7-1.1c0.6,0,0.8,0.3,0.8,0.8
		c0,0.4-0.1,0.9-0.3,1.4c-0.2,0.5-0.3,0.8-0.4,1l-0.3,0.7l0.1,0.1l2-1.7c0.6-0.5,1.4-1,2.1-1.5c0.8-0.5,1.6-0.7,2.4-0.7
		c0.2,0.2,0.3,0.5,0.3,0.9c0,0.4-0.1,0.8-0.3,1.2c-0.2,0.4-0.4,0.8-0.5,1.1c-0.2,0.2-0.4,0.5-0.6,0.8c-0.2,0.3-0.3,0.6-0.3,0.9
		c0,0.2,0.1,0.4,0.2,0.5c0.2,0,0.3-0.1,0.4-0.1c0.1,0,0.2,0,0.3,0c0.2-0.1,0.4-0.2,0.7-0.4c0.3-0.2,0.9-0.6,1.9-1.1
		c0.7-0.4,1.1-0.6,1.3-0.6l0.1,0.1c0,0.1-0.1,0.3-0.4,0.6c-0.3,0.3-0.5,0.5-0.9,0.7c-1,0.7-1.9,1.3-2.8,1.8
		c-0.9,0.5-1.8,0.8-2.8,0.8c-0.4-0.2-0.5-0.5-0.5-0.8c0-0.2,0-0.3,0.1-0.5c0.1-0.2,0.1-0.4,0.2-0.6L154.3,31.4z"/>
</g>
</svg>
