<svg style="display: none;"><symbol viewBox="0 0 15.4 15.7" id="shape-flex-next"><title>flex-next</title>  <g> <path fill="#86754D" d="M0,14.1l4-6.2L0,1.6L2.3,0l5.5,6.6v2.5l-5.5,6.6L0,14.1z M7.6,14.1l4-6.2l-4-6.3L9.9,0l5.5,6.6v2.5
		l-5.5,6.6L7.6,14.1z"/> </g> </symbol><symbol viewBox="0 0 15.4 15.7" id="shape-flex-prev"><title>flex-prev</title>  <g> <path fill="#86754D" d="M7.8,1.6l-4,6.2l4,6.3l-2.3,1.6L0,9.1V6.6L5.5,0L7.8,1.6z M15.4,1.6l-4,6.2l4,6.3l-2.3,1.6L7.6,9.1V6.6
		L13.1,0L15.4,1.6z"/> </g> </symbol><symbol viewBox="0 0 17.7 26.4" id="shape-icon-eight"><title>icon-eight</title>  <g> <path fill="none" d="M15.2,1.4C14,1.2,11.8,1,8.8,1S3.7,1.2,2.5,1.4c1.1,0.2,3.4,0.4,6.3,0.4S14,1.6,15.2,1.4z"/> <path fill="none" d="M8.8,12.2C8.8,12.2,8.8,12.2,8.8,12.2c2.7,0,4.6-0.8,5.8-2.3c1.9-2.4,1.3-6.2,1.1-7.6
		c-1.3,0.4-3.6,0.5-6.8,0.5C5.6,2.8,3.3,2.6,2,2.3C1.7,3.7,1.2,7.5,3.1,9.9C4.2,11.4,6.1,12.2,8.8,12.2C8.8,12.2,8.8,12.2,8.8,12.2z
		 M3.1,5.7c0-0.3,0.3-0.5,0.6-0.3C4.5,5.8,6.2,6.4,9,5.9c2.4-0.4,4.5-0.5,5.4-0.5c0.2,0,0.4,0.2,0.4,0.4c-0.2,1.3-1.1,5.3-5.8,5.3
		C9,11.2,3.1,11.4,3.1,5.7z"/> <path fill="#AEA299" d="M9,11.2c4.7,0,5.6-4,5.8-5.3c0-0.2-0.1-0.4-0.4-0.4c-0.9,0-3.1,0.1-5.4,0.5C6.2,6.4,4.5,5.8,3.6,5.3
		c-0.3-0.1-0.6,0-0.6,0.3C3.1,11.4,9,11.2,9,11.2z"/> <path fill="#AEA299" d="M10.3,24.6L9.9,13.8c2.7-0.2,4.7-1.2,6-2.9c2.8-3.7,1.3-9.4,1.2-9.7c-0.1-0.5-0.6-0.7-1.1-0.6c0,0,0,0,0,0
		C15,0.2,12.5,0,8.8,0C5.1,0,2.7,0.2,1.6,0.7c0,0,0,0,0,0C1.1,0.5,0.6,0.8,0.5,1.3c-0.1,0.2-1.6,6,1.2,9.7c1.4,1.8,3.5,2.8,6.3,2.9
		L7.6,24.6c-3.1,0.1-5.4,0.5-5.4,0.9c0,0.5,2.9,0.9,6.6,0.9c0.1,0,0.1,0,0.2,0c0,0,0.1,0,0.1,0c0.1,0,0.2,0,0.2,0
		c3.9,0,7.1-0.4,7.1-0.9C16.4,25,13.7,24.6,10.3,24.6z M8.8,1c3,0,5.2,0.2,6.3,0.4C14,1.6,11.8,1.8,8.8,1.8S3.7,1.6,2.5,1.4
		C3.7,1.2,5.9,1,8.8,1z M3.1,9.9C1.2,7.5,1.7,3.7,2,2.3c1.3,0.4,3.6,0.5,6.8,0.5c3.3,0,5.6-0.2,6.8-0.5c0.3,1.4,0.8,5.2-1.1,7.6
		c-1.2,1.5-3.1,2.3-5.7,2.3c0,0,0,0,0,0c0,0,0,0,0,0C6.1,12.2,4.2,11.4,3.1,9.9z"/> </g> </symbol><symbol viewBox="0 0 16 16" id="shape-icon-facebook"><title>icon-facebook</title>  <g> <g> <g> <path d="M16,0.7c-0.3-0.3-0.5-0.5-0.7-0.7H0.7C0.3,0,0,0.3,0,0.7v14.5
				c0.3,0.3,0.5,0.5,0.7,0.7H8v-6H6V7.3h2v-1c0-1.8,1.3-3.4,3-3.4h2.2v2.7H11c-0.2,0-0.5,0.3-0.5,0.7v1.1h2.7V10h-2.7v6h4.8
				c0.4,0,0.7-0.3,0.7-0.7V0.7z"/> </g> </g> </g> </symbol><symbol viewBox="0 0 16.8 22.8" id="shape-icon-five"><title>icon-five</title>  <g> <g> <path fill="#AEA299" d="M4.7,3.2c0,0-0.1,0-0.2,0.1C4.3,3.4,4.2,3.5,4,3.7C3.6,4,3,4.5,2.6,5.3C2.4,5.7,2.3,6.1,2.2,6.6
			c0,0.2-0.1,0.5-0.1,0.7c0,0.1,0,0.3,0,0.3c0,0.2,0,0.3,0.1,0.5c0.1,0.4,0.3,1.1,0.5,1.6c0.2,0.6,0.6,1.2,0.9,1.8
			c0.3,0.6,0.6,1.3,0.9,2c0.1,0.4,0.3,0.7,0.4,1.1L5,15.2l0.1,0.5c0.1,0.8,0,1.5-0.1,2.2c-0.1,0.7-0.4,1.3-0.6,1.8
			c-0.5,1.1-1.2,1.8-1.7,2.3c-0.3,0.2-0.5,0.4-0.6,0.5c-0.2,0.1-0.2,0.2-0.2,0.2c-0.3,0.2-0.7,0.1-0.9-0.2c-0.2-0.3-0.1-0.7,0.1-0.9
			l0,0c0,0,0.2-0.2,0.6-0.6c0.4-0.4,0.8-1.1,1.1-1.9c0.2-0.4,0.3-0.9,0.3-1.4c0.1-0.5,0.1-1.1,0-1.6l-0.1-0.5l-0.1-0.4
			c-0.1-0.3-0.2-0.6-0.3-0.8c-0.2-0.6-0.5-1.2-0.9-1.8c-0.3-0.6-0.6-1.3-0.9-2C0.4,9.9,0.1,9.2,0,8.3C0,8.2,0,8,0,7.8
			c0-0.3,0-0.4,0-0.6c0-0.4,0.1-0.8,0.2-1.1C0.4,5.4,0.7,4.8,1,4.3c0.7-1,1.5-1.6,2.2-2C3.5,2.2,3.8,2.1,3.9,2C4.1,2,4.2,2,4.2,2
			C4.5,1.8,4.9,2,5.1,2.4C5.2,2.7,5,3.1,4.7,3.2z"/> </g> <g> <path fill="#AEA299" d="M10.6,2.2c0,0-0.1,0-0.2,0.1c-0.2,0.1-0.3,0.2-0.5,0.3C9.5,2.9,9,3.4,8.6,4.1C8.4,4.5,8.3,4.9,8.2,5.4
			c0,0.2-0.1,0.5-0.1,0.7c0,0.1,0,0.3,0,0.3c0,0.1,0,0.3,0.1,0.4c0.1,0.4,0.3,1,0.5,1.5c0.2,0.5,0.5,1.1,0.8,1.7
			c0.3,0.6,0.6,1.2,0.9,1.9c0.1,0.3,0.2,0.7,0.3,1l0.1,0.6l0.1,0.5c0.1,0.8,0,1.4-0.1,2.1c-0.1,0.6-0.3,1.2-0.6,1.7
			c-0.5,1-1.1,1.7-1.6,2.2c-0.2,0.2-0.5,0.4-0.6,0.5c-0.1,0.1-0.2,0.1-0.2,0.1c-0.3,0.2-0.7,0.1-0.9-0.2c-0.2-0.3-0.1-0.6,0.1-0.8
			l0,0c0,0,0.2-0.2,0.6-0.6c0.3-0.4,0.7-1,1-1.8c0.2-0.4,0.3-0.9,0.3-1.3c0.1-0.5,0-1,0-1.5l-0.1-0.5l-0.1-0.4
			c-0.1-0.3-0.2-0.5-0.3-0.8c-0.2-0.5-0.5-1.1-0.8-1.7C7.3,10.5,7,9.9,6.8,9.2C6.5,8.5,6.3,7.9,6.2,7.1c0-0.2,0-0.3,0-0.5
			c0-0.2,0-0.4,0-0.6c0-0.4,0.1-0.7,0.2-1c0.2-0.7,0.5-1.2,0.8-1.7c0.6-1,1.5-1.5,2-1.9c0.3-0.2,0.6-0.3,0.7-0.3C10,1,10.1,1,10.1,1
			c0.3-0.1,0.7,0.1,0.8,0.4C11,1.7,10.9,2,10.6,2.2z"/> </g> <g> <path fill="#AEA299" d="M16.5,1.1c0,0-0.1,0-0.2,0.1c-0.2,0.1-0.2,0.2-0.4,0.3c-0.4,0.3-0.8,0.7-1.2,1.4c-0.2,0.3-0.3,0.7-0.4,1.1
			c0,0.2-0.1,0.4-0.1,0.6c0,0.1,0,0.2,0,0.3c0,0.1,0,0.3,0,0.4c0.1,0.4,0.2,0.9,0.5,1.4c0.2,0.5,0.5,1,0.8,1.6
			c0.3,0.5,0.6,1.1,0.8,1.7c0.1,0.3,0.2,0.6,0.3,1l0.1,0.5l0.1,0.4c0.1,0.7,0,1.3-0.1,1.9c-0.1,0.6-0.3,1.1-0.5,1.6
			c-0.4,0.9-1.1,1.6-1.5,2c-0.2,0.2-0.4,0.3-0.6,0.4c-0.1,0.1-0.2,0.1-0.2,0.1c-0.3,0.2-0.6,0.1-0.8-0.2c-0.2-0.3-0.1-0.6,0.1-0.8
			l0,0c0,0,0.2-0.2,0.5-0.5c0.3-0.4,0.7-0.9,1-1.7c0.1-0.4,0.3-0.8,0.3-1.2c0.1-0.4,0-1,0-1.4L14.8,12l-0.1-0.3
			c-0.1-0.2-0.2-0.5-0.3-0.7c-0.2-0.5-0.5-1-0.8-1.6c-0.3-0.5-0.6-1.1-0.8-1.7c-0.3-0.6-0.4-1.2-0.5-2c0-0.2,0-0.3,0-0.4
			c0-0.2,0-0.4,0-0.5c0-0.3,0.1-0.7,0.2-1c0.2-0.6,0.4-1.1,0.7-1.6c0.6-0.9,1.3-1.4,1.9-1.7c0.3-0.1,0.6-0.3,0.7-0.3
			C15.9,0.1,16,0,16,0c0.3-0.1,0.7,0.1,0.8,0.4C16.9,0.7,16.7,1,16.5,1.1z"/> </g> </g> </symbol><symbol viewBox="0 0 22.1 29" id="shape-icon-four"><title>icon-four</title>  <g> <path fill="none" d="M11.4,27.2c0.1-0.1,0.1-0.2,0.2-0.3c0.3-0.4,0.6-1,0.9-1.5c0.3-0.6,0.6-1.2,0.8-1.8c0.1-0.3,0.2-0.6,0.3-0.9
		c0.1-0.3,0.2-0.6,0.2-0.9c0-0.3,0-0.6,0-0.9c0-0.3-0.1-0.5-0.1-0.7c0-0.1-0.1-0.2-0.1-0.2c-0.8-0.1-1.7-0.2-2.6-0.2
		c-4.9,0-9,2.2-9.3,4.9c2.4,1.7,5.7,2.7,9.2,2.7C11,27.3,11.2,27.2,11.4,27.2z"/> <path fill="none" d="M8.1,12.8c0.3,0.3,0.7,0.4,1,0.2C9.4,13,9.6,13,9.7,13c0.3,0.1,0.5,0.1,0.7,0.1c1.4,0,2.5-1.1,2.5-2.5
		c0-0.8-0.4-1.5-1-2c-0.3-0.2-0.4-0.6-0.3-0.9c0-0.1,0.1-0.2,0.1-0.3c0-0.1,0-0.1,0-0.2c0-0.1,0-0.3,0-0.5c0-0.1,0-0.2,0-0.2
		c0-0.4-0.3-0.8-0.7-0.9c-0.3-0.1-0.5-0.3-0.6-0.6c-0.1-0.3,0-0.6,0.1-0.8c0.1-0.1,0.2-0.3,0.2-0.6c0-0.6-0.6-1-1.1-0.9
		C9.2,2.7,8.9,2.6,8.7,2.2C8.5,1.9,8.2,1.7,7.9,1.7c-0.5,0-0.9,0.4-0.9,0.9l0,0.1C7,3,6.9,3.2,6.7,3.4C6.5,3.6,6.3,3.6,6,3.6
		c0,0-0.1,0-0.1,0C5.5,3.6,5,4,5,4.6C5,4.8,5.2,5,5.3,5.1c0.2,0.2,0.2,0.5,0.1,0.8C5.3,6.2,5.1,6.4,4.8,6.5C4.4,6.6,4.1,7,4.1,7.4
		c0,0.1,0,0.3,0.1,0.4c0.1,0.3,0.1,0.7-0.2,1c-0.5,0.5-0.8,1.1-0.8,1.8c0,1.4,1.1,2.5,2.5,2.5c0,0,0.1,0,0.1,0c0,0,0,0,0,0
		c0,0,0.1,0,0.1,0c0,0,0.1,0,0.1,0c0.1,0,0.3,0,0.4-0.1c0,0,0.1,0,0.1-0.1c0.2-0.1,0.4-0.2,0.5-0.3C7.4,12.4,7.9,12.5,8.1,12.8z"/> <path fill="none" d="M15.9,20.4c0.1,0.3,0.3,0.6,0.4,0.9c0.1,0.4,0.2,0.8,0.3,1.3c0.1,0.4,0.1,0.9,0.1,1.3c0,0.4,0,0.9,0,1.3
		c0,0.4-0.1,0.7-0.1,1.1c1.4-0.5,2.7-1.1,3.8-2C20,22.7,18.3,21.3,15.9,20.4z"/> <path fill="#AEA299" d="M11.1,17.9c-0.7,0-1.3,0-1.9,0.1l0-3.2c0.1,0,0.3,0,0.4-0.1c0.3,0.1,0.6,0.1,0.9,0.1c2.3,0,4.2-1.9,4.2-4.2
		c0-1.1-0.4-2.2-1.2-3c0-0.1,0-0.2,0-0.2c0-0.2,0-0.3,0-0.5c0-0.2,0-0.3,0-0.5c0-0.9-0.4-1.6-1.1-2.1c0.1-0.2,0.1-0.5,0.1-0.7
		c0-1.4-1.1-2.6-2.5-2.6c-0.5-0.6-1.2-1-2-1C6.6,0,5.6,0.8,5.3,2c-1.1,0.3-2,1.3-2,2.6c0,0.3,0,0.5,0.1,0.7C2.8,5.8,2.4,6.6,2.4,7.4
		c0,0.2,0,0.3,0,0.5c-0.6,0.8-1,1.7-1,2.7c0,2.3,1.9,4.2,4.2,4.2c0,0,0.1,0,0.1,0c0.5,0.1,1-0.1,1.4-0.3c0,0,0.1,0,0.1-0.1l-0.2,3.9
		C2.9,19.4,0,21.9,0,25c0,0.3,0.1,0.5,0.3,0.7C3,27.8,6.9,29,10.9,29c4.2,0,8.2-1.3,10.9-3.6c0.2-0.2,0.3-0.4,0.3-0.7
		C21.9,20.9,17,17.9,11.1,17.9z M7,12.7c-0.1,0.1-0.3,0.2-0.5,0.3c0,0-0.1,0-0.1,0.1c-0.1,0.1-0.3,0.1-0.4,0.1c0,0-0.1,0-0.1,0
		c0,0-0.1,0-0.1,0c0,0,0,0,0,0c-0.1,0-0.1,0-0.1,0c-1.4,0-2.5-1.1-2.5-2.5c0-0.7,0.3-1.4,0.8-1.8c0.3-0.2,0.4-0.6,0.2-1
		C4.1,7.7,4.1,7.5,4.1,7.4c0-0.4,0.3-0.8,0.7-0.9c0.3-0.1,0.5-0.3,0.6-0.6c0.1-0.3,0-0.6-0.1-0.8C5.2,5,5,4.8,5,4.6
		C5,4,5.5,3.6,5.9,3.6c0,0,0.1,0,0.1,0c0.2,0,0.5-0.1,0.7-0.2C6.9,3.2,7,3,7,2.7l0-0.1c0-0.5,0.4-0.9,0.9-0.9c0.3,0,0.7,0.2,0.8,0.5
		c0.2,0.3,0.5,0.5,0.9,0.5c0.5-0.1,1.1,0.3,1.1,0.9c0,0.3-0.1,0.5-0.2,0.6c-0.2,0.2-0.2,0.5-0.1,0.8c0.1,0.3,0.3,0.5,0.6,0.6
		c0.4,0.1,0.7,0.5,0.7,0.9c0,0.1,0,0.1,0,0.2c0,0.1,0,0.3,0,0.5c0,0.1,0,0.2,0,0.2c0,0.1,0,0.2-0.1,0.3c-0.1,0.3,0,0.7,0.3,0.9
		c0.6,0.5,1,1.2,1,2c0,1.4-1.1,2.5-2.5,2.5c-0.2,0-0.4,0-0.7-0.1c-0.2,0-0.4,0-0.6,0c-0.4,0.1-0.8,0.1-1-0.2
		C7.9,12.5,7.4,12.4,7,12.7z M11.1,19.6c0.9,0,1.8,0.1,2.6,0.2c0,0.1,0.1,0.1,0.1,0.2c0.1,0.2,0.1,0.5,0.1,0.7c0,0.3,0,0.6,0,0.9
		c0,0.3-0.1,0.6-0.2,0.9c-0.1,0.3-0.2,0.6-0.3,0.9c-0.2,0.6-0.5,1.2-0.8,1.8c-0.3,0.6-0.7,1.1-0.9,1.5c-0.1,0.1-0.2,0.2-0.2,0.3
		c-0.2,0-0.3,0-0.5,0c-3.5,0-6.8-1-9.2-2.7C2.1,21.9,6.2,19.6,11.1,19.6z M16.5,26.3c0-0.3,0.1-0.7,0.1-1.1c0-0.4,0-0.9,0-1.3
		c0-0.5,0-0.9-0.1-1.3c-0.1-0.4-0.1-0.9-0.3-1.3c-0.1-0.3-0.2-0.6-0.4-0.9c2.4,0.8,4.1,2.3,4.5,3.9C19.3,25.2,18,25.9,16.5,26.3z"/> </g> </symbol><symbol viewBox="0 0 20 12.9" id="shape-icon-mail"><title>icon-mail</title>  <g> <g> <path d="M0.7,1.2C1.2,1.5,8.7,5.5,9,5.7c0.3,0.2,0.6,0.2,1,0.2c0.4,0,0.7-0.1,1-0.2c0.3-0.2,7.8-4.2,8.3-4.5
			C19.9,0.9,20.4,0,19.4,0H0.6C-0.4,0,0.1,0.9,0.7,1.2z M19.6,3.4C19,3.7,11.4,7.7,11,7.9c-0.4,0.2-0.6,0.2-1,0.2
			c-0.4,0-0.6,0-1-0.2C8.6,7.7,1,3.7,0.4,3.4C0,3.2,0,3.5,0,3.7s0,8.2,0,8.2c0,0.5,0.6,1.1,1.1,1.1h17.8c0.5,0,1.1-0.6,1.1-1.1
			c0,0,0-7.9,0-8.2S20,3.2,19.6,3.4z"/> </g> </g> </symbol><symbol viewBox="0 0 24 21.3" id="shape-icon-mute"><title>icon-mute</title>  <g> <path d="M10,1.6L5.4,5.1H1.2C0.6,5.1,0,5.6,0,6.3V15c0,0.7,0.6,1.2,1.2,1.2h4.2l4.6,3.4c0.8,0.6,2,0,2-1v-16
		C12,1.6,10.8,1,10,1.6z"/> </g> </symbol><symbol viewBox="0 0 30.2 13.9" id="shape-icon-nine"><title>icon-nine</title>  <g> <g> <path fill="#AEA299" d="M30,6.1c0.3-0.3,0.3-0.7,0-1c-0.3-0.3-0.7-0.3-1,0c-0.4,0.4-0.8,0.6-1.3,0.6c-1.5,0-2.7-1.3-4-2.6
			c-1.1-1.1-2.2-2.3-3.7-2.9c-1.6-0.6-3.2-0.4-5,0.7c-1.8-1.1-3.5-1.3-5-0.7C8.6,0.9,7.5,2.1,6.4,3.2c-1.3,1.3-2.5,2.6-4,2.6
			C1.9,5.7,1.5,5.5,1.2,5.2c-0.3-0.3-0.7-0.3-1,0c-0.3,0.3-0.3,0.7,0,1c0.6,0.6,1.3,0.9,2,1c0,0,0.1,0,0.1,0c1,0.1,2.1-0.1,3.2-0.3
			c1.1-0.2,2.3-0.5,3.6-0.5c1.1,0,1.9,0.5,2.7,1c0.9,0.5,1.9,1.1,3.2,1.1s2.4-0.6,3.2-1.1c0.8-0.5,1.6-1,2.7-1
			c1.3,0,2.5,0.3,3.6,0.5c1.1,0.2,2.2,0.5,3.2,0.3c0,0,0.1,0,0.1,0C28.7,7.1,29.4,6.8,30,6.1z M17.6,6.2c-0.8,0.5-1.5,0.9-2.5,0.9
			s-1.7-0.4-2.5-0.9C11.7,5.6,10.7,5,9.2,5c-1.1,0-2,0.1-2.9,0.3C6.6,4.9,7,4.5,7.4,4.1c2.1-2.2,3.9-4,7.3-1.7
			c0.2,0.2,0.5,0.2,0.8,0C19,0.1,20.8,2,22.8,4.1c0.4,0.4,0.8,0.8,1.1,1.1C23.1,5.1,22.1,5,21.1,5C19.6,5,18.5,5.6,17.6,6.2z"/> </g> <g> <path fill="#AEA299" d="M23.7,7.6c-0.3-0.2-0.7,0-0.9,0.3c-1.5,2.8-4.4,4.6-7.6,4.6S9,10.7,7.5,7.9C7.3,7.5,6.9,7.4,6.6,7.6
			C6.2,7.8,6.1,8.2,6.3,8.5c1.7,3.3,5.1,5.3,8.9,5.3s7.1-2,8.9-5.3C24.1,8.2,24,7.8,23.7,7.6z"/> </g> </g> </symbol><symbol viewBox="0 0 10.1 27.8" id="shape-icon-one"><title>icon-one</title>  <g> <g> <path fill="#AEA299" d="M8,27.8H2.1c-1.2,0-2.1-0.9-2.1-2.1V12.3c0,0,0-0.1,0-0.1c0.1-1.8,1.1-3.5,2.7-4.3V1.2
			C2.7,0.5,3.3,0,3.9,0h2.3c0.6,0,1.2,0.5,1.2,1.2v6.7c1.6,0.8,2.7,2.5,2.7,4.3l0,13.5C10.1,26.8,9.2,27.8,8,27.8z M4.5,1.7v6.7
			c0,0.4-0.2,0.7-0.6,0.8c-1.3,0.5-2.1,1.7-2.2,3l0,13.4c0,0.2,0.2,0.4,0.4,0.4H8c0.2,0,0.4-0.2,0.4-0.4V12.3c0-1.4-0.9-2.6-2.2-3.1
			C5.9,9.1,5.6,8.8,5.6,8.4V1.7H4.5z"/> </g> <g> <rect x="1.2" y="11.6" fill="#AEA299" width="8" height="1"/> </g> <g> <rect x="1.2" y="20.6" fill="#AEA299" width="8" height="1"/> </g> <g> <path fill="#AEA299" d="M3.7,20.1c-0.3,0-0.5-0.2-0.5-0.5v-6c0-0.3,0.2-0.5,0.5-0.5s0.5,0.2,0.5,0.5v6C4.2,19.9,3.9,20.1,3.7,20.1
			z"/> </g> </g> </symbol><symbol viewBox="0 0 508.52 508.52" id="shape-icon-pause"><title>icon-pause</title> <g> <g> <g> <g> <path d="M254.26,0C113.845,0,0,113.845,0,254.26s113.845,254.26,254.26,254.26
					s254.26-113.845,254.26-254.26S394.675,0,254.26,0z M254.26,476.737c-122.68,0-222.477-99.829-222.477-222.477
					c0-122.68,99.797-222.477,222.477-222.477c122.649,0,222.477,99.797,222.477,222.477
					C476.737,376.908,376.908,476.737,254.26,476.737z"/> <path d="M190.695,158.912c-17.544,0-31.782,14.239-31.782,31.782v127.13
					c0,17.544,14.239,31.783,31.782,31.783s31.782-14.239,31.782-31.783v-127.13C222.477,173.151,208.239,158.912,190.695,158.912z"/> <path d="M317.825,158.912c-17.544,0-31.782,14.239-31.782,31.782v127.13
					c0,17.544,14.239,31.783,31.782,31.783c17.544,0,31.783-14.239,31.783-31.783v-127.13
					C349.607,173.151,335.369,158.912,317.825,158.912z"/> </g> </g> </g> </g> </symbol><symbol viewBox="0 0 120 120" id="shape-icon-play"><title>icon-play</title>  <g> <g> <path fill="#FFFFFF" d="M60,120C26.9,120,0,93.1,0,60S26.9,0,60,0s60,26.9,60,60S93.1,120,60,120z M60,9.2C32,9.2,9.2,32,9.2,60
			S32,110.8,60,110.8S110.8,88,110.8,60S88,9.2,60,9.2z"/> </g> <g> <path fill="#FFFFFF" d="M36.4,83.9V36.1c0-1.3,1.4-2.2,2.6-1.6l47.8,23.9c1.3,0.7,1.3,2.6,0,3.2L39,85.5
			C37.8,86.1,36.4,85.2,36.4,83.9z"/> </g> </g> </symbol><symbol viewBox="0 0 19.5 27.2" id="shape-icon-seven"><title>icon-seven</title>  <g> <path fill="none" d="M17.6,17c0.2-2,0.2-4.2-0.1-6.8c-2.5,0.4-5.1,0.6-7.4,0.6c-3.7,0-6.8-0.4-8.2-0.6c-0.2,2-0.2,4.3,0.1,6.8
		C3.6,17.2,10.8,18.3,17.6,17z M13.4,12.4c0.9,0,1.6,0.7,1.6,1.6c0,0.9-0.7,1.6-1.6,1.6c-0.9,0-1.6-0.7-1.6-1.6
		C11.8,13.1,12.5,12.4,13.4,12.4z"/> <path fill="none" d="M15.8,2.6c0-0.1-0.1-0.3-0.1-0.4c-1-0.2-3.4-0.5-6.3-0.5c-2.1,0-4,0.2-5.7,0.5c0,0,0,0.1,0,0.1
		C5.1,2.6,10.3,3.6,15.8,2.6z"/> <path fill="none" d="M10.3,19.3c-3.6,0-6.6-0.4-8-0.6c0.3,1.8,0.8,3.7,1.5,5.7c0.8,0.3,3,1.1,5.9,1.1h0c2.1,0,4.1-0.4,6-1.2
		c0.3-0.7,1.1-2.6,1.6-5.6C14.9,19.2,12.5,19.3,10.3,19.3z"/> <path fill="none" d="M17.3,8.5c-0.3-1.6-0.6-3.2-1.2-5C14.2,3.9,12.3,4,10.6,4C7,4,4.2,3.5,3.3,3.3C2.9,4.4,2.4,6.2,2,8.5
		C4.3,8.8,10.9,9.6,17.3,8.5z"/> <path fill="#AEA299" d="M17.1,1.1c-0.1-0.3-0.3-0.5-0.6-0.6C16.3,0.6,13.3,0,9.3,0C7,0,4.8,0.2,2.9,0.6C2.6,0.6,2.4,0.8,2.3,1
		c-0.2,0.4-5,10.5,0,24.3c0.1,0.2,0.2,0.4,0.4,0.5c0.1,0.1,2.9,1.4,7,1.4c0,0,0,0,0,0c2.4,0,4.7-0.5,7-1.4c0.2-0.1,0.3-0.2,0.4-0.4
		C17.3,25.1,22.3,15.7,17.1,1.1z M1.9,10.2c1.5,0.2,4.6,0.6,8.2,0.6c2.3,0,4.9-0.2,7.4-0.6c0.3,2.6,0.3,4.9,0.1,6.8
		C10.8,18.3,3.6,17.2,2,17C1.7,14.5,1.7,12.2,1.9,10.2z M9.3,1.7c2.9,0,5.3,0.3,6.3,0.5c0,0.1,0.1,0.3,0.1,0.4
		c-5.5,1-10.7,0.1-12.2-0.3c0,0,0-0.1,0-0.1C5.4,1.9,7.3,1.7,9.3,1.7z M3.3,3.3C4.2,3.5,7,4,10.6,4c1.7,0,3.6-0.1,5.5-0.5
		c0.5,1.7,0.9,3.4,1.2,5c-6.4,1.1-13,0.3-15.2,0C2.4,6.2,2.9,4.4,3.3,3.3z M15.7,24.4c-1.9,0.8-4,1.2-6,1.2h0
		c-2.9,0-5.1-0.8-5.9-1.1c-0.7-2-1.2-3.9-1.5-5.7c1.5,0.2,4.4,0.6,8,0.6c2.2,0,4.6-0.2,7-0.6C16.8,21.7,16,23.7,15.7,24.4z"/> <circle fill="#AEA299" cx="13.4" cy="13.9" r="1.6"/> </g> </symbol><symbol viewBox="0 0 25.3 25.1" id="shape-icon-six"><title>icon-six</title>  <g> <path fill="none" d="M21.4,14.2c-0.2-0.1-0.4-0.4-0.4-0.6c-0.2-1.3-0.7-2.4-1.5-3.3c-1-1-2.3-1.6-3.7-1.6c-3.6,0.2-5.2,1.7-6,4.1
		c-0.3,0-1.2,0.1-2.3,0.8c0,0,0,0,0,0c-0.5,0.4-0.9,1-1.1,1.7l-1.1,0.6c-0.9,0-1.7,0.3-2.4,1.1c-0.7,0.7-1,1.6-1,2.6
		c0,0.9,0.3,1.7,0.8,2.4c0.6,0.7,1.2,1,2.1,1.2c0.2,0,0.3,0,0.4,0h14.1l3.3-1.6c0.7-0.9,1.1-1.9,1.1-3.1c0-0.9-0.2-1.7-0.6-2.4
		C22.6,15.2,22.1,14.6,21.4,14.2z"/> <path fill="#AEA299" d="M16.6,5.9l2-2c0.2-0.2,0.2-0.6,0-0.9c-0.2-0.2-0.7-0.2-0.9,0l-1.9,2c-0.2,0.3-0.3,0.6,0,0.9
		S16.4,6.2,16.6,5.9z"/> <path fill="#AEA299" d="M11.2,4.1c0.4,0,0.5-0.3,0.5-0.7V0.6c0-0.4-0.1-0.6-0.5-0.6s-0.5,0.3-0.5,0.6v2.8
		C10.7,3.8,10.8,4.1,11.2,4.1z"/> <path fill="#AEA299" d="M5.5,5.9c0.3,0.3,0.6,0.3,0.9,0c0.2-0.3,0.2-0.7,0-0.9l-2-2C4.2,2.8,3.8,2.8,3.5,3c-0.3,0.3-0.3,0.7,0,0.9
		L5.5,5.9z"/> <path fill="#AEA299" d="M1,11.3l2.8,0c0.4,0,0.6-0.2,0.6-0.6s-0.3-0.6-0.6-0.6H1c-0.4,0-0.6,0.2-0.6,0.6C0.4,11,0.6,11.3,1,11.3z"/> <path fill="#AEA299" d="M24.5,15.2c-0.5-0.9-1.1-1.6-1.9-2.2c-0.3-1.5-0.9-2.7-1.9-3.8c-1.3-1.4-3.1-2.1-5-2.1h0
		c-0.5-1-1.1-1.2-1.8-1.6C13,5.1,12,4.8,11.1,4.8c-1.6,0-3,0.6-4.1,1.7C5.8,7.6,5.2,9,5.2,10.6c0,0.5,0.2,1.2,0.5,2.2
		c-0.4,0.4-0.7,0.9-1,1.5c-1.3,0.1-2.4,0.6-3.3,1.6c-1,1-1.5,2.3-1.5,3.8C0,20.9,0.4,22,1.2,23c0.8,1,1.9,1.7,3.1,1.9
		c0.3,0,0.5,0.1,0.7,0.1h14.1c0.4,0,0.7-0.1,0.9-0.2c1.5-0.2,2.8-1,3.8-2.3c1-1.2,1.5-2.6,1.5-4.3C25.3,17.3,25,16.2,24.5,15.2z
		 M22.5,21.5l-3.3,1.6H5.1c-0.1,0-0.2,0.1-0.4,0c-0.8-0.1-1.5-0.5-2.1-1.2c-0.6-0.7-0.8-1.5-0.8-2.4c0-1,0.3-1.9,1-2.6
		c0.7-0.7,1.5-1,2.4-1l1.1-0.6c0.2-0.7,0.6-1.3,1.1-1.7c0,0,0,0,0,0c1.1-0.7,2-0.8,2.3-0.8c0.8-2.4,2.4-3.9,6-4.1
		c1.4,0,2.8,0.6,3.7,1.6c0.9,0.9,1.4,2,1.5,3.3c0,0.2,0.2,0.5,0.4,0.6c0.7,0.4,1.2,1,1.6,1.8c0.4,0.7,0.6,1.5,0.6,2.4
		C23.6,19.6,23.2,20.6,22.5,21.5z"/> </g> </symbol><symbol viewBox="0 0 23 21.6" id="shape-icon-ten"><title>icon-ten</title>  <g> <path fill="none" d="M20.6,17.6h-0.7c0,0,0,0,0,0H18c-0.3,0-0.5-0.2-0.5-0.5s0.2-0.5,0.5-0.5h1.7C19,12.6,16,9.8,12,9.5V9.2
		c1-0.2,0.8-0.7,0.8-1.2c0-0.8-0.5-1.4-1.2-1.4c0,0,0,0,0,0c-0.8,0-1.3,0.6-1.3,1.4c0,0.5-0.3,0.9,0.7,1.2v0.3
		c-4,0.3-6.9,3.1-7.5,7.1H15c0.3,0,0.5,0.2,0.5,0.5s-0.2,0.5-0.5,0.5H3.3c0,0,0,0,0,0H2.6C2,17.6,2,17.9,2,18.5v0.4
		c0,0.6,0,0.7,0.6,0.7h17.9c0.6,0,1.4,0,1.4-0.7v-0.4C22,17.9,21.2,17.6,20.6,17.6z"/> <path fill="#AEA299" d="M17.6,2.8c0,0.3,0.1,0.6,0.2,0.9C18,4,18.1,4.2,18.2,4.5c0.1,0.2,0.2,0.5,0.3,0.7c0,0.1,0.1,0.2,0.1,0.3
		l0,0.1l0,0.2c0,0.2,0,0.4,0,0.6c0,0.2-0.1,0.4-0.1,0.5c-0.1,0.3-0.3,0.6-0.4,0.7C18,7.8,18,7.9,18,7.9c-0.1,0.1-0.1,0.2-0.1,0.3
		c0.1,0.1,0.2,0.2,0.4,0.1l0,0c0,0,0.1-0.1,0.3-0.2c0.2-0.2,0.5-0.5,0.7-0.9c0.1-0.2,0.2-0.4,0.2-0.7c0.1-0.3,0.1-0.5,0-0.8l0-0.2
		l-0.1-0.2c0-0.1-0.1-0.3-0.1-0.4c-0.1-0.3-0.2-0.5-0.3-0.8c-0.1-0.2-0.2-0.5-0.3-0.7c-0.1-0.2-0.2-0.4-0.2-0.6l0-0.2l0-0.1
		c0-0.1,0-0.2,0-0.3c0-0.2,0.1-0.4,0.2-0.5C18.8,1.4,19,1.2,19.1,1c0.1-0.1,0.3-0.2,0.3-0.2c0.1,0,0.2-0.2,0.1-0.3
		c0-0.1-0.2-0.2-0.3-0.2l-0.1,0c0,0-0.1,0-0.4,0.2c-0.2,0.1-0.6,0.4-0.8,0.8c-0.1,0.2-0.2,0.4-0.3,0.7c0,0.1-0.1,0.3-0.1,0.4
		c0,0.1,0,0.1,0,0.2L17.6,2.8z"/> <path fill="#AEA299" d="M20.3,3.1c0.1,0.2,0.2,0.5,0.3,0.7C20.8,4,20.9,4.2,21,4.4c0,0.1,0.1,0.2,0.1,0.3l0,0.1l0,0.2
		c0,0.2,0,0.4,0,0.5c0,0.2-0.1,0.3-0.1,0.5c-0.1,0.3-0.3,0.5-0.4,0.7c-0.1,0.1-0.2,0.2-0.2,0.2c-0.1,0.1-0.1,0.2-0.1,0.3
		c0.1,0.1,0.2,0.2,0.3,0.1l0,0c0,0,0.1-0.1,0.3-0.2c0.2-0.2,0.4-0.4,0.6-0.8c0.2-0.4,0.3-0.9,0.3-1.4l0-0.2l0-0.2
		c0-0.1-0.1-0.3-0.1-0.4c-0.1-0.2-0.2-0.5-0.3-0.7C21.2,3.2,21.1,3,21,2.8c-0.1-0.2-0.2-0.4-0.2-0.6l0-0.2l0-0.1c0-0.1,0-0.2,0-0.3
		c0-0.2,0.1-0.3,0.2-0.5c0.1-0.3,0.3-0.5,0.5-0.6c0.1-0.1,0.3-0.2,0.3-0.2c0.1,0,0.2-0.1,0.1-0.3c0-0.1-0.1-0.2-0.3-0.2l-0.1,0
		c0,0-0.1,0-0.4,0.1c-0.2,0.1-0.5,0.3-0.8,0.7c-0.1,0.2-0.2,0.4-0.3,0.6c0,0.1-0.1,0.3-0.1,0.4c0,0.1,0,0.1,0,0.2l0,0.2
		C20.1,2.6,20.2,2.8,20.3,3.1z"/> <path fill="#AEA299" d="M2.6,3.8c0,0.3,0.1,0.6,0.2,0.9C3,5,3.1,5.2,3.2,5.5c0.1,0.2,0.2,0.5,0.3,0.7c0,0.1,0.1,0.2,0.1,0.3l0,0.1
		l0,0.2c0,0.2,0,0.4,0,0.6c0,0.2-0.1,0.4-0.1,0.5C3.5,8.2,3.3,8.5,3.2,8.7C3,8.8,3,8.9,3,8.9C2.9,9,2.8,9.1,2.9,9.2
		C3,9.3,3.1,9.4,3.3,9.3l0,0c0,0,0.1-0.1,0.3-0.2c0.2-0.2,0.5-0.5,0.7-0.9C4.4,8,4.4,7.8,4.5,7.5c0.1-0.3,0.1-0.5,0-0.8l0-0.2
		L4.4,6.2c0-0.1-0.1-0.3-0.1-0.4C4.2,5.5,4.1,5.3,4,5.1C3.8,4.8,3.7,4.6,3.6,4.4C3.5,4.2,3.5,3.9,3.4,3.8l0-0.2l0-0.1
		c0-0.1,0-0.2,0-0.3c0-0.2,0.1-0.4,0.2-0.5C3.8,2.4,4,2.2,4.1,2c0.1-0.1,0.3-0.2,0.3-0.2c0.1,0,0.2-0.2,0.1-0.3
		c0-0.1-0.2-0.2-0.3-0.2l-0.1,0c0,0-0.1,0-0.4,0.2C3.6,1.7,3.2,1.9,3,2.3C2.9,2.5,2.8,2.7,2.7,3c0,0.1-0.1,0.3-0.1,0.4
		c0,0.1,0,0.1,0,0.2L2.6,3.8z"/> <path fill="#AEA299" d="M5.3,4.1c0.1,0.2,0.2,0.5,0.3,0.7C5.8,5,5.9,5.2,6,5.4C6,5.5,6,5.6,6.1,5.7l0,0.1l0,0.2c0,0.2,0,0.4,0,0.5
		C6.1,6.7,6.1,6.9,6,7C5.9,7.3,5.8,7.6,5.6,7.7C5.5,7.9,5.4,7.9,5.4,7.9C5.3,8,5.3,8.1,5.4,8.2c0.1,0.1,0.2,0.2,0.3,0.1l0,0
		c0,0,0.1-0.1,0.3-0.2c0.2-0.2,0.4-0.4,0.6-0.8c0.2-0.4,0.3-0.9,0.3-1.4l0-0.2l0-0.2c0-0.1-0.1-0.3-0.1-0.4C6.6,4.8,6.5,4.6,6.4,4.4
		C6.2,4.2,6.1,4,6,3.8C5.9,3.6,5.9,3.3,5.9,3.2l0-0.2l0-0.1c0-0.1,0-0.2,0-0.3c0-0.2,0.1-0.3,0.2-0.5c0.1-0.3,0.3-0.5,0.5-0.6
		c0.1-0.1,0.3-0.2,0.3-0.2c0.1,0,0.2-0.1,0.1-0.3C6.9,1.1,6.7,1,6.6,1L6.6,1c0,0-0.1,0-0.4,0.1C6,1.3,5.7,1.5,5.5,1.8
		C5.3,2,5.2,2.2,5.2,2.5c0,0.1-0.1,0.3-0.1,0.4c0,0.1,0,0.1,0,0.2l0,0.2C5.1,3.6,5.2,3.8,5.3,4.1z"/> <path fill="#AEA299" d="M21.2,15.8c-0.7-3.5-3.2-6.4-6.6-7.6c0-0.1,0.1-0.3,0.1-0.4c0-1.7-1.3-3.3-3.1-3.3h0
		c-1.7,0-3.1,1.5-3.1,3.3c0,0.1,0,0.3,0,0.4c-3.4,1.1-5.9,4-6.6,7.6C0.7,16.1,0,17.3,0,18.5v0.4c0,1.6,1.1,2.7,2.6,2.7h17.9
		c1.6,0,2.4-1.1,2.4-2.7v-0.4C23,17.3,22.3,16.2,21.2,15.8z M22,18.9c0,0.6-0.8,0.7-1.4,0.7H2.6c-0.6,0-0.6,0-0.6-0.7v-0.4
		c0-0.6,0-0.9,0.6-0.9h0.7c0,0,0,0,0,0H15c0.3,0,0.5-0.2,0.5-0.5s-0.2-0.5-0.5-0.5H3.5c0.7-4,3.5-6.7,7.5-7.1V9.2
		c-1-0.2-0.7-0.7-0.7-1.2c0-0.8,0.6-1.4,1.3-1.4c0,0,0,0,0,0c0.8,0,1.2,0.6,1.2,1.4c0,0.5,0.2,0.9-0.8,1.2v0.3c4,0.3,7,3.1,7.7,7.1
		H18c-0.3,0-0.5,0.2-0.5,0.5s0.2,0.5,0.5,0.5h1.8c0,0,0,0,0,0h0.7c0.6,0,1.4,0.3,1.4,0.9V18.9z"/> </g> </symbol><symbol viewBox="0 0 19 25.1" id="shape-icon-three"><title>icon-three</title>  <g> <path fill="#AEA299" d="M18.1,23.3h-1.5v-2.6c0-2.7-1.5-5.1-4.1-6.9c-0.3-0.2-0.5-0.7-0.5-1.3s0.2-1,0.5-1.3
		c2.7-1.8,4.1-4.2,4.1-6.9V1.7h1.5c0.5,0,0.9-0.4,0.9-0.9S18.6,0,18.1,0H0.9C0.4,0,0,0.4,0,0.9c0,0.5,0.4,0.9,0.9,0.9h1.5v2.6
		c0,2.7,1.5,5.1,4.1,6.9C6.8,11.5,7,12,7,12.5c0,0.6-0.2,1-0.5,1.3c-2.7,1.8-4.1,4.2-4.1,6.9v2.6H0.9c-0.5,0-0.9,0.4-0.9,0.9
		c0,0.5,0.4,0.9,0.9,0.9h17.3c0.5,0,0.9-0.4,0.9-0.9C19,23.7,18.6,23.3,18.1,23.3z M4.1,20.7c0-2.8,2.1-4.6,3.4-5.5
		c0.8-0.5,1.3-1.5,1.3-2.7c0-1.1-0.5-2.1-1.3-2.7C6.2,9,4.1,7.2,4.1,4.4V1.7h10.9l0,2.6c0,2.8-2.1,4.6-3.4,5.5
		c-0.8,0.5-1.3,1.5-1.3,2.7c0,1.1,0.5,2.1,1.3,2.7c1.3,0.8,3.4,2.7,3.4,5.5v2.6H4.1V20.7z"/> </g> </symbol><symbol viewBox="0 0 16 13" id="shape-icon-twitter"><title>icon-twitter</title>  <g> <g> <g> <g> <g> <path d="M16,1.5c-0.6,0.3-1.2,0.4-1.9,0.5c0.7-0.4,1.2-1,1.4-1.8c-0.6,0.4-1.3,0.6-2.1,0.8
						c-0.6-0.6-1.5-1-2.4-1C9.3,0,7.8,1.5,7.8,3.3c0,0.3,0,0.5,0.1,0.7C5.2,3.9,2.7,2.6,1.1,0.6c-0.3,0.5-0.4,1-0.4,1.6
						c0,1.1,0.6,2.1,1.5,2.7c-0.5,0-1-0.2-1.5-0.4v0c0,1.6,1.1,2.9,2.6,3.2C3,7.9,2.7,7.9,2.4,7.9c-0.2,0-0.4,0-0.6-0.1
						c0.4,1.3,1.6,2.3,3.1,2.3c-1.1,0.9-2.5,1.4-4.1,1.4c-0.3,0-0.5,0-0.8,0C1.5,12.5,3.2,13,5,13c6,0,9.3-5,9.3-9.3l0-0.4
						C15,2.8,15.6,2.2,16,1.5z"/> </g> </g> </g> </g> </g> </symbol><symbol viewBox="0 0 18.5 30.7" id="shape-icon-two"><title>icon-two</title>  <g> <g> <path fill="#AEA299" d="M18.5,16.8c0-1.4-1-2.5-2.4-2.7c0.1-0.3,0.2-0.7,0.2-1c0-1.5-1.2-2.8-2.8-2.8c-0.9,0-1.7,0.4-2.2,1
			c-0.4-0.5-0.9-0.8-1.6-1V7.8c0-1.8,0.2-4.2,1.8-4.2h0c0.3,0,0.6,0.1,0.8,0.4c0.3,0.3,0.4,0.8,0.3,1.2c-0.1,0.3,0.1,0.6,0.4,0.7
			s0.6-0.1,0.7-0.4c0.2-0.7,0-1.6-0.5-2.2c-0.4-0.5-1-0.8-1.7-0.8h0c-0.8,0-1.4,0.3-1.8,0.7c0-0.1-0.1-0.2-0.1-0.3
			c-0.6-1.3-2-2.3-4-2.8C5.6,0,5.4,0,5.2,0.1C5.1,0.3,5,0.4,5,0.6c0,0,0,0.6-0.1,1.4C4.1,1.8,2.8,1.7,1.4,2.7
			C1.2,2.8,1.1,3.1,1.1,3.3l0,0c0,0,0,0,0,0c0,0,0,0,0,0C1.4,5,2.5,5.8,3.2,6.2C2.7,6.9,2.3,7.3,2.3,7.3C2.2,7.4,2.1,7.6,2.1,7.8
			c0,0.2,0.1,0.4,0.3,0.5c1.2,0.7,2.3,1,3.3,1c0.5,0,1-0.1,1.5-0.3c0.6-0.2,1.1-0.6,1.4-0.9v2.2c-0.6,0.1-1.2,0.5-1.6,1
			c-0.5-0.6-1.3-1-2.2-1c-1.5,0-2.8,1.2-2.8,2.8c0,0.4,0.1,0.7,0.2,1C1,14.2,0,15.4,0,16.8c0,1.4,1,2.5,2.4,2.7
			c-0.1,0.3-0.2,0.7-0.2,1c0,1.4,1,2.5,2.4,2.7c-0.1,0.3-0.2,0.7-0.2,1c0,1.4,1,2.5,2.4,2.7c-0.1,0.3-0.2,0.7-0.2,1
			c0,1.5,1.2,2.8,2.8,2.8S12,29.5,12,28c0-0.4-0.1-0.7-0.2-1c1.3-0.2,2.4-1.3,2.4-2.7c0-0.4-0.1-0.7-0.2-1c1.3-0.2,2.4-1.3,2.4-2.7
			c0-0.4-0.1-0.7-0.2-1C17.5,19.3,18.5,18.2,18.5,16.8z M13.6,11.5c0.9,0,1.6,0.7,1.6,1.6c0,0.9-0.7,1.6-1.6,1.6
			c-0.9,0-1.6-0.7-1.6-1.6C12,12.2,12.7,11.5,13.6,11.5z M11.4,15.2c0.9,0,1.6,0.7,1.6,1.6c0,0.9-0.7,1.6-1.6,1.6
			c-0.9,0-1.6-0.7-1.6-1.6C9.8,15.9,10.5,15.2,11.4,15.2z M10.8,20.5c0,0.9-0.7,1.6-1.6,1.6c-0.9,0-1.6-0.7-1.6-1.6
			c0-0.9,0.7-1.6,1.6-1.6C10.1,18.9,10.8,19.6,10.8,20.5z M6.8,7.9C5.9,8.2,4.9,8.1,3.7,7.6C4,7.2,4.3,6.8,4.6,6.2
			c0.1-0.2,0.1-0.4,0-0.5C4.6,5.5,4.4,5.4,4.2,5.4C4.2,5.4,2.9,5,2.4,3.5C3.8,2.7,5,3.3,5,3.4c0.2,0.1,0.4,0.1,0.5,0
			C5.7,3.3,5.9,3.2,5.9,3c0.2-0.6,0.2-1.2,0.3-1.6c1.2,0.4,2,1.1,2.4,1.9c0.6,1.2,0,2.7,0,2.7C8.6,6,8.1,7.4,6.8,7.9z M9.2,11.5
			c0.9,0,1.6,0.7,1.6,1.6c0,0.9-0.7,1.6-1.6,1.6c-0.9,0-1.6-0.7-1.6-1.6C7.7,12.2,8.4,11.5,9.2,11.5z M7.1,15.2
			c0.9,0,1.6,0.7,1.6,1.6c0,0.9-0.7,1.6-1.6,1.6s-1.6-0.7-1.6-1.6C5.5,15.9,6.2,15.2,7.1,15.2z M4.9,11.5c0.9,0,1.6,0.7,1.6,1.6
			c0,0.9-0.7,1.6-1.6,1.6S3.4,13.9,3.4,13C3.4,12.2,4.1,11.5,4.9,11.5z M2.8,18.3c-0.9,0-1.6-0.7-1.6-1.6c0-0.9,0.7-1.6,1.6-1.6
			s1.6,0.7,1.6,1.6C4.3,17.6,3.6,18.3,2.8,18.3z M4.9,22.1c-0.9,0-1.6-0.7-1.6-1.6c0-0.9,0.7-1.6,1.6-1.6s1.6,0.7,1.6,1.6
			C6.5,21.4,5.8,22.1,4.9,22.1z M7.1,25.8c-0.9,0-1.6-0.7-1.6-1.6c0-0.9,0.7-1.6,1.6-1.6s1.6,0.7,1.6,1.6
			C8.6,25.1,7.9,25.8,7.1,25.8z M9.2,29.5c-0.9,0-1.6-0.7-1.6-1.6c0-0.9,0.7-1.6,1.6-1.6c0.9,0,1.6,0.7,1.6,1.6
			C10.8,28.8,10.1,29.5,9.2,29.5z M11.4,25.8c-0.9,0-1.6-0.7-1.6-1.6c0-0.9,0.7-1.6,1.6-1.6s1.6,0.7,1.6,1.6
			C13,25.1,12.3,25.8,11.4,25.8z M13.6,22.1c-0.9,0-1.6-0.7-1.6-1.6c0-0.9,0.7-1.6,1.6-1.6c0.9,0,1.6,0.7,1.6,1.6
			C15.1,21.4,14.4,22.1,13.6,22.1z M15.7,18.3c-0.3,0-0.5-0.1-0.7-0.2c0,0,0,0,0,0l0,0c-0.5-0.3-0.8-0.8-0.8-1.4
			c0-0.9,0.7-1.6,1.6-1.6c0.9,0,1.6,0.7,1.6,1.6C17.3,17.6,16.6,18.3,15.7,18.3z"/> </g> </g> </symbol><symbol viewBox="0 0 927.3 1000" id="shape-icon-vina"><title>icon-vina</title>  <g> <path fill="#86754D" d="M400.8,461.8l-43-43.1H41.3L0,377.4V41.3c26.9-54.9,98.7-54.9,125.6,0l1.7,210.6l41.3,41.3h590.2l41.2-43
		l1.8-208.8c26.9-54.9,98.7-54.9,125.5,0l-1.7,336.2l-41.4,41.3H567.8l-41.4,43.1l-1.7,497.4c-27.7,55.3-97.5,54.2-123.9-1.7V461.8z
		"/> <polygon fill="#00AFAA" points="553.5,16.7 553.5,155.5 536.7,172.4 390.5,171.2 373.7,154.5 373.7,16.7 390.5,0 536,0 	"/> </g> </symbol><symbol viewBox="0 0 24 21.3" id="shape-icon-volume"><title>icon-volume</title>  <g> <path d="M10,1.6L5.4,5.1H1.2C0.6,5.1,0,5.6,0,6.3V15c0,0.7,0.6,1.2,1.2,1.2h4.2l4.6,3.4c0.8,0.6,2,0,2-1v-16
		C12,1.6,10.8,1,10,1.6z"/> <path d="M16.1,3.7c-0.6-0.6-1.5-0.6-2.1,0c-0.6,0.6-0.6,1.5,0,2.1c2.7,2.7,2.7,7.1,0,9.8c-0.6,0.6-0.6,1.5,0,2.1
		c0.3,0.3,0.7,0.4,1,0.4c0.4,0,0.7-0.1,1-0.4C19.9,13.8,19.9,7.5,16.1,3.7z"/> <path d="M17.7,0.4c-0.6,0.6-0.6,1.5,0,2.1c2.2,2.2,3.4,5.1,3.4,8.2s-1.2,6-3.4,8.2c-0.6,0.6-0.6,1.5,0,2.1
		c0.3,0.3,0.7,0.4,1,0.4c0.4,0,0.7-0.1,1-0.4c2.7-2.7,4.2-6.4,4.2-10.2s-1.5-7.5-4.2-10.2C19.2-0.1,18.3-0.1,17.7,0.4z"/> </g> </symbol><symbol viewBox="0 0 11.5 11.5" id="shape-reactor"><title>reactor</title>  <g> <g> <g> <path fill="#FFFFFF" d="M5.7,11.5C2.6,11.5,0,8.9,0,5.7S2.6,0,5.7,0s5.7,2.6,5.7,5.7S8.9,11.5,5.7,11.5z M5.7,2.6
				c-1.7,0-3.1,1.4-3.1,3.1s1.4,3.1,3.1,3.1s3.1-1.4,3.1-3.1S7.4,2.6,5.7,2.6z"/> </g> </g> </g> </symbol></svg>