<!-- Generator: Adobe Illustrator 19.1.0, SVG Export Plug-In  -->
<svg version="1.1"
	 xmlns="http://www.w3.org/2000/svg" xmlns:xlink="http://www.w3.org/1999/xlink" xmlns:a="http://ns.adobe.com/AdobeSVGViewerExtensions/3.0/"
	 x="0px" y="0px" width="18.5px" height="30.7px" viewBox="0 0 18.5 30.7" enable-background="new 0 0 18.5 30.7"
	 xml:space="preserve">
<defs>
</defs>
<g>
	<path fill="#AEA299" d="M18.5,16.8c0-1.4-1-2.5-2.4-2.7c0.1-0.3,0.2-0.7,0.2-1c0-1.5-1.2-2.8-2.8-2.8c-0.9,0-1.7,0.4-2.2,1
		c-0.4-0.5-0.9-0.8-1.6-1V7.8c0-1.8,0.2-4.2,1.8-4.2h0c0.3,0,0.6,0.1,0.8,0.4c0.3,0.3,0.4,0.8,0.3,1.2c-0.1,0.3,0.1,0.6,0.4,0.7
		s0.6-0.1,0.7-0.4c0.2-0.7,0-1.6-0.5-2.2c-0.4-0.5-1-0.8-1.7-0.8h0c-0.8,0-1.4,0.3-1.8,0.7c0-0.1-0.1-0.2-0.1-0.3
		c-0.6-1.3-2-2.3-4-2.8C5.6,0,5.4,0,5.2,0.1C5.1,0.3,5,0.4,5,0.6c0,0,0,0.6-0.1,1.4C4.1,1.8,2.8,1.7,1.4,2.7
		C1.2,2.8,1.1,3.1,1.1,3.3l0,0c0,0,0,0,0,0c0,0,0,0,0,0C1.4,5,2.5,5.8,3.2,6.2C2.7,6.9,2.3,7.3,2.3,7.3C2.2,7.4,2.1,7.6,2.1,7.8
		c0,0.2,0.1,0.4,0.3,0.5c1.2,0.7,2.3,1,3.3,1c0.5,0,1-0.1,1.5-0.3c0.6-0.2,1.1-0.6,1.4-0.9v2.2c-0.6,0.1-1.2,0.5-1.6,1
		c-0.5-0.6-1.3-1-2.2-1c-1.5,0-2.8,1.2-2.8,2.8c0,0.4,0.1,0.7,0.2,1C1,14.2,0,15.4,0,16.8c0,1.4,1,2.5,2.4,2.7
		c-0.1,0.3-0.2,0.7-0.2,1c0,1.4,1,2.5,2.4,2.7c-0.1,0.3-0.2,0.7-0.2,1c0,1.4,1,2.5,2.4,2.7c-0.1,0.3-0.2,0.7-0.2,1
		c0,1.5,1.2,2.8,2.8,2.8S12,29.5,12,28c0-0.4-0.1-0.7-0.2-1c1.3-0.2,2.4-1.3,2.4-2.7c0-0.4-0.1-0.7-0.2-1c1.3-0.2,2.4-1.3,2.4-2.7
		c0-0.4-0.1-0.7-0.2-1C17.5,19.3,18.5,18.2,18.5,16.8z M13.6,11.5c0.9,0,1.6,0.7,1.6,1.6c0,0.9-0.7,1.6-1.6,1.6
		c-0.9,0-1.6-0.7-1.6-1.6C12,12.2,12.7,11.5,13.6,11.5z M11.4,15.2c0.9,0,1.6,0.7,1.6,1.6c0,0.9-0.7,1.6-1.6,1.6
		c-0.9,0-1.6-0.7-1.6-1.6C9.8,15.9,10.5,15.2,11.4,15.2z M10.8,20.5c0,0.9-0.7,1.6-1.6,1.6c-0.9,0-1.6-0.7-1.6-1.6
		c0-0.9,0.7-1.6,1.6-1.6C10.1,18.9,10.8,19.6,10.8,20.5z M6.8,7.9C5.9,8.2,4.9,8.1,3.7,7.6C4,7.2,4.3,6.8,4.6,6.2
		c0.1-0.2,0.1-0.4,0-0.5C4.6,5.5,4.4,5.4,4.2,5.4C4.2,5.4,2.9,5,2.4,3.5C3.8,2.7,5,3.3,5,3.4c0.2,0.1,0.4,0.1,0.5,0
		C5.7,3.3,5.9,3.2,5.9,3c0.2-0.6,0.2-1.2,0.3-1.6c1.2,0.4,2,1.1,2.4,1.9c0.6,1.2,0,2.7,0,2.7C8.6,6,8.1,7.4,6.8,7.9z M9.2,11.5
		c0.9,0,1.6,0.7,1.6,1.6c0,0.9-0.7,1.6-1.6,1.6c-0.9,0-1.6-0.7-1.6-1.6C7.7,12.2,8.4,11.5,9.2,11.5z M7.1,15.2
		c0.9,0,1.6,0.7,1.6,1.6c0,0.9-0.7,1.6-1.6,1.6s-1.6-0.7-1.6-1.6C5.5,15.9,6.2,15.2,7.1,15.2z M4.9,11.5c0.9,0,1.6,0.7,1.6,1.6
		c0,0.9-0.7,1.6-1.6,1.6S3.4,13.9,3.4,13C3.4,12.2,4.1,11.5,4.9,11.5z M2.8,18.3c-0.9,0-1.6-0.7-1.6-1.6c0-0.9,0.7-1.6,1.6-1.6
		s1.6,0.7,1.6,1.6C4.3,17.6,3.6,18.3,2.8,18.3z M4.9,22.1c-0.9,0-1.6-0.7-1.6-1.6c0-0.9,0.7-1.6,1.6-1.6s1.6,0.7,1.6,1.6
		C6.5,21.4,5.8,22.1,4.9,22.1z M7.1,25.8c-0.9,0-1.6-0.7-1.6-1.6c0-0.9,0.7-1.6,1.6-1.6s1.6,0.7,1.6,1.6C8.6,25.1,7.9,25.8,7.1,25.8
		z M9.2,29.5c-0.9,0-1.6-0.7-1.6-1.6c0-0.9,0.7-1.6,1.6-1.6c0.9,0,1.6,0.7,1.6,1.6C10.8,28.8,10.1,29.5,9.2,29.5z M11.4,25.8
		c-0.9,0-1.6-0.7-1.6-1.6c0-0.9,0.7-1.6,1.6-1.6s1.6,0.7,1.6,1.6C13,25.1,12.3,25.8,11.4,25.8z M13.6,22.1c-0.9,0-1.6-0.7-1.6-1.6
		c0-0.9,0.7-1.6,1.6-1.6c0.9,0,1.6,0.7,1.6,1.6C15.1,21.4,14.4,22.1,13.6,22.1z M15.7,18.3c-0.3,0-0.5-0.1-0.7-0.2c0,0,0,0,0,0l0,0
		c-0.5-0.3-0.8-0.8-0.8-1.4c0-0.9,0.7-1.6,1.6-1.6c0.9,0,1.6,0.7,1.6,1.6C17.3,17.6,16.6,18.3,15.7,18.3z"/>
</g>
</svg>
