<!-- Generator: Adobe Illustrator 19.1.0, SVG Export Plug-In  -->
<svg version="1.1"
	 xmlns="http://www.w3.org/2000/svg" xmlns:xlink="http://www.w3.org/1999/xlink" xmlns:a="http://ns.adobe.com/AdobeSVGViewerExtensions/3.0/"
	 x="0px" y="0px" width="23.6px" height="21.8px" viewBox="0 0 23.6 21.8" enable-background="new 0 0 23.6 21.8"
	 xml:space="preserve">
<defs>
</defs>
<g>
	<g>
		<path fill="#AEA299" d="M19.6,0.9c0,0-0.1,0.1-0.3,0.2c-0.2,0.1-0.4,0.3-0.5,0.6c-0.1,0.1-0.1,0.3-0.2,0.5c0,0.1,0,0.2,0,0.3
			l0,0.1l0,0.2c0,0.2,0.1,0.4,0.2,0.6c0.1,0.2,0.2,0.4,0.3,0.7c0.1,0.2,0.2,0.5,0.3,0.8c0.1,0.1,0.1,0.3,0.1,0.4l0.1,0.2l0,0.2
			c0,0.3,0,0.6,0,0.8c-0.1,0.3-0.1,0.5-0.2,0.7c-0.2,0.4-0.5,0.7-0.7,0.9c-0.2,0.2-0.3,0.2-0.3,0.2l0,0c-0.1,0.1-0.3,0-0.4-0.1
			c-0.1-0.1,0-0.2,0.1-0.3c0,0,0.1-0.1,0.2-0.2c0.1-0.2,0.3-0.4,0.4-0.7c0.1-0.2,0.1-0.3,0.1-0.5c0-0.2,0-0.4,0-0.6l0-0.2l0-0.1
			c0-0.1-0.1-0.2-0.1-0.3c-0.1-0.2-0.2-0.4-0.3-0.7C18.3,4.2,18.2,4,18,3.7c-0.1-0.3-0.2-0.5-0.2-0.9l0-0.2c0-0.1,0-0.2,0-0.2
			c0-0.1,0-0.3,0.1-0.4c0.1-0.3,0.2-0.5,0.3-0.7c0.3-0.4,0.6-0.6,0.8-0.8c0.3-0.1,0.4-0.2,0.4-0.2l0.1,0c0.1,0,0.3,0.1,0.3,0.2
			C19.8,0.7,19.7,0.8,19.6,0.9z"/>
	</g>
	<g>
		<path fill="#AEA299" d="M22,0.5c0,0-0.1,0.1-0.3,0.2c-0.1,0.1-0.3,0.3-0.5,0.6c-0.1,0.1-0.1,0.3-0.2,0.5c0,0.1,0,0.2,0,0.3L21,2
			l0,0.2c0,0.2,0.1,0.4,0.2,0.6c0.1,0.2,0.2,0.4,0.3,0.6c0.1,0.2,0.2,0.5,0.3,0.7c0,0.1,0.1,0.3,0.1,0.4l0,0.2l0,0.2
			c0.1,0.6-0.1,1-0.3,1.4c-0.2,0.4-0.4,0.6-0.6,0.8c-0.2,0.2-0.3,0.2-0.3,0.2l0,0c-0.1,0.1-0.3,0-0.3-0.1c-0.1-0.1,0-0.2,0-0.3
			c0,0,0.1-0.1,0.2-0.2C21,6.6,21.1,6.3,21.2,6c0.1-0.2,0.1-0.3,0.1-0.5c0-0.2,0-0.4,0-0.5l0-0.2l0-0.1c0-0.1-0.1-0.2-0.1-0.3
			C21.1,4.2,21,4,20.8,3.8c-0.1-0.2-0.2-0.4-0.3-0.7c-0.1-0.3-0.2-0.5-0.2-0.8l0-0.2c0-0.1,0-0.1,0-0.2c0-0.1,0-0.3,0.1-0.4
			c0.1-0.2,0.2-0.5,0.3-0.6c0.2-0.4,0.5-0.6,0.8-0.7C21.7,0,21.8,0,21.8,0l0.1,0c0.1,0,0.3,0.1,0.3,0.2C22.1,0.3,22,0.4,22,0.5z"/>
	</g>
	<g>
		<path fill="#AEA299" d="M4.6,1.9c0,0-0.1,0.1-0.3,0.2C4.2,2.2,4,2.4,3.8,2.7C3.7,2.8,3.7,3,3.6,3.2c0,0.1,0,0.2,0,0.3l0,0.1l0,0.2
			c0,0.2,0.1,0.4,0.2,0.6C3.9,4.6,4,4.8,4.2,5.1c0.1,0.2,0.2,0.5,0.3,0.8C4.6,6,4.6,6.1,4.6,6.2l0.1,0.2l0,0.2c0,0.3,0,0.6,0,0.8
			C4.6,7.8,4.5,8,4.4,8.2C4.3,8.6,4,8.9,3.8,9.1C3.6,9.2,3.5,9.3,3.5,9.3l0,0c-0.1,0.1-0.3,0-0.4-0.1C3,9.1,3.1,9,3.2,8.9
			c0,0,0.1-0.1,0.2-0.2c0.1-0.2,0.3-0.4,0.4-0.7c0.1-0.2,0.1-0.3,0.1-0.5c0-0.2,0-0.4,0-0.6l0-0.2l0-0.1c0-0.1-0.1-0.2-0.1-0.3
			C3.6,5.9,3.5,5.7,3.4,5.5C3.3,5.2,3.2,5,3,4.7C2.9,4.4,2.9,4.2,2.8,3.8l0-0.2c0-0.1,0-0.2,0-0.2c0-0.1,0-0.3,0.1-0.4
			c0.1-0.3,0.2-0.5,0.3-0.7C3.4,1.9,3.8,1.7,4,1.5c0.3-0.1,0.4-0.2,0.4-0.2l0.1,0c0.1,0,0.3,0.1,0.3,0.2C4.8,1.7,4.7,1.8,4.6,1.9z"
			/>
	</g>
	<g>
		<path fill="#AEA299" d="M7,1.5c0,0-0.1,0.1-0.3,0.2C6.5,1.7,6.4,1.9,6.2,2.2C6.1,2.3,6.1,2.5,6,2.6c0,0.1,0,0.2,0,0.3L6,3l0,0.2
			c0,0.2,0.1,0.4,0.2,0.6C6.3,4,6.4,4.2,6.5,4.4c0.1,0.2,0.2,0.5,0.3,0.7C6.9,5.2,7,5.3,7,5.5l0,0.2l0,0.2c0.1,0.6-0.1,1-0.3,1.4
			C6.6,7.7,6.4,7.9,6.2,8.1C6,8.2,5.9,8.3,5.9,8.3l0,0c-0.1,0.1-0.3,0-0.3-0.1c-0.1-0.1,0-0.2,0-0.3c0,0,0.1-0.1,0.2-0.2
			C6,7.6,6.1,7.3,6.2,7c0.1-0.2,0.1-0.3,0.1-0.5c0-0.2,0-0.4,0-0.5l0-0.2l0-0.1c0-0.1-0.1-0.2-0.1-0.3C6.1,5.2,6,5,5.8,4.8
			C5.7,4.5,5.6,4.3,5.5,4.1C5.4,3.8,5.3,3.6,5.3,3.3l0-0.2c0-0.1,0-0.1,0-0.2c0-0.1,0-0.3,0.1-0.4C5.4,2.2,5.5,2,5.7,1.8
			c0.2-0.4,0.5-0.6,0.8-0.7C6.7,1,6.8,1,6.8,1l0.1,0c0.1,0,0.3,0.1,0.3,0.2C7.1,1.3,7,1.4,7,1.5z"/>
	</g>
	<g>
		<g>
			<g>
				<path fill="#AEA299" d="M11.8,6.6c0.8,0,1.4,0.6,1.4,1.4c0,0.5-0.3,0.9-0.7,1.2v0.3c4.1,0.4,7.4,3.7,7.5,7.9h0.7
					c0.6,0,1.1,0.5,1.1,1.1v0.4c0,0.6-0.5,1.1-1.1,1.1H2.8c-0.6,0-1.1-0.5-1.1-1.1v-0.4c0-0.6,0.5-1.1,1.1-1.1h0.7
					c0.2-4.2,3.4-7.5,7.5-7.9V9.2c-0.4-0.2-0.7-0.7-0.7-1.2C10.4,7.2,11,6.6,11.8,6.6C11.8,6.6,11.8,6.6,11.8,6.6 M11.8,4.9
					L11.8,4.9c-1.7,0-3.1,1.4-3.1,3.1c0,0.1,0,0.2,0,0.3c-3.4,1.1-6,4-6.7,7.6c-1.2,0.4-2,1.4-2,2.7v0.4c0,1.6,1.3,2.8,2.8,2.8h17.9
					c1.6,0,2.8-1.3,2.8-2.8v-0.4c0-1.3-0.8-2.3-2-2.7c-0.7-3.5-3.3-6.4-6.7-7.6c0-0.1,0-0.2,0-0.3C14.9,6.3,13.5,4.9,11.8,4.9
					L11.8,4.9z"/>
			</g>
		</g>
	</g>
	<line fill="none" stroke="#AEA299" stroke-linecap="round" stroke-miterlimit="10" x1="2.2" y1="17.2" x2="15.2" y2="17.2"/>
	<line fill="none" stroke="#AEA299" stroke-linecap="round" stroke-miterlimit="10" x1="18.2" y1="17.2" x2="21.2" y2="17.2"/>
</g>
</svg>
