<!-- Generator: Adobe Illustrator 19.1.0, SVG Export Plug-In  -->
<svg version="1.1"
	 xmlns="http://www.w3.org/2000/svg" xmlns:xlink="http://www.w3.org/1999/xlink" xmlns:a="http://ns.adobe.com/AdobeSVGViewerExtensions/3.0/"
	 x="0px" y="0px" width="22.1px" height="29px" viewBox="0 0 22.1 29" enable-background="new 0 0 22.1 29" xml:space="preserve">
<defs>
</defs>
<g>
	
		<path fill="none" stroke="#AEA299" stroke-width="1.7105" stroke-linecap="round" stroke-linejoin="round" stroke-miterlimit="10" d="
		M10.9,28.1c4.2,0,7.9-1.3,10.4-3.4c-0.2-3.3-4.7-5.9-10.2-5.9c-5.6,0-10.2,2.7-10.2,6.1c0,0,0,0,0,0.1C3.3,26.9,6.9,28.1,10.9,28.1
		"/>
	<g>
		<path fill="#AEA299" d="M9.1,13.9l0,4.6c0,0.4-0.6,0.8-1,0.8c-0.4,0-1-0.3-1-0.8v0l0.3-4.6c0-0.4,0.5-0.8,0.9-0.7
			C8.7,13.2,9.1,13.5,9.1,13.9z"/>
	</g>
	
		<path fill="none" stroke="#AEA299" stroke-width="1.7105" stroke-linecap="round" stroke-linejoin="round" stroke-miterlimit="10" d="
		M12.4,8c0.1-0.2,0.1-0.4,0.1-0.5c0-0.2,0-0.3-0.1-0.5c0-0.2,0.1-0.3,0.1-0.5c0-0.8-0.6-1.5-1.4-1.7c0.3-0.3,0.4-0.7,0.4-1.1
		c0-1-0.8-1.8-1.8-1.8c-0.1,0-0.2,0-0.3,0c-0.3-0.6-0.9-1-1.6-1c-1,0-1.8,0.8-1.8,1.8c0,0,0,0.1,0,0.1c0,0-0.1,0-0.1,0
		c-1,0-1.8,0.8-1.8,1.8c0,0.4,0.2,0.8,0.4,1.1C3.8,5.9,3.2,6.6,3.2,7.4c0,0.3,0.1,0.5,0.2,0.7c-0.7,0.6-1.1,1.5-1.1,2.5
		c0,1.9,1.5,3.4,3.4,3.4c0.1,0,0.1,0,0.2,0c0.1,0,0.1,0,0.2,0c0.3,0,0.6-0.1,0.9-0.2c0.2-0.1,0.5-0.2,0.7-0.3
		C7.9,13.7,8.3,14,8.8,14c0.2,0,0.5,0,0.7-0.1c0.3,0.1,0.6,0.1,0.9,0.1c1.9,0,3.4-1.5,3.4-3.4C13.8,9.5,13.2,8.6,12.4,8z"/>
	<path fill="#AEA299" d="M16.2,21.4c-0.1-0.4-0.3-0.8-0.4-1.2c-0.2-0.4-0.4-0.7-0.6-0.9c-0.2-0.2-0.3-0.4-0.5-0.5
		c-0.6,0-1.1-0.1-1.6-0.3l-0.1,0.3c0,0,0.1,0,0.1,0.1c0,0,0.1,0.1,0.2,0.2c0.2,0.2,0.4,0.6,0.5,1c0.1,0.2,0.1,0.5,0.1,0.7
		c0,0.3,0,0.6,0,0.9c0,0.3-0.1,0.6-0.2,0.9c-0.1,0.3-0.2,0.6-0.3,0.9c-0.2,0.6-0.5,1.2-0.8,1.8c-0.3,0.6-0.7,1.1-0.9,1.5
		c-0.6,0.9-1,1.4-1,1.4l3.2-0.2l2.5-0.1c0.1-0.6,0.2-0.7,0.2-1.5c0-0.4,0.1-0.8,0.1-1.2c0-0.4,0-0.9,0-1.3c0-0.5,0-0.9-0.1-1.3
		C16.4,22.2,16.4,21.8,16.2,21.4z"/>
</g>
</svg>
