<!-- Generator: Adobe Illustrator 19.1.0, SVG Export Plug-In  -->
<svg version="1.1"
	 xmlns="http://www.w3.org/2000/svg" xmlns:xlink="http://www.w3.org/1999/xlink" xmlns:a="http://ns.adobe.com/AdobeSVGViewerExtensions/3.0/"
	 x="0px" y="0px" width="19px" height="25.1px" viewBox="0 0 19 25.1" enable-background="new 0 0 19 25.1" xml:space="preserve">
<defs>
</defs>
<path fill="#AEA299" d="M18.1,23.3h-1.5v-2.6c0-2.7-1.5-5.1-4.1-6.9c-0.3-0.2-0.5-0.7-0.5-1.3s0.2-1,0.5-1.3
	c2.7-1.8,4.1-4.2,4.1-6.9V1.7h1.5c0.5,0,0.9-0.4,0.9-0.9S18.6,0,18.1,0H0.9C0.4,0,0,0.4,0,0.9c0,0.5,0.4,0.9,0.9,0.9h1.5v2.6
	c0,2.7,1.5,5.1,4.1,6.9C6.8,11.5,7,12,7,12.5c0,0.6-0.2,1-0.5,1.3c-2.7,1.8-4.1,4.2-4.1,6.9v2.6H0.9c-0.5,0-0.9,0.4-0.9,0.9
	c0,0.5,0.4,0.9,0.9,0.9h17.3c0.5,0,0.9-0.4,0.9-0.9C19,23.7,18.6,23.3,18.1,23.3z M4.1,20.7c0-2.8,2.1-4.6,3.4-5.5
	c0.8-0.5,1.3-1.5,1.3-2.7c0-1.1-0.5-2.1-1.3-2.7C6.2,9,4.1,7.2,4.1,4.4V1.7h10.9l0,2.6c0,2.8-2.1,4.6-3.4,5.5
	c-0.8,0.5-1.3,1.5-1.3,2.7c0,1.1,0.5,2.1,1.3,2.7c1.3,0.8,3.4,2.7,3.4,5.5v2.6H4.1V20.7z"/>
</svg>
