<!-- Generator: Adobe Illustrator 19.1.0, SVG Export Plug-In  -->
<svg version="1.1"
	 xmlns="http://www.w3.org/2000/svg" xmlns:xlink="http://www.w3.org/1999/xlink" xmlns:a="http://ns.adobe.com/AdobeSVGViewerExtensions/3.0/"
	 x="0px" y="0px" width="16.8px" height="22.8px" viewBox="0 0 16.8 22.8" enable-background="new 0 0 16.8 22.8"
	 xml:space="preserve">
<defs>
</defs>
<g>
	<g>
		<path fill="#AEA299" d="M4.7,3.2c0,0-0.1,0-0.2,0.1C4.3,3.4,4.2,3.5,4,3.7C3.6,4,3,4.5,2.6,5.3C2.4,5.7,2.3,6.1,2.2,6.6
			c0,0.2-0.1,0.5-0.1,0.7c0,0.1,0,0.3,0,0.3c0,0.2,0,0.3,0.1,0.5c0.1,0.4,0.3,1.1,0.5,1.6c0.2,0.6,0.6,1.2,0.9,1.8
			c0.3,0.6,0.6,1.3,0.9,2c0.1,0.4,0.3,0.7,0.4,1.1L5,15.2l0.1,0.5c0.1,0.8,0,1.5-0.1,2.2c-0.1,0.7-0.4,1.3-0.6,1.8
			c-0.5,1.1-1.2,1.8-1.7,2.3c-0.3,0.2-0.5,0.4-0.6,0.5c-0.2,0.1-0.2,0.2-0.2,0.2c-0.3,0.2-0.7,0.1-0.9-0.2c-0.2-0.3-0.1-0.7,0.1-0.9
			l0,0c0,0,0.2-0.2,0.6-0.6c0.4-0.4,0.8-1.1,1.1-1.9c0.2-0.4,0.3-0.9,0.3-1.4c0.1-0.5,0.1-1.1,0-1.6l-0.1-0.5l-0.1-0.4
			c-0.1-0.3-0.2-0.6-0.3-0.8c-0.2-0.6-0.5-1.2-0.9-1.8c-0.3-0.6-0.6-1.3-0.9-2C0.4,9.9,0.1,9.2,0,8.3C0,8.2,0,8,0,7.8
			c0-0.3,0-0.4,0-0.6c0-0.4,0.1-0.8,0.2-1.1C0.4,5.4,0.7,4.8,1,4.3c0.7-1,1.5-1.6,2.2-2C3.5,2.2,3.8,2.1,3.9,2C4.1,2,4.2,2,4.2,2
			C4.5,1.8,4.9,2,5.1,2.4C5.2,2.7,5,3.1,4.7,3.2z"/>
	</g>
	<g>
		<path fill="#AEA299" d="M10.6,2.2c0,0-0.1,0-0.2,0.1c-0.2,0.1-0.3,0.2-0.5,0.3C9.5,2.9,9,3.4,8.6,4.1C8.4,4.5,8.3,4.9,8.2,5.4
			c0,0.2-0.1,0.5-0.1,0.7c0,0.1,0,0.3,0,0.3c0,0.1,0,0.3,0.1,0.4c0.1,0.4,0.3,1,0.5,1.5c0.2,0.5,0.5,1.1,0.8,1.7
			c0.3,0.6,0.6,1.2,0.9,1.9c0.1,0.3,0.2,0.7,0.3,1l0.1,0.6l0.1,0.5c0.1,0.8,0,1.4-0.1,2.1c-0.1,0.6-0.3,1.2-0.6,1.7
			c-0.5,1-1.1,1.7-1.6,2.2c-0.2,0.2-0.5,0.4-0.6,0.5c-0.1,0.1-0.2,0.1-0.2,0.1c-0.3,0.2-0.7,0.1-0.9-0.2c-0.2-0.3-0.1-0.6,0.1-0.8
			l0,0c0,0,0.2-0.2,0.6-0.6c0.3-0.4,0.7-1,1-1.8c0.2-0.4,0.3-0.9,0.3-1.3c0.1-0.5,0-1,0-1.5l-0.1-0.5l-0.1-0.4
			c-0.1-0.3-0.2-0.5-0.3-0.8c-0.2-0.5-0.5-1.1-0.8-1.7C7.3,10.5,7,9.9,6.8,9.2C6.5,8.5,6.3,7.9,6.2,7.1c0-0.2,0-0.3,0-0.5
			c0-0.2,0-0.4,0-0.6c0-0.4,0.1-0.7,0.2-1c0.2-0.7,0.5-1.2,0.8-1.7c0.6-1,1.5-1.5,2-1.9c0.3-0.2,0.6-0.3,0.7-0.3C10,1,10.1,1,10.1,1
			c0.3-0.1,0.7,0.1,0.8,0.4C11,1.7,10.9,2,10.6,2.2z"/>
	</g>
	<g>
		<path fill="#AEA299" d="M16.5,1.1c0,0-0.1,0-0.2,0.1c-0.2,0.1-0.2,0.2-0.4,0.3c-0.4,0.3-0.8,0.7-1.2,1.4c-0.2,0.3-0.3,0.7-0.4,1.1
			c0,0.2-0.1,0.4-0.1,0.6c0,0.1,0,0.2,0,0.3c0,0.1,0,0.3,0,0.4c0.1,0.4,0.2,0.9,0.5,1.4c0.2,0.5,0.5,1,0.8,1.6
			c0.3,0.5,0.6,1.1,0.8,1.7c0.1,0.3,0.2,0.6,0.3,1l0.1,0.5l0.1,0.4c0.1,0.7,0,1.3-0.1,1.9c-0.1,0.6-0.3,1.1-0.5,1.6
			c-0.4,0.9-1.1,1.6-1.5,2c-0.2,0.2-0.4,0.3-0.6,0.4c-0.1,0.1-0.2,0.1-0.2,0.1c-0.3,0.2-0.6,0.1-0.8-0.2c-0.2-0.3-0.1-0.6,0.1-0.8
			l0,0c0,0,0.2-0.2,0.5-0.5c0.3-0.4,0.7-0.9,1-1.7c0.1-0.4,0.3-0.8,0.3-1.2c0.1-0.4,0-1,0-1.4L14.8,12l-0.1-0.3
			c-0.1-0.2-0.2-0.5-0.3-0.7c-0.2-0.5-0.5-1-0.8-1.6c-0.3-0.5-0.6-1.1-0.8-1.7c-0.3-0.6-0.4-1.2-0.5-2c0-0.2,0-0.3,0-0.4
			c0-0.2,0-0.4,0-0.5c0-0.3,0.1-0.7,0.2-1c0.2-0.6,0.4-1.1,0.7-1.6c0.6-0.9,1.3-1.4,1.9-1.7c0.3-0.1,0.6-0.3,0.7-0.3
			C15.9,0.1,16,0,16,0c0.3-0.1,0.7,0.1,0.8,0.4C16.9,0.7,16.7,1,16.5,1.1z"/>
	</g>
</g>
</svg>
