<!-- Generator: Adobe Illustrator 19.1.0, SVG Export Plug-In  -->
<svg version="1.1"
	 xmlns="http://www.w3.org/2000/svg" xmlns:xlink="http://www.w3.org/1999/xlink" xmlns:a="http://ns.adobe.com/AdobeSVGViewerExtensions/3.0/"
	 x="0px" y="0px" width="17.6px" height="26.4px" viewBox="0 0 17.6 26.4" enable-background="new 0 0 17.6 26.4"
	 xml:space="preserve">
<defs>
</defs>
<g>
	
		<path fill="none" stroke="#AEA299" stroke-width="1.7105" stroke-linecap="round" stroke-linejoin="round" stroke-miterlimit="10" d="
		M1.3,1.5c0,0-3.2,11.5,7.5,11.5"/>
	
		<path fill="none" stroke="#AEA299" stroke-width="1.7105" stroke-linecap="round" stroke-linejoin="round" stroke-miterlimit="10" d="
		M16.4,1.5c0,0,3.2,11.5-7.5,11.5"/>
	<ellipse fill="none" stroke="#AEA299" stroke-width="0.9897" stroke-miterlimit="10" cx="8.8" cy="1.4" rx="7.5" ry="0.9"/>
	<path fill="#AEA299" d="M3.1,5.7c0-0.3,0.3-0.5,0.6-0.3C4.5,5.8,6.2,6.4,9,5.9c2.4-0.4,4.5-0.5,5.4-0.5c0.2,0,0.4,0.2,0.4,0.4
		c-0.2,1.3-1.1,5.3-5.8,5.3C9,11.2,3.1,11.4,3.1,5.7z"/>
	<g>
		<path fill="#AEA299" d="M9.9,13.6L10.3,25c0,0.8-0.7,1.4-1.5,1.4c-0.8,0-1.6-0.6-1.6-1.3c0,0,0-0.1,0-0.1l0.5-11.3
			c0-0.5,0.5-1,1.1-0.9C9.4,12.7,9.9,13.1,9.9,13.6z"/>
	</g>
	<ellipse fill="#AEA299" cx="9.3" cy="25.5" rx="7.1" ry="0.9"/>
</g>
</svg>
