<!-- Generator: Adobe Illustrator 19.1.0, SVG Export Plug-In  -->
<svg version="1.1"
	 xmlns="http://www.w3.org/2000/svg" xmlns:xlink="http://www.w3.org/1999/xlink" xmlns:a="http://ns.adobe.com/AdobeSVGViewerExtensions/3.0/"
	 x="0px" y="0px" width="10.1px" height="27.8px" viewBox="0 0 10.1 27.8" enable-background="new 0 0 10.1 27.8"
	 xml:space="preserve">
<defs>
</defs>
<g>
	
		<path fill="none" stroke="#AEA299" stroke-width="1.7105" stroke-linecap="round" stroke-linejoin="round" stroke-miterlimit="10" d="
		M8,26.9H2.1c-0.7,0-1.2-0.6-1.2-1.2V12.3c0,0,0,0,0-0.1l0,0C0.9,10.5,2,9,3.6,8.4V1.2c0-0.2,0.1-0.3,0.3-0.3h2.3
		c0.2,0,0.3,0.1,0.3,0.3v7.2c1.6,0.6,2.7,2.1,2.7,3.8l0,0c0,0,0,0,0,0.1v13.4C9.2,26.3,8.7,26.9,8,26.9z"/>
	<line fill="none" stroke="#AEA299" stroke-miterlimit="10" x1="1.2" y1="12.1" x2="9.2" y2="12.1"/>
	<line fill="none" stroke="#AEA299" stroke-miterlimit="10" x1="1.2" y1="21.1" x2="9.2" y2="21.1"/>
	
		<line fill="none" stroke="#AEA299" stroke-linecap="round" stroke-linejoin="round" stroke-miterlimit="10" x1="2.7" y1="13.6" x2="2.7" y2="19.6"/>
</g>
</svg>
