<!-- Generator: Adobe Illustrator 19.1.0, SVG Export Plug-In  -->
<svg version="1.1"
	 xmlns="http://www.w3.org/2000/svg" xmlns:xlink="http://www.w3.org/1999/xlink" xmlns:a="http://ns.adobe.com/AdobeSVGViewerExtensions/3.0/"
	 x="0px" y="0px" width="30.2px" height="13.9px" viewBox="0 0 30.2 13.9" enable-background="new 0 0 30.2 13.9"
	 xml:space="preserve">
<defs>
</defs>
<g>
	<path fill="#AEA299" d="M30,6.1c0.3-0.3,0.3-0.7,0-1c-0.3-0.3-0.7-0.3-1,0c-0.4,0.4-0.8,0.6-1.3,0.6c-1.5,0-2.7-1.3-4-2.6
		c-1.1-1.1-2.2-2.3-3.7-2.9c-1.6-0.6-3.2-0.4-5,0.7c-1.8-1.1-3.5-1.3-5-0.7C8.6,0.9,7.5,2.1,6.4,3.2c-1.3,1.3-2.5,2.6-4,2.6
		C1.9,5.7,1.5,5.5,1.2,5.2c-0.3-0.3-0.7-0.3-1,0c-0.3,0.3-0.3,0.7,0,1c0.6,0.6,1.3,0.9,2,1c0,0,0.1,0,0.1,0c1,0.1,2.1-0.1,3.2-0.3
		c1.1-0.2,2.3-0.5,3.6-0.5c1.1,0,1.9,0.5,2.7,1c0.9,0.5,1.9,1.1,3.2,1.1s2.4-0.6,3.2-1.1c0.8-0.5,1.6-1,2.7-1c1.3,0,2.5,0.3,3.6,0.5
		c1.1,0.2,2.2,0.5,3.2,0.3c0,0,0.1,0,0.1,0C28.7,7.1,29.4,6.8,30,6.1z M17.6,6.2c-0.8,0.5-1.5,0.9-2.5,0.9s-1.7-0.4-2.5-0.9
		C11.7,5.6,10.7,5,9.2,5c-1.1,0-2,0.1-2.9,0.3C6.6,4.9,7,4.5,7.4,4.1c2.1-2.2,3.9-4,7.3-1.7c0.2,0.2,0.5,0.2,0.8,0
		C19,0.1,20.8,2,22.8,4.1c0.4,0.4,0.8,0.8,1.1,1.1C23.1,5.1,22.1,5,21.1,5C19.6,5,18.5,5.6,17.6,6.2z"/>
	<path fill="#AEA299" d="M23.7,7.6c-0.3-0.2-0.7,0-0.9,0.3c-1.5,2.8-4.4,4.6-7.6,4.6S9,10.7,7.5,7.9C7.3,7.5,6.9,7.4,6.6,7.6
		C6.2,7.8,6.1,8.2,6.3,8.5c1.7,3.3,5.1,5.3,8.9,5.3s7.1-2,8.9-5.3C24.1,8.2,24,7.8,23.7,7.6z"/>
</g>
</svg>
